<?xml version="1.0" encoding="UTF-8"?>
<svg id="logosandtypes_com" data-name="logosandtypes com" xmlns="http://www.w3.org/2000/svg" viewBox="0 0 150 150">
  <defs>
    <style>
      .cls-1 {
        fill: none;
      }
    </style>
  </defs>
  <path class="cls-1" d="M0,0H150V150H0V0Z"/>
  <path d="M104.3,130v-53.7c0-16.62-13.56-30.19-30.19-30.19s-30.19,13.56-30.19,30.19,13.56,30.19,30.19,30.19c6.46,0,12.8-2.08,18.05-6.02v-11.16c-7.22,9.95-21.11,12.25-31.18,5.14-10.07-7.11-12.25-21.11-5.14-31.18,7.11-10.07,21.11-12.25,31.18-5.14,5.79,4.16,9.3,10.93,9.3,18.05v52.29s7.99,1.53,7.99,1.53Z"/>
  <path d="M116.43,132.29v-56.01c0-23.29-19.03-42.22-42.33-42.11-23.29,0-42.22,19.03-42.11,42.33,0,23.29,19.03,42.22,42.33,42.11,6.23,0,12.36-1.43,17.94-4.05v-8.96c-16.18,9.95-37.41,5.03-47.36-11.16-9.95-16.18-5.03-37.41,11.16-47.36,16.18-9.95,37.41-5.03,47.36,11.16,3.4,5.47,5.14,11.71,5.14,18.05v54.58s7.87,1.43,7.87,1.43Z"/>
  <path d="M128.47,134.49v-58.19c0-30.07-24.39-54.37-54.47-54.37S19.63,46.32,19.63,76.41s24.39,54.37,54.47,54.37c6.13,0,12.25-1.09,18.05-3.06v-8.54c-23.63,9.95-50.97-1.09-60.92-24.72-9.95-23.63,1.09-50.97,24.72-60.92,23.63-9.95,50.97,1.09,60.92,24.72,2.41,5.69,3.72,11.92,3.72,18.05v56.76l7.87,1.43h.02Z"/>
  <path d="M74.21,142.8c11.16,0,22.1-2.85,31.83-8.2l-13.89-2.62c-30.85,9.95-63.88-6.89-73.82-37.62C8.26,63.5,25.11,30.47,55.95,20.53c30.85-9.95,63.88,6.89,73.82,37.62,1.87,5.79,2.85,11.92,2.85,18.05v59.07l7.87,1.43v-60.37c0-36.75-29.86-66.39-66.5-66.39S7.61,39.79,7.61,76.42c.11,36.75,29.97,66.39,66.61,66.39v-.02Z"/>
</svg>