<?xml version="1.0" encoding="UTF-8"?>
<svg version="1.1" xmlns="http://www.w3.org/2000/svg" width="250" height="305">
<path d="M0 0 C27.32069429 -0.28052438 54.64117225 -0.49203099 81.96301746 -0.62174606 C94.64958193 -0.68358069 107.33525073 -0.76785685 120.02124023 -0.90527344 C131.080524 -1.02501203 142.13915905 -1.10232931 153.19907302 -1.12906194 C159.05374233 -1.14468536 164.90655611 -1.18130522 170.76062965 -1.26876068 C176.27614452 -1.3504873 181.78904806 -1.37528682 187.30511093 -1.35729218 C189.32439454 -1.36058167 191.3437694 -1.38429793 193.36252785 -1.4304657 C209.38437261 -1.77876598 209.38437261 -1.77876598 214.56102562 2.59856415 C217.41345854 5.46875874 219.69321579 8.67899367 222 12 C223.42725142 13.58479858 224.87678404 15.15032188 226.36328125 16.6796875 C227.02263672 17.3809375 227.68199219 18.0821875 228.36132812 18.8046875 C229.3271582 19.82949219 229.3271582 19.82949219 230.3125 20.875 C230.97572266 21.58140625 231.63894531 22.2878125 232.32226562 23.015625 C232.97517578 23.70914062 233.62808594 24.40265625 234.30078125 25.1171875 C234.86966064 25.72159668 235.43854004 26.32600586 236.0246582 26.94873047 C238.09396646 29.17738031 238.09396646 29.17738031 241.08088684 31.52911377 C244.34544845 34.81651849 244.70116715 37.36895952 244.746521 41.90226746 C244.72494934 42.78771744 244.70337769 43.67316742 244.68115234 44.58544922 C244.68246658 46.00590797 244.68246658 46.00590797 244.68380737 47.45506287 C244.67964073 50.57245544 244.63303132 53.68767277 244.5859375 56.8046875 C244.57474211 58.9708641 244.56620354 61.13705593 244.56021118 63.30325317 C244.53734018 68.99509887 244.47843066 74.68602084 244.4119873 80.37750244 C244.3397161 87.21142488 244.31225063 94.04565679 244.27726746 100.87985229 C244.21915154 111.25387661 244.10416562 121.62587558 244 132 C226.84 137.61 209.68 143.22 192 149 C198.54490392 151.61796157 204.96421187 154.06500364 211.65625 156.19921875 C212.52519897 156.47973587 213.39414795 156.76025299 214.28942871 157.04927063 C217.0252391 157.93197144 219.76250415 158.81004172 222.5 159.6875 C225.26583485 160.57634661 228.03133675 161.46620042 230.79626465 162.35786438 C232.50735759 162.90945197 234.21900967 163.45930872 235.93127441 164.00724792 C241.77695113 165.88847556 241.77695113 165.88847556 244 167 C244.77459283 179.20309707 245.35562801 191.40012109 245.70980167 203.62303829 C245.88009995 209.30447685 246.10933535 214.96880995 246.48950195 220.64038086 C249.11117527 260.7830569 249.11117527 260.7830569 236.57763672 275.52001953 C228.89587221 283.98229784 219.33603564 293.83198218 209 299 C206.2814713 299.09797555 203.58854355 299.13453824 200.86973572 299.12698364 C199.59416246 299.12932363 199.59416246 299.12932363 198.29282004 299.13171089 C195.42688548 299.13571792 192.56100336 299.13253239 189.69506836 299.12939453 C187.64716053 299.13074869 185.59925295 299.13252871 183.55134583 299.13470459 C177.97718867 299.13927686 172.40304996 299.13749028 166.82889247 299.1343255 C161.00771836 299.13180119 155.18654587 299.13413961 149.3653717 299.13571167 C139.58919998 299.13753301 129.81303581 299.13512783 120.03686523 299.13037109 C108.7169913 299.12492702 97.39713537 299.12669233 86.07726187 299.1321975 C76.37537384 299.13672783 66.67349124 299.13737962 56.9716025 299.13475883 C51.16951582 299.13319581 45.36743763 299.13300301 39.56535149 299.13629532 C34.11289942 299.13917292 28.66047069 299.1372004 23.20802116 299.13140106 C21.20080606 299.13007293 19.19358901 299.13046847 17.18637466 299.13266373 C14.45864967 299.13537312 11.73100072 299.13199673 9.00328064 299.12698364 C8.19824048 299.12921436 7.39320031 299.13144509 6.56376499 299.13374341 C1.11414994 299.11414994 1.11414994 299.11414994 0 298 C-0.09703499 296.41008877 -0.12371626 294.81584518 -0.12304783 293.22297573 C-0.12503888 292.1829328 -0.12702993 291.14288987 -0.12908131 290.07133049 C-0.12616847 288.91474074 -0.12325563 287.75815099 -0.12025452 286.56651306 C-0.12110894 285.34876003 -0.12196337 284.131007 -0.12284368 282.87635237 C-0.12421191 279.48092147 -0.12106428 276.08554749 -0.11606562 272.69012344 C-0.11176455 269.03434679 -0.1132073 265.37857204 -0.1139679 261.72279358 C-0.11449335 255.38381975 -0.11134432 249.04485618 -0.10573006 242.70588493 C-0.09761795 233.54069156 -0.09500013 224.37550317 -0.09374207 215.21030659 C-0.09155109 200.34194312 -0.08488977 185.47358511 -0.07543945 170.60522461 C-0.06626651 156.15828478 -0.0591851 141.71134644 -0.05493164 127.2644043 C-0.05466892 126.37454234 -0.05440619 125.48468038 -0.05413551 124.56785291 C-0.05283051 120.10387032 -0.05156679 115.63988772 -0.05032361 111.17590511 C-0.03994957 74.11726621 -0.02233002 37.05863353 0 0 Z M59 59 C59 118.07 59 177.14 59 238 C100.58 238 142.16 238 185 238 C185 209.29 185 180.58 185 151 C175.34504441 153.38051583 175.34504441 153.38051583 165.921875 156.26171875 C164.85549805 156.61967529 163.78912109 156.97763184 162.69042969 157.34643555 C160.73991699 158.01026245 160.73991699 158.01026245 158.75 158.6875 C154.5425 160.110625 150.335 161.53375 146 163 C146 177.19 146 191.38 146 206 C143.29759045 203.29759045 141.23250424 201.12202014 139.08203125 198.09375 C138.55375732 197.35495605 138.0254834 196.61616211 137.48120117 195.85498047 C136.93052979 195.07783691 136.3798584 194.30069336 135.8125 193.5 C134.65973002 191.88739437 133.50608 190.27541749 132.3515625 188.6640625 C131.78598633 187.87418945 131.22041016 187.08431641 130.63769531 186.27050781 C127.16643849 181.45794245 123.58680723 176.72680022 120 172 C110.71425005 174.409101 101.62273567 177.3318491 92.50952148 180.31958008 C90.65165628 180.92767319 88.79264289 181.53225483 86.93359375 182.13671875 C85.84103271 182.49467529 84.74847168 182.85263184 83.62280273 183.22143555 C81 184 81 184 79 184 C79.96522204 182.64476724 80.93062654 181.28966421 81.89672852 179.93505859 C82.76897568 178.71189982 83.6405403 177.48825408 84.51147461 176.26416016 C87.15483033 172.55656044 89.82399387 168.87012699 92.5234375 165.203125 C93.1110083 164.40116699 93.6985791 163.59920898 94.30395508 162.77294922 C95.46280839 161.19273858 96.62660145 159.61613694 97.7956543 158.04345703 C98.32843994 157.31497559 98.86122559 156.58649414 99.41015625 155.8359375 C99.88590088 155.19188965 100.36164551 154.5478418 100.85180664 153.88427734 C102.10925285 151.82070731 102.79039656 150.41453793 103 148 C102.01339366 145.9280972 102.01339366 145.9280972 100.38671875 143.9453125 C99.80229004 143.1716333 99.21786133 142.3979541 98.61572266 141.60083008 C97.97940918 140.78380615 97.3430957 139.96678223 96.6875 139.125 C95.39623561 137.42385971 94.10587869 135.72203024 92.81640625 134.01953125 C92.17203613 133.17600098 91.52766602 132.3324707 90.86376953 131.46337891 C88.21456432 127.96187503 85.66172835 124.39592977 83.125 120.8125 C82.70307373 120.21904785 82.28114746 119.6255957 81.84643555 119.01416016 C80.89617058 117.67713836 79.94782707 116.33875114 79 115 C87.72094554 116.71076046 96.10488198 119.44179057 104.5625 122.125 C106.06304203 122.59800223 107.56369225 123.07066134 109.06445312 123.54296875 C112.7108953 124.69135933 116.35584052 125.84438727 120 127 C122.10448174 124.14606554 124.20852004 121.2918044 126.3125 118.4375 C126.88806641 117.65697266 127.46363281 116.87644531 128.05664062 116.07226562 C133.71791296 108.39129614 139.35722145 100.69469803 145 93 C145.33 107.19 145.66 121.38 146 136 C152.06375 137.98 158.1275 139.96 164.375 142 C166.28845215 142.62648438 168.2019043 143.25296875 170.17333984 143.8984375 C171.68579658 144.39085793 173.19832428 144.88306048 174.7109375 145.375 C175.49960205 145.63410156 176.2882666 145.89320313 177.10083008 146.16015625 C180.96996352 147.51061167 180.96996352 147.51061167 185 148 C185 118.63 185 89.26 185 59 C143.42 59 101.84 59 59 59 Z " fill="#EB0000" transform="translate(4,3)"/>
</svg>
