<svg xmlns="http://www.w3.org/2000/svg" width="250" height="250" viewBox="0 0 250 250" version="1.1"><path d="M 82.149 35.207 C 83.100 35.875, 82.695 36.028, 80.780 35.723 C 79.085 35.452, 78.299 35.675, 78.694 36.314 C 79.083 36.944, 78.665 37.085, 77.612 36.681 C 76.593 36.290, 76.144 36.424, 76.507 37.011 C 76.843 37.555, 76.641 38.056, 76.059 38.125 C 75.477 38.194, 74.438 38.306, 73.750 38.375 C 73.063 38.444, 72.444 39.063, 72.375 39.750 C 72.306 40.438, 72.194 41.477, 72.125 42.059 C 72.056 42.641, 71.555 42.843, 71.011 42.507 C 70.424 42.144, 70.290 42.593, 70.681 43.612 C 71.085 44.665, 70.944 45.083, 70.314 44.694 C 69.675 44.299, 69.452 45.085, 69.723 46.780 C 69.977 48.375, 69.814 49.025, 69.328 48.351 C 68.873 47.719, 68.500 56.863, 68.500 68.670 C 68.500 80.478, 68.830 89.095, 69.233 87.819 C 69.635 86.544, 69.783 88.395, 69.561 91.932 C 69.338 95.470, 69.513 97.787, 69.950 97.082 C 71.003 95.377, 72.273 103.864, 71.530 107.645 C 71.054 110.070, 71.125 110.199, 72.003 108.500 C 72.796 106.966, 72.917 107.666, 72.525 111.500 C 72.144 115.229, 72.287 116.119, 73.089 115 C 73.891 113.882, 74.033 114.773, 73.646 118.500 C 73.273 122.083, 73.395 122.933, 74.075 121.500 C 74.774 120.028, 74.918 120.789, 74.620 124.385 C 74.397 127.072, 74.554 128.722, 74.968 128.052 C 76.034 126.328, 77.198 136.225, 76.591 141.845 C 76.251 144.985, 76.327 145.524, 76.822 143.500 C 77.226 141.850, 77.405 157.150, 77.220 177.500 C 77.014 200.195, 77.239 213.984, 77.803 213.165 C 78.521 212.124, 78.836 212.265, 79.240 213.809 C 79.562 215.042, 80.984 216.057, 83.012 216.503 C 85.410 217.029, 85.902 217.452, 84.883 218.107 C 84.007 218.671, 84.783 218.784, 87 218.414 C 89.621 217.978, 90.123 218.097, 89 218.887 C 87.885 219.672, 88.526 219.801, 91.500 219.389 C 94.249 219.008, 95.067 219.139, 94.115 219.810 C 93.163 220.480, 94.256 220.658, 97.615 220.380 C 101.330 220.072, 102.021 220.213, 100.500 220.968 C 99.037 221.694, 99.843 221.798, 103.500 221.352 C 111.325 220.400, 110.312 216.535, 102.402 217.165 C 100.086 217.349, 98.440 217.097, 98.744 216.605 C 99.048 216.113, 98.105 215.938, 96.649 216.216 C 95.192 216.495, 94 216.335, 94 215.861 C 94 215.388, 93.467 215, 92.816 215 C 90.593 215, 82.992 210.821, 83.556 209.909 C 83.865 209.409, 83.656 209, 83.090 209 C 82.525 209, 82.350 208.251, 82.701 207.336 C 83.053 206.421, 82.926 205.927, 82.420 206.238 C 81.867 206.579, 81.476 193.167, 81.439 172.652 C 81.385 142.309, 81.134 137.050, 79.188 125.500 C 70.229 72.342, 70.197 62.747, 78.990 66.088 C 81.905 67.196, 84.871 67.880, 85.581 67.607 C 86.290 67.335, 87.012 67.467, 87.185 67.901 C 87.358 68.335, 88.850 68.967, 90.500 69.306 C 92.150 69.644, 92.978 69.689, 92.339 69.407 C 91.536 69.051, 91.139 63.971, 91.050 52.925 C 90.894 33.579, 91.039 34.052, 85.307 34.167 C 82.162 34.230, 81.207 34.545, 82.149 35.207 M 98.750 70.723 C 100.537 70.945, 103.463 70.945, 105.250 70.723 C 107.037 70.502, 105.575 70.320, 102 70.320 C 98.425 70.320, 96.963 70.502, 98.750 70.723 M 146.632 89.517 C 145.842 91.574, 147.034 97.097, 148.122 96.425 C 149.273 95.713, 149.260 89.278, 148.105 88.565 C 147.612 88.260, 146.950 88.689, 146.632 89.517 M 78.413 179.500 C 78.414 189.400, 78.564 193.315, 78.746 188.199 C 78.928 183.084, 78.927 174.984, 78.744 170.199 C 78.561 165.415, 78.412 169.600, 78.413 179.500" stroke="none" fill="#e3e5e4" fill-rule="evenodd"/><path d="M 0 125.004 L 0 250.008 125.250 249.754 L 250.500 249.500 250.754 124.750 L 251.008 0 125.504 0 L 0 0 0 125.004 M 0.485 125.500 C 0.485 194.250, 0.604 222.228, 0.750 187.672 C 0.896 153.117, 0.896 96.867, 0.750 62.672 C 0.604 28.478, 0.485 56.750, 0.485 125.500 M 77.180 35.682 C 75.353 36.582, 72.653 38.898, 71.180 40.828 L 68.500 44.339 68.195 66.893 C 67.964 84.015, 68.278 91.861, 69.499 99.473 C 76.661 144.105, 76.208 139.224, 76.651 176.500 C 76.880 195.750, 77.283 212.504, 77.548 213.732 C 80.013 225.169, 160.813 226.638, 170.750 215.427 C 172.984 212.906, 173 212.663, 173 180.664 C 173 146.455, 173.683 137.732, 178.576 109.500 C 185.541 69.301, 182.976 41.249, 171.800 35.411 C 167.463 33.145, 81.830 33.390, 77.180 35.682" stroke="none" fill="#000000" fill-rule="evenodd"/><path d="M 151.750 61.693 C 150.238 61.935, 148.993 62.665, 148.985 63.316 C 148.973 64.190, 148.765 64.178, 148.189 63.271 C 147.759 62.595, 147.595 65.070, 147.824 68.771 C 148.053 72.472, 148.524 75.611, 148.870 75.747 C 149.643 76.051, 149.163 93.914, 148.326 96 C 147.879 97.116, 147.511 96.860, 146.888 95 C 145.728 91.531, 146.856 103.290, 148.216 108.832 C 149.722 114.972, 148.629 140.009, 145.653 167.500 C 140.218 217.719, 140.212 217, 146.118 217 C 148.489 217, 149.870 216.599, 149.509 216.015 C 149.129 215.400, 150.103 215.271, 152.106 215.671 C 154.591 216.168, 155.130 216.020, 154.506 215.010 C 153.887 214.009, 154.333 213.867, 156.435 214.394 C 158.428 214.895, 158.967 214.756, 158.427 213.883 C 157.908 213.042, 158.330 212.853, 159.845 213.249 C 161.117 213.582, 161.756 213.414, 161.401 212.840 C 161.070 212.304, 161.622 212.009, 162.627 212.183 C 163.633 212.357, 164.521 211.938, 164.603 211.250 C 164.684 210.563, 164.806 209.523, 164.875 208.941 C 164.944 208.359, 165.516 208.201, 166.146 208.590 C 166.952 209.089, 167.095 208.514, 166.627 206.649 C 166.220 205.029, 166.374 204, 167.024 204 C 167.750 204, 168.044 195.483, 167.952 177.051 C 167.879 162.230, 168.116 149.622, 168.479 149.034 C 168.842 148.446, 168.852 145.386, 168.501 142.233 C 168.019 137.907, 168.135 136.868, 168.975 138 C 169.817 139.135, 169.954 138.040, 169.538 133.500 C 169.137 129.124, 169.259 128.041, 169.990 129.500 C 170.735 130.986, 170.866 130.086, 170.500 126 C 170.131 121.882, 170.262 121.002, 171.020 122.500 C 171.802 124.044, 171.912 123.531, 171.505 120.250 C 171.158 117.463, 171.362 116, 172.098 116 C 172.789 116, 173.063 114.665, 172.812 112.516 C 172.588 110.599, 172.779 108.907, 173.235 108.755 C 173.692 108.603, 174.163 105.719, 174.283 102.347 C 174.402 98.974, 174.898 96.456, 175.384 96.750 C 175.871 97.044, 176.061 95.870, 175.808 94.142 C 175.554 92.414, 175.775 91, 176.298 91 C 176.822 91, 176.986 89.682, 176.664 88.070 C 176.342 86.459, 176.485 84.996, 176.982 84.820 C 177.479 84.644, 178.201 79.877, 178.587 74.226 C 179.222 64.934, 179.132 64.012, 177.645 64.583 C 176.674 64.955, 176 64.716, 176 63.999 C 176 63.213, 175.146 62.998, 173.583 63.390 C 172.253 63.724, 171.016 63.609, 170.833 63.135 C 170.449 62.142, 155.845 61.039, 151.750 61.693 M 93.161 86.114 C 96.611 107.152, 100.117 125.123, 99.480 118.500 C 98.980 113.302, 102.987 110.346, 104.415 114.859 C 105.013 116.751, 104.704 114.027, 101.562 89.715 C 98.945 69.468, 99.644 71.380, 94.423 70.206 L 90.404 69.303 93.161 86.114 M 108.446 82.087 C 107.416 83.755, 109.733 85.667, 111.113 84.287 C 112.267 83.133, 111.545 81, 110 81 C 109.515 81, 108.816 81.489, 108.446 82.087 M 119.688 97.646 C 118.314 99.020, 119.026 101.142, 120.750 100.810 C 121.713 100.624, 122.500 99.841, 122.500 99.070 C 122.500 97.491, 120.736 96.598, 119.688 97.646 M 114.431 124.112 C 113.677 125.332, 115.923 127.166, 117.202 126.375 C 117.641 126.104, 118 125.234, 118 124.441 C 118 122.744, 115.423 122.506, 114.431 124.112 M 111.040 139.452 C 109.118 141.768, 110.186 144.500, 113.014 144.500 C 114.873 144.500, 115.585 143.898, 115.837 142.113 C 116.338 138.574, 113.209 136.838, 111.040 139.452 M 131.644 149.098 C 129.505 152.152, 131.164 155.236, 134.716 154.810 C 138.066 154.408, 139.893 151.644, 138.393 149.250 C 136.744 146.620, 133.432 146.545, 131.644 149.098 M 82.397 168 C 82.397 175.975, 82.553 179.238, 82.743 175.250 C 82.932 171.262, 82.932 164.738, 82.743 160.750 C 82.553 156.762, 82.397 160.025, 82.397 168 M 114.446 168.087 C 114.077 168.685, 114.236 169.636, 114.800 170.200 C 116.062 171.462, 118 170.396, 118 168.441 C 118 166.757, 115.426 166.501, 114.446 168.087 M 134.200 168.200 C 131.505 170.895, 133.606 175, 137.681 175 C 139.283 175, 140.150 174.252, 140.593 172.487 C 141.674 168.178, 137.214 165.186, 134.200 168.200 M 102 186 C 102 187.506, 102.522 188.046, 103.750 187.810 C 104.713 187.624, 105.500 186.810, 105.500 186 C 105.500 185.190, 104.713 184.376, 103.750 184.190 C 102.522 183.954, 102 184.494, 102 186 M 124.336 187.567 C 123.502 189.739, 125.618 191.782, 127.133 190.267 C 128.413 188.987, 127.620 186, 126 186 C 125.415 186, 124.667 186.705, 124.336 187.567 M 108.173 188.659 C 108.594 190.848, 111.500 191.157, 111.500 189.014 C 111.500 188.196, 110.672 187.368, 109.659 187.173 C 108.323 186.916, 107.916 187.323, 108.173 188.659 M 131.446 194.087 C 130.416 195.755, 132.733 197.667, 134.113 196.287 C 135.267 195.133, 134.545 193, 133 193 C 132.515 193, 131.816 193.489, 131.446 194.087 M 108.032 205.177 C 108.069 206.707, 110.386 210, 111.427 210 C 111.815 210, 111.990 208.766, 111.816 207.259 C 111.498 204.502, 107.969 202.561, 108.032 205.177 M 129 207.393 C 129 208.901, 131.429 210.238, 132.402 209.264 C 133.719 207.948, 132.883 206, 131 206 C 129.900 206, 129 206.627, 129 207.393" stroke="none" fill="#ffba43" fill-rule="evenodd"/><path d="M 181.415 67 C 181.415 77.175, 181.564 81.337, 181.745 76.250 C 181.927 71.162, 181.927 62.837, 181.745 57.750 C 181.564 52.662, 181.415 56.825, 181.415 67 M 137.458 64.068 C 137.095 64.656, 136.168 64.895, 135.399 64.600 C 134.629 64.304, 134 64.499, 134 65.031 C 134 65.564, 134.508 66, 135.128 66 C 135.889 66, 136.042 67.338, 135.598 70.112 C 135.236 72.373, 135.315 74.736, 135.773 75.362 C 136.230 75.988, 136.324 78.075, 135.982 80 L 135.359 83.500 134.549 79.500 C 134.104 77.300, 133.298 74.943, 132.758 74.263 C 132.218 73.582, 132.032 72.359, 132.344 71.545 C 132.657 70.730, 132.464 69.787, 131.916 69.448 C 131.367 69.109, 131.162 68.065, 131.459 67.129 C 131.838 65.937, 131.400 65.380, 130 65.275 C 128.900 65.192, 128 65.532, 128 66.031 C 128 66.529, 127.325 66.678, 126.500 66.362 C 125.670 66.043, 125 66.333, 125 67.010 C 125 67.741, 124.195 68.023, 123 67.710 C 121.900 67.423, 121 67.643, 121 68.201 C 121 68.758, 120.325 68.955, 119.500 68.638 C 118.675 68.322, 118 68.547, 118 69.138 C 118 69.730, 117.325 69.955, 116.500 69.638 C 115.675 69.322, 115 69.529, 115 70.099 C 115 70.680, 114.121 70.856, 113 70.500 C 111.900 70.151, 111 70.311, 111 70.856 C 111 71.442, 108.575 71.693, 105.070 71.470 L 99.141 71.092 99.576 74.296 C 100.532 81.326, 103.925 107.773, 104.414 112 C 104.700 114.475, 104.700 115.762, 104.415 114.859 C 104.111 113.899, 102.941 113.277, 101.595 113.359 C 98.238 113.565, 100.515 151.579, 104.116 155.450 C 105.295 156.718, 105.237 158, 104 158 C 103.450 158, 103 157.325, 103 156.500 C 103 155.675, 102.550 155, 102 155 C 100.483 155, 100.805 157.988, 102.387 158.595 C 103.918 159.182, 106.714 180.696, 105.628 183.527 C 105.295 184.394, 105.410 184.864, 105.884 184.572 C 106.358 184.279, 107.060 188.487, 107.446 193.922 C 108.055 202.511, 108.399 203.871, 110.073 204.309 C 111.351 204.643, 112 205.687, 112 207.406 C 112 210.349, 111.228 210.695, 109.610 208.480 C 108.752 207.305, 108.575 208.044, 108.831 211.730 C 109.155 216.398, 109.241 216.510, 112.831 216.963 C 120.262 217.899, 142.152 217.074, 141.425 215.885 C 140.919 215.058, 142.540 196.687, 145.739 167 C 149.316 133.796, 148.886 90, 144.983 90 C 144.663 90, 144.593 88.364, 144.826 86.364 C 145.150 83.589, 144.947 82.915, 143.968 83.520 C 142.964 84.140, 142.823 83.312, 143.318 79.700 C 143.696 76.936, 143.540 74.834, 142.927 74.455 C 142.365 74.107, 141.995 73.075, 142.106 72.161 C 142.217 71.248, 141.958 69.693, 141.530 68.707 C 141.103 67.721, 141.012 66.655, 141.329 66.338 C 141.891 65.775, 139.647 63, 138.630 63 C 138.349 63, 137.821 63.481, 137.458 64.068 M 108.446 82.087 C 107.416 83.755, 109.733 85.667, 111.113 84.287 C 112.267 83.133, 111.545 81, 110 81 C 109.515 81, 108.816 81.489, 108.446 82.087 M 94 94.740 C 94 95.330, 93.098 95.577, 91.995 95.288 C 90.892 95, 89.317 95.322, 88.495 96.004 C 85.720 98.308, 87.151 103.130, 90.590 103.063 C 95.666 102.965, 95.788 102.847, 95.245 98.583 C 94.754 94.727, 94 92.400, 94 94.740 M 119.688 97.646 C 118.314 99.020, 119.026 101.142, 120.750 100.810 C 121.713 100.624, 122.500 99.841, 122.500 99.070 C 122.500 97.491, 120.736 96.598, 119.688 97.646 M 114.431 124.112 C 113.677 125.332, 115.923 127.166, 117.202 126.375 C 117.641 126.104, 118 125.234, 118 124.441 C 118 122.744, 115.423 122.506, 114.431 124.112 M 95.446 130.087 C 95.077 130.685, 95.236 131.636, 95.800 132.200 C 97.062 133.462, 99 132.396, 99 130.441 C 99 128.757, 96.426 128.501, 95.446 130.087 M 111.040 139.452 C 109.118 141.768, 110.186 144.500, 113.014 144.500 C 114.873 144.500, 115.585 143.898, 115.837 142.113 C 116.338 138.574, 113.209 136.838, 111.040 139.452 M 131.644 149.098 C 129.505 152.152, 131.164 155.236, 134.716 154.810 C 138.066 154.408, 139.893 151.644, 138.393 149.250 C 136.744 146.620, 133.432 146.545, 131.644 149.098 M 114.446 168.087 C 114.077 168.685, 114.236 169.636, 114.800 170.200 C 116.062 171.462, 118 170.396, 118 168.441 C 118 166.757, 115.426 166.501, 114.446 168.087 M 134.200 168.200 C 131.505 170.895, 133.606 175, 137.681 175 C 139.283 175, 140.150 174.252, 140.593 172.487 C 141.674 168.178, 137.214 165.186, 134.200 168.200 M 82.349 192 C 82.349 196.675, 82.522 198.588, 82.732 196.250 C 82.943 193.912, 82.943 190.088, 82.732 187.750 C 82.522 185.412, 82.349 187.325, 82.349 192 M 124.336 187.567 C 123.502 189.739, 125.618 191.782, 127.133 190.267 C 128.413 188.987, 127.620 186, 126 186 C 125.415 186, 124.667 186.705, 124.336 187.567 M 172.370 196 C 172.370 201.775, 172.535 204.137, 172.737 201.250 C 172.939 198.363, 172.939 193.637, 172.737 190.750 C 172.535 187.863, 172.370 190.225, 172.370 196 M 108.173 188.659 C 108.594 190.848, 111.500 191.157, 111.500 189.014 C 111.500 188.196, 110.672 187.368, 109.659 187.173 C 108.323 186.916, 107.916 187.323, 108.173 188.659 M 131.446 194.087 C 130.416 195.755, 132.733 197.667, 134.113 196.287 C 135.267 195.133, 134.545 193, 133 193 C 132.515 193, 131.816 193.489, 131.446 194.087 M 129 207.393 C 129 208.901, 131.429 210.238, 132.402 209.264 C 133.719 207.948, 132.883 206, 131 206 C 129.900 206, 129 206.627, 129 207.393" stroke="none" fill="#fea233" fill-rule="evenodd"/><path d="M 73.298 75.250 C 73.628 80.888, 75.788 98.100, 78.098 113.500 C 82.275 141.344, 82.300 141.684, 82.636 174.406 C 83.011 210.866, 83.009 210.852, 89.577 213.597 C 93.638 215.293, 107.713 217.621, 108.593 216.741 C 110.230 215.103, 104.315 159.818, 102.383 158.700 C 100.723 157.740, 100.535 155, 102.129 155 C 103.431 155, 103.277 153.545, 98.905 124.500 C 95.358 100.940, 95.528 101.605, 93.368 102.814 C 90.877 104.208, 88.052 103.055, 87.377 100.368 C 86.590 97.229, 88.722 94.714, 91.689 95.281 C 94.426 95.804, 94.407 96.062, 92.477 84.162 C 91.644 79.026, 90.872 73.729, 90.762 72.391 C 90.601 70.445, 89.754 69.756, 86.530 68.944 C 84.314 68.386, 80.685 67.271, 78.467 66.465 C 76.248 65.659, 74.043 65, 73.566 65 C 73.089 65, 72.969 69.612, 73.298 75.250 M 95.446 130.087 C 95.077 130.685, 95.236 131.636, 95.800 132.200 C 97.062 133.462, 99 132.396, 99 130.441 C 99 128.757, 96.426 128.501, 95.446 130.087 M 172.360 177 C 172.360 182.225, 172.529 184.363, 172.735 181.750 C 172.941 179.137, 172.941 174.863, 172.735 172.250 C 172.529 169.637, 172.360 171.775, 172.360 177 M 101.441 185.096 C 100.559 186.522, 103.478 189.441, 104.904 188.559 C 106.810 187.382, 106.183 184, 104.059 184 C 102.991 184, 101.813 184.493, 101.441 185.096" stroke="none" fill="#fe8a23" fill-rule="evenodd"/><path d="M 90.337 35.435 C 90.658 36.273, 90.979 44.134, 91.050 52.906 C 91.156 66.042, 91.442 68.955, 92.671 69.427 C 96.617 70.941, 111.145 69.924, 118.698 67.604 C 132.140 63.477, 131.661 63.472, 132.799 67.756 L 133.793 71.500 133.897 67.363 C 133.993 63.495, 134.210 63.194, 137.250 62.721 C 142.001 61.981, 143.112 64.903, 145.528 84.500 C 145.934 87.800, 146.470 89.935, 146.719 89.244 C 146.967 88.553, 147.616 88.262, 148.159 88.598 C 148.805 88.998, 148.878 85.450, 148.370 78.355 C 147.942 72.385, 147.571 66.150, 147.546 64.500 L 147.500 61.500 160 61.681 C 181.498 61.992, 181.646 62.310, 176.050 96.153 C 169.785 134.046, 168.854 143.654, 168.288 176.284 C 167.558 218.417, 167.996 218, 124.459 218 C 110.649 218, 108.149 218.226, 108.612 219.431 C 109.005 220.455, 108.214 220.978, 105.830 221.271 C 102.882 221.633, 110.897 222.152, 124 222.448 C 142.032 222.854, 164.735 219.570, 169.433 215.874 L 172 213.855 172.009 181.177 C 172.019 147.203, 173.136 134.831, 179.486 98.420 C 184.175 71.532, 181.174 41.758, 173.281 36.851 L 169.500 34.500 129.626 34.207 C 94.256 33.946, 89.819 34.085, 90.337 35.435 M 75.952 37.253 C 69.125 41.854, 68.512 44.188, 68.402 66 L 68.303 85.500 68.906 66 C 69.641 42.198, 70.553 39.708, 79.741 36.429 C 82.198 35.552, 82.772 35.073, 81.398 35.044 C 80.242 35.020, 77.791 36.014, 75.952 37.253 M 70.181 98 C 70.149 99.375, 70.726 103.425, 71.464 107 C 72.201 110.575, 72.827 112.375, 72.855 111 C 72.884 109.625, 72.306 105.575, 71.573 102 C 70.839 98.425, 70.213 96.625, 70.181 98 M 73.119 115.170 C 73.054 116.088, 73.889 123.063, 74.975 130.670 C 76.062 138.276, 77.132 146.300, 77.353 148.500 C 77.574 150.700, 77.551 148.450, 77.302 143.500 C 76.881 135.130, 73.385 111.449, 73.119 115.170 M 78.413 179.500 C 78.414 189.400, 78.564 193.315, 78.746 188.199 C 78.928 183.084, 78.927 174.984, 78.744 170.199 C 78.561 165.415, 78.412 169.600, 78.413 179.500 M 78.063 213.128 C 77.941 216.267, 91.324 221.146, 99.410 220.910 C 101.162 220.859, 99.470 220.264, 95.500 219.536 C 84.527 217.525, 79.888 215.849, 78.961 213.561 C 78.346 212.042, 78.110 211.928, 78.063 213.128" stroke="none" fill="#f7f7f7" fill-rule="evenodd"/></svg>