<?xml version="1.0" encoding="UTF-8"?><svg id="Layer_1" xmlns="http://www.w3.org/2000/svg" viewBox="0 0 700.65 255.11"><defs><style>.cls-1{fill:#1a594b;}</style></defs><path class="cls-1" d="M289.29.42c2.45-.52,4.97-.4,7.46-.41,4.61,0,9.23-.01,13.84,0,4,.01,8.16,1.13,11.16,3.89,3.21,2.89,4.65,7.29,4.73,11.52.03,5.72,0,11.44.01,17.16-.01,3.67-.96,7.45-3.29,10.35-2.02,2.56-5.01,4.23-8.16,4.93-2.64.63-5.37.48-8.07.5-4.61,0-9.23,0-13.84,0-3.64-.04-7.4-1.01-10.27-3.34-2.72-2.16-4.42-5.41-5.01-8.8-.44-2.17-.31-4.39-.33-6.58,0-4.62,0-9.24,0-13.86.01-3.77,1.04-7.67,3.5-10.6,2.07-2.52,5.1-4.12,8.28-4.76Z"/><path class="cls-1" d="M4.3,13.13c1.01-.3,2.07-.37,3.12-.37,8.76,0,17.51,0,26.27,0,1.88,0,3.91.35,5.32,1.68,1.45,1.34,1.92,3.41,1.92,5.32,0,12.28,0,24.57,0,36.85.02,2.91.65,6.05,2.77,8.18,1.83,1.88,4.54,2.55,7.1,2.53,9.71,0,19.43,0,29.14,0,4.38.01,8.77-.09,13.14.23,14.54.91,28.99,4.87,41.56,12.32,12.38,7.26,22.72,17.91,29.75,30.42,7.28,12.84,11.13,27.44,12.14,42.12,1.02,14.96-.55,30.21-5.6,44.37-4.19,11.8-10.89,22.75-19.76,31.62-8.69,8.77-19.38,15.45-30.91,19.81-13.05,4.96-27.09,7.03-41.02,6.89H27.1c-6.03-.08-12.31-1.27-17.33-4.79-3.88-2.69-6.64-6.78-8.08-11.25C.36,234.99-.05,230.67,0,226.41.01,158.14,0,89.88,0,21.62c-.01-1.87-.11-3.84.74-5.56.66-1.46,2.02-2.51,3.55-2.93ZM58.54,105.88c-4.86.21-10.19,1.24-13.62,4.99-3.38,3.72-4.01,9.03-3.99,13.86,0,24.66,0,49.31,0,73.97.05,4.66.9,9.76,4.31,13.21,3.43,3.46,8.5,4.42,13.19,4.64,4.74.1,9.47.02,14.21.04,5.82-.05,11.67.27,17.45-.67,10.67-1.53,20.94-6.49,28.25-14.49,8.03-8.64,12.31-20.22,13.52-31.84.97-9.51.38-19.26-2.35-28.45-2.94-9.98-8.78-19.24-17.16-25.51-8.71-6.63-19.75-9.7-30.61-9.79-7.74.01-15.49-.06-23.23.04Z"/><path class="cls-1" d="M202.54,13.12c1.48-.44,3.04-.36,4.57-.37,8.26,0,16.52,0,24.77,0,1.87,0,3.9.39,5.29,1.75,1.41,1.35,1.85,3.39,1.85,5.28,0,62.32,0,124.64,0,186.95-.05,3.58.1,7.71,2.87,10.36,2.9,2.63,7.08,2.59,10.76,2.54,2.78.12,5.79-.45,8.34.98,2.04,1.13,2.87,3.57,2.88,5.78.03,7.17,0,14.35.01,21.52,0,1.83-.35,3.79-1.62,5.2-1.3,1.45-3.32,1.97-5.2,1.98-8.26,0-16.53,0-24.79,0-5-.04-10.06.27-14.97-.86-5.4-1.12-10.61-3.9-13.92-8.4-3.91-5.23-5.13-11.94-5.17-18.34,0-62.43,0-124.86,0-187.29.02-7.04-.04-14.08.03-21.11.01-2.63,1.62-5.34,4.29-5.96Z"/><path class="cls-1" d="M541.38,13.04c1.38-.35,2.82-.28,4.23-.29,8.27,0,16.53,0,24.8,0,1.87,0,3.88.38,5.29,1.71,1.42,1.35,1.89,3.4,1.88,5.29,0,35.72,0,71.44,0,107.16-.04,2.06-.02,4.22.91,6.11.97,2.16,3.05,3.76,5.39,4.14,3.34.6,6.79-.95,8.99-3.44,16.83-18.76,33.66-37.51,50.49-56.27,3.21-3.6,6.43-7.7,11.28-9.08,3.75-1.19,7.72-1.06,11.61-1.05,5.09,0,10.18,0,15.28,0,1.95-.07,3.99.09,5.75,1.04,2.42,1.24,4.04,3.78,4.3,6.46.35,3.09-.92,6.21-3.06,8.41-12.9,13.46-25.81,26.91-38.71,40.36-2.48,2.63-5.19,5.12-6.99,8.3-2.14,3.57-2.96,7.9-2.15,12,.9,5.1,3.83,9.46,6.51,13.77,17.25,27.93,34.5,55.85,51.75,83.78,1.59,2.53,2.25,5.78,1.18,8.63-.83,2.28-2.84,4.04-5.17,4.66-1.51.46-3.1.35-4.65.36-6.8,0-13.61,0-20.41,0-3.16.08-6.42-.18-9.31-1.55-3.04-1.4-5.34-3.98-7.05-6.79-14.31-23.58-28.61-47.17-42.91-70.75-1.24-2.12-3.16-3.88-5.48-4.71-3.09-1.16-6.6-.6-9.44.97-2.55,1.35-4.44,3.57-6.54,5.49-2.85,2.63-5.68,5.38-7.57,8.81-3.4,5.98-3.91,13.06-3.98,19.8-.03,13.97,0,27.94-.01,41.91-.01,1.88-.49,3.93-1.94,5.24-1.41,1.28-3.39,1.62-5.23,1.6-8.39,0-16.77,0-25.16,0-2.12.05-4.45,0-6.19-1.37-1.77-1.35-2.31-3.71-2.29-5.83,0-76.04,0-152.07,0-228.11-.17-2.95,1.51-6.18,4.61-6.75Z"/><path class="cls-1" d="M287.81,67.35c9.06-.07,18.13,0,27.19-.03,1.92-.03,4,.31,5.45,1.67,1.5,1.37,1.94,3.51,1.94,5.46,0,57.82,0,115.64,0,173.46,0,1.89-.38,3.93-1.74,5.34-1.36,1.41-3.41,1.87-5.31,1.85-9.01,0-18.01,0-27.02,0-2.04-.01-4.27-.64-5.5-2.38-1.31-1.81-1.29-4.15-1.25-6.29,0-57.34,0-114.68,0-172.01,0-1.81.37-3.73,1.62-5.11,1.16-1.29,2.92-1.84,4.6-1.95Z"/><path class="cls-1" d="M376.34,67.37c21.08-.11,42.17-.01,63.26-.05,13.52.06,27.22,3.15,38.86,10.17,9.87,5.88,18.01,14.59,23.31,24.78,6.08,11.57,8.61,24.76,8.52,37.76,0,35.95,0,71.91,0,107.86.01,1.85-.41,3.82-1.72,5.2-1.41,1.5-3.55,2.01-5.54,2-8.89,0-17.77,0-26.66,0-1.89,0-3.92-.51-5.24-1.95-1.29-1.4-1.66-3.39-1.65-5.24v-91.84c-.07-7.62.47-15.38-1.54-22.82-1.66-6.57-4.95-12.8-9.89-17.49-7.46-7.21-18.11-10.12-28.29-9.93-6.57.02-13.14-.03-19.71.02-4.5.14-9.3.84-12.94,3.71-2.99,2.34-4.51,6.06-5.03,9.73-.56,3.73-.26,7.51-.33,11.26v114.78c-.02,2.4.25,5.03-1.13,7.14-1.2,1.89-3.54,2.62-5.68,2.62-9,0-18,0-26.99,0-1.81,0-3.77-.38-5.13-1.66-1.41-1.31-1.87-3.32-1.88-5.17,0-48.58,0-97.17,0-145.76.05-5.92-.38-11.96,1.25-17.72,1.37-5.28,4.5-10.21,9.16-13.15,4.44-2.88,9.78-4.01,15-4.27Z"/></svg>