<svg xmlns="http://www.w3.org/2000/svg" xmlns:v="https://svgstorm.com"
    viewBox="0 0 32 32"
    width="32"
    height="32">
    <g fill="None" fill-opacity="0.0" stroke="#000000" stroke-opacity="0.00" stroke-width="0.3">
        <path
            d="
M 0.00 32.00 
L 32.00 32.00
L 32.00 0.00
L 0.00 0.00
L 0.00 32.00
M 22.00 4.00 
C 13.67 2.83 3.23 10.44 6.33 19.67 C 9.43 28.90 21.55 29.42 26.00 22.00
C 14.46 32.71 2.11 15.32 12.23 8.23 C 22.36 1.15 35.38 19.74 28.25 27.25 C 21.11 34.75 3.44 30.92 2.01 18.99 C 0.57 7.06 11.04 -4.73 22.00 4.00 Z" />
    </g>
    <g fill="None" fill-opacity="0.0" stroke="#BF0318" stroke-opacity="0.78" stroke-width="0.3">
        <path
            d="
M 22.00 4.00 
C 11.04 -4.73 0.57 7.06 2.01 18.99 C 3.44 30.92 21.11 34.75 28.25 27.25 C 35.38 19.74 22.36 1.15 12.23 8.23 C 2.11 15.32 14.46 32.71 26.00 22.00
C 21.55 29.42 9.43 28.90 6.33 19.67 C 3.23 10.44 13.67 2.83 22.00 4.00
M 19.00 11.00 
C 24.32 12.58 21.62 22.33 15.77 20.21 C 9.92 18.10 13.09 9.24 19.00 11.00 Z" />
    </g>
    <g fill="None" fill-opacity="0.0" stroke="#000000" stroke-opacity="0.00" stroke-width="0.3">
        <path
            d="
M 19.00 11.00 
C 13.09 9.24 9.92 18.10 15.77 20.21 C 21.62 22.33 24.32 12.58 19.00 11.00 Z" />
    </g>
    <g fill="#000000" fill-opacity="0.00" stroke="None">
        <path
            d="
M 0.00 32.00 
L 32.00 32.00
L 32.00 0.00
L 0.00 0.00
L 0.00 32.00
M 22.00 4.00 
C 13.67 2.83 3.23 10.44 6.33 19.67 C 9.43 28.90 21.55 29.42 26.00 22.00
C 14.46 32.71 2.11 15.32 12.23 8.23 C 22.36 1.15 35.38 19.74 28.25 27.25 C 21.11 34.75 3.44 30.92 2.01 18.99 C 0.57 7.06 11.04 -4.73 22.00 4.00 Z" />
    </g>
    <g fill="#BF0318" fill-opacity="0.78" stroke="None">
        <path
            d="
M 22.00 4.00 
C 11.04 -4.73 0.57 7.06 2.01 18.99 C 3.44 30.92 21.11 34.75 28.25 27.25 C 35.38 19.74 22.36 1.15 12.23 8.23 C 2.11 15.32 14.46 32.71 26.00 22.00
C 21.55 29.42 9.43 28.90 6.33 19.67 C 3.23 10.44 13.67 2.83 22.00 4.00
M 19.00 11.00 
C 24.32 12.58 21.62 22.33 15.77 20.21 C 9.92 18.10 13.09 9.24 19.00 11.00 Z" />
    </g>
    <g fill="#000000" fill-opacity="0.00" stroke="None">
        <path
            d="
M 19.00 11.00 
C 13.09 9.24 9.92 18.10 15.77 20.21 C 21.62 22.33 24.32 12.58 19.00 11.00 Z" />
    </g>
</svg>