<svg xmlns="http://www.w3.org/2000/svg" width="855" height="903" viewBox="0 0 855 903" version="1.1">
    <path
        d="M 736.713 144.346 C 720.269 162.079, 700.956 180.960, 689.500 190.502 C 635.068 235.842, 576.268 269.724, 510.539 293.626 C 502.310 296.618, 495.264 299.572, 494.882 300.191 C 493.404 302.582, 496.936 306.120, 519.153 324.500 C 531.783 334.950, 544.739 346.107, 547.943 349.294 C 555.086 356.399, 559.499 364.429, 560.972 373.005 C 561.755 377.562, 562 408.148, 561.794 475.500 L 561.500 571.500 559.143 577.344 C 553.351 591.706, 537.746 603.719, 511.665 613.897 C 493.091 621.145, 474.345 624.970, 447 627.091 L 431.500 628.293 431.768 678.646 L 432.036 729 429.268 729.116 C 427.361 729.196, 427.081 729.381, 428.370 729.712 C 431.291 730.463, 438.123 728.282, 456.500 720.735 C 516.718 696.001, 583.428 653.211, 635.500 605.918 C 653.234 589.812, 685.746 556.872, 693.851 546.800 L 700.047 539.099 696.774 538.576 C 694.973 538.288, 688.550 537.572, 682.500 536.984 C 663.804 535.167, 652.742 533.230, 642.714 530.018 C 637.412 528.320, 632.844 526.556, 632.561 526.099 C 631.753 524.792, 634.981 522.609, 641.500 520.054 C 667.742 509.768, 686.104 498.638, 704.358 481.956 C 715.940 471.370, 727.531 453.055, 731.992 438.292 C 735.240 427.541, 733.945 426.794, 722.703 432.934 C 712.719 438.386, 707.548 440.276, 687.208 445.905 C 669.552 450.791, 666.073 451.426, 658.500 451.140 L 654.500 450.989 664.295 444.567 C 710.936 413.991, 741.775 373.085, 750.991 329.571 C 755.013 310.581, 755.306 303, 752.016 303 C 751.610 303, 747.727 305.342, 743.389 308.203 C 725.750 319.838, 699.721 331.521, 675.747 338.563 C 669.011 340.542, 661.127 342.865, 658.227 343.725 C 655.327 344.584, 652.631 344.965, 652.236 344.570 C 651.841 344.174, 653.989 341.754, 657.009 339.191 C 686.670 314.018, 708.360 283.077, 723.969 243.676 C 733.546 219.501, 740.877 191.420, 746.588 157.042 C 748.465 145.745, 750 135.938, 750 135.251 C 750 131.797, 745.482 134.890, 736.713 144.346 M 700.900 212.709 C 699.057 214.244, 696.216 217.075, 694.585 219 C 682.949 232.740, 653.296 259.410, 638.992 269 C 637.762 269.825, 636.248 270.970, 635.627 271.544 C 633.436 273.573, 616.421 284.322, 606.526 289.928 C 589.469 299.592, 559.493 313, 554.943 313 C 552.085 313, 551.453 315.630, 553.353 319.614 C 556.039 325.247, 559.040 325.696, 569 321.955 C 595.760 311.905, 627.171 293.190, 646.969 275.500 C 656.163 267.284, 675.616 248.360, 678.836 244.500 C 680.671 242.300, 683.146 239.551, 684.336 238.392 C 687.666 235.148, 691.062 231.066, 695.896 224.500 C 698.325 221.200, 700.580 218.275, 700.906 217.999 C 701.964 217.107, 705.075 210.741, 704.657 210.323 C 704.434 210.100, 702.743 211.174, 700.900 212.709 M 165.866 216.627 C 170.301 223.836, 185.618 241.843, 198.372 254.843 C 228.477 285.530, 258.680 306.327, 293.001 320 C 303.239 324.079, 307.633 324.802, 311.055 322.970 C 313.458 321.685, 316.459 316.056, 315.335 314.943 C 314.876 314.488, 310.450 312.567, 305.500 310.673 C 281.650 301.550, 261.154 290.939, 239.500 276.503 C 220.412 263.779, 207.546 253.278, 187.560 234.112 C 178.243 225.178, 168.869 216.480, 166.727 214.784 L 162.834 211.701 165.866 216.627 M 415.500 315.590 C 389.135 321.466, 367.933 338.119, 355.700 362.560 C 353.757 366.443, 351.469 372.068, 350.617 375.060 C 348.801 381.432, 347 398.103, 347 408.535 C 347 416.346, 345.706 419, 341.896 419 C 338.231 419, 333.138 421.833, 331.700 424.671 C 329.342 429.326, 329.051 436.911, 328.903 497.500 C 328.774 550.159, 328.921 555.960, 330.494 560.500 C 336.097 576.665, 353.825 587.565, 387.427 595.504 C 404.095 599.442, 415.139 600.337, 439.390 599.716 C 473.002 598.854, 489.956 595.139, 512.500 583.695 C 526.514 576.581, 534.143 569.896, 535.963 563.136 C 537.649 556.875, 536.962 427.308, 535.227 424.273 C 532.472 419.452, 533.550 419.530, 461.854 419 C 397.344 418.523, 394.112 418.413, 392.124 416.613 C 389.185 413.952, 388.653 409.638, 389.950 398.972 C 392.073 381.512, 401.516 367.269, 415.500 360.433 C 421.034 357.728, 422.359 357.500, 432.552 357.500 C 443.288 357.500, 443.816 357.606, 451.052 361.201 C 464.798 368.031, 473.612 379.036, 474.704 390.735 C 475.224 396.299, 475.820 397.974, 478.090 400.244 L 480.846 403 497.376 403 C 514.685 403, 518.432 402.279, 519.350 398.771 C 520.275 395.234, 517.135 378.248, 514.122 370.488 C 504.104 344.689, 482.214 324.233, 456.829 316.947 C 446.852 314.084, 425.416 313.380, 415.500 315.590 M 427.655 479.459 C 418.968 482.556, 413.897 491.422, 416.149 499.578 C 416.677 501.491, 419.110 505.309, 421.555 508.062 C 424.607 511.499, 426 513.961, 426 515.920 C 426 517.490, 424.409 524.980, 422.465 532.566 C 418.044 549.815, 417.782 549.360, 432.434 549.838 C 443.316 550.193, 446.987 549.281, 447.016 546.215 C 447.025 545.272, 445.387 538.367, 443.377 530.871 C 441.122 522.461, 439.965 516.275, 440.356 514.719 C 440.704 513.332, 443.129 509.570, 445.744 506.359 C 450.155 500.945, 450.500 500.115, 450.500 494.933 C 450.500 488.102, 447.337 483.310, 440.711 480.102 C 435.703 477.678, 433.020 477.546, 427.655 479.459"
        stroke="none" fill="#036b8e" fill-rule="evenodd" />
    <path
        d="M 114.002 133.615 C 113.995 137.521, 118.527 166.954, 121.068 179.500 C 134.972 248.172, 157.109 292.949, 196.623 332.330 C 208.830 344.497, 209.330 343.970, 190.500 338.787 C 160.261 330.465, 133.907 318.603, 113.881 304.299 C 111.340 302.485, 109.061 301, 108.817 301 C 107.835 301, 109.303 314.195, 111.550 325.558 C 120.642 371.546, 146.774 407.953, 195.500 442.520 C 201.550 446.812, 206.950 450.755, 207.500 451.283 C 209.091 452.810, 196.697 451.174, 185.500 448.380 C 161.865 442.482, 142.742 435.359, 133.535 429.024 C 130.963 427.255, 128.589 426.078, 128.258 426.409 C 127.927 426.740, 129.327 432.090, 131.369 438.298 C 139.529 463.105, 154.513 481.756, 180.247 499.139 C 190.460 506.038, 210.569 516.155, 223.750 521.026 C 228.838 522.906, 233 524.721, 233 525.059 C 233 526.269, 214.304 531.974, 203.979 533.914 C 198.192 535.002, 186.605 536.456, 178.229 537.145 C 169.853 537.834, 163 538.704, 163 539.079 C 163 542.580, 218.061 598.221, 240.500 617.395 C 271.778 644.122, 307.263 669.029, 342.500 688.989 C 370.666 704.944, 422.653 729, 428.966 729 L 432.018 729 431.759 678.750 L 431.500 628.500 428 628.239 C 385.443 625.071, 361.251 619.675, 338.606 608.302 C 314.529 596.210, 304.885 585.575, 302.060 568 C 300.553 558.625, 300.617 379.893, 302.130 372.799 C 303.649 365.678, 307.016 358.387, 311.118 353.335 C 312.978 351.044, 326.650 338.942, 341.500 326.442 C 367.194 304.814, 369.949 302.341, 369.985 300.871 C 369.993 300.525, 362.913 297.644, 354.250 294.468 C 304.841 276.353, 254.418 250.275, 214 221.933 C 181.011 198.800, 154.969 176.098, 125.749 145 C 119.289 138.125, 114.003 133.002, 114.002 133.615 M 700.900 212.709 C 699.057 214.244, 696.216 217.075, 694.585 219 C 682.949 232.740, 653.296 259.410, 638.992 269 C 637.762 269.825, 636.248 270.970, 635.627 271.544 C 633.436 273.573, 616.421 284.322, 606.526 289.928 C 589.469 299.592, 559.493 313, 554.943 313 C 552.085 313, 551.453 315.630, 553.353 319.614 C 556.039 325.247, 559.040 325.696, 569 321.955 C 595.760 311.905, 627.171 293.190, 646.969 275.500 C 656.163 267.284, 675.616 248.360, 678.836 244.500 C 680.671 242.300, 683.146 239.551, 684.336 238.392 C 687.666 235.148, 691.062 231.066, 695.896 224.500 C 698.325 221.200, 700.580 218.275, 700.906 217.999 C 701.964 217.107, 705.075 210.741, 704.657 210.323 C 704.434 210.100, 702.743 211.174, 700.900 212.709 M 165.866 216.627 C 170.301 223.836, 185.618 241.843, 198.372 254.843 C 228.477 285.530, 258.680 306.327, 293.001 320 C 303.239 324.079, 307.633 324.802, 311.055 322.970 C 313.458 321.685, 316.459 316.056, 315.335 314.943 C 314.876 314.488, 310.450 312.567, 305.500 310.673 C 281.650 301.550, 261.154 290.939, 239.500 276.503 C 220.412 263.779, 207.546 253.278, 187.560 234.112 C 178.243 225.178, 168.869 216.480, 166.727 214.784 L 162.834 211.701 165.866 216.627"
        stroke="none" fill="#ebebeb" fill-rule="evenodd" />
    <path
        d="M -0 451.501 L -0 903.002 427.750 902.751 L 855.500 902.500 855.751 451.250 L 856.002 0 428.001 0 L 0 0 -0 451.501 M 0.496 452 C 0.496 700.325, 0.610 801.912, 0.750 677.750 C 0.890 553.587, 0.890 350.412, 0.750 226.250 C 0.610 102.087, 0.496 203.675, 0.496 452 M 113.413 133 C 113.691 134.375, 114.629 141.125, 115.497 148 C 117.325 162.476, 121.908 186.483, 125.997 203 C 134.592 237.720, 148.169 269.552, 165.467 295.541 C 173.640 307.820, 191.450 328.652, 201.168 337.300 L 207.500 342.934 194.493 339.529 C 165.966 332.062, 139.495 320.730, 118.669 307.071 L 107.837 299.968 108.486 306.734 C 112.584 349.486, 127.588 380.621, 159.473 412.543 C 171.488 424.571, 188.139 438.268, 204.032 449.198 L 206.500 450.895 202 450.941 C 196.839 450.993, 185.646 448.460, 168.733 443.413 C 153.823 438.964, 141.694 433.894, 133.886 428.848 C 130.523 426.674, 127.644 425.032, 127.489 425.198 C 126.693 426.052, 133.189 445.538, 136.407 451.952 C 148.613 476.271, 170.780 496.607, 201.593 511.752 C 208.142 514.970, 217.662 519.143, 222.750 521.024 C 227.838 522.906, 232 524.738, 232 525.096 C 232 526.136, 214.253 531.677, 205.500 533.369 C 197.647 534.888, 186.120 536.269, 170.750 537.533 C 165.883 537.934, 163 538.604, 163 539.336 C 163 542.694, 215.145 595.695, 238 615.568 C 279.194 651.386, 325.202 681.910, 374.835 706.351 C 393.422 715.504, 422.479 728.329, 427.463 729.580 C 431.169 730.510, 437.093 728.706, 456.500 720.735 C 516.718 696.001, 583.428 653.211, 635.500 605.918 C 653.234 589.812, 685.746 556.872, 693.851 546.800 L 700.047 539.099 696.774 538.576 C 694.973 538.288, 688.550 537.572, 682.500 536.984 C 663.804 535.167, 652.742 533.230, 642.714 530.018 C 637.412 528.320, 632.844 526.556, 632.561 526.099 C 631.753 524.792, 634.981 522.609, 641.500 520.054 C 667.742 509.768, 686.104 498.638, 704.358 481.956 C 715.940 471.370, 727.531 453.055, 731.992 438.292 C 735.240 427.541, 733.945 426.794, 722.703 432.934 C 712.719 438.386, 707.548 440.276, 687.208 445.905 C 669.552 450.791, 666.073 451.426, 658.500 451.140 L 654.500 450.989 664.295 444.567 C 710.936 413.991, 741.775 373.085, 750.991 329.571 C 755.013 310.581, 755.306 303, 752.016 303 C 751.610 303, 747.727 305.342, 743.389 308.203 C 725.750 319.838, 699.721 331.521, 675.747 338.563 C 669.011 340.542, 661.127 342.865, 658.227 343.725 C 655.327 344.584, 652.631 344.965, 652.236 344.570 C 651.841 344.174, 653.989 341.754, 657.009 339.191 C 686.670 314.018, 708.360 283.077, 723.969 243.676 C 733.546 219.501, 740.877 191.420, 746.588 157.042 C 748.465 145.745, 750 135.938, 750 135.251 C 750 131.797, 745.482 134.890, 736.713 144.346 C 720.269 162.079, 700.956 180.960, 689.500 190.502 C 635.068 235.842, 576.268 269.724, 510.539 293.626 C 502.310 296.618, 495.264 299.572, 494.882 300.191 C 493.404 302.582, 496.936 306.120, 519.153 324.500 C 531.783 334.950, 544.739 346.107, 547.943 349.294 C 555.086 356.399, 559.499 364.429, 560.972 373.005 C 561.755 377.562, 562 408.148, 561.794 475.500 L 561.500 571.500 559.143 577.344 C 553.351 591.706, 537.746 603.719, 511.665 613.897 C 493.440 621.009, 474.914 624.838, 448.018 627.049 C 422.529 629.145, 386.137 625.035, 361.500 617.277 C 344.115 611.802, 322.414 600.287, 314.630 592.406 C 310.674 588.399, 306.653 582.292, 304.723 577.359 C 301.182 568.305, 300.879 558.622, 301.193 464.500 L 301.500 372.500 304.751 365 C 306.539 360.875, 309.875 355.317, 312.165 352.648 C 314.456 349.980, 328.348 337.741, 343.038 325.450 C 357.728 313.159, 369.998 302.448, 370.305 301.647 C 370.730 300.539, 367.125 298.819, 355.182 294.432 C 294.590 272.180, 234.140 238.952, 189 203.086 C 164.405 183.544, 137.136 157.928, 118.649 137 C 114.187 131.950, 113.019 131.058, 113.413 133 M 415.500 315.590 C 389.135 321.466, 367.933 338.119, 355.700 362.560 C 353.757 366.443, 351.469 372.068, 350.617 375.060 C 348.801 381.432, 347 398.103, 347 408.535 C 347 416.346, 345.706 419, 341.896 419 C 338.231 419, 333.138 421.833, 331.700 424.671 C 329.342 429.326, 329.051 436.911, 328.903 497.500 C 328.774 550.159, 328.921 555.960, 330.494 560.500 C 336.097 576.665, 353.825 587.565, 387.427 595.504 C 404.095 599.442, 415.139 600.337, 439.390 599.716 C 473.002 598.854, 489.956 595.139, 512.500 583.695 C 526.514 576.581, 534.143 569.896, 535.963 563.136 C 537.649 556.875, 536.962 427.308, 535.227 424.273 C 532.472 419.452, 533.550 419.530, 461.854 419 C 397.344 418.523, 394.112 418.413, 392.124 416.613 C 389.185 413.952, 388.653 409.638, 389.950 398.972 C 392.073 381.512, 401.516 367.269, 415.500 360.433 C 421.034 357.728, 422.359 357.500, 432.552 357.500 C 443.288 357.500, 443.816 357.606, 451.052 361.201 C 464.798 368.031, 473.612 379.036, 474.704 390.735 C 475.224 396.299, 475.820 397.974, 478.090 400.244 L 480.846 403 497.376 403 C 514.685 403, 518.432 402.279, 519.350 398.771 C 520.275 395.234, 517.135 378.248, 514.122 370.488 C 504.104 344.689, 482.214 324.233, 456.829 316.947 C 446.852 314.084, 425.416 313.380, 415.500 315.590 M 427.655 479.459 C 418.968 482.556, 413.897 491.422, 416.149 499.578 C 416.677 501.491, 419.110 505.309, 421.555 508.062 C 424.607 511.499, 426 513.961, 426 515.920 C 426 517.490, 424.409 524.980, 422.465 532.566 C 418.044 549.815, 417.782 549.360, 432.434 549.838 C 443.316 550.193, 446.987 549.281, 447.016 546.215 C 447.025 545.272, 445.387 538.367, 443.377 530.871 C 441.122 522.461, 439.965 516.275, 440.356 514.719 C 440.704 513.332, 443.129 509.570, 445.744 506.359 C 450.155 500.945, 450.500 500.115, 450.500 494.933 C 450.500 488.102, 447.337 483.310, 440.711 480.102 C 435.703 477.678, 433.020 477.546, 427.655 479.459"
        stroke="none" fill="#112227" fill-rule="evenodd" />
</svg>