<svg xmlns="http://www.w3.org/2000/svg" id="root" width="35" height="37" fill="none" viewBox="0 0 35 37"><g clip-path="url(#clip0_2032_2196)"><path fill="#2d9faa" d="M23.821 35.059H10.437c-6.635 0-9.234-7.332-5.533-12.129s3.899-5.047 4.405-5.698c.584-.75 1.566-1.044 2.4 0 1.688 2.111 2.361 3.894 5 4.144 1.407.134 3.468.087 6.632.087 4.195-.1 7.436 2.649 7.436 6.76s-3.374 6.836-6.958 6.836z" style="fill:#2d9faa;fill:color(display-p3 .1765 .6235 .6667);fill-opacity:1"/><path fill="#001729" d="M21.28 13.46h-.002V5.71l1.258-1.612a.718.718 0 0 0-.566-1.16H11.45a.717.717 0 0 0-.565 1.16l1.25 1.602-.016 7.79s1.454 1.924 2.493 3.24c1.324 1.681 1.508 2.332 4.676 2.332.972 0 1.983.02 2.776.02 2.723 0 3.352.245 4.165.743z" style="fill:#001729;fill:color(display-p3 0 .0902 .1608);fill-opacity:1"/></g><defs><clipPath id="clip0_2032_2196"><path fill="#fff" d="M0 0h35v37H0z" style="fill:#fff;fill-opacity:1"/></clipPath></defs></svg>