<svg xmlns="http://www.w3.org/2000/svg" width="316" height="316" viewBox="0 0 316 316" version="1.1"><path d="M 197.764 79.750 L 197.500 110.500 169 111.073 C 142.756 111.601, 139.987 111.827, 134.022 113.922 C 106.410 123.621, 87.425 144.367, 81.488 171.330 C 79.027 182.507, 79.779 200.839, 83.097 210.500 L 85.500 217.500 105.250 217.771 C 116.113 217.920, 125 217.765, 125 217.426 C 125 217.086, 124.044 215.466, 122.876 213.826 C 118.845 208.165, 116.044 198.159, 116.021 189.339 C 115.984 174.979, 120.578 164.310, 130.920 154.735 C 139.299 146.977, 145.695 144.578, 158 144.578 C 170.305 144.578, 176.701 146.977, 185.080 154.735 C 195.343 164.236, 200 174.970, 200 189.121 C 200 211.391, 185.443 229.249, 164.046 233.229 C 153.036 235.276, 140.018 231.298, 130.750 223.055 L 126 218.830 126 238.875 L 126 258.920 132.572 260.950 C 144.334 264.582, 150.671 264.985, 196.250 264.992 L 241 265 241 157 L 241 49 219.514 49 L 198.029 49 197.764 79.750" stroke="none" fill="#fbfbfb" fill-rule="evenodd"/><path d="M 0 158.003 L 0 316.006 158.250 315.753 L 316.500 315.500 316.753 157.750 L 317.006 0 158.503 0 L 0 0 0 158.003 M 0.488 158.500 C 0.488 245.400, 0.606 280.802, 0.750 237.171 C 0.894 193.540, 0.894 122.440, 0.750 79.171 C 0.606 35.902, 0.488 71.600, 0.488 158.500 M 197.764 79.750 L 197.500 110.500 169 111.073 C 142.756 111.601, 139.987 111.827, 134.022 113.922 C 106.410 123.621, 87.425 144.367, 81.488 171.330 C 79.027 182.507, 79.779 200.839, 83.097 210.500 L 85.500 217.500 105.250 217.771 C 116.113 217.920, 125 217.765, 125 217.426 C 125 217.086, 124.044 215.466, 122.876 213.826 C 118.845 208.165, 116.044 198.159, 116.021 189.339 C 115.984 174.979, 120.578 164.310, 130.920 154.735 C 139.299 146.977, 145.695 144.578, 158 144.578 C 170.305 144.578, 176.701 146.977, 185.080 154.735 C 195.343 164.236, 200 174.970, 200 189.121 C 200 211.391, 185.443 229.249, 164.046 233.229 C 153.036 235.276, 140.018 231.298, 130.750 223.055 L 126 218.830 126 238.875 L 126 258.920 132.572 260.950 C 144.334 264.582, 150.671 264.985, 196.250 264.992 L 241 265 241 157 L 241 49 219.514 49 L 198.029 49 197.764 79.750" stroke="none" fill="#9c5cb4" fill-rule="evenodd"/></svg>