<svg xmlns="http://www.w3.org/2000/svg"
    viewBox="0.052310943603515625 0.0011920928955078125 125.60519409179688 148.5470733642578">
    <defs>
        <style>
            .cls-1{fill:#0084c6}.cls-3{fill:none;stroke:#fff;stroke-miterlimit:10;stroke-width:5px}</style>
    </defs>
    <g id="Layer_5" data-name="Layer 5">
        <path class="cls-1"
            d="M129.27 134.1a80.79 80.79 0 0 1-22.66 20.83c-7.36 4.49-14.9 8.7-22.35 13a1.1 1.1 0 0 1-1.26 0c-7.13-4.15-14.33-8.19-21.4-12.44a83 83 0 0 1-24-22 85 85 0 0 1-11.69-21.81 81.37 81.37 0 0 1-4.64-20.66c-.24-2.72-.37-5.46-.38-8.19V37.32a1.44 1.44 0 0 1 .86-1.47A126.38 126.38 0 0 1 46 25.33a125.91 125.91 0 0 1 81.1 2A130.55 130.55 0 0 1 145.88 36a1 1 0 0 1 .59 1c0 16.29.07 32.59-.07 48.88a77.47 77.47 0 0 1-4.5 24.44 83.47 83.47 0 0 1-10 20"
            transform="translate(-20.83 -19.58)"></path>
    </g>
    <g id="Layer_2" data-name="Layer 2">
        <path class="cls-3"
            d="m25.89 61.41 6.03 31.56 18.93 16.93 10.91 2.3 10.62-2.59 18.79-16.35 6.89-31.85L85 30.08H38.37L25.89 61.41z"></path>
        <path class="cls-3"
            d="m36.22 55.09 10.62-6.88 8.33 6.47-8.83 5.44-10.12-5.03zm50.72 0-10.62-6.88-8.56 5.95 9.06 5.96 10.12-5.03zm-24.97-4.3-5.52 4.88-3.01 22.09-7.89 11.19 16.42 8.33 14.85-8.47-7.31-11.48-2.8-21.66-4.74-4.88z"></path>
        <path class="cls-3" d="m25.89 61.41 36.08 19.94 36.09-19.94M45.55 88.95l31.27-.14"></path>
    </g>
</svg>