<svg xmlns="http://www.w3.org/2000/svg" width="207" height="207" viewBox="0 0 207 207" fill="none"><path fill-rule="evenodd" clip-rule="evenodd" d="M42.2935 122.443C56.3153 120.007 71.0593 116.249 85.2936 105.443C114.792 129.443 122.792 162.943 120.292 190.943C118.306 213.183 86.7925 209.943 86.7932 189.943C86.7948 149.943 75.4926 134.454 42.2935 122.443ZM110.996 189.59C111.105 185.307 107.722 181.748 103.439 181.639C99.1573 181.531 95.5979 184.914 95.4892 189.196C95.3806 193.478 98.7638 197.037 103.046 197.146C107.328 197.255 110.887 193.872 110.996 189.59Z" fill="url(#paint0_linear_1912_718)"></path><path fill-rule="evenodd" clip-rule="evenodd" d="M164.793 83.4428C150.771 85.878 135.891 89.9303 121.657 100.737C90.7927 77.4426 83.7925 39.4425 86.293 15.4426C88.6126 -6.82006 119.793 -3.55725 119.793 15.9428C119.793 54.9427 131.793 73.4428 164.793 83.4428ZM95.9538 16.5902C95.8451 20.8723 99.2284 24.4317 103.51 24.5404C107.793 24.6491 111.352 21.2658 111.461 16.9837C111.569 12.7017 108.186 9.14223 103.904 9.03355C99.6219 8.92487 96.0625 12.3081 95.9538 16.5902Z" fill="url(#paint1_linear_1912_718)"></path><path fill-rule="evenodd" clip-rule="evenodd" d="M83.5294 41.4207C86.1536 55.4084 89.7946 70.3553 100.792 84.4425C77.7925 114.443 44.1191 122.459 16.0879 120.336C-6.17709 118.65 -4.70746 86.8268 16.6357 86.8268C56.8158 86.8269 72.7924 74.4425 83.5294 41.4207ZM17.3153 111.023C21.5985 111.074 25.112 107.643 25.1629 103.36C25.2138 99.0764 21.7829 95.5629 17.4997 95.512C13.2165 95.4611 9.70307 98.892 9.65215 103.175C9.60124 107.458 13.0322 110.972 17.3153 111.023Z" fill="url(#paint2_linear_1912_718)"></path><path fill-rule="evenodd" clip-rule="evenodd" d="M123.064 164.497C120.44 150.509 116.799 135.562 105.801 121.475C128.797 92.352 162.323 83.8596 190.506 85.5816C211.8 86.8826 211.799 119.852 190.51 119.852C150.329 119.852 134.797 131.352 123.064 164.497ZM189.271 94.9855C184.988 94.9346 181.475 98.3655 181.424 102.649C181.373 106.932 184.804 110.445 189.087 110.496C193.37 110.547 196.883 107.116 196.934 102.833C196.985 98.5498 193.554 95.0364 189.271 94.9855Z" fill="url(#paint3_linear_1912_718)"></path><defs><linearGradient id="paint0_linear_1912_718" x1="114.293" y1="137.942" x2="206.293" y2="99.9425" gradientUnits="userSpaceOnUse"><stop stop-color="#4740E7"></stop><stop offset="1" stop-color="#5C7AFA"></stop></linearGradient><linearGradient id="paint1_linear_1912_718" x1="114.293" y1="137.942" x2="206.293" y2="99.9425" gradientUnits="userSpaceOnUse"><stop stop-color="#4740E7"></stop><stop offset="1" stop-color="#5C7AFA"></stop></linearGradient><linearGradient id="paint2_linear_1912_718" x1="114.293" y1="137.942" x2="206.293" y2="99.9425" gradientUnits="userSpaceOnUse"><stop stop-color="#4740E7"></stop><stop offset="1" stop-color="#5C7AFA"></stop></linearGradient><linearGradient id="paint3_linear_1912_718" x1="114.293" y1="137.942" x2="206.293" y2="99.9425" gradientUnits="userSpaceOnUse"><stop stop-color="#4740E7"></stop><stop offset="1" stop-color="#5C7AFA"></stop></linearGradient></defs></svg>