<svg xmlns="http://www.w3.org/2000/svg" width="200" height="200" viewBox="0 0 200 200" version="1.1"><path d="M 82.499 1.500 C 72.621 3.311, 60.762 7.451, 52 12.147 C 25.055 26.590, 6.104 53.691, 1.408 84.500 C -0.341 95.975, -0.332 101.223, 1.462 113.118 C 3.157 124.362, 5.811 132.601, 11.087 143 C 16.259 153.192, 18.772 156.806, 19.399 154.953 C 19.829 153.683, 20.992 149.544, 25.007 135 C 25.539 133.075, 27.291 126.775, 28.901 121 C 30.511 115.225, 34.625 100.150, 38.044 87.500 C 41.463 74.850, 45.592 61.781, 47.219 58.458 C 51.825 49.052, 60.981 39.974, 70.810 35.069 C 79.560 30.702, 83.814 29.638, 92.500 29.642 C 98.851 29.645, 101.428 30.118, 105 31.933 C 117.268 38.168, 121.770 48.344, 119.041 63.665 C 117.029 74.958, 118.116 74, 107.316 74 C 97.878 74, 97.775 73.974, 98.448 71.750 C 98.822 70.513, 99.378 66.561, 99.683 62.968 C 100.192 56.973, 100.023 56.181, 97.633 53.340 C 91.086 45.559, 76.415 47.856, 67.711 58.024 C 64.842 61.377, 63.487 64.685, 60.223 76.309 L 56.239 90.500 67.977 90.780 L 79.714 91.059 79.714 96.282 C 79.714 99.575, 80.506 103.145, 81.857 105.940 C 83.036 108.380, 84.001 110.404, 84.001 110.438 C 84.002 110.472, 76.875 110.367, 68.162 110.204 C 56.088 109.978, 52.083 110.216, 51.317 111.204 C 50.220 112.620, 49.964 113.498, 39.585 151.500 C 37.632 158.650, 35.521 166.140, 34.892 168.143 C 34.264 170.147, 34.037 172.251, 34.387 172.818 C 36.001 175.429, 48.359 183.635, 56.500 187.502 C 71.570 194.659, 79.835 196.423, 98.500 196.464 C 114.751 196.501, 117.771 196.055, 130.500 191.738 C 145.046 186.805, 155.339 180.480, 167.160 169.210 C 182.429 154.652, 192.841 134.755, 196.082 113.937 C 197.757 103.178, 196.764 83.382, 194.053 73.500 C 191.690 64.886, 185.817 51.568, 181.726 45.547 L 179.194 41.821 177.724 47.161 C 176.916 50.097, 174.627 58.350, 172.637 65.500 C 170.647 72.650, 168.364 80.975, 167.565 84 C 159.418 114.812, 152.500 138.478, 150.316 143 C 146.788 150.306, 134.372 162.579, 126.690 166.356 C 107.305 175.887, 89.120 172.857, 81.029 158.749 C 78.338 154.057, 78.028 152.651, 78.105 145.500 C 78.153 141.100, 78.714 135.250, 79.351 132.500 L 80.510 127.500 90.065 127.216 L 99.620 126.932 98.191 134.314 C 96.890 141.032, 96.915 142.018, 98.467 145.289 C 100.889 150.393, 104.155 152.200, 110.961 152.200 C 119.467 152.200, 127.216 147.728, 132.352 139.856 C 133.590 137.960, 141 112.898, 141 110.610 C 141 110.274, 134.925 110, 127.500 110 C 120.075 110, 114 109.727, 114 109.394 C 114 109.061, 115.193 107.374, 116.652 105.644 C 119.845 101.858, 122 96.977, 122 93.532 L 122 91 134.021 91 C 145.531 91, 146.085 90.904, 147.022 88.750 C 148.364 85.664, 164 28.161, 164 26.309 C 164 24.462, 161.358 22.123, 152.946 16.521 C 132.438 2.865, 105.910 -2.792, 82.499 1.500 M 87.368 88.571 C 84.806 91.287, 84 93.020, 84 95.807 C 84 100.103, 87.693 107.853, 92.426 113.487 L 95.774 117.473 103.048 111.487 C 115.522 101.220, 120.015 92.015, 115 87 C 112.352 84.352, 109.236 84.475, 104.935 87.398 L 101.406 89.796 99.098 87.398 C 95.630 83.795, 91.482 84.210, 87.368 88.571" stroke="none" fill="#f27b28" fill-rule="evenodd"/></svg>