<svg xmlns="http://www.w3.org/2000/svg" width="512" height="512" viewBox="0 0 512 512" version="1.1"><path d="M 0 256 L 0 512 18 512 C 30.679 512, 36 511.667, 36 510.874 C 36 508.820, 42.122 497.584, 46.285 492 C 54.394 481.120, 64.392 472.681, 78.455 464.848 C 91.040 457.837, 91.555 454.975, 81.401 448.480 C 66.210 438.762, 53.804 421.127, 49.406 403 C 46.817 392.331, 47.789 374.124, 51.515 363.500 C 58.699 343.016, 77.064 323.489, 100.482 311.434 C 109.609 306.736, 113 303.990, 113 301.297 C 113 300.482, 107.453 294.345, 100.673 287.658 C 82.070 269.309, 71.650 252.242, 64.860 229 C 57.141 202.574, 58.720 168.586, 68.969 140.585 C 79.477 111.873, 104.575 85.542, 135.261 71.034 C 160.034 59.322, 180.275 54.977, 213.500 54.240 C 239.801 53.656, 255.556 55.049, 290.500 61.046 C 302.699 63.140, 306.134 63.710, 323 66.441 C 344.504 69.923, 371.280 69.380, 391.657 65.049 C 399.341 63.416, 413.334 58.879, 422.797 54.953 C 424.060 54.429, 427.706 54, 430.899 54 C 435.968 54, 437.096 54.375, 439.803 56.962 C 443.678 60.665, 445.221 66.241, 445.155 76.302 C 445.057 91.355, 441.797 106.305, 435.955 118.500 C 431.389 128.031, 427.215 133.273, 421.114 137.143 C 416.953 139.782, 415.864 140, 406.870 140 C 400.381 140, 392.915 139.146, 384.494 137.441 C 370.095 134.525, 366.637 134.543, 366.209 137.535 C 366.048 138.654, 368.566 144.764, 371.803 151.113 C 380.259 167.699, 382.307 176.031, 382.219 193.500 C 382.043 228.437, 370.540 256.456, 346.500 280.503 C 328.611 298.396, 308.139 309.819, 277.500 319.003 C 262.827 323.401, 234.102 326.477, 215.396 325.654 C 168.163 323.576, 171.844 323.556, 164.388 325.943 C 151.960 329.924, 144.142 335.912, 140.074 344.567 C 137.729 349.555, 137.298 358.616, 139.145 364.101 C 141.981 372.525, 151.887 380.109, 164 383.129 C 173.070 385.390, 199.084 384.701, 222.500 381.579 C 268.964 375.384, 284.709 374.020, 309.500 374.043 C 343.042 374.075, 363.112 377.885, 383.310 388.054 C 393.499 393.184, 398.885 396.951, 405.897 403.853 C 414.328 412.151, 422.930 425.904, 426.147 436.232 C 433.227 458.952, 433.765 486.047, 427.543 506.500 C 426.706 509.250, 426.017 511.617, 426.011 511.761 C 426.005 511.904, 445.463 511.904, 469.250 511.761 L 512.500 511.500 512.752 255.750 L 513.004 0 256.502 0 L 0 0 0 256 M 0.492 256.500 C 0.492 397.300, 0.608 454.751, 0.750 384.170 C 0.892 313.588, 0.892 198.388, 0.750 128.170 C 0.608 57.951, 0.492 115.700, 0.492 256.500 M 204.500 114.166 C 176.578 123.584, 161.466 159.350, 167.494 201.751 C 170.307 221.537, 176.579 235.579, 187.495 246.525 C 198.015 257.075, 209.905 262, 224.855 262 C 235.187 262, 241.711 260.594, 250.878 256.393 C 276.830 244.499, 287.681 210.055, 278.359 169.157 C 273.530 147.971, 262.699 129.546, 249.887 120.722 C 240.970 114.581, 232.294 112.033, 220.500 112.092 C 213.211 112.129, 208.874 112.691, 204.500 114.166 M 217.500 473.573 C 181.142 476.927, 168.381 479.225, 152.521 485.277 C 142.366 489.152, 135.640 493.081, 130.160 498.337 C 126.145 502.188, 120 510.108, 120 511.430 C 120 511.744, 160.333 512, 209.629 512 L 299.258 512 298.602 507.058 C 296.495 491.175, 285.269 480.577, 265 475.335 C 259.678 473.958, 226.616 472.732, 217.500 473.573" stroke="none" fill="#05bb84" fill-rule="evenodd"/><path d="M 195 54.654 C 164.160 59.355, 154.491 62.010, 135.261 71.058 C 104.657 85.456, 79.482 111.860, 68.969 140.585 C 58.720 168.586, 57.141 202.574, 64.860 229 C 71.650 252.242, 82.070 269.309, 100.673 287.658 C 107.453 294.345, 113 300.482, 113 301.297 C 113 303.990, 109.609 306.736, 100.482 311.434 C 77.064 323.489, 58.699 343.016, 51.515 363.500 C 47.789 374.124, 46.817 392.331, 49.406 403 C 53.804 421.127, 66.210 438.762, 81.401 448.480 C 91.555 454.975, 91.040 457.837, 78.455 464.848 C 64.392 472.681, 54.394 481.120, 46.285 492 C 42.122 497.584, 36 508.820, 36 510.874 C 36 511.691, 47.471 512, 77.784 512 L 119.569 512 121.478 508.750 C 124.681 503.300, 133.140 495.013, 138.974 491.610 C 159.226 479.797, 192.025 473.626, 235 473.543 C 258.399 473.498, 263 474.054, 274 478.253 C 288.129 483.647, 296.851 493.859, 298.602 507.058 L 299.258 512 362.590 512 L 425.923 512 427.490 506.750 C 433.765 485.730, 433.257 459.047, 426.147 436.232 C 422.930 425.904, 414.328 412.151, 405.897 403.853 C 398.885 396.951, 393.499 393.184, 383.310 388.054 C 363.112 377.885, 343.042 374.075, 309.500 374.043 C 284.709 374.020, 268.964 375.384, 222.500 381.579 C 199.084 384.701, 173.070 385.390, 164 383.129 C 151.887 380.109, 141.981 372.525, 139.145 364.101 C 137.298 358.616, 137.729 349.555, 140.074 344.567 C 144.142 335.912, 151.960 329.924, 164.388 325.943 C 171.844 323.556, 168.163 323.576, 215.396 325.654 C 234.102 326.477, 262.827 323.401, 277.500 319.003 C 308.139 309.819, 328.611 298.396, 346.500 280.503 C 370.540 256.456, 382.043 228.437, 382.219 193.500 C 382.307 176.031, 380.259 167.699, 371.803 151.113 C 368.566 144.764, 366.048 138.654, 366.209 137.535 C 366.637 134.543, 370.095 134.525, 384.494 137.441 C 392.915 139.146, 400.381 140, 406.870 140 C 415.864 140, 416.953 139.782, 421.114 137.143 C 427.215 133.273, 431.389 128.031, 435.955 118.500 C 441.797 106.305, 445.057 91.355, 445.155 76.302 C 445.221 66.241, 443.678 60.665, 439.803 56.962 C 437.096 54.375, 435.968 54, 430.899 54 C 427.706 54, 424.060 54.429, 422.797 54.953 C 413.334 58.879, 399.341 63.416, 391.657 65.049 C 371.280 69.380, 344.504 69.923, 323 66.441 C 317.775 65.595, 311.025 64.503, 308 64.013 C 304.975 63.524, 295.975 62.015, 288 60.660 C 273.973 58.277, 265.803 57.119, 248.091 55.004 C 240.245 54.067, 200.565 53.805, 195 54.654 M 204.500 114.166 C 176.578 123.584, 161.466 159.350, 167.494 201.751 C 170.307 221.537, 176.579 235.579, 187.495 246.525 C 198.015 257.075, 209.905 262, 224.855 262 C 235.187 262, 241.711 260.594, 250.878 256.393 C 276.830 244.499, 287.681 210.055, 278.359 169.157 C 273.530 147.971, 262.699 129.546, 249.887 120.722 C 240.970 114.581, 232.294 112.033, 220.500 112.092 C 213.211 112.129, 208.874 112.691, 204.500 114.166" stroke="none" fill="#fafbfb" fill-rule="evenodd"/></svg>