<svg xmlns="http://www.w3.org/2000/svg" width="190" height="190" viewBox="0 0 190 190" version="1.1"><path d="" stroke="none" fill="#089cbc" fill-rule="evenodd"/><path d="M 65.500 1.078 C 61.650 1.594, 54.900 2.910, 50.500 4.003 C 46.100 5.096, 39.125 7.636, 35 9.648 C 29.541 12.310, 25.542 15.284, 20.306 20.576 C 16.349 24.575, 11.958 30.122, 10.550 32.902 C 9.141 35.683, 7.133 40.330, 6.087 43.229 C 5.042 46.128, 3.709 50.750, 3.124 53.500 C 2.540 56.250, 1.772 60.075, 1.417 62 C 1.062 63.925, 0.553 76.574, 0.286 90.109 C -0.099 109.658, 0.138 117.011, 1.437 125.871 C 2.337 132.006, 4 140.057, 5.134 143.762 C 6.268 147.468, 8.614 153.200, 10.348 156.500 C 12.081 159.800, 16.464 165.479, 20.086 169.120 C 24.894 173.954, 28.942 176.856, 35.086 179.876 C 39.714 182.151, 46.936 184.877, 51.135 185.935 C 55.334 186.993, 63.389 188.396, 69.036 189.053 C 75.678 189.825, 87.456 190.058, 102.401 189.712 C 120.204 189.301, 127.563 188.724, 134.500 187.195 C 139.450 186.104, 146.041 184.249, 149.146 183.073 C 152.251 181.897, 157.426 179.228, 160.646 177.143 C 163.866 175.057, 168.843 170.953, 171.707 168.022 C 174.570 165.092, 178.484 159.705, 180.403 156.052 C 182.323 152.399, 184.811 146.055, 185.932 141.955 C 187.053 137.855, 188.488 130.900, 189.120 126.500 C 189.752 122.100, 190.449 107.588, 190.669 94.250 C 190.895 80.503, 190.684 70, 190.181 70 C 189.693 70, 189.017 66.724, 188.678 62.720 C 188.340 58.716, 186.941 51.570, 185.571 46.841 C 184.200 42.111, 181.411 35.395, 179.372 31.917 C 177.333 28.438, 173.897 23.673, 171.735 21.329 C 169.574 18.984, 165.340 15.429, 162.326 13.428 C 159.312 11.428, 154.130 8.727, 150.810 7.426 C 147.490 6.124, 140.437 4.080, 135.137 2.883 C 126.800 1, 121.926 0.668, 99 0.423 C 84.425 0.267, 69.350 0.562, 65.500 1.078 M 70.994 57.934 C 69.615 58.354, 67.101 59.413, 65.407 60.289 C 63.713 61.165, 61.098 63.494, 59.595 65.464 C 58.092 67.434, 56.165 71.095, 55.311 73.599 C 54.358 76.398, 53.942 80.049, 54.233 83.076 L 54.706 88 52.002 88 C 50.515 88, 47.769 88.519, 45.899 89.153 C 44.030 89.787, 41.252 91.175, 39.727 92.237 C 38.202 93.299, 36.001 96.038, 34.836 98.322 C 33.562 100.819, 32.689 104.475, 32.648 107.488 C 32.600 111, 33.286 113.753, 34.939 116.687 C 36.236 118.991, 39.143 122.177, 41.399 123.768 C 43.655 125.360, 47.303 127.366, 49.507 128.226 C 51.711 129.086, 57.111 130.386, 61.507 131.114 C 66.658 131.968, 78.745 132.450, 95.500 132.470 C 112.857 132.490, 123.993 132.057, 129 131.168 C 133.125 130.436, 138.075 129.322, 140 128.692 C 141.925 128.063, 145.112 126.567, 147.083 125.367 C 149.054 124.167, 151.854 121.774, 153.307 120.047 C 154.759 118.321, 156.414 115.175, 156.985 113.056 C 157.719 110.329, 157.692 107.664, 156.893 103.935 C 155.995 99.749, 154.785 97.690, 150.999 93.904 C 147.808 90.712, 144.803 88.755, 141.893 87.971 C 139.464 87.317, 135.455 87.080, 132.794 87.433 L 128.037 88.064 128.646 85.022 C 128.980 83.348, 128.675 79.909, 127.966 77.379 C 126.998 73.923, 125.687 72.061, 122.689 69.890 C 119.724 67.742, 117.566 67, 114.284 67 C 111.856 67, 108.886 67.506, 107.684 68.125 C 106.483 68.744, 104.489 70.170, 103.254 71.296 C 102.019 72.421, 100.894 73.152, 100.754 72.921 C 100.614 72.689, 99.600 70.732, 98.500 68.572 C 97.319 66.251, 94.672 63.483, 92.035 61.809 C 89.579 60.250, 85.979 58.533, 84.035 57.993 C 82.091 57.453, 78.925 57.047, 77 57.092 C 75.075 57.136, 72.372 57.515, 70.994 57.934 M 0.432 95 C 0.432 108.475, 0.574 113.987, 0.747 107.250 C 0.920 100.513, 0.920 89.487, 0.747 82.750 C 0.574 76.013, 0.432 81.525, 0.432 95" stroke="none" fill="#049cbc" fill-rule="evenodd"/></svg>