<svg xmlns="http://www.w3.org/2000/svg" width="193" height="185" viewBox="0 0 193 185" version="1.1"><path d="M 50.861 46.101 C 21.903 75.566, 8.398 89.983, 8.177 91.669 C 7.905 93.747, 14.572 100.879, 50.538 136.980 C 74.015 160.545, 94.162 180.071, 95.311 180.371 C 97.677 180.990, 97.431 181.227, 151.388 126.257 C 175.541 101.650, 185 91.377, 185 89.751 C 185 88.112, 175.543 78.035, 150.655 53.155 C 122.050 24.559, 115.908 18.877, 113.905 19.160 C 112.254 19.393, 111.394 20.251, 111.161 21.895 C 110.890 23.814, 113.075 26.550, 122.130 35.630 L 133.436 46.969 129.468 51.154 C 127.286 53.456, 115.060 65.951, 102.300 78.920 L 79.100 102.500 67.784 91.250 C 56.266 79.799, 52.823 77.833, 51.512 81.962 C 51.169 83.041, 51.332 84.729, 51.873 85.712 C 53.638 88.918, 98.558 133, 100.061 133 C 102.118 133, 136 98.849, 136 96.775 C 136 95.837, 135.071 94.573, 133.936 93.966 C 131.319 92.565, 131.758 92.223, 114.718 108.961 C 107.137 116.408, 100.604 122.615, 100.199 122.756 C 99.794 122.897, 96.104 119.632, 92 115.500 L 84.537 107.987 100.101 92.243 C 108.662 83.584, 120.934 71.122, 127.372 64.550 L 139.079 52.600 157.498 70.998 L 175.916 89.396 170.729 94.948 C 167.876 98.002, 149.895 116.472, 130.770 135.994 L 95.997 171.488 56.497 131.997 C 34.773 110.278, 17.111 92.182, 17.249 91.784 C 17.387 91.386, 35.500 72.768, 57.500 50.411 C 79.500 28.053, 97.901 8.925, 98.392 7.904 C 99.464 5.675, 97.607 3, 94.988 3 C 93.982 3, 74.991 21.550, 50.861 46.101" stroke="none" fill="#f0f4fb" fill-rule="evenodd"/><path d="M 77.754 0.974 C 62.422 3.750, 44.363 12.481, 32.116 23.040 C 18.074 35.146, 9.454 48.030, 3.375 66 C 0.630 74.117, 0.500 75.311, 0.500 92.500 C 0.500 109.689, 0.630 110.883, 3.375 119 C 13.614 149.268, 35.482 170.782, 66.500 181.103 C 76.495 184.428, 76.511 184.430, 96.500 184.430 C 116.489 184.430, 116.505 184.428, 126.500 181.103 C 150.822 173.010, 171.810 156.013, 182.561 135.703 C 186.510 128.241, 192 112.927, 192 109.371 C 192 108.132, 192.450 106.840, 193 106.500 C 193.592 106.134, 194 99.970, 194 91.382 C 194 81.970, 193.649 77.099, 193 77.500 C 192.441 77.846, 192 77.073, 192 75.747 C 192 72.089, 186.567 56.867, 182.561 49.297 C 171.783 28.935, 150.604 11.812, 126.500 3.972 C 117.064 0.902, 115.542 0.702, 99.500 0.417 C 90.150 0.250, 80.364 0.501, 77.754 0.974 M 50.861 46.101 C 21.903 75.566, 8.398 89.983, 8.177 91.669 C 7.905 93.747, 14.572 100.879, 50.538 136.980 C 74.015 160.545, 94.162 180.071, 95.311 180.371 C 97.677 180.990, 97.431 181.227, 151.388 126.257 C 175.541 101.650, 185 91.377, 185 89.751 C 185 88.112, 175.543 78.035, 150.655 53.155 C 122.050 24.559, 115.908 18.877, 113.905 19.160 C 112.254 19.393, 111.394 20.251, 111.161 21.895 C 110.890 23.814, 113.075 26.550, 122.130 35.630 L 133.436 46.969 129.468 51.154 C 127.286 53.456, 115.060 65.951, 102.300 78.920 L 79.100 102.500 67.784 91.250 C 56.266 79.799, 52.823 77.833, 51.512 81.962 C 51.169 83.041, 51.332 84.729, 51.873 85.712 C 53.638 88.918, 98.558 133, 100.061 133 C 102.118 133, 136 98.849, 136 96.775 C 136 95.837, 135.071 94.573, 133.936 93.966 C 131.319 92.565, 131.758 92.223, 114.718 108.961 C 107.137 116.408, 100.604 122.615, 100.199 122.756 C 99.794 122.897, 96.104 119.632, 92 115.500 L 84.537 107.987 100.101 92.243 C 108.662 83.584, 120.934 71.122, 127.372 64.550 L 139.079 52.600 157.498 70.998 L 175.916 89.396 170.729 94.948 C 167.876 98.002, 149.895 116.472, 130.770 135.994 L 95.997 171.488 56.497 131.997 C 34.773 110.278, 17.111 92.182, 17.249 91.784 C 17.387 91.386, 35.500 72.768, 57.500 50.411 C 79.500 28.053, 97.901 8.925, 98.392 7.904 C 99.464 5.675, 97.607 3, 94.988 3 C 93.982 3, 74.991 21.550, 50.861 46.101 M 0.400 92.500 C 0.401 100.750, 0.556 103.992, 0.744 99.704 C 0.932 95.417, 0.931 88.667, 0.742 84.704 C 0.552 80.742, 0.399 84.250, 0.400 92.500" stroke="none" fill="#2363df" fill-rule="evenodd"/></svg>