<svg width="161" height="160" viewBox="0 0 161 160" fill="none" xmlns="http://www.w3.org/2000/svg">
<rect x="0.663818" y="0.0599365" width="159.43" height="159.43" rx="79.7151" fill="#333333"/>
<path d="M14.1635 64.1299H146.595V95.4201H14.1635V64.1299Z" fill="#333333"/>
<path d="M17.0293 66.8154H22.8225V76.3197H22.8744C23.7387 74.4372 26.1263 73.2694 28.2604 73.2694C34.1573 73.2694 34.6145 77.7411 34.6145 80.4341V92.2779H28.8193V83.3326C28.8193 80.7913 29.0748 78.2501 25.9227 78.2501C23.7368 78.2501 22.7726 80.1805 22.7726 82.2147V92.2779H17.0293V66.8154ZM37.6129 79.4698C37.7147 77.0304 38.7807 75.4553 40.3558 74.4891C41.9309 73.5748 43.965 73.2194 45.9454 73.2194C50.1136 73.2194 54.18 74.1837 54.18 79.4199V87.4989C54.18 89.0739 54.18 90.8027 54.8408 92.226H49.0975C48.8939 91.669 48.8439 91.1081 48.7421 90.4973C47.2689 92.1242 45.033 92.785 42.9489 92.785C39.5932 92.785 36.9521 91.0063 36.9521 87.1954C36.9521 81.1467 43.2025 81.6557 47.217 80.7913C48.1832 80.5877 48.7421 80.2324 48.7421 79.0626C48.7421 77.6911 47.1671 77.1322 45.9473 77.1322C44.3723 77.1322 43.3542 77.8947 43.0507 79.4698H37.6129ZM45.083 89.024C47.8278 89.024 48.7421 87.399 48.5904 83.5881C47.776 84.1451 46.3027 84.2469 45.033 84.6023C43.7614 84.9096 42.6435 85.5185 42.6435 86.9399C42.6934 88.465 43.8133 89.024 45.083 89.024ZM57.0267 66.9172H62.8199V92.226H57.0267V66.9172ZM87.1625 73.2694C91.9914 73.2694 95.1915 76.0642 94.6345 81.3503C93.9737 87.8561 89.5021 92.6332 83.098 92.6332C78.2191 92.6332 74.9153 90.0401 75.4743 84.7041C76.135 78.2001 80.7604 73.2694 87.1625 73.2694ZM83.657 88.2115C86.9608 88.2115 88.484 84.4006 88.7894 81.6038C89.043 79.3181 88.4341 77.6911 86.3 77.6911C83.1998 77.6911 81.5229 81.9611 81.2175 84.4505C81.0139 86.5346 81.6247 88.2115 83.657 88.2115ZM76.4904 73.6766H72.933V72.8622C72.933 71.1853 73.7455 70.9836 75.067 70.9836C75.5761 70.9836 76.0851 71.0335 76.6421 71.0835V66.7635C75.7116 66.7049 74.7797 66.6716 73.8473 66.6637C68.9684 66.6118 67.1897 68.2887 67.1897 73.6747H64.3969V77.6412H67.1917V92.226H72.9868V77.6412H75.1189L76.4904 73.6766ZM96.6168 88.465V73.7265H102.206V76.7269H102.258C103.123 74.491 105.053 73.2713 107.542 73.2713C107.95 73.2713 108.357 73.3232 108.762 73.3731L108.509 74.1357L106.983 78.3538H106.732C103.885 78.3538 102.362 80.3361 102.362 82.522V92.2279H96.5669V88.467L96.6168 88.465ZM126.397 92.2779H120.909V90.1919H120.858C119.74 91.9705 118.063 92.8849 115.979 92.8849C110.439 92.8849 108.103 87.8523 108.103 82.618C108.103 77.791 110.543 73.1676 115.522 73.1676C117.707 73.1676 119.384 74.03 120.554 75.7069H120.604V66.6617H126.397V92.2779ZM113.897 82.7736C113.897 85.3149 114.761 88.1596 117.402 88.1596C120.197 88.1596 120.808 85.3149 120.808 82.9772C120.808 80.2823 119.893 77.7929 117.402 77.7929C114.759 77.7929 113.897 80.436 113.897 82.7736ZM135.852 92.5814C132.903 92.5814 130.565 91.7689 128.38 90.2956L130.056 85.5703C131.887 86.89 134.173 87.8561 135.852 87.8561C137.273 87.8561 137.934 87.3471 137.934 86.5845C137.934 84.2469 129.244 85.6702 129.244 79.4199C129.244 75.607 132.446 73.1176 136.816 73.1176C139.052 73.1176 141.695 73.982 143.525 74.9463L141.848 79.4199C140.018 78.4018 138.087 77.7411 136.562 77.7411C135.343 77.7411 134.732 78.2501 134.732 78.9108C134.732 81.3004 143.729 79.8252 143.729 86.4827C143.677 90.3455 140.271 92.5814 135.852 92.5814Z" fill="#FF9E18"/>
</svg>
