<?xml version="1.0" encoding="utf-8"?>
<!-- Generator: Adobe Illustrator 27.1.1, SVG Export Plug-In . SVG Version: 6.00 Build 0)  -->
<svg version="1.1" id="Layer_1" xmlns="http://www.w3.org/2000/svg" xmlns:xlink="http://www.w3.org/1999/xlink" x="0px" y="0px"
	 viewBox="0 0 512 512" style="enable-background:new 0 0 512 512;" xml:space="preserve">
<style type="text/css">
	.st0{fill-rule:evenodd;clip-rule:evenodd;fill:#009BCF;}
</style>
<g>
	<path class="st0" d="M96,0h320c53.02,0,96,42.98,96,96v320c0,53.02-42.98,96-96,96H96c-53.02,0-96-42.98-96-96V96
		C0,42.98,42.98,0,96,0z M384.5,236.06c1.86-5.67,3.21-11.43,3.43-17.42c0.12-3.32,0.18-4.98-0.55-5.48
		c-0.74-0.5-2.28,0.19-5.39,1.56c-61.13,27.11-122.27,54.22-183.4,81.32c-5.34,2.37-10.68,4.75-16.02,7.12
		c-15.27,6.79-30.53,13.59-45.87,20.22c-4.31,1.86-3.13,3.04-0.38,4.99c3.51,2.49,7.33,4.09,11.6,4.81l3.52,0.59
		c32.51,5.44,65.02,10.88,97.44,16.91c3.51,0.65,4.6,2.09,5.19,5.26c5.61,30.13,10.41,60.38,13.4,90.9
		c0.66,6.78,2.92,9.75,7.77,10.85c5.06,1.15,8.87-0.87,12.16-6.56C326.87,382.64,359.94,311.26,384.5,236.06z M244.59,64.51
		c-0.58-5.81-3.09-9.29-7.85-10.28c-4.65-0.97-8.88,1.15-11.64,5.94c-38.87,67.4-71.52,137.62-96.12,211.48
		c-2.43,7.29-4.57,14.63-4.92,22.36c-0.1,2.99-0.15,4.48,0.5,4.92c0.65,0.44,2-0.16,4.68-1.35l41.32-18.3
		c52.11-23.08,104.21-46.16,156.32-69.24c4.5-1.99,9-3.99,13.5-5.99c11.82-5.25,23.64-10.5,35.5-15.66c3.15-1.37,3.07-2.41,0.57-4.3
		c-3.7-2.8-7.79-4.56-12.38-5.33c-33.7-5.61-67.39-11.23-100.96-17.52c-2.86-0.54-4.27-1.38-4.86-4.43
		C252.41,126.23,247.69,95.49,244.59,64.51z"/>
</g>
</svg>
