<svg id="svg" version="1.1" xmlns="http://www.w3.org/2000/svg"
    xmlns:xlink="http://www.w3.org/1999/xlink" width="400" height="599.2125984251969"
    viewBox="0, 0, 400,599.2125984251969">
    <g id="svgg">
        <path id="path0"
            d="M121.770 21.700 C 122.331 32.101,122.477 33.825,122.827 34.180 C 123.032 34.389,123.200 35.514,123.200 36.680 C 123.200 37.846,123.380 38.800,123.600 38.800 C 123.820 38.800,124.000 39.700,124.000 40.800 C 124.000 41.900,124.160 42.800,124.356 42.800 C 124.693 42.800,124.810 43.249,125.432 46.900 C 125.573 47.725,125.848 48.400,126.044 48.400 C 126.240 48.400,126.400 48.839,126.400 49.376 C 126.400 49.913,126.580 50.464,126.800 50.600 C 127.020 50.736,127.200 51.197,127.200 51.624 C 127.200 52.051,127.380 52.400,127.600 52.400 C 127.820 52.400,128.000 52.760,128.000 53.200 C 128.000 53.640,128.180 54.000,128.400 54.000 C 128.620 54.000,128.800 54.360,128.800 54.800 C 128.800 55.240,128.980 55.600,129.200 55.600 C 129.420 55.600,129.600 55.960,129.600 56.400 C 129.600 56.840,129.780 57.200,130.000 57.200 C 130.220 57.200,130.400 57.436,130.400 57.725 C 130.400 58.013,130.760 58.636,131.200 59.108 C 131.640 59.580,132.000 60.154,132.000 60.383 C 132.000 60.612,132.180 60.800,132.400 60.800 C 132.620 60.800,132.800 61.070,132.800 61.400 C 132.800 61.730,132.976 62.000,133.192 62.000 C 133.407 62.000,134.855 63.277,136.410 64.838 L 139.236 67.675 138.418 70.039 C 137.968 71.339,137.600 72.852,137.600 73.402 C 137.600 73.951,137.420 74.400,137.200 74.400 C 136.980 74.400,136.800 75.300,136.800 76.400 C 136.800 77.500,136.620 78.400,136.400 78.400 C 136.180 78.400,136.000 79.300,136.000 80.400 C 136.000 81.500,135.820 82.400,135.600 82.400 C 135.346 82.400,135.200 85.400,135.200 90.600 C 135.200 95.800,135.346 98.800,135.600 98.800 C 135.822 98.800,136.000 99.867,136.000 101.200 C 136.000 102.533,136.178 103.600,136.400 103.600 C 136.620 103.600,136.800 104.320,136.800 105.200 C 136.800 106.080,136.955 106.800,137.144 106.800 C 137.334 106.800,137.599 107.731,137.734 108.869 C 137.868 110.008,138.164 111.124,138.389 111.349 C 138.615 111.575,138.800 112.174,138.800 112.680 C 138.800 113.186,138.980 113.600,139.200 113.600 C 139.420 113.600,139.600 113.960,139.600 114.400 C 139.600 114.840,139.780 115.200,140.000 115.200 C 140.220 115.200,140.400 115.560,140.400 116.000 C 140.400 116.440,140.580 116.800,140.800 116.800 C 141.020 116.800,141.200 117.160,141.200 117.600 C 141.200 118.040,141.380 118.400,141.600 118.400 C 141.820 118.400,142.000 118.760,142.000 119.200 C 142.000 119.640,142.180 120.000,142.400 120.000 C 142.620 120.000,142.800 120.360,142.800 120.800 C 142.800 121.240,142.980 121.600,143.200 121.600 C 143.420 121.600,143.600 121.920,143.600 122.312 C 143.600 122.703,143.960 123.283,144.400 123.600 C 144.840 123.917,145.200 124.425,145.200 124.728 C 145.200 125.031,145.740 125.783,146.400 126.400 C 147.060 127.017,147.600 127.724,147.600 127.973 C 147.600 128.755,157.210 138.000,158.023 138.000 C 158.274 138.000,158.983 138.540,159.600 139.200 C 160.217 139.860,160.969 140.400,161.272 140.400 C 161.575 140.400,162.083 140.760,162.400 141.200 C 162.717 141.640,163.207 142.000,163.488 142.000 C 163.770 142.000,164.000 142.180,164.000 142.400 C 164.000 142.620,164.360 142.800,164.800 142.800 C 165.240 142.800,165.600 142.980,165.600 143.200 C 165.600 143.420,165.883 143.600,166.229 143.600 C 167.875 143.600,168.000 144.336,168.000 154.014 C 168.000 162.693,167.955 163.266,167.300 162.983 C 166.915 162.817,165.700 162.489,164.600 162.255 C 163.500 162.020,162.510 161.732,162.400 161.614 C 161.901 161.080,160.337 160.400,159.605 160.400 C 159.162 160.400,158.800 160.220,158.800 160.000 C 158.800 159.780,158.260 159.600,157.600 159.600 C 156.940 159.600,156.400 159.420,156.400 159.200 C 156.400 158.980,155.860 158.800,155.200 158.800 C 154.540 158.800,154.000 158.620,154.000 158.400 C 154.000 158.180,153.651 158.000,153.224 158.000 C 152.797 158.000,152.336 157.820,152.200 157.600 C 152.064 157.380,151.513 157.200,150.976 157.200 C 150.439 157.200,150.000 157.020,150.000 156.800 C 150.000 156.580,149.460 156.400,148.800 156.400 C 148.140 156.400,147.600 156.220,147.600 156.000 C 147.600 155.780,146.880 155.600,146.000 155.600 C 145.120 155.600,144.400 155.420,144.400 155.200 C 144.400 154.980,143.860 154.800,143.200 154.800 C 142.540 154.800,142.000 154.620,142.000 154.400 C 142.000 154.180,141.460 154.000,140.800 154.000 C 140.140 154.000,139.600 153.820,139.600 153.600 C 139.600 153.380,139.161 153.200,138.624 153.200 C 138.087 153.200,137.536 153.020,137.400 152.800 C 137.264 152.580,136.724 152.400,136.200 152.400 C 135.676 152.400,135.136 152.220,135.000 152.000 C 134.864 151.780,134.324 151.600,133.800 151.600 C 133.276 151.600,132.736 151.420,132.600 151.200 C 132.464 150.980,131.834 150.800,131.200 150.800 C 130.566 150.800,129.936 150.620,129.800 150.400 C 129.664 150.180,129.023 150.000,128.376 150.000 C 127.729 150.000,127.200 149.820,127.200 149.600 C 127.200 149.380,126.660 149.200,126.000 149.200 C 125.340 149.200,124.800 149.020,124.800 148.800 C 124.800 148.580,124.260 148.400,123.600 148.400 C 122.940 148.400,122.400 148.220,122.400 148.000 C 122.400 147.780,121.860 147.600,121.200 147.600 C 120.540 147.600,120.000 147.420,120.000 147.200 C 120.000 146.980,119.280 146.800,118.400 146.800 C 117.520 146.800,116.800 146.620,116.800 146.400 C 116.800 146.180,116.260 146.000,115.600 146.000 C 114.940 146.000,114.400 145.820,114.400 145.600 C 114.400 145.380,113.860 145.200,113.200 145.200 C 112.540 145.200,112.000 145.020,112.000 144.800 C 112.000 144.580,111.370 144.400,110.600 144.400 C 109.830 144.400,109.200 144.220,109.200 144.000 C 109.200 143.780,108.660 143.600,108.000 143.600 C 107.340 143.600,106.800 143.420,106.800 143.200 C 106.800 142.980,106.271 142.800,105.624 142.800 C 104.977 142.800,104.336 142.620,104.200 142.400 C 104.064 142.180,103.333 142.000,102.576 142.000 C 101.819 142.000,101.200 141.820,101.200 141.600 C 101.200 141.380,100.660 141.200,100.000 141.200 C 99.340 141.200,98.800 141.020,98.800 140.800 C 98.800 140.580,98.271 140.400,97.624 140.400 C 96.977 140.400,96.336 140.220,96.200 140.000 C 96.064 139.780,95.333 139.600,94.576 139.600 C 93.819 139.600,93.200 139.420,93.200 139.200 C 93.200 138.980,92.671 138.800,92.024 138.800 C 91.377 138.800,90.741 138.628,90.611 138.418 C 90.482 138.209,89.301 137.915,87.988 137.767 C 86.675 137.618,85.600 137.340,85.600 137.148 C 85.600 136.957,85.240 136.800,84.800 136.800 C 84.006 136.800,84.000 136.533,84.000 101.024 C 84.000 77.604,83.862 65.162,83.600 65.000 C 83.380 64.864,83.200 63.773,83.200 62.576 C 83.200 61.379,83.020 60.400,82.800 60.400 C 82.580 60.400,82.400 59.680,82.400 58.800 C 82.400 57.920,82.220 57.200,82.000 57.200 C 81.780 57.200,81.600 56.840,81.600 56.400 C 81.600 55.960,81.420 55.600,81.200 55.600 C 80.980 55.600,80.800 55.240,80.800 54.800 C 80.800 54.360,80.620 54.000,80.400 54.000 C 80.180 54.000,80.000 53.640,80.000 53.200 C 80.000 52.760,79.832 52.400,79.627 52.400 C 79.422 52.400,79.141 52.043,79.002 51.607 C 78.667 50.552,75.807 47.600,75.120 47.600 C 74.821 47.600,74.317 47.240,74.000 46.800 C 73.683 46.360,73.103 46.000,72.712 46.000 C 72.320 46.000,72.000 45.820,72.000 45.600 C 72.000 45.380,71.460 45.200,70.800 45.200 C 70.140 45.200,69.600 45.020,69.600 44.800 C 69.600 44.580,68.711 44.400,67.624 44.400 C 66.537 44.400,65.536 44.220,65.400 44.000 C 65.078 43.479,61.722 43.479,61.400 44.000 C 61.264 44.220,60.263 44.400,59.176 44.400 C 58.089 44.400,57.200 44.580,57.200 44.800 C 57.200 45.020,56.660 45.200,56.000 45.200 C 55.340 45.200,54.800 45.380,54.800 45.600 C 54.800 45.820,54.512 46.000,54.160 46.000 C 53.809 46.000,53.017 46.540,52.400 47.200 C 51.783 47.860,51.057 48.400,50.786 48.400 C 50.222 48.400,48.401 50.393,48.400 51.012 C 48.400 51.238,48.040 51.683,47.600 52.000 C 47.160 52.317,46.800 52.897,46.800 53.288 C 46.800 53.680,46.620 54.000,46.400 54.000 C 46.180 54.000,46.000 54.360,46.000 54.800 C 46.000 55.240,45.820 55.600,45.600 55.600 C 45.380 55.600,45.200 55.960,45.200 56.400 C 45.200 56.840,45.020 57.200,44.800 57.200 C 44.580 57.200,44.400 57.920,44.400 58.800 C 44.400 59.680,44.220 60.400,44.000 60.400 C 43.780 60.400,43.600 61.379,43.600 62.576 C 43.600 63.773,43.420 64.864,43.200 65.000 C 42.647 65.342,42.647 149.858,43.200 150.200 C 43.420 150.336,43.600 151.067,43.600 151.824 C 43.600 152.581,43.780 153.200,44.000 153.200 C 44.220 153.200,44.400 153.560,44.400 154.000 C 44.400 154.440,44.580 154.800,44.800 154.800 C 45.020 154.800,45.200 155.160,45.200 155.600 C 45.200 156.040,45.380 156.400,45.600 156.400 C 45.820 156.400,46.000 156.720,46.000 157.112 C 46.000 157.503,46.360 158.083,46.800 158.400 C 47.240 158.717,47.600 159.180,47.600 159.430 C 47.600 159.679,48.095 160.358,48.700 160.940 C 52.820 164.899,53.645 165.600,54.189 165.600 C 54.525 165.600,54.800 165.780,54.800 166.000 C 54.800 166.220,55.160 166.400,55.600 166.400 C 56.040 166.400,56.400 166.580,56.400 166.800 C 56.400 167.020,56.760 167.200,57.200 167.200 C 57.640 167.200,58.000 167.380,58.000 167.600 C 58.000 167.820,58.360 168.000,58.800 168.000 C 59.240 168.000,59.600 168.180,59.600 168.400 C 59.600 168.620,59.960 168.800,60.400 168.800 C 60.840 168.800,61.200 168.980,61.200 169.200 C 61.200 169.420,61.560 169.600,62.000 169.600 C 62.440 169.600,62.800 169.780,62.800 170.000 C 62.800 170.220,63.070 170.400,63.400 170.400 C 63.730 170.400,64.000 170.580,64.000 170.800 C 64.000 171.020,64.360 171.200,64.800 171.200 C 65.240 171.200,65.600 171.380,65.600 171.600 C 65.600 171.820,65.960 172.000,66.400 172.000 C 66.840 172.000,67.200 172.180,67.200 172.400 C 67.200 172.620,67.560 172.800,68.000 172.800 C 68.440 172.800,68.800 172.980,68.800 173.200 C 68.800 173.420,69.160 173.600,69.600 173.600 C 70.040 173.600,70.400 173.780,70.400 174.000 C 70.400 174.220,70.760 174.400,71.200 174.400 C 71.640 174.400,72.000 174.580,72.000 174.800 C 72.000 175.020,72.360 175.200,72.800 175.200 C 73.240 175.200,73.600 175.380,73.600 175.600 C 73.600 175.820,73.960 176.000,74.400 176.000 C 74.840 176.000,75.200 176.180,75.200 176.400 C 75.200 176.620,75.560 176.800,76.000 176.800 C 76.440 176.800,76.800 176.980,76.800 177.200 C 76.800 177.420,77.160 177.600,77.600 177.600 C 78.040 177.600,78.400 177.780,78.400 178.000 C 78.400 178.220,78.760 178.400,79.200 178.400 C 79.640 178.400,80.000 178.580,80.000 178.800 C 80.000 179.020,80.360 179.200,80.800 179.200 C 81.240 179.200,81.600 179.380,81.600 179.600 C 81.600 179.820,81.960 180.000,82.400 180.000 C 82.840 180.000,83.200 180.180,83.200 180.400 C 83.200 180.620,83.560 180.800,84.000 180.800 C 84.440 180.800,84.800 180.980,84.800 181.200 C 84.800 181.420,85.160 181.600,85.600 181.600 C 86.040 181.600,86.400 181.780,86.400 182.000 C 86.400 182.220,86.749 182.400,87.176 182.400 C 87.603 182.400,88.064 182.580,88.200 182.800 C 88.336 183.020,88.797 183.200,89.224 183.200 C 89.651 183.200,90.000 183.380,90.000 183.600 C 90.000 183.820,90.360 184.000,90.800 184.000 C 91.240 184.000,91.600 184.180,91.600 184.400 C 91.600 184.620,91.960 184.800,92.400 184.800 C 92.840 184.800,93.200 184.980,93.200 185.200 C 93.200 185.420,93.439 185.600,93.732 185.600 C 94.025 185.600,95.150 186.049,96.232 186.598 C 97.314 187.147,98.515 187.597,98.900 187.598 C 99.285 187.599,99.600 187.780,99.600 188.000 C 99.600 188.220,99.960 188.400,100.400 188.400 C 100.840 188.400,101.200 188.580,101.200 188.800 C 101.200 189.020,101.560 189.200,102.000 189.200 C 102.440 189.200,102.800 189.380,102.800 189.600 C 102.800 189.820,103.160 190.000,103.600 190.000 C 104.040 190.000,104.400 190.180,104.400 190.400 C 104.400 190.620,104.760 190.800,105.200 190.800 C 105.640 190.800,106.000 190.980,106.000 191.200 C 106.000 191.420,106.360 191.600,106.800 191.600 C 107.240 191.600,107.600 191.780,107.600 192.000 C 107.600 192.220,107.960 192.400,108.400 192.400 C 108.840 192.400,109.200 192.580,109.200 192.800 C 109.200 193.020,109.560 193.200,110.000 193.200 C 110.440 193.200,110.800 193.380,110.800 193.600 C 110.800 193.820,111.160 194.000,111.600 194.000 C 112.040 194.000,112.400 194.146,112.400 194.325 C 112.400 194.504,113.030 194.898,113.800 195.200 C 114.570 195.502,115.200 195.896,115.200 196.075 C 115.200 196.254,115.560 196.400,116.000 196.400 C 116.440 196.400,116.800 196.580,116.800 196.800 C 116.800 197.020,117.160 197.200,117.600 197.200 C 118.040 197.200,118.400 197.380,118.400 197.600 C 118.400 197.820,118.760 198.000,119.200 198.000 C 119.640 198.000,120.000 198.180,120.000 198.400 C 120.000 198.620,120.360 198.800,120.800 198.800 C 121.240 198.800,121.600 198.980,121.600 199.200 C 121.600 199.420,121.872 199.600,122.205 199.600 C 122.793 199.600,123.218 199.767,125.095 200.738 C 125.587 200.992,126.262 201.200,126.595 201.200 C 126.928 201.200,127.200 201.380,127.200 201.600 C 127.200 201.820,127.560 202.000,128.000 202.000 C 128.440 202.000,128.800 202.180,128.800 202.400 C 128.800 202.620,129.160 202.800,129.600 202.800 C 130.040 202.800,130.400 202.980,130.400 203.200 C 130.400 203.420,130.760 203.600,131.200 203.600 C 131.640 203.600,132.000 203.780,132.000 204.000 C 132.000 204.220,132.360 204.400,132.800 204.400 C 133.240 204.400,133.600 204.580,133.600 204.800 C 133.600 205.020,133.960 205.200,134.400 205.200 C 135.197 205.200,135.200 205.467,135.200 278.800 C 135.200 327.600,135.065 352.400,134.800 352.400 C 134.580 352.400,134.400 352.760,134.400 353.200 C 134.400 353.640,134.220 354.000,134.000 354.000 C 133.780 354.000,133.600 354.540,133.600 355.200 C 133.600 355.860,133.420 356.400,133.200 356.400 C 132.980 356.400,132.800 356.760,132.800 357.200 C 132.800 357.640,132.620 358.000,132.400 358.000 C 132.180 358.000,132.000 358.360,132.000 358.800 C 132.000 359.240,131.820 359.600,131.600 359.600 C 131.380 359.600,131.200 360.140,131.200 360.800 C 131.200 361.460,131.020 362.000,130.800 362.000 C 130.580 362.000,130.400 362.270,130.400 362.600 C 130.400 362.930,130.220 363.200,130.000 363.200 C 129.780 363.200,129.600 363.434,129.600 363.720 C 129.600 364.456,128.659 366.393,128.300 366.397 C 128.135 366.399,128.000 366.720,128.000 367.112 C 128.000 367.503,127.640 368.083,127.200 368.400 C 126.760 368.717,126.400 369.297,126.400 369.688 C 126.400 370.080,126.220 370.400,126.000 370.400 C 125.780 370.400,125.600 370.720,125.600 371.112 C 125.600 371.503,125.240 372.083,124.800 372.400 C 124.360 372.717,124.000 373.257,124.000 373.600 C 124.000 373.943,123.640 374.483,123.200 374.800 C 122.760 375.117,122.400 375.615,122.400 375.906 C 122.400 376.198,121.950 376.886,121.400 377.436 C 120.850 377.986,120.400 378.598,120.400 378.796 C 120.400 378.993,119.365 380.230,118.100 381.545 C 116.835 382.859,115.062 384.715,114.160 385.667 C 111.845 388.112,109.670 389.985,108.555 390.493 C 108.030 390.733,107.600 391.058,107.600 391.216 C 107.600 391.374,107.060 391.727,106.400 392.000 C 105.740 392.273,105.200 392.655,105.200 392.849 C 105.200 393.042,104.964 393.200,104.675 393.200 C 104.387 393.200,103.764 393.560,103.292 394.000 C 102.820 394.440,102.156 394.800,101.817 394.800 C 101.478 394.800,101.200 394.980,101.200 395.200 C 101.200 395.420,100.851 395.600,100.424 395.600 C 99.997 395.600,99.536 395.780,99.400 396.000 C 99.264 396.220,98.713 396.400,98.176 396.400 C 97.639 396.400,97.200 396.580,97.200 396.800 C 97.200 397.020,96.761 397.200,96.224 397.200 C 95.687 397.200,95.136 397.380,95.000 397.600 C 94.864 397.820,94.144 398.000,93.400 398.000 C 92.656 398.000,91.936 398.180,91.800 398.400 C 91.664 398.620,90.573 398.800,89.376 398.800 C 88.179 398.800,87.200 398.980,87.200 399.200 C 87.200 399.420,86.300 399.600,85.200 399.600 C 83.817 399.600,83.200 399.438,83.200 399.075 C 83.200 398.787,82.840 398.164,82.400 397.692 C 81.960 397.220,81.600 396.691,81.599 396.517 C 81.599 396.343,81.059 395.570,80.400 394.800 C 79.741 394.030,79.201 393.215,79.201 392.988 C 79.200 392.762,78.840 392.317,78.400 392.000 C 77.960 391.683,77.600 391.103,77.600 390.712 C 77.600 390.320,77.420 390.000,77.200 390.000 C 76.980 390.000,76.800 389.730,76.800 389.400 C 76.800 389.070,76.650 388.800,76.468 388.800 C 76.285 388.800,75.881 388.305,75.570 387.700 C 75.260 387.095,74.689 386.309,74.303 385.953 C 73.916 385.597,73.600 385.012,73.600 384.653 C 73.600 384.294,73.420 384.000,73.200 384.000 C 72.980 384.000,72.800 383.680,72.800 383.288 C 72.800 382.897,72.440 382.317,72.000 382.000 C 71.560 381.683,71.200 381.103,71.200 380.712 C 71.200 380.320,71.020 380.000,70.800 380.000 C 70.580 380.000,70.400 379.680,70.400 379.288 C 70.400 378.897,70.040 378.317,69.600 378.000 C 69.160 377.683,68.800 377.103,68.800 376.712 C 68.800 376.320,68.620 376.000,68.400 376.000 C 68.180 376.000,68.000 375.640,68.000 375.200 C 68.000 374.760,67.820 374.400,67.600 374.400 C 67.380 374.400,67.200 374.164,67.200 373.875 C 67.200 373.587,66.840 372.964,66.400 372.492 C 65.960 372.020,65.600 371.356,65.600 371.017 C 65.600 370.678,65.420 370.400,65.200 370.400 C 64.980 370.400,64.800 370.040,64.800 369.600 C 64.800 369.160,64.620 368.800,64.400 368.800 C 64.180 368.800,64.000 368.440,64.000 368.000 C 64.000 367.560,63.820 367.200,63.600 367.200 C 63.380 367.200,63.200 366.840,63.200 366.400 C 63.200 365.960,63.040 365.600,62.845 365.600 C 62.649 365.600,62.371 364.970,62.226 364.200 C 62.082 363.430,61.792 362.800,61.582 362.800 C 61.372 362.800,61.200 362.440,61.200 362.000 C 61.200 361.560,61.020 361.200,60.800 361.200 C 60.580 361.200,60.400 360.840,60.400 360.400 C 60.400 359.960,60.220 359.600,60.000 359.600 C 59.780 359.600,59.600 359.240,59.600 358.800 C 59.600 358.360,59.464 358.000,59.298 358.000 C 59.132 358.000,58.772 357.370,58.498 356.600 C 58.224 355.830,57.776 354.570,57.502 353.800 C 57.228 353.030,56.868 352.400,56.702 352.400 C 56.536 352.400,56.400 352.121,56.400 351.781 C 56.400 351.440,56.040 350.416,55.600 349.506 C 55.160 348.595,54.800 347.534,54.800 347.148 C 54.800 346.763,54.620 346.336,54.400 346.200 C 54.180 346.064,54.000 345.603,54.000 345.176 C 54.000 344.749,53.820 344.400,53.600 344.400 C 53.380 344.400,53.200 343.860,53.200 343.200 C 53.200 342.540,53.020 342.000,52.800 342.000 C 52.580 342.000,52.400 341.460,52.400 340.800 C 52.400 340.140,52.220 339.600,52.000 339.600 C 51.780 339.600,51.600 338.970,51.600 338.200 C 51.600 337.430,51.420 336.800,51.200 336.800 C 50.980 336.800,50.800 336.260,50.800 335.600 C 50.800 334.940,50.620 334.400,50.400 334.400 C 50.180 334.400,50.000 333.500,50.000 332.400 C 50.000 331.300,49.820 330.400,49.600 330.400 C 49.380 330.400,49.200 329.421,49.200 328.224 C 49.200 327.027,49.020 325.936,48.800 325.800 C 48.261 325.467,48.261 310.933,48.800 310.600 C 49.020 310.464,49.200 309.744,49.200 309.000 C 49.200 308.256,49.380 307.536,49.600 307.400 C 49.820 307.264,50.000 306.713,50.000 306.176 C 50.000 305.639,50.180 305.200,50.400 305.200 C 50.620 305.200,50.800 304.947,50.800 304.638 C 50.800 303.905,52.403 300.819,53.300 299.825 C 53.685 299.398,54.000 298.895,54.000 298.706 C 54.000 298.123,55.929 296.400,56.582 296.400 C 56.922 296.400,57.200 296.220,57.200 296.000 C 57.200 295.757,59.000 295.600,61.800 295.600 C 64.600 295.600,66.400 295.443,66.400 295.200 C 66.400 294.980,67.120 294.800,68.000 294.800 C 68.880 294.800,69.600 294.620,69.600 294.400 C 69.600 294.180,70.140 294.000,70.800 294.000 C 71.460 294.000,72.000 293.820,72.000 293.600 C 72.000 293.380,72.540 293.200,73.200 293.200 C 73.860 293.200,74.400 293.020,74.400 292.800 C 74.400 292.580,74.760 292.400,75.200 292.400 C 75.640 292.400,76.000 292.220,76.000 292.000 C 76.000 291.780,76.360 291.600,76.800 291.600 C 77.240 291.600,77.600 291.420,77.600 291.200 C 77.600 290.980,77.960 290.800,78.400 290.800 C 78.840 290.800,79.200 290.620,79.200 290.400 C 79.200 290.180,79.520 290.000,79.912 290.000 C 80.303 290.000,80.883 289.640,81.200 289.200 C 81.517 288.760,82.052 288.399,82.388 288.398 C 83.131 288.395,90.000 281.455,90.000 280.707 C 90.000 280.415,90.360 279.917,90.800 279.600 C 91.240 279.283,91.600 278.703,91.600 278.312 C 91.600 277.920,91.780 277.600,92.000 277.600 C 92.220 277.600,92.400 277.240,92.400 276.800 C 92.400 276.360,92.580 276.000,92.800 276.000 C 93.020 276.000,93.200 275.460,93.200 274.800 C 93.200 274.140,93.380 273.600,93.600 273.600 C 93.820 273.600,94.000 273.060,94.000 272.400 C 94.000 271.740,94.180 271.200,94.400 271.200 C 94.620 271.200,94.800 270.300,94.800 269.200 C 94.800 268.100,94.980 267.200,95.200 267.200 C 95.420 267.200,95.600 266.480,95.600 265.600 C 95.600 264.720,95.780 264.000,96.000 264.000 C 96.220 264.000,96.400 263.021,96.400 261.824 C 96.400 260.627,96.580 259.536,96.800 259.400 C 97.020 259.264,97.200 258.184,97.200 257.000 C 97.200 255.816,97.380 254.736,97.600 254.600 C 97.821 254.463,98.000 252.663,98.000 250.576 C 98.000 248.325,98.162 246.800,98.400 246.800 C 98.649 246.800,98.800 244.533,98.800 240.800 C 98.800 237.028,98.950 234.800,99.204 234.800 C 99.472 234.800,99.573 228.491,99.504 216.100 L 99.400 197.400 98.300 197.273 C 97.695 197.204,97.200 197.339,97.200 197.573 C 97.200 197.808,96.660 198.000,96.000 198.000 C 95.340 198.000,94.800 198.180,94.800 198.400 C 94.800 198.620,94.260 198.800,93.600 198.800 C 92.940 198.800,92.400 198.980,92.400 199.200 C 92.400 199.420,91.961 199.600,91.424 199.600 C 90.887 199.600,90.336 199.780,90.200 200.000 C 90.064 200.220,89.513 200.400,88.976 200.400 C 88.439 200.400,88.000 200.580,88.000 200.800 C 88.000 201.020,87.561 201.200,87.024 201.200 C 86.487 201.200,85.936 201.380,85.800 201.600 C 85.664 201.820,85.023 202.000,84.376 202.000 C 83.729 202.000,83.200 202.180,83.200 202.400 C 83.200 202.620,82.840 202.800,82.400 202.800 C 81.960 202.800,81.600 202.980,81.600 203.200 C 81.600 203.420,81.060 203.600,80.400 203.600 C 79.740 203.600,79.200 203.780,79.200 204.000 C 79.200 204.220,78.660 204.400,78.000 204.400 C 77.340 204.400,76.800 204.580,76.800 204.800 C 76.800 205.020,76.440 205.200,76.000 205.200 C 75.560 205.200,75.200 205.380,75.200 205.600 C 75.200 205.820,74.660 206.000,74.000 206.000 C 73.340 206.000,72.800 206.180,72.800 206.400 C 72.800 206.620,72.260 206.800,71.600 206.800 C 70.940 206.800,70.400 206.980,70.400 207.200 C 70.400 207.420,70.040 207.600,69.600 207.600 C 69.160 207.600,68.800 207.780,68.800 208.000 C 68.800 208.220,68.440 208.400,68.000 208.400 C 67.560 208.400,67.200 208.580,67.200 208.800 C 67.200 209.020,66.660 209.200,66.000 209.200 C 65.340 209.200,64.800 209.346,64.800 209.525 C 64.800 209.704,64.170 210.098,63.400 210.400 C 62.630 210.702,62.000 211.096,62.000 211.275 C 62.000 211.454,61.460 211.600,60.800 211.600 C 60.140 211.600,59.600 211.780,59.600 212.000 C 59.600 212.220,59.282 212.400,58.894 212.400 C 58.506 212.400,57.536 212.750,56.738 213.177 C 55.940 213.605,55.178 213.845,55.044 213.711 C 54.910 213.576,54.800 213.677,54.800 213.933 C 54.800 214.190,54.440 214.400,54.000 214.400 C 53.560 214.400,53.200 214.580,53.200 214.800 C 53.200 215.020,52.840 215.200,52.400 215.200 C 51.960 215.200,51.600 215.380,51.600 215.600 C 51.600 215.820,51.240 216.000,50.800 216.000 C 50.360 216.000,50.000 216.180,50.000 216.400 C 50.000 216.620,49.640 216.800,49.200 216.800 C 48.760 216.800,48.400 216.980,48.400 217.200 C 48.400 217.420,48.040 217.600,47.600 217.600 C 47.160 217.600,46.800 217.780,46.800 218.000 C 46.800 218.220,46.480 218.400,46.088 218.400 C 45.697 218.400,45.117 218.760,44.800 219.200 C 44.483 219.640,43.903 220.000,43.512 220.000 C 43.120 220.000,42.800 220.180,42.800 220.400 C 42.800 220.620,42.440 220.800,42.000 220.800 C 41.560 220.800,41.200 220.980,41.200 221.200 C 41.200 221.420,40.945 221.600,40.634 221.600 C 40.323 221.600,39.558 222.140,38.935 222.800 C 38.312 223.460,37.653 224.000,37.470 224.000 C 37.287 224.000,36.446 224.720,35.600 225.600 C 34.754 226.480,33.865 227.200,33.623 227.200 C 33.044 227.200,28.800 231.452,28.800 232.031 C 28.800 232.277,28.260 232.983,27.600 233.600 C 26.940 234.217,26.400 235.009,26.400 235.360 C 26.400 235.712,26.220 236.000,26.000 236.000 C 25.780 236.000,25.600 236.360,25.600 236.800 C 25.600 237.240,25.420 237.600,25.200 237.600 C 24.980 237.600,24.800 237.870,24.800 238.200 C 24.800 238.530,24.620 238.800,24.400 238.800 C 24.180 238.800,24.000 239.160,24.000 239.600 C 24.000 240.040,23.820 240.400,23.600 240.400 C 23.380 240.400,23.200 240.749,23.200 241.176 C 23.200 241.603,23.020 242.064,22.800 242.200 C 22.580 242.336,22.400 242.887,22.400 243.424 C 22.400 243.961,22.220 244.400,22.000 244.400 C 21.780 244.400,21.600 245.120,21.600 246.000 C 21.600 246.880,21.434 247.600,21.232 247.600 C 20.498 247.600,20.061 258.599,20.607 263.300 C 20.754 264.565,21.037 265.600,21.237 265.600 C 21.437 265.600,21.600 266.140,21.600 266.800 C 21.600 267.460,21.780 268.000,22.000 268.000 C 22.220 268.000,22.400 268.540,22.400 269.200 C 22.400 269.860,22.580 270.400,22.800 270.400 C 23.020 270.400,23.200 270.940,23.200 271.600 C 23.200 272.260,23.380 272.800,23.600 272.800 C 23.820 272.800,24.000 273.160,24.000 273.600 C 24.000 274.040,24.180 274.400,24.400 274.400 C 24.620 274.400,24.800 274.760,24.800 275.200 C 24.800 275.640,24.980 276.000,25.200 276.000 C 25.420 276.000,25.600 276.236,25.600 276.525 C 25.600 276.813,25.960 277.436,26.400 277.908 C 26.840 278.380,27.200 278.960,27.200 279.197 C 27.200 279.917,35.178 287.600,35.926 287.600 C 36.309 287.600,36.883 287.960,37.200 288.400 C 37.517 288.840,37.967 289.200,38.200 289.200 C 38.433 289.200,38.883 289.560,39.200 290.000 C 39.517 290.440,40.097 290.800,40.488 290.800 C 40.880 290.800,41.200 290.980,41.200 291.200 C 41.200 291.420,41.560 291.600,42.000 291.600 C 42.440 291.600,42.800 291.780,42.800 292.000 C 42.800 292.220,43.064 292.400,43.387 292.400 C 43.961 292.400,43.817 293.537,43.185 294.000 C 42.537 294.475,39.925 300.100,38.908 303.211 C 37.518 307.464,37.169 329.441,38.451 332.043 C 38.625 332.397,38.812 333.354,38.867 334.171 C 38.922 334.988,39.110 335.744,39.284 335.852 C 39.458 335.959,39.600 336.656,39.600 337.400 C 39.600 338.144,39.780 338.864,40.000 339.000 C 40.220 339.136,40.400 339.766,40.400 340.400 C 40.400 341.034,40.580 341.664,40.800 341.800 C 41.020 341.936,41.200 342.577,41.200 343.224 C 41.200 343.871,41.380 344.400,41.600 344.400 C 41.820 344.400,42.000 344.940,42.000 345.600 C 42.000 346.260,42.180 346.800,42.400 346.800 C 42.620 346.800,42.800 347.340,42.800 348.000 C 42.800 348.660,42.947 349.200,43.128 349.200 C 43.308 349.200,43.700 350.100,44.000 351.200 C 44.300 352.300,44.692 353.200,44.872 353.200 C 45.053 353.200,45.200 353.639,45.200 354.176 C 45.200 354.713,45.380 355.264,45.600 355.400 C 45.820 355.536,46.000 355.997,46.000 356.424 C 46.000 356.851,46.180 357.200,46.400 357.200 C 46.620 357.200,46.800 357.549,46.800 357.976 C 46.800 358.403,46.980 358.864,47.200 359.000 C 47.420 359.136,47.600 359.597,47.600 360.024 C 47.600 360.451,47.780 360.800,48.000 360.800 C 48.220 360.800,48.400 361.160,48.400 361.600 C 48.400 362.040,48.580 362.400,48.800 362.400 C 49.020 362.400,49.200 362.760,49.200 363.200 C 49.200 363.640,49.380 364.000,49.600 364.000 C 49.820 364.000,50.000 364.360,50.000 364.800 C 50.000 365.240,50.180 365.600,50.400 365.600 C 50.620 365.600,50.800 365.960,50.800 366.400 C 50.800 366.840,50.980 367.200,51.200 367.200 C 51.420 367.200,51.600 367.560,51.600 368.000 C 51.600 368.440,51.780 368.800,52.000 368.800 C 52.220 368.800,52.400 369.160,52.400 369.600 C 52.400 370.040,52.580 370.400,52.800 370.400 C 53.020 370.400,53.200 370.760,53.200 371.200 C 53.200 371.640,53.380 372.000,53.600 372.000 C 53.820 372.000,54.000 372.360,54.000 372.800 C 54.000 373.240,54.180 373.600,54.400 373.600 C 54.620 373.600,54.800 373.960,54.800 374.400 C 54.800 374.840,54.980 375.200,55.200 375.200 C 55.420 375.200,55.600 375.560,55.600 376.000 C 55.600 376.440,55.780 376.800,56.000 376.800 C 56.220 376.800,56.400 377.160,56.400 377.600 C 56.400 378.040,56.580 378.400,56.800 378.400 C 57.020 378.400,57.200 378.636,57.200 378.925 C 57.200 379.213,57.560 379.836,58.000 380.308 C 58.440 380.780,58.800 381.444,58.800 381.783 C 58.800 382.122,58.980 382.400,59.200 382.400 C 59.420 382.400,59.600 382.760,59.600 383.200 C 59.600 383.640,59.780 384.000,60.000 384.000 C 60.220 384.000,60.400 384.270,60.400 384.600 C 60.400 384.930,60.580 385.200,60.800 385.200 C 61.020 385.200,61.200 385.470,61.200 385.800 C 61.200 386.130,61.380 386.400,61.600 386.400 C 61.820 386.400,62.000 386.670,62.000 387.000 C 62.000 387.330,62.180 387.600,62.400 387.600 C 62.620 387.600,62.800 387.938,62.800 388.351 C 62.800 388.764,63.070 389.326,63.400 389.600 C 63.730 389.874,64.000 390.312,64.000 390.574 C 64.000 390.835,64.315 391.398,64.700 391.825 C 65.085 392.251,65.655 393.095,65.968 393.700 C 66.280 394.305,66.685 394.800,66.868 394.800 C 67.050 394.800,67.200 395.160,67.200 395.600 C 67.200 396.040,67.380 396.400,67.600 396.400 C 67.820 396.400,68.000 396.636,68.000 396.925 C 68.000 397.213,68.315 397.798,68.700 398.225 C 69.085 398.651,69.655 399.495,69.968 400.100 C 70.280 400.705,70.685 401.200,70.868 401.200 C 71.050 401.200,71.200 401.443,71.200 401.741 C 71.200 402.038,71.740 402.846,72.400 403.537 C 73.060 404.228,73.600 404.998,73.600 405.249 C 73.600 405.501,73.924 405.997,74.319 406.353 C 74.714 406.709,75.473 407.630,76.006 408.400 C 77.682 410.825,77.615 410.800,82.491 410.800 C 84.993 410.800,87.211 410.634,87.420 410.431 C 87.629 410.228,89.060 409.967,90.600 409.850 C 94.974 409.519,97.200 409.151,97.200 408.760 C 97.200 408.562,97.729 408.400,98.376 408.400 C 99.023 408.400,99.664 408.220,99.800 408.000 C 99.936 407.780,100.399 407.600,100.829 407.600 C 101.259 407.600,101.968 407.420,102.405 407.200 C 102.842 406.980,103.558 406.620,103.995 406.400 C 104.432 406.180,105.062 406.000,105.395 406.000 C 105.728 406.000,106.000 405.820,106.000 405.600 C 106.000 405.380,106.345 405.200,106.767 405.200 C 107.188 405.200,107.593 405.065,107.667 404.900 C 107.740 404.735,108.655 404.167,109.700 403.637 C 110.745 403.108,111.600 402.523,111.600 402.337 C 111.600 402.152,111.830 402.000,112.112 402.000 C 112.393 402.000,112.883 401.640,113.200 401.200 C 113.517 400.760,114.025 400.400,114.328 400.400 C 114.631 400.400,115.383 399.860,116.000 399.200 C 116.617 398.540,117.321 398.000,117.565 398.000 C 118.095 398.000,126.400 389.770,126.400 389.245 C 126.400 389.045,127.300 387.962,128.400 386.839 C 129.500 385.715,130.400 384.645,130.400 384.460 C 130.400 384.275,130.760 383.798,131.200 383.400 C 131.640 383.002,132.000 382.462,132.000 382.200 C 132.000 381.938,132.360 381.398,132.800 381.000 C 133.240 380.602,133.600 380.116,133.600 379.921 C 133.600 379.726,133.960 379.180,134.400 378.708 L 135.200 377.849 135.200 481.725 C 135.200 581.729,135.227 585.600,135.925 585.600 C 136.323 585.600,136.998 585.285,137.425 584.900 C 137.851 584.515,138.695 583.945,139.300 583.632 C 139.905 583.320,140.400 582.915,140.400 582.732 C 140.400 582.550,140.636 582.400,140.925 582.400 C 141.213 582.400,141.798 582.085,142.225 581.700 C 142.651 581.315,143.495 580.745,144.100 580.432 C 144.705 580.120,145.200 579.715,145.200 579.532 C 145.200 579.350,145.436 579.200,145.725 579.200 C 146.013 579.200,146.598 578.885,147.025 578.500 C 147.451 578.115,148.295 577.545,148.900 577.232 C 149.505 576.920,150.000 576.515,150.000 576.332 C 150.000 576.150,150.225 576.000,150.500 575.999 C 150.775 575.999,151.630 575.459,152.400 574.800 C 153.170 574.141,154.025 573.601,154.300 573.601 C 154.575 573.600,154.800 573.420,154.800 573.200 C 154.800 572.493,156.204 572.774,156.800 573.600 C 157.117 574.040,157.657 574.400,158.000 574.400 C 158.343 574.400,158.883 574.760,159.200 575.200 C 159.517 575.640,160.057 576.000,160.400 576.000 C 160.743 576.000,161.283 576.360,161.600 576.800 C 161.917 577.240,162.379 577.600,162.626 577.600 C 162.874 577.600,163.402 577.960,163.800 578.400 C 164.198 578.840,164.766 579.200,165.062 579.200 C 165.358 579.200,165.600 579.350,165.600 579.532 C 165.600 579.715,166.095 580.120,166.700 580.432 C 167.305 580.745,168.149 581.315,168.575 581.700 C 169.002 582.085,169.587 582.400,169.875 582.400 C 170.164 582.400,170.400 582.550,170.400 582.732 C 170.400 582.915,170.895 583.320,171.500 583.632 C 172.105 583.945,172.949 584.515,173.375 584.900 C 175.209 586.555,176.000 585.885,176.000 582.680 C 176.000 581.074,176.171 579.589,176.379 579.380 C 176.733 579.026,176.850 576.876,177.421 560.300 C 177.544 556.729,177.803 554.000,178.019 554.000 C 178.244 554.000,178.400 551.386,178.400 547.600 C 178.400 543.600,178.550 541.200,178.800 541.200 C 179.049 541.200,179.200 538.875,179.200 535.024 C 179.200 531.337,179.361 528.748,179.600 528.600 C 179.839 528.452,180.000 525.863,180.000 522.176 C 180.000 518.325,180.151 516.000,180.400 516.000 C 180.649 516.000,180.800 513.675,180.800 509.824 C 180.800 506.137,180.961 503.548,181.200 503.400 C 181.439 503.253,181.600 500.670,181.600 497.000 C 181.600 493.330,181.761 490.747,182.000 490.600 C 182.238 490.453,182.400 487.937,182.400 484.400 C 182.400 480.863,182.562 478.347,182.800 478.200 C 183.038 478.053,183.200 475.489,183.200 471.856 C 183.200 468.503,183.371 465.589,183.579 465.380 C 183.788 465.171,184.054 462.300,184.171 459.000 C 184.287 455.700,184.564 450.120,184.786 446.600 C 185.008 443.080,185.376 437.140,185.604 433.400 C 185.832 429.660,186.189 423.990,186.396 420.800 C 186.604 417.610,186.970 409.420,187.210 402.600 C 187.450 395.780,187.816 389.887,188.023 389.505 C 188.231 389.123,188.400 386.108,188.400 382.805 C 188.400 379.068,188.551 376.800,188.800 376.800 C 189.020 376.800,189.200 376.260,189.200 375.600 L 189.200 374.400 196.800 374.400 C 204.133 374.400,204.400 374.428,204.400 375.200 C 204.400 375.640,204.580 376.000,204.800 376.000 C 205.020 376.000,205.200 376.360,205.200 376.800 C 205.200 377.240,205.380 377.600,205.600 377.600 C 205.820 377.600,206.000 377.960,206.000 378.400 C 206.000 378.840,206.180 379.200,206.400 379.200 C 206.620 379.200,206.800 379.560,206.800 380.000 C 206.800 380.440,206.980 380.800,207.200 380.800 C 207.420 380.800,207.600 381.160,207.600 381.600 C 207.600 382.040,207.780 382.400,208.000 382.400 C 208.220 382.400,208.400 382.760,208.400 383.200 C 208.400 383.640,208.580 384.000,208.800 384.000 C 209.020 384.000,209.200 384.360,209.200 384.800 C 209.200 385.240,209.380 385.600,209.600 385.600 C 209.820 385.600,210.000 385.870,210.000 386.200 C 210.000 386.530,210.180 386.800,210.400 386.800 C 210.620 386.800,210.800 387.160,210.800 387.600 C 210.800 388.040,210.980 388.400,211.200 388.400 C 211.420 388.400,211.600 388.760,211.600 389.200 C 211.600 389.640,211.780 390.000,212.000 390.000 C 212.220 390.000,212.400 390.294,212.400 390.654 C 212.400 391.520,217.631 402.000,218.063 402.000 C 218.249 402.000,218.400 402.360,218.400 402.800 C 218.400 403.240,218.580 403.600,218.800 403.600 C 219.020 403.600,219.200 403.960,219.200 404.400 C 219.200 404.840,219.380 405.200,219.600 405.200 C 219.820 405.200,220.000 405.560,220.000 406.000 C 220.000 406.440,220.180 406.800,220.400 406.800 C 220.620 406.800,220.800 407.160,220.800 407.600 C 220.800 408.040,220.980 408.400,221.200 408.400 C 221.420 408.400,221.600 408.760,221.600 409.200 C 221.600 409.640,221.746 410.000,221.925 410.000 C 222.104 410.000,222.498 410.630,222.800 411.400 C 223.102 412.170,223.496 412.800,223.675 412.800 C 223.854 412.800,224.000 413.160,224.000 413.600 C 224.000 414.040,224.180 414.400,224.400 414.400 C 224.620 414.400,224.800 414.760,224.800 415.200 C 224.800 415.640,224.980 416.000,225.200 416.000 C 225.420 416.000,225.600 416.360,225.600 416.800 C 225.600 417.240,225.780 417.600,226.000 417.600 C 226.220 417.600,226.400 417.960,226.400 418.400 C 226.400 418.840,226.580 419.200,226.800 419.200 C 227.020 419.200,227.200 419.560,227.200 420.000 C 227.200 420.440,227.380 420.800,227.600 420.800 C 227.820 420.800,228.000 421.160,228.000 421.600 C 228.000 422.040,228.180 422.400,228.400 422.400 C 228.620 422.400,228.800 422.760,228.800 423.200 C 228.800 423.640,228.980 424.000,229.200 424.000 C 229.420 424.000,229.600 424.360,229.600 424.800 C 229.600 425.240,229.780 425.600,230.000 425.600 C 230.220 425.600,230.400 425.960,230.400 426.400 C 230.400 426.840,230.580 427.200,230.800 427.200 C 231.020 427.200,231.200 427.560,231.200 428.000 C 231.200 428.440,231.380 428.800,231.600 428.800 C 231.820 428.800,232.000 429.160,232.000 429.600 C 232.000 430.040,232.135 430.401,232.300 430.403 C 232.814 430.408,233.661 432.580,233.208 432.731 C 232.984 432.805,232.800 433.381,232.800 434.010 C 232.800 434.638,232.620 435.264,232.400 435.400 C 232.180 435.536,232.000 436.177,232.000 436.824 C 232.000 437.471,231.820 438.000,231.600 438.000 C 231.380 438.000,231.200 438.540,231.200 439.200 C 231.200 439.860,231.020 440.400,230.800 440.400 C 230.580 440.400,230.400 440.940,230.400 441.600 C 230.400 442.260,230.220 442.800,230.000 442.800 C 229.780 442.800,229.600 443.340,229.600 444.000 C 229.600 444.660,229.420 445.200,229.200 445.200 C 228.980 445.200,228.800 445.740,228.800 446.400 C 228.800 447.060,228.620 447.600,228.400 447.600 C 228.180 447.600,228.000 448.140,228.000 448.800 C 228.000 449.460,227.820 450.000,227.600 450.000 C 227.380 450.000,227.200 450.540,227.200 451.200 C 227.200 451.860,227.020 452.400,226.800 452.400 C 226.580 452.400,226.400 452.940,226.400 453.600 C 226.400 454.260,226.220 454.800,226.000 454.800 C 225.780 454.800,225.600 455.340,225.600 456.000 C 225.600 456.660,225.420 457.200,225.200 457.200 C 224.980 457.200,224.800 457.729,224.800 458.376 C 224.800 459.023,224.620 459.664,224.400 459.800 C 224.180 459.936,224.000 460.566,224.000 461.200 C 224.000 461.834,223.820 462.464,223.600 462.600 C 223.380 462.736,223.200 463.287,223.200 463.824 C 223.200 464.361,223.020 464.800,222.800 464.800 C 222.580 464.800,222.400 465.340,222.400 466.000 C 222.400 466.660,222.220 467.200,222.000 467.200 C 221.780 467.200,221.600 467.740,221.600 468.400 C 221.600 469.060,221.420 469.600,221.200 469.600 C 220.980 469.600,220.800 470.140,220.800 470.800 C 220.800 471.460,220.620 472.000,220.400 472.000 C 220.180 472.000,220.000 472.540,220.000 473.200 C 220.000 473.860,219.820 474.400,219.600 474.400 C 219.380 474.400,219.200 474.940,219.200 475.600 C 219.200 476.260,219.020 476.800,218.800 476.800 C 218.580 476.800,218.400 477.340,218.400 478.000 C 218.400 478.660,218.220 479.200,218.000 479.200 C 217.780 479.200,217.600 479.652,217.600 480.205 C 217.600 480.758,217.442 481.523,217.249 481.905 C 216.660 483.072,216.000 485.408,216.000 486.328 C 216.000 486.808,215.820 487.200,215.600 487.200 C 215.380 487.200,215.200 487.639,215.200 488.176 C 215.200 488.713,215.020 489.264,214.800 489.400 C 214.580 489.536,214.400 489.999,214.400 490.429 C 214.400 490.859,214.237 491.523,214.037 491.905 C 213.440 493.047,212.400 496.822,212.400 497.846 C 212.400 498.371,212.220 498.800,212.000 498.800 C 211.780 498.800,211.600 499.340,211.600 500.000 C 211.600 500.660,211.420 501.200,211.200 501.200 C 210.980 501.200,210.800 501.740,210.800 502.400 C 210.800 503.060,210.620 503.600,210.400 503.600 C 210.180 503.600,210.000 504.140,210.000 504.800 C 210.000 505.460,209.820 506.000,209.600 506.000 C 209.380 506.000,209.200 506.540,209.200 507.200 C 209.200 507.860,209.020 508.400,208.800 508.400 C 208.580 508.400,208.400 509.120,208.400 510.000 C 208.400 510.880,208.220 511.600,208.000 511.600 C 207.780 511.600,207.600 512.050,207.600 512.600 C 207.600 513.150,207.420 513.600,207.200 513.600 C 206.980 513.600,206.800 514.140,206.800 514.800 C 206.800 515.460,206.620 516.000,206.400 516.000 C 206.180 516.000,206.000 516.540,206.000 517.200 C 206.000 517.860,205.820 518.400,205.600 518.400 C 205.380 518.400,205.200 518.940,205.200 519.600 C 205.200 520.260,205.020 520.800,204.800 520.800 C 204.580 520.800,204.400 521.340,204.400 522.000 C 204.400 522.660,204.220 523.200,204.000 523.200 C 203.780 523.200,203.600 523.740,203.600 524.400 C 203.600 525.060,203.420 525.600,203.200 525.600 C 202.980 525.600,202.800 526.140,202.800 526.800 C 202.800 527.460,202.620 528.000,202.400 528.000 C 202.180 528.000,202.000 528.540,202.000 529.200 C 202.000 529.860,201.820 530.400,201.600 530.400 C 201.380 530.400,201.200 530.929,201.200 531.576 C 201.200 532.223,201.020 532.864,200.800 533.000 C 200.580 533.136,200.400 533.867,200.400 534.624 C 200.400 535.381,200.220 536.000,200.000 536.000 C 199.780 536.000,199.600 536.439,199.600 536.976 C 199.600 537.513,199.420 538.064,199.200 538.200 C 198.980 538.336,198.800 538.887,198.800 539.424 C 198.800 539.961,198.620 540.400,198.400 540.400 C 198.180 540.400,198.000 540.940,198.000 541.600 C 198.000 542.260,197.820 542.800,197.600 542.800 C 197.380 542.800,197.200 543.340,197.200 544.000 C 197.200 544.660,197.020 545.200,196.800 545.200 C 196.580 545.200,196.400 545.560,196.400 546.000 C 196.400 546.667,196.667 546.800,198.000 546.800 C 198.880 546.800,199.600 546.620,199.600 546.400 C 199.600 546.180,200.320 546.000,201.200 546.000 C 202.080 546.000,202.800 545.820,202.800 545.600 C 202.800 545.380,203.340 545.200,204.000 545.200 C 204.660 545.200,205.200 545.020,205.200 544.800 C 205.200 544.580,205.920 544.400,206.800 544.400 C 207.680 544.400,208.400 544.220,208.400 544.000 C 208.400 543.780,208.940 543.600,209.600 543.600 C 210.260 543.600,210.800 543.420,210.800 543.200 C 210.800 542.980,211.430 542.800,212.200 542.800 C 212.970 542.800,213.600 542.620,213.600 542.400 C 213.600 542.180,214.140 542.000,214.800 542.000 C 215.460 542.000,216.000 541.820,216.000 541.600 C 216.000 541.380,216.705 541.200,217.567 541.200 C 218.458 541.200,219.205 540.986,219.299 540.704 C 219.482 540.154,220.800 541.225,220.800 541.923 C 220.800 542.132,221.520 543.045,222.400 543.952 C 223.280 544.859,224.000 545.795,224.000 546.032 C 224.000 546.269,224.720 547.154,225.600 548.000 C 226.480 548.846,227.200 549.746,227.200 550.000 C 227.200 550.254,227.920 551.154,228.800 552.000 C 229.680 552.846,230.400 553.746,230.400 554.000 C 230.400 554.254,231.120 555.154,232.000 556.000 C 232.880 556.846,233.600 557.744,233.600 557.997 C 233.600 558.571,234.601 559.600,235.160 559.600 C 235.686 559.600,237.458 555.765,237.818 553.847 C 237.967 553.051,238.249 552.400,238.445 552.400 C 238.640 552.400,238.800 551.860,238.800 551.200 C 238.800 550.540,238.980 550.000,239.200 550.000 C 239.420 550.000,239.600 549.460,239.600 548.800 C 239.600 548.140,239.780 547.600,240.000 547.600 C 240.220 547.600,240.400 547.240,240.400 546.800 C 240.400 546.360,240.580 546.000,240.800 546.000 C 241.020 546.000,241.200 545.460,241.200 544.800 C 241.200 544.140,241.380 543.600,241.600 543.600 C 241.820 543.600,242.000 543.240,242.000 542.800 C 242.000 542.360,242.180 542.000,242.400 542.000 C 242.620 542.000,242.800 541.460,242.800 540.800 C 242.800 540.140,242.980 539.600,243.200 539.600 C 243.420 539.600,243.600 539.240,243.600 538.800 C 243.600 538.360,243.780 538.000,244.000 538.000 C 244.220 538.000,244.400 537.561,244.400 537.024 C 244.400 536.487,244.580 535.936,244.800 535.800 C 245.020 535.664,245.200 535.113,245.200 534.576 C 245.200 534.039,245.380 533.600,245.600 533.600 C 245.820 533.600,246.000 533.240,246.000 532.800 C 246.000 532.360,246.180 532.000,246.400 532.000 C 246.620 532.000,246.800 531.460,246.800 530.800 C 246.800 530.140,246.980 529.600,247.200 529.600 C 247.420 529.600,247.600 529.240,247.600 528.800 C 247.600 528.360,247.780 528.000,248.000 528.000 C 248.220 528.000,248.400 527.460,248.400 526.800 C 248.400 526.140,248.580 525.600,248.800 525.600 C 249.020 525.600,249.200 525.060,249.200 524.400 C 249.200 523.740,249.380 523.200,249.600 523.200 C 249.820 523.200,250.000 522.840,250.000 522.400 C 250.000 521.960,250.180 521.600,250.400 521.600 C 250.620 521.600,250.800 521.060,250.800 520.400 C 250.800 519.740,250.980 519.200,251.200 519.200 C 251.420 519.200,251.600 518.840,251.600 518.400 C 251.600 517.960,251.780 517.600,252.000 517.600 C 252.220 517.600,252.400 517.060,252.400 516.400 C 252.400 515.740,252.580 515.200,252.800 515.200 C 253.020 515.200,253.200 514.840,253.200 514.400 C 253.200 513.960,253.380 513.600,253.600 513.600 C 253.820 513.600,254.000 513.161,254.000 512.624 C 254.000 512.087,254.180 511.536,254.400 511.400 C 254.620 511.264,254.800 510.713,254.800 510.176 C 254.800 509.639,254.980 509.200,255.200 509.200 C 255.420 509.200,255.600 508.851,255.600 508.424 C 255.600 507.997,255.780 507.536,256.000 507.400 C 256.220 507.264,256.400 506.713,256.400 506.176 C 256.400 505.639,256.580 505.200,256.800 505.200 C 257.020 505.200,257.200 504.851,257.200 504.424 C 257.200 503.997,257.380 503.536,257.600 503.400 C 257.820 503.264,258.000 502.713,258.000 502.176 C 258.000 501.639,258.147 501.200,258.328 501.200 C 258.508 501.200,258.900 500.300,259.200 499.200 C 259.500 498.100,259.892 497.200,260.072 497.200 C 260.253 497.200,260.400 496.660,260.400 496.000 C 260.400 495.340,260.580 494.800,260.800 494.800 C 261.020 494.800,261.200 494.451,261.200 494.024 C 261.200 493.597,261.359 493.149,261.554 493.029 C 261.748 492.908,262.029 491.998,262.178 491.005 C 262.327 490.012,262.618 489.200,262.825 489.200 C 263.031 489.200,263.200 488.660,263.200 488.000 C 263.200 487.340,263.380 486.800,263.600 486.800 C 263.820 486.800,264.000 486.440,264.000 486.000 C 264.000 485.560,264.180 485.200,264.400 485.200 C 264.620 485.200,264.800 484.750,264.800 484.200 C 264.800 483.650,264.980 483.200,265.200 483.200 C 265.420 483.200,265.600 482.660,265.600 482.000 C 265.600 481.340,265.780 480.800,266.000 480.800 C 266.220 480.800,266.400 480.440,266.400 480.000 C 266.400 479.560,266.580 479.200,266.800 479.200 C 267.020 479.200,267.200 478.660,267.200 478.000 C 267.200 477.340,267.380 476.800,267.600 476.800 C 267.820 476.800,268.000 476.440,268.000 476.000 C 268.000 475.560,268.180 475.200,268.400 475.200 C 268.620 475.200,268.800 474.660,268.800 474.000 C 268.800 473.340,268.980 472.800,269.200 472.800 C 269.420 472.800,269.600 472.260,269.600 471.600 C 269.600 470.940,269.780 470.400,270.000 470.400 C 270.220 470.400,270.400 470.040,270.400 469.600 C 270.400 469.160,270.580 468.800,270.800 468.800 C 271.020 468.800,271.200 468.260,271.200 467.600 C 271.200 466.940,271.380 466.400,271.600 466.400 C 271.820 466.400,272.000 466.040,272.000 465.600 C 272.000 465.160,272.180 464.800,272.400 464.800 C 272.620 464.800,272.800 464.260,272.800 463.600 C 272.800 462.940,272.980 462.400,273.200 462.400 C 273.420 462.400,273.600 462.040,273.600 461.600 C 273.600 461.160,273.780 460.800,274.000 460.800 C 274.220 460.800,274.400 460.350,274.400 459.800 C 274.400 459.250,274.580 458.800,274.800 458.800 C 275.020 458.800,275.200 458.260,275.200 457.600 C 275.200 456.940,275.380 456.400,275.600 456.400 C 275.820 456.400,276.000 456.040,276.000 455.600 C 276.000 455.160,276.180 454.800,276.400 454.800 C 276.620 454.800,276.800 454.260,276.800 453.600 C 276.800 452.940,276.980 452.400,277.200 452.400 C 277.420 452.400,277.600 452.040,277.600 451.600 C 277.600 451.160,277.780 450.800,278.000 450.800 C 278.220 450.800,278.400 450.260,278.400 449.600 C 278.400 448.940,278.580 448.400,278.800 448.400 C 279.020 448.400,279.200 448.051,279.200 447.624 C 279.200 447.197,279.380 446.736,279.600 446.600 C 279.820 446.464,280.000 445.913,280.000 445.376 C 280.000 444.839,280.180 444.400,280.400 444.400 C 280.620 444.400,280.800 443.860,280.800 443.200 C 280.800 442.540,280.980 442.000,281.200 442.000 C 281.457 442.000,281.600 438.067,281.600 431.000 C 281.600 423.933,281.457 420.000,281.200 420.000 C 280.980 420.000,280.800 419.640,280.800 419.200 C 280.800 418.760,280.620 418.400,280.400 418.400 C 280.180 418.400,280.000 417.950,280.000 417.400 C 280.000 416.850,279.820 416.400,279.600 416.400 C 279.380 416.400,279.200 416.147,279.200 415.838 C 279.200 415.172,277.532 411.859,277.100 411.667 C 276.935 411.593,276.800 411.008,276.800 410.367 C 276.800 409.725,276.620 409.200,276.400 409.200 C 276.180 409.200,276.000 408.840,276.000 408.400 C 276.000 407.960,275.820 407.600,275.600 407.600 C 275.380 407.600,275.200 407.240,275.200 406.800 C 275.200 406.360,275.020 406.000,274.800 406.000 C 274.580 406.000,274.400 405.640,274.400 405.200 C 274.400 404.760,274.220 404.400,274.000 404.400 C 273.780 404.400,273.600 403.860,273.600 403.200 C 273.600 402.540,273.420 402.000,273.200 402.000 C 272.980 402.000,272.800 401.640,272.800 401.200 C 272.800 400.760,272.620 400.400,272.400 400.400 C 272.180 400.400,272.000 400.040,272.000 399.600 C 272.000 399.160,271.820 398.800,271.600 398.800 C 271.380 398.800,271.200 398.361,271.200 397.824 C 271.200 397.287,271.020 396.736,270.800 396.600 C 270.580 396.464,270.400 396.003,270.400 395.576 C 270.400 395.149,270.220 394.800,270.000 394.800 C 269.780 394.800,269.600 394.440,269.600 394.000 C 269.600 393.560,269.420 393.200,269.200 393.200 C 268.980 393.200,268.800 392.840,268.800 392.400 C 268.800 391.960,268.620 391.600,268.400 391.600 C 268.180 391.600,268.000 391.257,268.000 390.838 C 268.000 390.022,266.399 386.688,265.900 386.467 C 265.735 386.393,265.600 385.988,265.600 385.567 C 265.600 385.145,265.420 384.800,265.200 384.800 C 264.980 384.800,264.800 384.260,264.800 383.600 C 264.800 382.940,264.620 382.400,264.400 382.400 C 264.180 382.400,264.000 382.040,264.000 381.600 C 264.000 381.160,263.820 380.800,263.600 380.800 C 263.380 380.800,263.200 380.440,263.200 380.000 C 263.200 379.560,263.020 379.200,262.800 379.200 C 262.580 379.200,262.399 378.705,262.398 378.100 C 262.397 377.495,261.947 376.114,261.398 375.032 C 260.849 373.950,260.400 372.825,260.400 372.532 C 260.400 372.239,260.220 372.000,260.000 372.000 C 259.780 372.000,259.600 371.645,259.600 371.212 C 259.600 370.779,259.240 369.783,258.800 369.000 C 258.360 368.217,258.000 367.311,258.000 366.988 C 258.000 366.665,257.820 366.400,257.600 366.400 C 257.380 366.400,257.200 366.040,257.200 365.600 C 257.200 365.160,257.020 364.800,256.800 364.800 C 256.580 364.800,256.400 364.350,256.400 363.800 C 256.400 363.250,256.220 362.800,256.000 362.800 C 255.780 362.800,255.600 362.440,255.600 362.000 C 255.600 361.560,255.420 361.200,255.200 361.200 C 254.936 361.200,254.800 345.800,254.800 315.800 C 254.800 285.800,254.936 270.400,255.200 270.400 C 255.420 270.400,255.600 270.720,255.600 271.112 C 255.600 271.503,255.960 272.083,256.400 272.400 C 256.840 272.717,257.200 273.257,257.200 273.600 C 257.200 273.943,257.560 274.483,258.000 274.800 C 258.440 275.117,258.800 275.657,258.800 276.000 C 258.800 276.343,259.160 276.883,259.600 277.200 C 260.040 277.517,260.400 278.057,260.400 278.400 C 260.400 278.743,260.760 279.283,261.200 279.600 C 261.640 279.917,262.000 280.497,262.000 280.888 C 262.000 281.280,262.158 281.600,262.351 281.600 C 262.545 281.600,262.917 282.116,263.178 282.747 C 263.745 284.115,271.389 291.600,272.220 291.600 C 272.539 291.600,272.800 291.780,272.800 292.000 C 272.800 292.220,273.160 292.400,273.600 292.400 C 274.040 292.400,274.400 292.580,274.400 292.800 C 274.400 293.020,274.760 293.200,275.200 293.200 C 275.640 293.200,276.000 293.380,276.000 293.600 C 276.000 293.820,276.360 294.000,276.800 294.000 C 277.240 294.000,277.600 294.180,277.600 294.400 C 277.600 294.620,278.219 294.800,278.976 294.800 C 279.733 294.800,280.464 294.980,280.600 295.200 C 280.942 295.753,366.400 295.753,366.400 295.200 C 366.400 294.978,367.467 294.800,368.800 294.800 C 370.133 294.800,371.200 294.622,371.200 294.400 C 371.200 294.180,371.740 294.000,372.400 294.000 C 373.060 294.000,373.600 293.820,373.600 293.600 C 373.600 293.380,373.960 293.200,374.400 293.200 C 374.840 293.200,375.200 293.020,375.200 292.800 C 375.200 292.580,375.560 292.400,376.000 292.400 C 376.440 292.400,376.800 292.220,376.800 292.000 C 376.800 291.780,377.160 291.600,377.600 291.600 C 378.040 291.600,378.400 291.450,378.400 291.268 C 378.400 291.085,378.894 290.680,379.497 290.368 C 380.757 289.716,383.200 287.403,383.200 286.862 C 383.200 286.662,383.473 286.271,383.807 285.994 C 384.346 285.547,384.886 284.519,386.013 281.800 C 387.083 279.218,387.036 269.640,385.950 268.969 C 385.757 268.850,385.600 268.431,385.600 268.038 C 385.600 266.994,384.570 265.099,383.410 264.010 C 382.855 263.488,382.400 262.899,382.400 262.702 C 382.400 262.194,381.344 261.200,380.805 261.200 C 380.556 261.200,380.464 261.020,380.600 260.800 C 380.736 260.580,380.516 260.400,380.112 260.400 C 379.707 260.400,379.117 260.040,378.800 259.600 C 378.483 259.160,377.903 258.800,377.512 258.800 C 377.120 258.800,376.800 258.620,376.800 258.400 C 376.800 258.180,376.440 258.000,376.000 258.000 C 375.560 258.000,375.200 257.820,375.200 257.600 C 375.200 257.380,374.840 257.200,374.400 257.200 C 373.960 257.200,373.600 257.020,373.600 256.800 C 373.600 256.580,372.880 256.400,372.000 256.400 C 371.120 256.400,370.400 256.220,370.400 256.000 C 370.400 255.778,369.333 255.600,368.000 255.600 C 366.667 255.600,365.600 255.422,365.600 255.200 C 365.600 254.936,353.457 254.800,329.971 254.800 C 292.178 254.800,293.200 254.849,293.200 253.029 C 293.200 252.683,293.020 252.400,292.800 252.400 C 292.580 252.400,292.400 252.040,292.400 251.600 C 292.400 251.160,292.220 250.800,292.000 250.800 C 291.780 250.800,291.600 250.480,291.600 250.088 C 291.600 249.697,291.240 249.117,290.800 248.800 C 290.360 248.483,290.000 247.903,290.000 247.512 C 290.000 247.120,289.820 246.800,289.600 246.800 C 289.380 246.800,289.200 246.440,289.200 246.000 C 289.200 245.560,289.020 245.200,288.800 245.200 C 288.580 245.200,288.400 244.840,288.400 244.400 C 288.400 243.960,288.220 243.600,288.000 243.600 C 287.780 243.600,287.600 243.251,287.600 242.824 C 287.600 242.397,287.432 241.943,287.227 241.817 C 287.022 241.690,286.347 240.554,285.727 239.293 C 285.107 238.032,284.510 236.910,284.399 236.800 C 284.289 236.690,283.944 236.105,283.632 235.500 C 283.320 234.895,282.915 234.400,282.732 234.400 C 282.550 234.400,282.400 234.040,282.400 233.600 C 282.400 233.160,282.220 232.800,282.000 232.800 C 281.780 232.800,281.600 232.440,281.600 232.000 C 281.600 231.560,281.420 231.200,281.200 231.200 C 280.980 231.200,280.800 230.840,280.800 230.400 C 280.800 229.960,280.620 229.600,280.400 229.600 C 280.180 229.600,280.000 229.280,280.000 228.888 C 280.000 228.497,279.640 227.917,279.200 227.600 C 278.760 227.283,278.400 226.703,278.400 226.312 C 278.400 225.920,278.220 225.600,278.000 225.600 C 277.780 225.600,277.600 225.240,277.600 224.800 C 277.600 224.360,277.420 224.000,277.200 224.000 C 276.980 224.000,276.800 223.640,276.800 223.200 C 276.800 222.760,276.620 222.400,276.400 222.400 C 276.180 222.400,276.000 222.164,276.000 221.875 C 276.000 221.587,275.640 220.964,275.200 220.492 C 274.760 220.020,274.400 219.356,274.400 219.017 C 274.400 218.678,274.220 218.400,274.000 218.400 C 273.780 218.400,273.600 218.040,273.600 217.600 C 273.600 217.160,273.464 216.800,273.298 216.800 C 273.131 216.800,272.736 216.215,272.420 215.500 C 272.103 214.785,271.520 213.851,271.122 213.425 C 270.725 212.998,270.400 212.413,270.400 212.125 C 270.400 211.836,270.220 211.600,270.000 211.600 C 269.780 211.600,269.600 211.240,269.600 210.800 C 269.600 210.360,269.420 210.000,269.200 210.000 C 268.980 210.000,268.800 209.640,268.800 209.200 C 268.800 208.760,268.620 208.400,268.400 208.400 C 268.180 208.400,268.000 208.164,268.000 207.875 C 268.000 207.587,267.640 206.964,267.200 206.492 C 266.760 206.020,266.400 205.356,266.400 205.017 C 266.400 204.678,266.220 204.400,266.000 204.400 C 265.780 204.400,265.600 204.040,265.600 203.600 C 265.600 203.160,265.420 202.800,265.200 202.800 C 264.980 202.800,264.800 202.480,264.800 202.088 C 264.800 201.697,264.440 201.117,264.000 200.800 C 263.560 200.483,263.200 199.903,263.200 199.512 C 263.200 199.120,263.020 198.800,262.800 198.800 C 262.580 198.800,262.400 198.484,262.400 198.097 C 262.400 197.425,260.562 193.618,260.035 193.200 C 259.897 193.090,259.162 191.740,258.401 190.200 C 257.641 188.660,256.699 187.109,256.309 186.753 C 255.919 186.397,255.600 185.812,255.600 185.453 C 255.600 185.094,255.420 184.800,255.200 184.800 C 254.980 184.800,254.800 184.440,254.800 184.000 C 254.800 183.560,254.620 183.200,254.400 183.200 C 254.180 183.200,254.000 182.840,254.000 182.400 C 254.000 181.960,253.820 181.600,253.600 181.600 C 253.380 181.600,253.200 181.240,253.200 180.800 C 253.200 180.360,253.020 180.000,252.800 180.000 C 252.580 180.000,252.400 179.640,252.400 179.200 C 252.400 178.760,252.220 178.400,252.000 178.400 C 251.780 178.400,251.600 178.040,251.600 177.600 C 251.600 177.160,251.420 176.800,251.200 176.800 C 250.980 176.800,250.800 176.527,250.800 176.194 C 250.800 175.492,245.040 169.600,244.353 169.600 C 244.101 169.600,243.603 169.270,243.247 168.867 C 242.891 168.465,241.745 167.885,240.700 167.580 C 239.655 167.275,238.800 166.885,238.800 166.713 C 238.800 166.541,238.361 166.400,237.824 166.400 C 237.287 166.400,236.748 166.240,236.627 166.044 C 236.404 165.682,234.835 165.339,231.600 164.943 C 230.610 164.822,229.629 164.560,229.420 164.361 C 229.211 164.163,228.083 164.000,226.914 164.000 C 225.744 164.000,224.070 163.776,223.194 163.503 L 221.600 163.005 221.600 153.703 C 221.600 144.667,221.623 144.400,222.400 144.400 C 222.840 144.400,223.200 144.220,223.200 144.000 C 223.200 143.780,223.520 143.600,223.912 143.600 C 224.303 143.600,224.883 143.240,225.200 142.800 C 225.517 142.360,226.057 142.000,226.400 142.000 C 226.743 142.000,227.283 141.640,227.600 141.200 C 227.917 140.760,228.457 140.400,228.800 140.400 C 229.143 140.400,229.683 140.040,230.000 139.600 C 230.317 139.160,230.815 138.800,231.106 138.800 C 231.398 138.800,232.057 138.395,232.571 137.900 C 233.085 137.405,234.362 136.280,235.410 135.400 C 237.770 133.418,238.800 132.354,238.800 131.899 C 238.800 131.706,239.700 130.671,240.800 129.600 C 241.900 128.529,242.800 127.442,242.800 127.186 C 242.800 126.930,243.340 126.217,244.000 125.600 C 244.660 124.983,245.200 124.191,245.200 123.840 C 245.200 123.488,245.380 123.200,245.600 123.200 C 245.820 123.200,246.000 122.880,246.000 122.488 C 246.000 122.097,246.360 121.517,246.800 121.200 C 247.240 120.883,247.600 120.303,247.600 119.912 C 247.600 119.520,247.780 119.200,248.000 119.200 C 248.220 119.200,248.400 118.840,248.400 118.400 C 248.400 117.960,248.580 117.600,248.800 117.600 C 249.020 117.600,249.200 117.240,249.200 116.800 C 249.200 116.360,249.380 116.000,249.600 116.000 C 249.820 116.000,250.000 115.640,250.000 115.200 C 250.000 114.760,250.180 114.400,250.400 114.400 C 250.620 114.400,250.800 113.961,250.800 113.424 C 250.800 112.887,250.980 112.336,251.200 112.200 C 251.420 112.064,251.600 111.513,251.600 110.976 C 251.600 110.439,251.780 110.000,252.000 110.000 C 252.220 110.000,252.400 109.460,252.400 108.800 C 252.400 108.140,252.580 107.600,252.800 107.600 C 253.020 107.600,253.200 106.880,253.200 106.000 C 253.200 105.120,253.380 104.400,253.600 104.400 C 253.820 104.400,254.000 103.500,254.000 102.400 C 254.000 101.300,254.180 100.400,254.400 100.400 C 254.656 100.400,254.800 96.941,254.800 90.824 C 254.800 84.871,254.649 81.154,254.400 81.000 C 254.180 80.864,254.000 79.863,254.000 78.776 C 254.000 77.689,253.820 76.800,253.600 76.800 C 253.380 76.800,253.200 76.181,253.200 75.424 C 253.200 74.667,253.020 73.936,252.800 73.800 C 252.580 73.664,252.400 73.023,252.400 72.376 C 252.400 71.729,252.220 71.200,252.000 71.200 C 251.780 71.200,251.600 70.761,251.600 70.224 C 251.600 69.687,251.420 69.136,251.200 69.000 C 250.284 68.434,250.989 67.342,254.400 64.043 C 256.380 62.127,258.000 60.344,258.000 60.080 C 258.000 59.816,258.152 59.600,258.337 59.600 C 258.523 59.600,259.108 58.745,259.637 57.700 C 260.167 56.655,260.735 55.740,260.900 55.667 C 261.065 55.593,261.200 55.188,261.200 54.767 C 261.200 54.345,261.364 54.000,261.565 54.000 C 261.766 54.000,262.051 53.280,262.200 52.400 C 262.349 51.520,262.634 50.800,262.835 50.800 C 263.036 50.800,263.200 50.260,263.200 49.600 C 263.200 48.940,263.380 48.400,263.600 48.400 C 263.820 48.400,264.000 47.860,264.000 47.200 C 264.000 46.540,264.180 46.000,264.400 46.000 C 264.620 46.000,264.800 45.460,264.800 44.800 C 264.800 44.140,264.980 43.600,265.200 43.600 C 265.420 43.600,265.600 42.891,265.600 42.024 C 265.600 41.157,265.780 40.336,266.000 40.200 C 266.220 40.064,266.400 38.973,266.400 37.776 C 266.400 36.579,266.580 35.600,266.800 35.600 C 267.035 35.600,267.200 34.200,267.200 32.200 C 267.200 30.200,267.365 28.800,267.600 28.800 C 267.848 28.800,268.000 26.667,268.000 23.200 C 268.000 17.867,267.962 17.600,267.200 17.600 C 266.578 17.600,266.400 17.867,266.400 18.800 C 266.400 19.460,266.220 20.000,266.000 20.000 C 265.780 20.000,265.600 20.540,265.600 21.200 C 265.600 21.860,265.420 22.400,265.200 22.400 C 264.980 22.400,264.800 22.760,264.800 23.200 C 264.800 23.640,264.620 24.000,264.400 24.000 C 264.180 24.000,264.000 24.210,264.000 24.466 C 264.000 25.212,262.677 28.000,262.323 28.000 C 262.145 28.000,262.000 28.288,262.000 28.640 C 262.000 28.991,261.460 29.783,260.800 30.400 C 260.140 31.017,259.600 31.727,259.600 31.980 C 259.600 32.713,253.729 38.279,251.975 39.209 C 251.439 39.493,250.709 40.057,250.353 40.463 C 249.997 40.868,249.452 41.200,249.141 41.200 C 248.831 41.200,248.317 41.560,248.000 42.000 C 247.683 42.440,247.186 42.800,246.895 42.800 C 246.604 42.800,245.980 43.160,245.508 43.600 C 245.036 44.040,244.413 44.400,244.125 44.400 C 243.836 44.400,243.600 44.580,243.600 44.800 C 243.600 45.020,243.255 45.200,242.833 45.200 C 242.412 45.200,242.007 45.340,241.933 45.511 C 241.860 45.682,240.811 46.306,239.601 46.898 L 237.403 47.975 235.588 46.188 C 234.589 45.204,233.626 44.400,233.447 44.400 C 233.268 44.400,232.617 43.860,232.000 43.200 C 231.383 42.540,230.631 42.000,230.328 42.000 C 230.025 42.000,229.517 41.640,229.200 41.200 C 228.522 40.259,227.600 40.144,227.600 41.000 C 227.600 41.330,227.746 41.600,227.925 41.600 C 228.103 41.600,228.598 41.922,229.025 42.317 C 229.451 42.711,230.610 43.601,231.600 44.294 C 233.979 45.962,236.558 48.456,238.947 51.400 L 240.895 53.800 236.747 54.099 C 224.703 54.969,217.421 57.504,209.400 63.620 C 204.806 67.123,196.819 75.898,196.804 77.457 C 196.794 78.529,195.578 78.315,194.685 77.084 C 194.172 76.378,193.229 75.080,192.588 74.200 C 188.060 67.976,179.965 61.693,173.416 59.319 C 168.418 57.508,167.733 57.429,156.900 57.418 C 151.125 57.413,146.400 57.349,146.400 57.276 C 146.400 56.890,148.990 53.481,150.953 51.285 C 152.189 49.902,153.200 48.631,153.200 48.460 C 153.200 48.290,153.578 47.745,154.040 47.249 C 154.502 46.753,154.773 46.240,154.643 46.109 C 154.512 45.979,154.068 46.261,153.656 46.736 C 152.902 47.605,150.800 47.947,150.800 47.200 C 150.800 46.980,150.440 46.800,150.000 46.800 C 149.560 46.800,149.200 46.620,149.200 46.400 C 149.200 46.180,148.922 46.000,148.583 46.000 C 148.244 46.000,147.580 45.640,147.108 45.200 C 146.636 44.760,146.013 44.400,145.725 44.400 C 145.436 44.400,145.200 44.220,145.200 44.000 C 145.200 43.780,144.840 43.600,144.400 43.600 C 143.960 43.600,143.600 43.450,143.600 43.268 C 143.600 43.085,143.105 42.681,142.500 42.370 C 141.895 42.060,141.109 41.489,140.753 41.103 C 140.397 40.716,139.852 40.400,139.541 40.400 C 139.231 40.400,138.717 40.040,138.400 39.600 C 138.083 39.160,137.622 38.800,137.377 38.800 C 136.767 38.800,131.200 33.389,131.200 32.796 C 131.200 32.535,130.660 31.817,130.000 31.200 C 129.340 30.583,128.800 29.831,128.800 29.528 C 128.800 29.225,128.440 28.717,128.000 28.400 C 127.560 28.083,127.200 27.503,127.200 27.112 C 127.200 26.720,127.020 26.400,126.800 26.400 C 126.580 26.400,126.400 26.040,126.400 25.600 C 126.400 25.160,126.220 24.800,126.000 24.800 C 125.780 24.800,125.600 24.440,125.600 24.000 C 125.600 23.560,125.420 23.200,125.200 23.200 C 124.980 23.200,124.800 22.840,124.800 22.400 C 124.800 21.960,124.620 21.600,124.400 21.600 C 124.180 21.600,123.994 21.015,123.987 20.300 C 123.972 18.785,123.201 17.600,122.230 17.600 C 121.618 17.600,121.571 18.017,121.770 21.700 M185.600 31.600 C 185.600 31.820,186.320 32.000,187.200 32.000 C 188.080 32.000,188.800 31.820,188.800 31.600 C 188.800 31.380,188.080 31.200,187.200 31.200 C 186.320 31.200,185.600 31.380,185.600 31.600 M203.200 31.600 C 203.200 31.820,203.650 32.000,204.200 32.000 C 204.750 32.000,205.200 31.820,205.200 31.600 C 205.200 31.380,204.750 31.200,204.200 31.200 C 203.650 31.200,203.200 31.380,203.200 31.600 M181.000 32.400 C 180.851 32.642,181.396 32.800,182.376 32.800 C 183.269 32.800,184.000 32.620,184.000 32.400 C 184.000 32.180,183.381 32.000,182.624 32.000 C 181.867 32.000,181.136 32.180,181.000 32.400 M178.400 33.200 C 178.400 33.420,178.670 33.600,179.000 33.600 C 179.330 33.600,179.600 33.420,179.600 33.200 C 179.600 32.980,179.330 32.800,179.000 32.800 C 178.670 32.800,178.400 32.980,178.400 33.200 M210.400 33.200 C 210.400 33.420,210.760 33.600,211.200 33.600 C 211.640 33.600,212.000 33.420,212.000 33.200 C 212.000 32.980,211.640 32.800,211.200 32.800 C 210.760 32.800,210.400 32.980,210.400 33.200 M175.200 34.000 C 175.200 34.220,175.650 34.400,176.200 34.400 C 176.750 34.400,177.200 34.220,177.200 34.000 C 177.200 33.780,176.750 33.600,176.200 33.600 C 175.650 33.600,175.200 33.780,175.200 34.000 M212.800 34.000 C 212.800 34.220,213.160 34.400,213.600 34.400 C 214.040 34.400,214.400 34.220,214.400 34.000 C 214.400 33.780,214.040 33.600,213.600 33.600 C 213.160 33.600,212.800 33.780,212.800 34.000 M215.600 34.800 C 215.600 35.020,215.870 35.200,216.200 35.200 C 216.530 35.200,216.800 35.380,216.800 35.600 C 216.800 35.820,217.149 36.000,217.576 36.000 C 218.003 36.000,218.464 36.180,218.600 36.400 C 218.736 36.620,219.107 36.800,219.424 36.800 C 219.741 36.800,220.000 36.620,220.000 36.400 C 220.000 36.180,219.640 36.000,219.200 36.000 C 218.760 36.000,218.400 35.820,218.400 35.600 C 218.400 35.380,218.040 35.200,217.600 35.200 C 217.160 35.200,216.800 35.020,216.800 34.800 C 216.800 34.580,216.530 34.400,216.200 34.400 C 215.870 34.400,215.600 34.580,215.600 34.800 M169.600 36.400 C 169.600 36.620,169.870 36.800,170.200 36.800 C 170.530 36.800,170.800 36.620,170.800 36.400 C 170.800 36.180,170.530 36.000,170.200 36.000 C 169.870 36.000,169.600 36.180,169.600 36.400 M168.000 37.200 C 168.000 37.420,168.270 37.600,168.600 37.600 C 168.930 37.600,169.200 37.420,169.200 37.200 C 169.200 36.980,168.930 36.800,168.600 36.800 C 168.270 36.800,168.000 36.980,168.000 37.200 M220.400 37.200 C 220.400 37.420,220.670 37.600,221.000 37.600 C 221.330 37.600,221.600 37.420,221.600 37.200 C 221.600 36.980,221.330 36.800,221.000 36.800 C 220.670 36.800,220.400 36.980,220.400 37.200 M166.400 38.000 C 166.400 38.220,166.670 38.400,167.000 38.400 C 167.330 38.400,167.600 38.220,167.600 38.000 C 167.600 37.780,167.330 37.600,167.000 37.600 C 166.670 37.600,166.400 37.780,166.400 38.000 M222.000 38.000 C 222.000 38.220,222.270 38.400,222.600 38.400 C 222.930 38.400,223.200 38.580,223.200 38.800 C 223.200 39.020,223.545 39.200,223.967 39.200 C 224.388 39.200,224.793 39.352,224.867 39.538 C 224.940 39.724,225.526 40.005,226.170 40.163 C 227.878 40.582,226.817 39.410,224.557 38.380 C 222.639 37.507,222.000 37.412,222.000 38.000 M164.301 38.943 C 163.477 39.415,162.802 40.025,162.801 40.300 C 162.799 41.043,163.347 40.906,164.000 40.000 C 164.317 39.560,164.897 39.200,165.288 39.200 C 165.680 39.200,166.000 38.930,166.000 38.600 C 166.000 38.270,165.955 38.020,165.900 38.043 C 165.845 38.067,165.125 38.472,164.301 38.943 M157.878 43.354 C 156.550 44.571,155.985 45.600,156.646 45.600 C 156.995 45.600,159.600 42.710,159.600 42.322 C 159.600 41.822,159.458 41.907,157.878 43.354 "
            stroke="none" fill="#f75119" fill-rule="evenodd"></path>
        <path id="path1"
            d="M188.800 31.600 C 188.800 31.822,187.733 32.000,186.400 32.000 C 185.067 32.000,184.000 32.178,184.000 32.400 C 184.000 32.620,183.010 32.800,181.800 32.800 C 180.590 32.800,179.600 32.980,179.600 33.200 C 179.600 33.420,179.060 33.600,178.400 33.600 C 177.740 33.600,177.200 33.780,177.200 34.000 C 177.200 34.220,176.390 34.400,175.400 34.400 C 174.410 34.400,173.600 34.580,173.600 34.800 C 173.600 35.020,173.072 35.200,172.427 35.200 C 171.605 35.200,171.178 35.440,171.000 36.000 C 170.860 36.440,170.398 36.800,169.973 36.800 C 169.548 36.800,169.200 36.980,169.200 37.200 C 169.200 37.420,168.840 37.600,168.400 37.600 C 167.960 37.600,167.600 37.801,167.600 38.047 C 167.600 38.296,167.247 38.401,166.800 38.284 C 166.259 38.143,166.000 38.272,166.000 38.684 C 166.000 39.116,165.713 39.238,165.012 39.104 C 164.469 39.001,164.120 39.071,164.238 39.261 C 164.578 39.811,163.323 40.822,162.630 40.556 C 162.211 40.395,162.000 40.539,162.000 40.984 C 162.000 41.443,161.777 41.583,161.293 41.430 C 160.825 41.281,160.318 41.564,159.793 42.265 C 158.006 44.653,156.881 45.606,156.172 45.334 C 155.692 45.150,155.560 45.212,155.758 45.532 C 155.917 45.789,155.833 46.000,155.570 46.000 C 155.082 46.000,153.201 47.972,153.200 48.485 C 153.200 48.642,152.189 49.902,150.953 51.285 C 148.990 53.481,146.400 56.890,146.400 57.276 C 146.400 57.349,151.125 57.413,156.900 57.418 C 167.733 57.429,168.418 57.508,173.416 59.319 C 179.918 61.676,188.088 67.999,192.512 74.100 C 193.110 74.925,194.054 76.223,194.608 76.984 C 195.569 78.303,196.794 78.567,196.804 77.457 C 196.819 75.898,204.806 67.123,209.400 63.620 C 217.421 57.504,224.703 54.969,236.747 54.099 L 240.895 53.800 238.947 51.400 C 236.558 48.456,233.979 45.962,231.600 44.294 C 230.610 43.601,229.451 42.711,229.025 42.317 C 228.598 41.922,228.103 41.600,227.925 41.600 C 227.746 41.600,227.600 41.338,227.600 41.018 C 227.600 40.670,227.038 40.331,226.200 40.174 C 225.430 40.029,224.800 39.751,224.800 39.555 C 224.800 39.360,224.440 39.200,224.000 39.200 C 223.560 39.200,223.200 39.020,223.200 38.800 C 223.200 38.580,222.930 38.400,222.600 38.400 C 222.270 38.400,222.000 38.220,222.000 38.000 C 222.000 37.780,221.640 37.600,221.200 37.600 C 220.760 37.600,220.400 37.420,220.400 37.200 C 220.400 36.980,220.051 36.800,219.624 36.800 C 219.197 36.800,218.736 36.620,218.600 36.400 C 218.464 36.180,218.003 36.000,217.576 36.000 C 217.149 36.000,216.800 35.820,216.800 35.600 C 216.800 35.380,216.530 35.200,216.200 35.200 C 215.870 35.200,215.600 35.020,215.600 34.800 C 215.600 34.580,214.970 34.400,214.200 34.400 C 213.430 34.400,212.800 34.220,212.800 34.000 C 212.800 33.780,212.275 33.600,211.633 33.600 C 210.992 33.600,210.404 33.412,210.327 33.182 C 210.251 32.952,209.786 32.734,209.294 32.697 C 208.802 32.660,208.400 32.518,208.400 32.381 C 208.400 32.243,207.275 32.092,205.900 32.043 C 204.525 31.995,203.340 31.785,203.267 31.578 C 203.082 31.055,188.800 31.077,188.800 31.600 "
            stroke="none" fill="#36444b" fill-rule="evenodd"></path>
    </g>
</svg>