<svg xmlns="http://www.w3.org/2000/svg" width="120" height="153" viewBox="0 0 120 153" version="1.1"><path d="M 55 27 C 52.122 29.878, 52.411 34.392, 55.635 36.927 C 57.084 38.067, 59.048 39, 60 39 C 60.952 39, 62.916 38.067, 64.365 36.927 C 69.449 32.929, 66.547 25, 60 25 C 58.333 25, 56.111 25.889, 55 27 M 33.655 42.829 C 29.808 47.080, 32.396 50, 40.009 50 C 49.550 50, 49.450 49.775, 49.813 72.141 C 50.120 91.069, 50.621 94, 53.551 94 C 57.073 94, 58 91.067, 58 79.929 C 58 69.667, 58.122 69, 60 69 C 61.878 69, 62 69.667, 62 79.929 C 62 91.067, 62.927 94, 66.449 94 C 69.379 94, 69.880 91.069, 70.187 72.141 C 70.551 49.704, 70.417 50, 80.213 50 C 85.531 50, 86.148 49.770, 87.235 47.383 C 88.288 45.072, 88.155 44.544, 86.103 42.883 C 83.970 41.155, 81.784 41, 59.544 41 C 37.336 41, 35.172 41.153, 33.655 42.829" stroke="none" fill="#fbfae6" fill-rule="evenodd"/><path d="M 53.536 3.092 C 36.209 5.677, 22.107 14.453, 13.022 28.304 C 5.216 40.207, 2.881 55.509, 7.026 67.593 C 12.136 82.492, 24.831 103.830, 42.368 127 C 57.745 147.315, 58.321 148.001, 60 147.994 C 62.769 147.982, 88.876 112.910, 100.141 94.068 C 111.154 75.646, 116.778 59.959, 115.540 51.113 C 113.770 38.466, 108.764 28.524, 99.609 19.470 C 91.616 11.565, 83.670 6.978, 74 4.688 C 64.474 2.431, 60.199 2.098, 53.536 3.092 M 55 27 C 52.122 29.878, 52.411 34.392, 55.635 36.927 C 57.084 38.067, 59.048 39, 60 39 C 60.952 39, 62.916 38.067, 64.365 36.927 C 69.449 32.929, 66.547 25, 60 25 C 58.333 25, 56.111 25.889, 55 27 M 33.655 42.829 C 29.808 47.080, 32.396 50, 40.009 50 C 49.550 50, 49.450 49.775, 49.813 72.141 C 50.120 91.069, 50.621 94, 53.551 94 C 57.073 94, 58 91.067, 58 79.929 C 58 69.667, 58.122 69, 60 69 C 61.878 69, 62 69.667, 62 79.929 C 62 91.067, 62.927 94, 66.449 94 C 69.379 94, 69.880 91.069, 70.187 72.141 C 70.551 49.704, 70.417 50, 80.213 50 C 85.531 50, 86.148 49.770, 87.235 47.383 C 88.288 45.072, 88.155 44.544, 86.103 42.883 C 83.970 41.155, 81.784 41, 59.544 41 C 37.336 41, 35.172 41.153, 33.655 42.829" stroke="none" fill="#ebad29" fill-rule="evenodd"/></svg>