<svg xmlns="http://www.w3.org/2000/svg" width="457" height="570" viewBox="0 0 457 570" version="1.1"><path d="M 200.258 3.505 C 188.450 5.011, 168.664 9.147, 162.268 11.447 L 158.500 12.802 162.149 12.651 C 164.156 12.568, 165.548 12.092, 165.243 11.592 C 164.937 11.093, 165.636 10.933, 166.796 11.236 C 167.955 11.540, 169.051 11.347, 169.231 10.807 C 169.411 10.268, 171.411 9.754, 173.676 9.664 C 175.941 9.574, 177.632 9.232, 177.433 8.904 C 176.927 8.068, 190.707 5.701, 191.875 6.423 C 192.400 6.747, 193.014 6.457, 193.240 5.779 C 193.550 4.849, 200.988 4.451, 223.451 4.165 C 247.449 3.859, 253.097 4.034, 252.461 5.063 C 251.893 5.983, 252.160 6.153, 253.418 5.670 C 254.378 5.301, 256.364 4.944, 257.832 4.875 C 259.631 4.790, 259.035 4.471, 256 3.895 C 247.234 2.229, 212.184 1.984, 200.258 3.505 M 263.250 5.716 C 264.762 5.945, 266 6.491, 266 6.928 C 266 7.365, 267.238 7.477, 268.750 7.177 L 271.500 6.631 269 5.915 C 267.625 5.521, 265.150 5.222, 263.500 5.250 C 260.533 5.299, 260.530 5.304, 263.250 5.716 M 273.750 7.706 C 274.988 7.944, 276 8.516, 276 8.976 C 276 9.436, 277.012 9.543, 278.250 9.213 C 280.494 8.614, 280.494 8.611, 278 7.906 C 276.625 7.517, 274.600 7.216, 273.500 7.236 C 271.845 7.266, 271.888 7.347, 273.750 7.706 M 282.765 9.708 C 284.071 9.959, 284.746 10.601, 284.360 11.226 C 283.985 11.834, 284.153 12.024, 284.743 11.659 C 286 10.882, 292.135 11.970, 291.582 12.872 C 291.370 13.217, 292.550 13.550, 294.204 13.612 C 295.858 13.673, 297.501 14.123, 297.856 14.612 C 298.210 15.100, 299.063 15.545, 299.750 15.600 C 303.560 15.905, 304.069 16.079, 303.558 16.907 C 303.249 17.405, 303.968 17.560, 305.155 17.249 C 306.515 16.893, 307.074 17.071, 306.667 17.730 C 306.312 18.304, 306.579 18.754, 307.261 18.730 C 310.470 18.614, 312.064 19.087, 311.507 19.989 C 311.157 20.555, 311.558 20.723, 312.448 20.382 C 313.302 20.054, 314 20.270, 314 20.862 C 314 21.454, 314.748 21.650, 315.664 21.299 C 316.775 20.872, 317.090 21.045, 316.612 21.819 C 316.130 22.599, 316.456 22.762, 317.612 22.319 C 318.868 21.836, 319.109 22.015, 318.510 22.985 C 317.983 23.836, 318.079 24.069, 318.777 23.638 C 320.023 22.868, 327 25.928, 327 27.244 C 327 27.725, 327.450 27.840, 328 27.500 C 328.550 27.160, 329 27.359, 329 27.941 C 329 28.523, 329.337 28.893, 329.750 28.762 C 331.305 28.269, 336.947 31.276, 336.333 32.271 C 335.961 32.873, 336.176 33.009, 336.845 32.595 C 337.480 32.203, 338 32.359, 338 32.941 C 338 33.523, 338.337 33.911, 338.750 33.802 C 340.442 33.355, 343.984 35.218, 343.360 36.227 C 342.985 36.833, 343.153 37.024, 343.741 36.660 C 344.318 36.303, 345.059 36.712, 345.388 37.569 C 345.717 38.426, 346.439 38.847, 346.993 38.504 C 347.547 38.162, 348 38.359, 348 38.941 C 348 39.523, 348.337 39.947, 348.750 39.882 C 350.847 39.551, 352.042 40.124, 351.405 41.155 C 350.961 41.872, 351.130 42.037, 351.853 41.591 C 352.502 41.190, 353.278 41.560, 353.612 42.431 C 353.941 43.288, 354.590 43.753, 355.055 43.466 C 355.519 43.179, 356.386 43.852, 356.980 44.962 C 357.574 46.072, 358.384 46.913, 358.780 46.831 C 360.252 46.527, 362.968 48.242, 362.420 49.130 C 362.107 49.636, 362.222 49.943, 362.676 49.812 C 364.146 49.389, 368.074 52.071, 367.454 53.075 C 367.122 53.611, 367.222 53.943, 367.676 53.812 C 369.146 53.389, 373.074 56.071, 372.454 57.075 C 372.122 57.611, 372.226 57.926, 372.684 57.775 C 373.941 57.360, 382.984 65.216, 382.378 66.197 C 382.088 66.666, 382.447 66.926, 383.176 66.775 C 383.904 66.624, 384.388 67.062, 384.250 67.750 C 384.113 68.437, 384.563 68.887, 385.250 68.750 C 385.938 68.612, 386.388 69.062, 386.250 69.750 C 386.113 70.437, 386.563 70.887, 387.250 70.750 C 387.938 70.612, 388.388 71.062, 388.250 71.750 C 388.113 72.437, 388.348 72.887, 388.773 72.750 C 389.815 72.413, 397.092 80.531, 396.482 81.351 C 396.217 81.708, 396.281 81.794, 396.625 81.542 C 397.603 80.824, 404.977 90.228, 404.297 91.328 C 403.964 91.868, 404.163 92.017, 404.741 91.660 C 405.828 90.988, 407.501 93.741, 407.075 95.500 C 406.942 96.050, 407.173 96.160, 407.588 95.745 C 408.597 94.737, 415.122 103.994, 414.319 105.293 C 413.974 105.852, 414.178 106.008, 414.773 105.640 C 415.808 105, 417.644 108.584, 417.173 110.324 C 417.051 110.778, 417.354 110.899, 417.847 110.595 C 418.340 110.290, 420.177 112.732, 421.930 116.020 C 423.683 119.309, 425.323 122, 425.575 122 C 426.480 122, 421.093 112.333, 415.267 103.500 C 392.873 69.545, 363.625 43.738, 326.953 25.574 C 313.172 18.748, 286.173 8.825, 282.228 9.136 C 281.128 9.223, 281.323 9.431, 282.765 9.708 M 147.021 16.590 C 102.891 32.820, 61.487 66.766, 36.325 107.349 C 29.074 119.043, 18.106 141.907, 14.185 153.500 C 10.583 164.150, 6.768 178.803, 7.233 180.198 C 7.414 180.741, 8.602 176.868, 9.874 171.593 C 11.146 166.317, 12.553 162, 13 162 C 13.447 162, 13.559 161.030, 13.249 159.844 C 12.865 158.377, 13.052 157.914, 13.831 158.396 C 14.574 158.855, 14.768 158.558, 14.382 157.552 C 14.054 156.698, 14.270 156, 14.862 156 C 15.453 156, 15.678 155.325, 15.362 154.500 C 15.045 153.675, 15.270 153, 15.862 153 C 16.453 153, 16.678 152.325, 16.362 151.500 C 16.045 150.675, 16.270 150, 16.862 150 C 17.453 150, 17.678 149.325, 17.362 148.500 C 17.045 147.675, 17.188 147, 17.680 147 C 18.172 147, 18.649 145.988, 18.741 144.750 C 18.963 141.740, 34.918 109.832, 35.898 110.437 C 36.321 110.698, 36.667 110.257, 36.667 109.457 C 36.667 107.397, 45.225 95.021, 46.224 95.638 C 46.678 95.919, 46.967 95.778, 46.866 95.324 C 46.500 93.683, 48.235 91.027, 49.259 91.660 C 49.837 92.017, 50.036 91.868, 49.703 91.328 C 49.023 90.228, 56.397 80.824, 57.375 81.542 C 57.719 81.794, 57.783 81.708, 57.518 81.351 C 56.881 80.494, 64.209 72.420, 65.302 72.775 C 65.768 72.926, 65.901 72.649, 65.598 72.158 C 64.868 70.978, 68.447 67.780, 69.414 68.748 C 69.828 69.162, 70.017 68.825, 69.833 68 C 69.649 67.170, 70.091 66.623, 70.824 66.775 C 71.553 66.926, 71.912 66.666, 71.622 66.197 C 71.108 65.366, 79.768 57.500, 81.196 57.500 C 81.591 57.500, 82.572 56.600, 83.376 55.500 C 84.181 54.400, 85.325 53.500, 85.919 53.500 C 86.514 53.500, 86.970 53.122, 86.933 52.659 C 86.833 51.392, 90.346 49.096, 91.393 49.743 C 91.897 50.054, 92.017 49.837, 91.660 49.259 C 91.027 48.235, 93.683 46.500, 95.324 46.866 C 95.778 46.967, 95.893 46.636, 95.580 46.130 C 95.077 45.315, 97.045 43.989, 98.602 44.094 C 98.921 44.116, 99.802 43.316, 100.559 42.317 C 101.317 41.317, 101.951 40.924, 101.968 41.441 C 101.986 41.959, 102.661 41.509, 103.468 40.441 C 104.276 39.374, 104.951 38.837, 104.968 39.250 C 104.986 39.663, 105.916 39.084, 107.036 37.964 C 108.157 36.843, 109.576 36.238, 110.191 36.618 C 110.844 37.022, 111.031 36.859, 110.640 36.227 C 110 35.192, 113.584 33.356, 115.324 33.827 C 115.778 33.949, 115.816 33.512, 115.410 32.855 C 114.902 32.033, 115.207 31.866, 116.388 32.319 C 117.334 32.682, 117.850 32.566, 117.537 32.061 C 116.992 31.178, 120.712 29.395, 122.250 29.802 C 122.662 29.911, 123 29.523, 123 28.941 C 123 28.359, 123.450 28.160, 124 28.500 C 124.550 28.840, 125 28.615, 125 28 C 125 27.385, 125.450 27.160, 126 27.500 C 126.550 27.840, 127 27.615, 127 27 C 127 26.385, 127.450 26.160, 128 26.500 C 128.550 26.840, 129 26.615, 129 26 C 129 25.385, 129.450 25.160, 130 25.500 C 130.550 25.840, 131 25.714, 131 25.220 C 131 23.911, 135.961 21.858, 137.229 22.642 C 137.872 23.039, 138.020 22.841, 137.595 22.155 C 136.973 21.148, 138.112 20.747, 140.638 21.085 C 140.989 21.132, 141.552 20.764, 141.888 20.267 C 142.783 18.944, 150.986 15.873, 151.981 16.488 C 152.447 16.776, 152.994 16.518, 153.195 15.914 C 153.397 15.310, 154.742 14.745, 156.185 14.658 C 157.628 14.571, 158.600 14.162, 158.345 13.750 C 157.688 12.686, 157.525 12.727, 147.021 16.590 M 226 60.962 L 209.500 61.500 230 62.162 C 245.006 62.647, 253.094 63.385, 260.177 64.918 C 328.992 79.805, 379.264 132.101, 390.512 200.500 C 391.326 205.450, 392.057 211.750, 392.137 214.500 L 392.282 219.500 392.985 214 C 393.388 210.841, 393.280 207.972, 392.729 207.259 C 392.202 206.577, 391.969 204.664, 392.212 203.009 C 392.455 201.354, 392.384 200, 392.055 200 C 391.105 200, 388.892 186.985, 389.637 185.779 C 390.013 185.169, 389.849 184.975, 389.264 185.337 C 388.644 185.720, 387.938 184.462, 387.526 182.241 C 387.145 180.184, 385.324 174.473, 383.481 169.551 C 381.637 164.628, 380.397 160.128, 380.725 159.551 C 381.052 158.973, 380.963 158.823, 380.525 159.218 C 379.741 159.926, 373.787 148.639, 373.708 146.294 C 373.685 145.631, 373.344 145.287, 372.949 145.531 C 372.092 146.061, 369.386 139.932, 369.846 138.500 C 370.022 137.950, 369.826 137.841, 369.409 138.258 C 368.428 139.239, 364.924 133.932, 365.711 132.658 C 366.040 132.126, 365.790 132.012, 365.155 132.405 C 364.065 133.078, 363.514 131.733, 363.965 129.500 C 364.076 128.950, 363.835 128.832, 363.429 129.237 C 362.634 130.033, 356.336 122.050, 356.750 120.772 C 356.887 120.347, 356.639 120.113, 356.198 120.250 C 355.757 120.388, 353.910 118.813, 352.095 116.750 C 350.279 114.688, 349.120 113, 349.519 113 C 349.918 113, 349.697 112.339, 349.027 111.532 C 348.356 110.725, 347.289 110.162, 346.654 110.282 C 346.019 110.402, 345.593 109.997, 345.706 109.383 C 345.915 108.247, 341.028 103.084, 340.611 104 C 340.289 104.706, 334.488 99.713, 334.220 98.500 C 334.099 97.950, 333.663 97.461, 333.250 97.414 C 331.111 97.167, 329.090 95.663, 329.660 94.741 C 330.017 94.163, 329.902 93.939, 329.405 94.242 C 328.541 94.768, 317.830 87.683, 318.282 86.884 C 318.402 86.673, 318.330 86.595, 318.123 86.710 C 317.330 87.152, 312 83.901, 312 82.974 C 312 82.438, 311.663 82.089, 311.250 82.198 C 309.558 82.645, 306.016 80.782, 306.640 79.773 C 307.039 79.128, 306.842 78.979, 306.155 79.405 C 305.520 79.797, 305 79.615, 305 79 C 305 78.385, 304.586 78.138, 304.081 78.450 C 303.575 78.763, 302.558 78.416, 301.822 77.679 C 301.085 76.942, 299.861 76.546, 299.102 76.799 C 298.184 77.105, 297.987 76.829, 298.515 75.975 C 299.016 75.165, 298.910 74.937, 298.229 75.358 C 297.010 76.112, 292 74.112, 292 72.871 C 292 72.426, 291.383 72.300, 290.629 72.589 C 289.875 72.878, 288.637 72.527, 287.879 71.808 C 287.121 71.088, 286.050 70.497, 285.500 70.494 C 283.362 70.481, 267 65.501, 267 64.863 C 267 64.491, 266.100 64.423, 265 64.710 C 263.900 64.998, 263 64.793, 263 64.255 C 263 63.717, 261.875 63.492, 260.500 63.755 C 259.125 64.018, 258 63.809, 258 63.290 C 258 62.771, 256.650 62.545, 255 62.787 C 253.350 63.029, 252 62.827, 252 62.337 C 252 61.848, 250.200 61.619, 248 61.829 C 245.516 62.065, 244 61.791, 244 61.105 C 244 60.497, 243.662 60.096, 243.250 60.212 C 242.838 60.329, 235.075 60.667, 226 60.962 M 198.500 63.039 C 196.610 63.544, 197.904 63.636, 202 63.288 C 205.575 62.984, 208.688 62.570, 208.917 62.367 C 209.675 61.699, 201.555 62.222, 198.500 63.039 M 190.818 64.218 C 191.351 64.751, 192.623 65.011, 193.644 64.794 C 195.019 64.503, 194.767 64.251, 192.674 63.825 C 190.849 63.452, 190.192 63.592, 190.818 64.218 M 181.754 66.239 C 181.565 66.804, 180.013 67.319, 178.304 67.383 C 176.595 67.447, 175.374 67.789, 175.591 68.143 C 176.175 69.094, 171.093 70.175, 169.800 69.376 C 169.078 68.930, 168.977 69.154, 169.510 70.015 C 170.104 70.977, 169.872 71.165, 168.664 70.701 C 167.748 70.350, 167 70.546, 167 71.138 C 167 71.730, 166.302 71.946, 165.448 71.618 C 164.460 71.239, 164.147 71.429, 164.587 72.141 C 165.002 72.813, 164.727 73.076, 163.898 72.799 C 163.139 72.546, 161.893 72.964, 161.130 73.727 C 160.367 74.490, 159.102 74.869, 158.319 74.569 C 157.531 74.266, 157.169 74.464, 157.507 75.011 C 158.039 75.872, 155.999 76.474, 153.750 76.118 C 153.338 76.053, 153 76.477, 153 77.059 C 153 77.641, 152.550 77.840, 152 77.500 C 151.450 77.160, 151 77.385, 151 78 C 151 78.615, 150.550 78.840, 150 78.500 C 149.450 78.160, 149 78.385, 149 79 C 149 79.615, 148.438 79.794, 147.750 79.399 C 147.063 79.003, 146.839 79.053, 147.253 79.509 C 148.175 80.526, 136.912 87.064, 135.617 86.263 C 135.108 85.948, 135.012 86.211, 135.405 86.845 C 136.052 87.894, 134.806 88.464, 132.676 88.094 C 132.222 88.015, 132.136 88.412, 132.485 88.975 C 133.064 89.912, 131.718 90.448, 129.676 90.094 C 129.222 90.015, 129.107 90.364, 129.420 90.870 C 129.919 91.678, 127.793 93.169, 125.793 93.414 C 125.404 93.461, 124.428 94.400, 123.624 95.500 C 122.819 96.600, 121.675 97.500, 121.081 97.500 C 120.486 97.500, 119.901 97.950, 119.780 98.500 C 119.524 99.659, 113.967 104.500, 112.892 104.500 C 111.806 104.500, 110.506 106.011, 110.455 107.333 C 110.430 107.975, 109.834 108.376, 109.130 108.225 C 108.427 108.074, 108.099 108.351, 108.402 108.842 C 108.999 109.807, 106.129 112.813, 104.500 112.929 C 103.950 112.968, 103.494 113.338, 103.486 113.750 C 103.456 115.408, 98.615 120.880, 97.686 120.306 C 97.139 119.968, 96.993 120.180, 97.362 120.777 C 97.731 121.374, 97.013 122.578, 95.767 123.451 C 94.520 124.324, 93.705 125.142, 93.956 125.269 C 94.207 125.396, 93.267 127.185, 91.867 129.245 C 90.468 131.304, 88.988 132.654, 88.578 132.245 C 88.168 131.835, 87.924 131.950, 88.035 132.500 C 88.467 134.641, 87.953 136.089, 86.975 135.485 C 86.412 135.136, 86.074 135.248, 86.225 135.734 C 86.538 136.738, 75.955 156.333, 74.840 156.815 C 74.440 156.988, 74.389 157.849, 74.726 158.729 C 75.131 159.784, 74.946 160.084, 74.181 159.612 C 73.447 159.158, 73.223 159.417, 73.569 160.319 C 73.869 161.102, 73.527 162.363, 72.808 163.121 C 72.088 163.879, 71.486 164.950, 71.469 165.500 C 71.385 168.222, 69.741 172.958, 69.032 172.519 C 68.588 172.246, 68.246 172.579, 68.270 173.261 C 68.398 176.813, 67.900 179.056, 67.093 178.558 C 66.595 178.249, 66.422 178.898, 66.710 179.999 C 67.014 181.162, 66.741 182, 66.058 182 C 65.411 182, 65.123 182.389, 65.417 182.865 C 66.070 183.923, 63.834 195, 62.967 195 C 62.626 195, 62.554 196.414, 62.808 198.142 C 63.093 200.087, 62.887 201.048, 62.268 200.666 C 61.636 200.275, 61.442 201.558, 61.742 204.149 C 62.002 206.405, 61.830 208.011, 61.358 207.718 C 60.886 207.424, 60.696 210.405, 60.936 214.342 L 61.371 221.500 62.088 212.948 C 66.356 162.025, 94.587 114.853, 137.004 87.768 C 146.952 81.416, 162.798 73.965, 174.597 70.093 C 182.407 67.529, 185.528 66.110, 184.147 65.749 C 183.019 65.454, 181.942 65.674, 181.754 66.239 M 218.500 114.892 L 212.500 115.522 220.221 116.344 C 224.468 116.796, 230.881 116.851, 234.471 116.466 C 238.062 116.082, 241.004 116.157, 241.008 116.634 C 241.012 117.110, 243.366 117.588, 246.239 117.695 C 249.112 117.802, 251.606 118.317, 251.780 118.839 C 251.954 119.361, 252.974 119.558, 254.048 119.277 C 255.122 118.996, 256 119.227, 256 119.790 C 256 120.352, 256.970 120.559, 258.156 120.249 C 259.763 119.829, 260.106 120.020, 259.502 120.997 C 258.960 121.874, 259.080 122.068, 259.865 121.583 C 261.259 120.722, 268 122.763, 268 124.046 C 268 124.536, 268.617 124.700, 269.371 124.411 C 270.125 124.122, 271.373 124.473, 272.145 125.192 C 272.916 125.912, 274.212 126.646, 275.024 126.825 C 275.836 127.004, 276.651 127.569, 276.835 128.081 C 277.020 128.593, 277.546 128.781, 278.005 128.497 C 278.463 128.214, 279.534 128.677, 280.384 129.527 C 281.233 130.376, 282.170 131.055, 282.464 131.036 C 284.594 130.894, 285.029 131.144, 284.405 132.155 C 283.971 132.856, 284.129 133.038, 284.809 132.618 C 285.424 132.238, 286.843 132.843, 287.964 133.964 C 289.084 135.084, 290.014 135.662, 290.032 135.250 C 290.049 134.838, 290.744 135.400, 291.575 136.500 C 292.406 137.600, 293.404 138.516, 293.793 138.535 C 295.723 138.632, 298.973 141.235, 298.373 142.205 C 297.998 142.812, 298.132 143.037, 298.671 142.703 C 299.808 142.001, 313.321 155.263, 312.529 156.304 C 312.238 156.687, 312.291 156.784, 312.647 156.519 C 313.594 155.816, 318.933 163.299, 318.261 164.387 C 317.948 164.894, 318.211 164.988, 318.845 164.595 C 319.894 163.948, 320.464 165.194, 320.094 167.324 C 320.015 167.778, 320.379 167.884, 320.903 167.560 C 321.838 166.982, 323.611 170.704, 323.173 172.324 C 323.051 172.778, 323.355 172.899, 323.850 172.593 C 324.952 171.912, 331.276 185.744, 330.463 187.059 C 330.144 187.577, 330.322 188, 330.861 188 C 332.775 188, 338.849 212.345, 337.689 215.369 C 337.412 216.091, 337.587 217.316, 338.077 218.091 C 340.935 222.605, 337.254 200.611, 333.317 189.650 C 319.516 151.225, 287.004 123.786, 246.748 116.589 C 236.189 114.701, 226.091 114.095, 218.500 114.892 M 199 118.122 C 169.561 125.977, 145.241 144.199, 130.077 169.765 C 122.142 183.143, 116.271 200.922, 115.519 213.851 C 115.307 217.508, 115.338 219.150, 115.588 217.500 C 117.589 204.321, 118.305 201, 119.149 201 C 119.682 201, 119.834 200.541, 119.488 199.980 C 118.286 198.035, 125.739 177.720, 127.300 178.686 C 127.872 179.039, 128.001 178.810, 127.597 178.157 C 126.734 176.761, 134.360 163.693, 135.419 164.753 C 135.830 165.164, 136.058 165.050, 135.925 164.500 C 135.524 162.846, 137.142 159.970, 138.130 160.580 C 138.636 160.893, 138.967 160.778, 138.866 160.324 C 138.524 158.788, 140.204 156.008, 141.130 156.580 C 141.636 156.893, 141.926 156.722, 141.775 156.200 C 141.470 155.147, 153.826 142.500, 155.160 142.500 C 155.622 142.500, 156.068 142.050, 156.151 141.500 C 156.374 140.017, 159.338 138.091, 160.393 138.743 C 160.897 139.054, 161.017 138.837, 160.660 138.259 C 160.027 137.235, 162.683 135.500, 164.324 135.866 C 164.778 135.967, 164.884 135.621, 164.560 135.097 C 163.982 134.162, 167.704 132.389, 169.324 132.827 C 169.778 132.949, 169.864 132.588, 169.515 132.025 C 168.947 131.105, 170.239 130.564, 172.250 130.882 C 172.662 130.947, 173 130.523, 173 129.941 C 173 129.359, 173.520 129.203, 174.155 129.595 C 174.923 130.070, 175.035 129.866, 174.490 128.985 C 173.896 128.023, 174.128 127.835, 175.336 128.299 C 176.251 128.650, 177 128.475, 177 127.910 C 177 127.344, 177.520 127.203, 178.155 127.595 C 178.911 128.063, 179.036 127.867, 178.515 127.025 C 177.987 126.171, 178.184 125.895, 179.102 126.201 C 179.861 126.454, 181.107 126.036, 181.870 125.273 C 182.633 124.510, 183.898 124.131, 184.681 124.431 C 185.464 124.731, 185.852 124.569, 185.543 124.070 C 185.056 123.282, 189.609 121.620, 192.500 121.531 C 193.050 121.514, 193.768 121.135, 194.096 120.690 C 194.424 120.244, 196.291 119.794, 198.245 119.690 C 200.199 119.585, 201.552 119.097, 201.250 118.605 C 200.949 118.113, 201.895 117.938, 203.351 118.216 C 204.808 118.495, 206 118.284, 206 117.748 C 206 117.212, 207.350 116.971, 209 117.213 C 210.650 117.455, 212 117.282, 212 116.827 C 212 115.486, 207.022 115.982, 199 118.122 M 428.084 127.279 C 428.038 127.707, 429.275 130.632, 430.833 133.779 C 435.476 143.153, 438.236 150.809, 437.439 152.099 C 437.003 152.805, 437.110 153.050, 437.697 152.687 C 438.932 151.924, 441.368 159.595, 440.392 161.175 C 439.932 161.919, 440.142 162.030, 441.003 161.498 C 441.980 160.894, 442.171 161.237, 441.751 162.844 C 441.441 164.030, 441.550 165, 441.994 165 C 443.176 165, 445.306 174.696, 444.434 176.107 C 444.004 176.803, 444.112 177.049, 444.692 176.690 C 445.854 175.972, 448.513 189.362, 447.525 190.960 C 447.171 191.532, 447.408 192, 448.050 192 C 448.797 192, 449.071 193.264, 448.810 195.500 C 448.585 197.425, 448.738 199, 449.149 199 C 449.559 199, 450.085 201.137, 450.316 203.750 C 450.547 206.362, 450.573 205.190, 450.372 201.145 C 449.523 184.005, 441.148 153.159, 432.550 135.500 C 430.140 130.550, 428.130 126.850, 428.084 127.279 M 221.653 173.250 C 221.909 173.662, 224.416 174, 227.226 174 C 230.035 174, 232.066 173.732, 231.738 173.405 C 230.856 172.523, 221.109 172.373, 221.653 173.250 M 215 174.062 C 215 174.798, 208.469 176.485, 206.261 176.319 C 205.579 176.268, 205.316 176.701, 205.675 177.283 C 206.082 177.942, 205.701 178.099, 204.664 177.701 C 203.749 177.350, 203 177.525, 203 178.090 C 203 178.656, 202.550 178.840, 202 178.500 C 201.450 178.160, 201 178.385, 201 179 C 201 179.615, 200.597 179.869, 200.105 179.565 C 199.612 179.260, 198.941 179.712, 198.612 180.569 C 198.283 181.426, 197.561 181.847, 197.007 181.504 C 196.453 181.162, 196 181.359, 196 181.941 C 196 182.523, 195.662 182.888, 195.250 182.750 C 194.838 182.613, 194.327 182.950, 194.116 183.500 C 193.626 184.773, 189.815 187.483, 188.500 187.493 C 187.950 187.497, 187.500 187.961, 187.500 188.524 C 187.500 190.196, 183.327 194.994, 182.549 194.216 C 182.156 193.822, 181.924 193.950, 182.035 194.500 C 182.500 196.802, 181.933 198.080, 180.750 197.399 C 180.063 197.003, 179.795 197.009, 180.155 197.411 C 180.515 197.814, 179.513 201.002, 177.929 204.497 C 176.344 207.992, 174.754 212.685, 174.396 214.926 C 174.038 217.167, 173.464 219, 173.122 219 C 172.308 218.999, 172.651 234.995, 173.513 237.202 C 173.878 238.138, 173.886 239.376, 173.530 239.952 C 173.173 240.528, 173.359 241, 173.941 241 C 174.523 241, 175 241.685, 175 242.522 C 175 243.359, 176.307 246.927, 177.905 250.450 C 179.503 253.974, 180.515 257.186, 180.155 257.589 C 179.795 257.991, 180.063 257.997, 180.750 257.601 C 181.892 256.944, 182.475 258.127, 182.094 260.324 C 182.015 260.778, 182.362 260.894, 182.866 260.583 C 183.722 260.054, 187.417 264.598, 187.474 266.250 C 187.488 266.663, 187.797 266.887, 188.159 266.750 C 188.996 266.433, 193.500 272.106, 193.500 273.476 C 193.500 274.039, 193.997 274.500, 194.604 274.500 C 196.211 274.500, 201.074 280.579, 200.222 281.522 C 199.825 281.961, 199.991 282.041, 200.591 281.700 C 201.595 281.128, 206.454 286.528, 206.486 288.250 C 206.494 288.663, 206.950 289.082, 207.500 289.183 C 208.766 289.415, 212.500 294.113, 212.500 295.476 C 212.500 296.039, 212.997 296.500, 213.604 296.500 C 215.211 296.500, 220.074 302.579, 219.222 303.522 C 218.825 303.961, 218.991 304.041, 219.591 303.700 C 220.595 303.128, 225.454 308.528, 225.486 310.250 C 225.494 310.663, 225.855 310.986, 226.288 310.968 C 227.421 310.922, 232.552 317.239, 232.225 318.277 C 232.074 318.756, 232.340 318.908, 232.816 318.614 C 233.749 318.037, 238.625 324.008, 238.235 325.250 C 238.106 325.662, 238.361 325.887, 238.802 325.750 C 240.048 325.361, 246.046 332.611, 245.227 333.516 C 244.827 333.959, 244.991 334.041, 245.591 333.700 C 246.726 333.053, 251.667 338.878, 251.210 340.324 C 251.067 340.778, 251.340 340.908, 251.816 340.614 C 252.652 340.097, 257.458 345.723, 257.486 347.250 C 257.494 347.663, 257.797 347.887, 258.159 347.750 C 259.018 347.424, 263.576 353.227, 263.250 354.231 C 263.112 354.654, 263.337 354.888, 263.750 354.750 C 264.162 354.613, 264.598 354.855, 264.718 355.288 C 264.838 355.721, 266.302 357.225, 267.971 358.629 C 269.640 360.033, 270.710 361.661, 270.348 362.246 C 269.987 362.831, 270.139 363.032, 270.686 362.694 C 271.615 362.120, 276.456 367.592, 276.486 369.250 C 276.494 369.663, 276.762 369.887, 277.082 369.750 C 278.116 369.306, 289.868 383.405, 289.270 384.373 C 288.951 384.888, 289.161 385.018, 289.736 384.663 C 290.311 384.308, 291.498 385.111, 292.374 386.448 C 293.264 387.806, 294.837 388.813, 295.940 388.730 C 297.026 388.648, 297.724 388.390, 297.491 388.158 C 296.989 387.655, 302.105 383.500, 303.226 383.500 C 303.651 383.500, 304.082 383.050, 304.183 382.500 C 304.415 381.234, 309.113 377.500, 310.476 377.500 C 311.039 377.500, 311.500 376.938, 311.500 376.250 C 311.500 375.563, 311.797 375.113, 312.159 375.250 C 312.522 375.387, 313.796 374.258, 314.990 372.740 C 316.183 371.223, 317.585 370.244, 318.105 370.565 C 318.624 370.886, 318.926 370.778, 318.775 370.324 C 318.624 369.871, 318.772 369.500, 319.104 369.500 C 319.437 369.500, 320.940 368.036, 322.445 366.247 C 323.951 364.458, 325.661 363.290, 326.246 363.652 C 326.831 364.013, 327.032 363.861, 326.694 363.314 C 326.120 362.385, 331.592 357.544, 333.250 357.514 C 333.663 357.506, 333.993 357.155, 333.985 356.733 C 333.967 355.804, 341.025 349.500, 342.083 349.500 C 343.209 349.500, 344.500 347.986, 344.500 346.667 C 344.500 346.025, 345.025 345.500, 345.667 345.500 C 346.986 345.500, 348.500 344.209, 348.500 343.083 C 348.500 341.690, 354.806 335.139, 355.489 335.822 C 355.862 336.195, 356.020 336.050, 355.841 335.500 C 355.359 334.020, 358.544 329.890, 359.500 330.756 C 359.951 331.165, 360.016 330.968, 359.644 330.318 C 359.271 329.669, 359.814 328.544, 360.849 327.818 C 361.884 327.093, 362.773 326.151, 362.824 325.725 C 363.014 324.131, 366.392 319.124, 367.017 319.510 C 367.374 319.731, 367.667 319.351, 367.667 318.666 C 367.667 317.980, 369.558 314.181, 371.870 310.222 C 374.182 306.263, 377.327 300.088, 378.858 296.499 C 380.389 292.911, 382.019 290.318, 382.481 290.737 C 382.943 291.157, 383.031 290.993, 382.678 290.374 C 382.324 289.754, 383.175 285.929, 384.568 281.874 C 387.540 273.223, 391.013 259.358, 390.923 256.500 C 390.889 255.400, 389.806 259, 388.518 264.500 C 380.185 300.078, 362.701 329.122, 334.767 353.790 C 309.077 376.476, 296.602 387, 295.399 387 C 294.698 387, 269.234 358.219, 238.813 323.041 C 195.815 273.323, 182.699 257.529, 179.901 252.106 C 163.952 221.190, 181.868 182.435, 215.276 175.588 C 220.829 174.450, 221.150 174.260, 218.250 173.829 C 216.463 173.564, 215 173.668, 215 174.062 M 235.106 173.870 C 233.198 174.404, 234.012 174.808, 239.106 175.855 C 253.915 178.899, 268.007 189.834, 274.318 203.178 C 279.139 213.371, 280.361 219.515, 279.725 230.375 C 279.092 241.191, 276.701 248.567, 270.633 258.428 C 268.239 262.318, 265.767 267.030, 265.140 268.899 C 263.946 272.459, 263.530 284.803, 264.642 283.691 C 264.995 283.338, 265.245 280.327, 265.198 277 C 265.139 272.844, 265.456 271.164, 266.211 271.630 C 266.878 272.042, 267.024 271.848, 266.583 271.135 C 265.628 269.589, 267.886 262.812, 269.105 263.565 C 269.625 263.886, 269.985 263.778, 269.906 263.324 C 269.552 261.282, 270.088 259.936, 271.025 260.515 C 271.588 260.864, 271.985 260.778, 271.906 260.324 C 271.525 258.127, 272.108 256.944, 273.250 257.601 C 273.938 257.997, 274.205 257.991, 273.845 257.589 C 273.485 257.186, 274.487 253.998, 276.071 250.503 C 277.656 247.008, 279.246 242.315, 279.604 240.074 C 279.962 237.833, 280.675 236, 281.187 236 C 281.699 236, 281.897 235.642, 281.627 235.205 C 281.356 234.768, 281.010 229.625, 280.856 223.777 C 280.702 217.929, 280.222 213.363, 279.788 213.631 C 279.073 214.073, 278.594 211.577, 278.742 208.183 C 278.774 207.459, 278.571 207.096, 278.291 207.375 C 277.606 208.061, 271.461 195.767, 271.855 194.500 C 272.027 193.950, 271.844 193.822, 271.451 194.216 C 270.673 194.994, 266.500 190.196, 266.500 188.524 C 266.500 187.961, 266.050 187.497, 265.500 187.493 C 263.716 187.480, 259.991 184.345, 260.756 183.500 C 261.165 183.049, 260.934 183.005, 260.243 183.403 C 259.509 183.825, 258.737 183.478, 258.388 182.569 C 258.059 181.712, 257.384 181.262, 256.888 181.569 C 256.392 181.876, 255.727 181.452, 255.410 180.627 C 255.073 179.747, 254.180 179.377, 253.253 179.733 C 252.122 180.167, 251.905 179.963, 252.490 179.015 C 253.035 178.134, 252.923 177.930, 252.155 178.405 C 251.520 178.797, 251 178.656, 251 178.090 C 251 177.525, 250.251 177.350, 249.336 177.701 C 248.225 178.128, 247.910 177.955, 248.388 177.181 C 248.856 176.425, 248.566 176.229, 247.552 176.618 C 246.698 176.946, 246 176.758, 246 176.201 C 246 175.643, 245.030 175.441, 243.844 175.751 C 242.274 176.162, 241.900 175.971, 242.469 175.050 C 243.045 174.119, 242.691 173.963, 241.125 174.460 C 239.864 174.860, 239 174.701, 239 174.067 C 239 172.897, 238.644 172.879, 235.106 173.870 M 5.603 186.342 C 5.189 189.005, 5.109 191.442, 5.425 191.758 C 5.741 192.075, 6 191.171, 6 189.750 C 6 188.329, 6.367 187.017, 6.815 186.833 C 7.263 186.650, 7.343 185.375, 6.992 184 C 6.462 181.919, 6.229 182.311, 5.603 186.342 M 3.564 200.170 C 3.133 204.389, 3.019 208.439, 3.311 209.170 C 3.603 209.902, 3.878 208.227, 3.921 205.450 C 3.964 202.673, 4.371 199.972, 4.824 199.450 C 5.278 198.928, 5.356 197.150, 4.998 195.500 C 4.491 193.163, 4.174 194.195, 3.564 200.170 M 451 227.500 C 451 237.125, 450.625 245, 450.168 245 C 449.710 245, 449.531 247.250, 449.770 250 C 450.009 252.750, 449.799 255, 449.303 255 C 448.807 255, 448.624 256.688, 448.896 258.750 L 449.391 262.500 450.200 258 C 451.226 252.289, 452.494 210, 451.639 210 C 451.287 210, 451 217.875, 451 227.500 M 2.411 228 C 2.411 237.625, 2.561 241.563, 2.745 236.750 C 2.928 231.937, 2.928 224.062, 2.745 219.250 C 2.561 214.438, 2.411 218.375, 2.411 228 M 393.552 220.250 C 392.554 224.869, 392.520 233.670, 393.500 233.666 C 394.081 233.664, 394.500 230.382, 394.500 225.830 C 394.500 221.523, 394.396 217.999, 394.269 217.999 C 394.142 218, 393.819 219.012, 393.552 220.250 M 59.500 228.497 C 59.500 233.066, 59.831 236.286, 60.235 235.652 C 60.639 235.018, 60.969 231.800, 60.969 228.500 C 60.969 225.200, 60.639 221.980, 60.235 221.344 C 59.831 220.709, 59.500 223.927, 59.500 228.497 M 114.328 227.500 C 114.333 231.350, 114.513 232.802, 114.730 230.728 C 114.946 228.653, 114.943 225.503, 114.722 223.728 C 114.501 221.952, 114.324 223.650, 114.328 227.500 M 339.328 227.500 C 339.333 231.350, 339.513 232.802, 339.730 230.728 C 339.946 228.653, 339.943 225.503, 339.722 223.728 C 339.501 221.952, 339.324 223.650, 339.328 227.500 M 391.991 239.083 C 391.987 241.512, 391.777 245.975, 391.525 249 L 391.067 254.500 392.098 249.500 C 393.109 244.596, 393.315 235.982, 392.442 235.109 C 392.199 234.866, 391.996 236.654, 391.991 239.083 M 60.940 241.347 C 60.698 244.563, 60.881 247.428, 61.346 247.715 C 61.811 248.002, 62.014 249.758, 61.796 251.618 C 61.579 253.478, 61.812 255, 62.314 255 C 62.816 255, 63.032 256.326, 62.794 257.947 C 62.539 259.684, 62.758 260.650, 63.326 260.299 C 63.895 259.947, 64.082 260.789, 63.784 262.351 C 63.505 263.808, 63.717 265, 64.255 265 C 64.793 265, 65.021 266.111, 64.761 267.470 C 64.501 268.828, 64.619 269.735, 65.023 269.486 C 65.931 268.925, 67.201 274.867, 66.437 276.103 C 66.132 276.596, 66.407 277, 67.048 277 C 67.689 277, 67.966 277.646, 67.663 278.435 C 67.360 279.225, 67.524 280.012, 68.027 280.185 C 68.530 280.358, 69.067 281.625, 69.221 283 C 69.374 284.375, 69.759 285.725, 70.075 286 C 70.971 286.779, 80.180 307.346, 80.261 308.750 C 80.301 309.437, 80.559 309.774, 80.835 309.498 C 81.441 308.893, 86.247 316.995, 86.298 318.706 C 86.317 319.369, 86.708 319.680, 87.167 319.397 C 87.943 318.917, 88.423 320.431, 88.094 322.324 C 88.015 322.778, 88.364 322.893, 88.870 322.580 C 89.376 322.267, 90.006 322.571, 90.270 323.256 C 90.534 323.940, 93.708 328.161, 97.323 332.636 C 100.938 337.110, 103.581 341.120, 103.198 341.546 C 102.814 341.972, 102.991 342.041, 103.591 341.700 C 104.691 341.074, 109.673 346.856, 109.235 348.250 C 109.106 348.662, 109.361 348.887, 109.802 348.750 C 111.048 348.361, 117.046 355.611, 116.227 356.516 C 115.827 356.959, 115.991 357.041, 116.591 356.700 C 117.595 356.128, 122.454 361.528, 122.486 363.250 C 122.494 363.663, 122.772 363.887, 123.104 363.750 C 123.978 363.388, 129.552 370.242, 129.225 371.277 C 129.074 371.756, 129.340 371.908, 129.816 371.614 C 130.783 371.016, 135.618 377.031, 135.210 378.324 C 135.067 378.778, 135.340 378.908, 135.816 378.614 C 136.783 378.016, 141.618 384.031, 141.210 385.324 C 141.067 385.778, 141.362 385.895, 141.864 385.584 C 142.952 384.912, 148.639 392.058, 148.163 393.500 C 147.982 394.050, 148.146 394.187, 148.528 393.805 C 149.313 393.020, 154.636 398.971, 154.250 400.203 C 154.112 400.641, 154.361 400.888, 154.802 400.750 C 156.048 400.361, 162.046 407.611, 161.227 408.516 C 160.827 408.959, 160.991 409.041, 161.591 408.700 C 162.726 408.053, 167.667 413.878, 167.210 415.324 C 167.067 415.778, 167.340 415.908, 167.816 415.614 C 168.652 415.097, 173.458 420.723, 173.486 422.250 C 173.494 422.663, 173.950 423.099, 174.500 423.220 C 175.708 423.487, 180.500 429.054, 180.500 430.191 C 180.500 430.636, 180.797 430.887, 181.159 430.750 C 181.906 430.467, 186.500 436.037, 186.500 437.226 C 186.500 437.651, 186.797 437.887, 187.159 437.750 C 187.996 437.433, 192.500 443.106, 192.500 444.476 C 192.500 445.039, 192.997 445.500, 193.604 445.500 C 195.211 445.500, 200.074 451.579, 199.222 452.522 C 198.825 452.961, 198.991 453.041, 199.591 452.700 C 200.691 452.074, 205.673 457.856, 205.235 459.250 C 205.106 459.663, 205.361 459.888, 205.802 459.750 C 207.048 459.361, 213.046 466.611, 212.227 467.516 C 211.827 467.959, 211.991 468.041, 212.591 467.700 C 213.726 467.053, 218.667 472.878, 218.210 474.324 C 218.067 474.778, 218.340 474.908, 218.816 474.614 C 219.783 474.016, 224.618 480.031, 224.210 481.324 C 224.067 481.778, 224.347 481.904, 224.832 481.604 C 225.907 480.940, 232.632 489.098, 232.166 490.500 C 231.983 491.050, 232.156 491.178, 232.549 490.784 C 233.337 489.996, 237.651 494.995, 237.250 496.231 C 237.112 496.654, 237.361 496.888, 237.802 496.750 C 239.048 496.361, 245.046 503.611, 244.227 504.516 C 243.827 504.959, 243.976 505.050, 244.558 504.720 C 245.799 504.015, 254.657 514.785, 254.167 516.401 C 253.983 517.006, 254.156 517.178, 254.549 516.784 C 255.394 515.939, 258.070 519.170, 261.508 525.183 C 262.865 527.557, 263.981 528.971, 263.988 528.325 C 264.020 525.156, 250.587 508.640, 207.500 458.872 C 142.301 383.565, 103.242 338.322, 98.371 332.465 C 78.776 308.906, 64.942 275.111, 62.141 243.965 L 61.380 235.500 60.940 241.347 M 115.472 241.500 C 116.079 249.656, 118.155 258.367, 119.120 256.806 C 119.541 256.125, 119.451 255.043, 118.919 254.402 C 118.387 253.762, 117.294 249.246, 116.489 244.369 C 115.324 237.310, 115.116 236.724, 115.472 241.500 M 337.665 242.770 C 337.230 246.769, 336.518 249.820, 336.082 249.551 C 335.646 249.281, 335.501 250.172, 335.761 251.530 C 336.021 252.889, 335.843 254, 335.367 254 C 334.890 254, 334.463 255.012, 334.418 256.250 C 334.374 257.488, 334.029 259.850, 333.653 261.500 C 333.163 263.654, 333.397 263.399, 334.485 260.597 C 336.618 255.107, 339.215 241.707, 338.802 238.331 C 338.610 236.768, 338.101 238.758, 337.665 242.770 M 3.372 253.500 C 3.969 260.891, 8.426 284.759, 9.388 285.722 C 9.620 285.953, 9.739 284.313, 9.654 282.077 C 9.569 279.841, 9.110 278.009, 8.633 278.006 C 8.157 278.003, 7.979 276.889, 8.239 275.530 C 8.525 274.034, 8.316 273.304, 7.710 273.679 C 7.079 274.069, 6.955 273.316, 7.373 271.649 C 7.798 269.957, 7.631 269, 6.911 269 C 6.190 269, 6.024 268.042, 6.450 266.345 C 6.839 264.792, 6.664 263.410, 6.027 263.017 C 5.428 262.646, 4.746 258.836, 4.512 254.548 C 4.278 250.261, 3.780 246.471, 3.406 246.127 C 3.032 245.782, 3.016 249.100, 3.372 253.500 M 119.076 259.764 C 118.939 262.047, 125.603 277.472, 129.921 284.864 C 135.146 293.811, 136.459 295.423, 171.854 336.335 C 187.634 354.576, 219.158 391.100, 241.907 417.500 C 290.602 474.012, 287.518 470.615, 288.537 468.854 C 288.968 468.109, 288.973 467.813, 288.549 468.195 C 287.665 468.991, 282.358 463.044, 282.775 461.723 C 282.926 461.244, 282.660 461.092, 282.184 461.386 C 281.251 461.963, 276.375 455.992, 276.765 454.750 C 276.894 454.337, 276.639 454.112, 276.198 454.250 C 275.141 454.580, 268.906 447.476, 269.523 446.644 C 269.785 446.290, 269.725 446.200, 269.389 446.445 C 268.583 447.031, 263.420 440.848, 263.775 439.723 C 263.926 439.244, 263.660 439.092, 263.184 439.386 C 262.251 439.963, 257.375 433.992, 257.765 432.750 C 257.894 432.337, 257.639 432.112, 257.198 432.250 C 255.983 432.629, 249.938 425.395, 250.773 424.561 C 251.173 424.161, 251.027 423.983, 250.448 424.167 C 249.221 424.556, 242.816 417.598, 243.523 416.644 C 243.785 416.290, 243.725 416.200, 243.389 416.445 C 242.583 417.031, 237.420 410.848, 237.775 409.723 C 237.926 409.244, 237.660 409.092, 237.184 409.386 C 236.217 409.984, 231.382 403.969, 231.790 402.676 C 231.933 402.222, 231.660 402.092, 231.184 402.386 C 230.269 402.952, 225.537 397.205, 225.514 395.500 C 225.506 394.950, 224.978 394.500, 224.341 394.500 C 222.761 394.500, 218.888 389.445, 219.783 388.551 C 220.177 388.156, 220.027 387.983, 219.448 388.167 C 218.032 388.615, 211.852 381.502, 212.773 380.484 C 213.173 380.041, 213.009 379.959, 212.409 380.300 C 211.322 380.919, 206.540 375.403, 206.514 373.500 C 206.506 372.950, 206.003 372.500, 205.396 372.500 C 203.789 372.500, 198.926 366.421, 199.778 365.478 C 200.175 365.039, 200.009 364.959, 199.409 365.300 C 198.405 365.872, 193.546 360.472, 193.514 358.750 C 193.506 358.337, 193.050 357.901, 192.500 357.780 C 191.072 357.465, 186.447 351.764, 186.775 350.723 C 186.926 350.244, 186.660 350.092, 186.184 350.386 C 185.348 350.903, 180.542 345.277, 180.514 343.750 C 180.506 343.337, 180.050 342.918, 179.500 342.817 C 178.150 342.570, 174.431 337.751, 174.775 336.695 C 174.926 336.231, 174.638 336.105, 174.136 336.416 C 173.262 336.956, 167.510 330.308, 167.503 328.750 C 167.501 328.337, 167.050 327.918, 166.500 327.817 C 165.150 327.570, 161.431 322.751, 161.775 321.695 C 161.926 321.231, 161.660 321.092, 161.184 321.386 C 160.269 321.952, 155.537 316.205, 155.514 314.500 C 155.506 313.950, 155.003 313.500, 154.396 313.500 C 152.789 313.500, 147.926 307.421, 148.778 306.478 C 149.175 306.039, 149.009 305.959, 148.409 306.300 C 147.274 306.947, 142.333 301.122, 142.790 299.676 C 142.933 299.222, 142.611 299.122, 142.075 299.454 C 141.071 300.074, 138.389 296.146, 138.812 294.676 C 138.943 294.222, 138.683 294.078, 138.235 294.355 C 137.043 295.091, 127.789 280.151, 128.612 278.819 C 129.070 278.078, 128.855 277.972, 127.985 278.510 C 127.015 279.109, 126.836 278.868, 127.319 277.612 C 127.762 276.456, 127.599 276.130, 126.819 276.612 C 126.018 277.107, 125.883 276.746, 126.383 275.445 C 126.780 274.409, 126.766 273.901, 126.351 274.316 C 125.328 275.339, 121.800 266.155, 122.648 264.675 C 123.022 264.022, 122.927 263.859, 122.435 264.309 C 121.948 264.753, 121.010 263.628, 120.351 261.809 C 119.692 259.989, 119.118 259.069, 119.076 259.764 M 447.101 270.272 C 446.416 274.522, 445.479 278, 445.021 278 C 444.562 278, 444.423 278.900, 444.710 280 C 445.014 281.162, 444.741 282, 444.058 282 C 443.411 282, 443.132 282.404, 443.437 282.897 C 444.267 284.240, 442.891 290.051, 441.890 289.432 C 441.413 289.137, 441.258 289.508, 441.545 290.256 C 441.832 291.004, 440.506 296.090, 438.598 301.558 C 433.841 315.195, 432.506 318.160, 431.523 317.267 C 431.059 316.845, 430.994 317.047, 431.377 317.716 C 432.085 318.947, 428.529 326.987, 426.780 328.112 C 426.257 328.448, 425.980 328.913, 426.165 329.144 C 426.911 330.081, 422.647 337.900, 421.706 337.318 C 421.142 336.970, 420.995 337.184, 421.376 337.799 C 422.256 339.223, 416.654 348.296, 415.527 347.271 C 415.061 346.847, 414.964 347, 415.313 347.611 C 415.661 348.222, 413.808 351.822, 411.194 355.611 C 403.474 366.803, 401.729 368.951, 400.816 368.386 C 400.340 368.092, 400.071 368.222, 400.217 368.676 C 400.544 369.684, 397.878 373.586, 396.500 374.116 C 395.950 374.327, 395.596 374.788, 395.713 375.140 C 396.064 376.192, 375.874 395.945, 374.686 395.713 C 374.084 395.596, 373.570 396.063, 373.545 396.750 C 373.520 397.438, 373.203 397.887, 372.841 397.750 C 372.478 397.613, 371.204 398.742, 370.010 400.260 C 368.817 401.777, 367.356 402.720, 366.765 402.355 C 366.169 401.987, 365.978 402.155, 366.336 402.734 C 367.014 403.831, 360.097 409.689, 358.676 409.222 C 358.222 409.073, 358.092 409.340, 358.386 409.816 C 358.903 410.652, 353.277 415.458, 351.750 415.486 C 351.337 415.494, 351.113 415.797, 351.250 416.159 C 351.567 416.996, 345.894 421.500, 344.524 421.500 C 343.961 421.500, 343.500 421.997, 343.500 422.604 C 343.500 423.690, 337.606 429.154, 336.544 429.052 C 336.245 429.023, 336.014 429.242, 336.032 429.538 C 336.077 430.303, 329.781 435.500, 328.809 435.500 C 328.364 435.500, 327.918 435.950, 327.817 436.500 C 327.580 437.798, 322.770 441.575, 321.769 441.250 C 321.346 441.112, 321.112 441.337, 321.250 441.750 C 321.387 442.162, 321.203 442.500, 320.841 442.500 C 320.478 442.500, 319.204 443.742, 318.010 445.260 C 316.817 446.777, 315.415 447.756, 314.895 447.435 C 314.376 447.114, 314.074 447.447, 314.225 448.176 C 314.377 448.909, 313.830 449.351, 313 449.167 C 312.175 448.983, 311.822 449.156, 312.216 449.549 C 312.926 450.259, 308.264 454.500, 306.774 454.500 C 306.349 454.500, 306.113 454.797, 306.250 455.159 C 306.533 455.906, 300.963 460.500, 299.774 460.500 C 299.349 460.500, 298.901 460.950, 298.780 461.500 C 298.507 462.737, 292.830 467.573, 291.964 467.306 C 291.617 467.199, 291.333 467.735, 291.333 468.497 C 291.333 470.247, 289.821 471.470, 320.532 444.892 C 334.264 433.007, 352.925 416.862, 362 409.013 C 383.580 390.348, 386.484 387.544, 397.739 374.500 C 418.481 350.459, 434.346 320.992, 443.438 289.619 C 446.541 278.910, 449.316 265.447, 448.762 263.785 C 448.534 263.103, 447.787 266.022, 447.101 270.272 M 331.442 267.375 C 331.075 268.837, 330.325 269.701, 329.739 269.339 C 329.137 268.967, 328.987 269.170, 329.386 269.816 C 329.769 270.435, 329.355 272.346, 328.467 274.064 C 327.579 275.781, 327.045 277.378, 327.280 277.614 C 327.516 277.849, 328.940 275.298, 330.444 271.944 C 331.949 268.591, 332.937 265.604, 332.639 265.306 C 332.341 265.008, 331.802 265.939, 331.442 267.375 M 324.378 282.333 C 323.439 284.303, 322.225 285.639, 321.681 285.303 C 321.136 284.966, 320.960 285.126, 321.289 285.658 C 322.001 286.811, 318.647 292.240, 317.675 291.508 C 317.304 291.229, 317.235 291.310, 317.523 291.689 C 318.247 292.645, 309.866 301.035, 308.827 300.393 C 308.365 300.107, 307.710 300.593, 307.372 301.474 C 306.736 303.131, 302.368 305.739, 298.006 307.066 C 296.320 307.579, 296.085 307.856, 297.290 307.914 C 299.663 308.028, 306.539 304.465, 311.246 300.682 C 316.784 296.232, 327.955 280.622, 326.583 279.250 C 326.310 278.976, 325.317 280.364, 324.378 282.333 M 265.033 285.790 C 264.979 287.909, 268.787 294.688, 272.256 298.648 C 276.244 303.200, 283.680 308.040, 286.446 307.884 C 288.133 307.789, 288.187 307.686, 286.750 307.311 C 285.788 307.059, 285 306.450, 285 305.958 C 285 305.466, 284.251 305.350, 283.336 305.701 C 282.128 306.165, 281.896 305.977, 282.490 305.015 C 283.035 304.134, 282.923 303.930, 282.155 304.405 C 281.520 304.797, 281 304.615, 281 304 C 281 303.385, 280.658 303.094, 280.239 303.352 C 279.820 303.611, 278.609 303.188, 277.548 302.411 C 276.486 301.635, 275.984 301, 276.431 301 C 276.879 301, 276.689 300.330, 276.009 299.511 C 275.329 298.692, 274.397 298.255, 273.937 298.539 C 273.034 299.097, 270.422 295.032, 270.812 293.676 C 270.943 293.222, 270.643 293.103, 270.146 293.410 C 269.648 293.717, 268.302 291.838, 267.153 289.234 C 266.005 286.630, 265.051 285.080, 265.033 285.790 M 10.098 287.735 C 9.915 290.042, 17.179 310.457, 21.757 320.500 C 27.743 333.631, 30.881 339.266, 39.580 352.500 C 47.767 364.955, 48.710 366.104, 88.421 412 C 104.363 430.425, 128.887 458.775, 142.919 475 C 219.418 563.454, 217.988 561.920, 227.289 565.473 C 229.871 566.459, 233.435 566.974, 236.068 566.741 L 240.500 566.349 235.250 566.175 C 232.363 566.079, 230 565.564, 230 565.031 C 230 564.499, 229.325 564.322, 228.500 564.638 C 227.675 564.955, 227 564.716, 227 564.107 C 227 563.498, 226.662 563.089, 226.250 563.198 C 224.678 563.613, 220.998 561.812, 221.560 560.903 C 221.884 560.379, 221.778 560.071, 221.324 560.217 C 220.871 560.364, 219.387 559.700, 218.027 558.742 C 216.668 557.784, 215.935 557, 216.400 557 C 216.865 557, 216.689 556.330, 216.009 555.511 C 215.329 554.692, 214.425 554.237, 213.999 554.501 C 213.106 555.053, 205.374 545.933, 205.750 544.771 C 205.888 544.347, 205.639 544.112, 205.198 544.250 C 203.983 544.629, 197.938 537.395, 198.773 536.561 C 199.173 536.161, 199.003 535.983, 198.396 536.167 C 197.158 536.540, 186.500 524.421, 186.500 522.640 C 186.500 522.013, 186.003 521.500, 185.396 521.500 C 183.789 521.500, 178.926 515.421, 179.778 514.478 C 180.175 514.039, 180.009 513.959, 179.409 514.300 C 178.309 514.926, 173.327 509.144, 173.765 507.750 C 173.894 507.337, 173.639 507.112, 173.198 507.250 C 171.952 507.639, 165.954 500.389, 166.773 499.484 C 167.173 499.041, 167.009 498.959, 166.409 499.300 C 165.405 499.872, 160.546 494.472, 160.514 492.750 C 160.506 492.337, 160.050 491.918, 159.500 491.817 C 158.359 491.608, 154.500 486.945, 154.500 485.774 C 154.500 485.349, 154.228 485.113, 153.896 485.250 C 153.022 485.612, 147.448 478.758, 147.775 477.723 C 147.926 477.244, 147.660 477.092, 147.184 477.386 C 146.348 477.903, 141.542 472.277, 141.514 470.750 C 141.506 470.337, 141.050 469.918, 140.500 469.817 C 139.359 469.608, 135.500 464.945, 135.500 463.774 C 135.500 463.349, 135.050 462.901, 134.500 462.780 C 133.292 462.513, 128.500 456.946, 128.500 455.809 C 128.500 455.364, 128.203 455.113, 127.841 455.250 C 127.004 455.567, 122.500 449.894, 122.500 448.524 C 122.500 447.961, 122.003 447.500, 121.396 447.500 C 119.789 447.500, 114.926 441.421, 115.778 440.478 C 116.175 440.039, 116.009 439.959, 115.409 440.300 C 114.405 440.872, 109.546 435.472, 109.514 433.750 C 109.506 433.337, 109.203 433.113, 108.841 433.250 C 108.094 433.533, 103.500 427.963, 103.500 426.774 C 103.500 426.349, 103.228 426.113, 102.896 426.250 C 102.022 426.612, 96.448 419.758, 96.775 418.723 C 96.926 418.244, 96.660 418.092, 96.184 418.386 C 95.348 418.903, 90.542 413.277, 90.514 411.750 C 90.506 411.337, 90.050 410.918, 89.500 410.817 C 88.150 410.570, 84.431 405.751, 84.775 404.695 C 84.926 404.231, 84.638 404.105, 84.136 404.416 C 83.129 405.038, 77.344 397.995, 77.778 396.676 C 77.927 396.222, 77.660 396.092, 77.184 396.386 C 76.217 396.984, 71.382 390.969, 71.790 389.676 C 71.933 389.222, 71.638 389.105, 71.136 389.416 C 70.129 390.038, 64.344 382.995, 64.778 381.676 C 64.927 381.222, 64.660 381.092, 64.184 381.386 C 63.217 381.984, 58.382 375.969, 58.790 374.676 C 58.933 374.222, 58.638 374.106, 58.134 374.417 C 57.150 375.025, 53.392 370.044, 53.802 368.676 C 53.938 368.222, 53.611 368.122, 53.075 368.454 C 52.071 369.074, 49.389 365.146, 49.812 363.676 C 49.943 363.222, 49.685 363.077, 49.239 363.352 C 47.707 364.299, 32.676 341.332, 33.721 339.642 C 34.045 339.119, 33.879 338.957, 33.353 339.282 C 32.201 339.994, 20.704 317.287, 21.536 315.942 C 21.856 315.424, 21.615 315, 21 315 C 20.385 315, 20.160 314.550, 20.500 314 C 20.840 313.450, 20.593 313, 19.952 313 C 19.309 313, 19.053 312.304, 19.382 311.448 C 19.709 310.594, 19.603 310.128, 19.145 310.411 C 18.080 311.069, 15.883 304.027, 16.703 302.585 C 17.053 301.970, 16.927 301.862, 16.410 302.336 C 15.881 302.822, 14.390 299.682, 12.848 294.836 C 11.389 290.251, 10.152 287.056, 10.098 287.735 M 290.250 308.689 C 291.212 308.941, 292.788 308.941, 293.750 308.689 C 294.712 308.438, 293.925 308.232, 292 308.232 C 290.075 308.232, 289.288 308.438, 290.250 308.689 M 265.136 537.667 C 265.061 539.958, 264.564 541.983, 264.032 542.167 C 263.449 542.367, 263.417 543.069, 263.953 543.931 C 265.052 545.700, 266.411 539.518, 265.723 535.881 C 265.446 534.417, 265.220 535.105, 265.136 537.667 M 263 546.892 C 263 547.566, 262.480 547.797, 261.845 547.405 C 261.191 547, 260.960 547.127, 261.312 547.696 C 262.100 548.971, 257.562 555.229, 256.570 554.237 C 256.165 553.831, 255.983 554.175, 256.167 555 C 256.369 555.909, 255.909 556.369, 255 556.167 C 254.175 555.983, 253.831 556.165, 254.237 556.570 C 255.153 557.486, 249.830 561.595, 244.500 564.087 C 242.300 565.115, 241.080 565.966, 241.790 565.978 C 243.919 566.014, 250.237 562.402, 254.548 558.682 C 259.159 554.705, 264.618 547.285, 263.649 546.315 C 263.292 545.959, 263 546.218, 263 546.892" stroke="none" fill="#599ec2" fill-rule="evenodd"/><path d="M 197.250 4.769 C 194.912 4.960, 193 5.566, 193 6.117 C 193 6.667, 192.532 6.829, 191.960 6.475 C 190.735 5.718, 176.904 8.030, 177.433 8.904 C 177.632 9.232, 175.941 9.574, 173.676 9.664 C 171.411 9.754, 169.411 10.268, 169.231 10.807 C 169.051 11.347, 167.955 11.540, 166.796 11.236 C 165.232 10.827, 164.897 11.024, 165.498 11.997 C 166.007 12.820, 165.917 13.067, 165.257 12.659 C 164 11.882, 157.864 12.970, 158.420 13.872 C 158.634 14.217, 157.628 14.571, 156.185 14.658 C 154.742 14.745, 153.397 15.310, 153.195 15.914 C 152.994 16.518, 152.447 16.776, 151.981 16.488 C 150.986 15.873, 142.783 18.944, 141.888 20.267 C 141.552 20.764, 140.989 21.132, 140.638 21.085 C 138.112 20.747, 136.973 21.148, 137.595 22.155 C 138.020 22.841, 137.872 23.039, 137.229 22.642 C 135.961 21.858, 131 23.911, 131 25.220 C 131 25.714, 130.550 25.840, 130 25.500 C 129.450 25.160, 129 25.385, 129 26 C 129 26.615, 128.550 26.840, 128 26.500 C 127.450 26.160, 127 26.385, 127 27 C 127 27.615, 126.550 27.840, 126 27.500 C 125.450 27.160, 125 27.385, 125 28 C 125 28.615, 124.550 28.840, 124 28.500 C 123.450 28.160, 123 28.359, 123 28.941 C 123 29.523, 122.662 29.911, 122.250 29.802 C 120.558 29.355, 117.016 31.218, 117.640 32.227 C 118.026 32.850, 117.845 33.022, 117.215 32.633 C 115.819 31.770, 109.756 35.396, 110.754 36.497 C 111.164 36.950, 110.954 37.007, 110.286 36.624 C 109.619 36.241, 108.157 36.843, 107.036 37.964 C 105.916 39.084, 104.986 39.663, 104.968 39.250 C 104.951 38.837, 104.276 39.374, 103.468 40.441 C 102.661 41.509, 101.986 41.959, 101.968 41.441 C 101.951 40.924, 101.388 41.220, 100.718 42.099 C 100.048 42.979, 99.125 43.715, 98.668 43.736 C 97.126 43.804, 85.788 52.473, 83.281 55.500 C 81.915 57.150, 81.157 57.825, 81.597 57 C 82.037 56.175, 79.946 57.703, 76.949 60.396 C 73.952 63.089, 71.612 65.677, 71.750 66.146 C 71.887 66.616, 71.437 66.887, 70.750 66.750 C 70.062 66.612, 69.624 67.096, 69.775 67.824 C 69.926 68.553, 69.649 68.901, 69.158 68.598 C 67.978 67.868, 64.780 71.447, 65.748 72.414 C 66.162 72.828, 66 73.017, 65.389 72.833 C 63.831 72.366, 48.891 89.996, 49.678 91.373 C 50.031 91.993, 49.963 92.177, 49.526 91.782 C 48.063 90.461, 35.565 108.487, 36.686 110.301 C 37.029 110.855, 36.819 111.006, 36.219 110.635 C 34.992 109.877, 19.013 141.063, 18.741 144.750 C 18.649 145.988, 18.172 147, 17.680 147 C 17.188 147, 17.045 147.675, 17.362 148.500 C 17.678 149.325, 17.453 150, 16.862 150 C 16.270 150, 16.045 150.675, 16.362 151.500 C 16.678 152.325, 16.453 153, 15.862 153 C 15.270 153, 15.045 153.675, 15.362 154.500 C 15.678 155.325, 15.453 156, 14.862 156 C 14.270 156, 14.054 156.698, 14.382 157.552 C 14.768 158.558, 14.574 158.855, 13.831 158.396 C 13.052 157.914, 12.865 158.377, 13.249 159.844 C 13.559 161.030, 13.456 162, 13.021 162 C 11.912 162, 6.653 183.655, 7.332 185.424 C 7.638 186.220, 7.432 187.023, 6.876 187.208 C 6.320 187.393, 5.709 190.103, 5.518 193.230 C 5.327 196.356, 4.841 199.448, 4.438 200.100 C 3.458 201.686, 2.532 243.338, 3.425 245.666 C 3.811 246.672, 4.310 250.836, 4.532 254.919 C 4.755 259.003, 5.428 262.646, 6.027 263.017 C 6.664 263.410, 6.839 264.792, 6.450 266.345 C 6.024 268.042, 6.190 269, 6.911 269 C 7.631 269, 7.798 269.957, 7.373 271.649 C 6.955 273.316, 7.079 274.069, 7.710 273.679 C 8.316 273.304, 8.525 274.034, 8.239 275.530 C 7.972 276.929, 8.237 278, 8.852 278 C 9.449 278, 9.687 278.652, 9.382 279.448 C 8.575 281.549, 15.091 303.062, 16.305 302.311 C 16.857 301.970, 17.034 302.136, 16.697 302.680 C 15.869 304.020, 18.098 311.058, 19.145 310.411 C 19.603 310.128, 19.709 310.594, 19.382 311.448 C 19.053 312.304, 19.309 313, 19.952 313 C 20.593 313, 20.840 313.450, 20.500 314 C 20.160 314.550, 20.385 315, 21 315 C 21.615 315, 21.856 315.424, 21.536 315.942 C 20.704 317.287, 32.201 339.994, 33.353 339.282 C 33.879 338.957, 34.045 339.119, 33.721 339.642 C 32.676 341.332, 47.707 364.299, 49.239 363.352 C 49.685 363.077, 49.943 363.222, 49.812 363.676 C 49.389 365.146, 52.071 369.074, 53.075 368.454 C 53.611 368.122, 53.938 368.222, 53.802 368.676 C 53.392 370.044, 57.150 375.025, 58.134 374.417 C 58.638 374.106, 58.933 374.222, 58.790 374.676 C 58.382 375.969, 63.217 381.984, 64.184 381.386 C 64.660 381.092, 64.927 381.222, 64.778 381.676 C 64.344 382.995, 70.129 390.038, 71.136 389.416 C 71.638 389.105, 71.933 389.222, 71.790 389.676 C 71.382 390.969, 76.217 396.984, 77.184 396.386 C 77.660 396.092, 77.927 396.222, 77.778 396.676 C 77.344 397.995, 83.129 405.038, 84.136 404.416 C 84.638 404.105, 84.926 404.273, 84.775 404.789 C 84.416 406.012, 95.030 418.577, 96.146 418.250 C 96.616 418.113, 96.887 418.376, 96.750 418.835 C 96.393 420.027, 114.134 440.556, 115.234 440.225 C 115.737 440.074, 115.934 440.299, 115.673 440.725 C 115.411 441.151, 116.772 443.300, 118.698 445.500 C 120.624 447.700, 121.858 448.825, 121.440 448 C 120.991 447.116, 121.053 446.842, 121.590 447.333 C 122.090 447.792, 122.500 448.545, 122.500 449.008 C 122.500 450.337, 146.258 477.528, 147.176 477.250 C 147.629 477.113, 147.887 477.376, 147.750 477.835 C 147.357 479.149, 165.193 499.539, 166.410 499.167 C 167.010 498.983, 167.173 499.161, 166.773 499.561 C 165.938 500.395, 171.983 507.629, 173.198 507.250 C 173.639 507.113, 173.894 507.338, 173.765 507.750 C 173.343 509.094, 178.290 514.939, 179.314 514.306 C 179.861 513.968, 180.059 514.098, 179.753 514.595 C 179.447 515.093, 180.772 517.300, 182.698 519.500 C 184.624 521.700, 185.858 522.825, 185.440 522 C 184.991 521.116, 185.053 520.842, 185.590 521.333 C 186.090 521.792, 186.500 522.530, 186.500 522.974 C 186.500 524.520, 197.300 536.498, 198.396 536.167 C 199.003 535.983, 199.173 536.161, 198.773 536.561 C 197.906 537.427, 204.007 544.622, 205.272 544.225 C 205.754 544.074, 205.891 544.367, 205.577 544.875 C 205.263 545.384, 208.294 549.165, 212.314 553.277 C 219.401 560.527, 225.088 564.579, 226.373 563.293 C 226.718 562.949, 227 563.240, 227 563.940 C 227 564.662, 227.651 564.964, 228.500 564.638 C 229.325 564.322, 230 564.499, 230 565.031 C 230 566.528, 239.644 566.176, 243.569 564.536 C 251.583 561.187, 262.970 550.379, 261.311 547.695 C 260.970 547.143, 261.178 546.992, 261.773 547.360 C 263.014 548.127, 264.446 544.530, 263.506 543.009 C 263.163 542.454, 263.421 542, 264.080 542 C 265.949 542, 264.587 531.071, 262.114 526.224 C 259.185 520.483, 246.091 504.427, 244.668 504.833 C 244.026 505.017, 243.827 504.839, 244.227 504.439 C 245.062 503.605, 239.017 496.371, 237.802 496.750 C 237.361 496.887, 237.113 496.624, 237.250 496.165 C 237.636 494.875, 225.784 481.015, 224.810 481.617 C 224.337 481.910, 224.067 481.778, 224.210 481.324 C 224.618 480.031, 219.783 474.016, 218.816 474.614 C 218.340 474.908, 218.067 474.778, 218.210 474.324 C 218.667 472.878, 213.726 467.053, 212.591 467.700 C 211.991 468.041, 211.827 467.959, 212.227 467.516 C 213.046 466.611, 207.048 459.361, 205.802 459.750 C 205.361 459.887, 205.106 459.662, 205.235 459.250 C 205.657 457.906, 200.710 452.061, 199.686 452.694 C 199.139 453.032, 198.941 452.902, 199.247 452.405 C 199.553 451.907, 198.228 449.700, 196.302 447.500 C 194.376 445.300, 193.140 444.132, 193.555 444.905 C 194.058 445.842, 193.920 446.068, 193.138 445.585 C 192.494 445.187, 192.165 444.542, 192.407 444.151 C 192.977 443.228, 168.906 415.421, 167.823 415.750 C 167.370 415.887, 167.106 415.662, 167.235 415.250 C 167.673 413.856, 162.691 408.074, 161.591 408.700 C 160.991 409.041, 160.827 408.959, 161.227 408.516 C 162.046 407.611, 156.048 400.361, 154.802 400.750 C 154.361 400.887, 154.113 400.656, 154.250 400.235 C 154.651 399.008, 142.759 385.031, 141.811 385.617 C 141.338 385.909, 141.067 385.778, 141.210 385.324 C 141.618 384.031, 136.783 378.016, 135.816 378.614 C 135.340 378.908, 135.067 378.778, 135.210 378.324 C 135.667 376.878, 130.726 371.053, 129.591 371.700 C 128.991 372.041, 128.824 371.962, 129.220 371.523 C 130.145 370.500, 117.995 356.390, 116.571 356.833 C 115.982 357.017, 115.827 356.839, 116.227 356.439 C 117.062 355.605, 111.017 348.371, 109.802 348.750 C 109.361 348.887, 109.106 348.662, 109.235 348.250 C 109.673 346.856, 104.691 341.074, 103.591 341.700 C 102.991 342.041, 102.814 341.972, 103.198 341.546 C 103.581 341.120, 100.938 337.110, 97.323 332.636 C 93.708 328.161, 90.534 323.940, 90.270 323.256 C 90.006 322.571, 89.376 322.267, 88.870 322.580 C 88.364 322.893, 88.015 322.778, 88.094 322.324 C 88.423 320.431, 87.943 318.917, 87.167 319.397 C 86.708 319.680, 86.317 319.369, 86.298 318.706 C 86.247 316.995, 81.441 308.893, 80.835 309.498 C 80.559 309.774, 80.301 309.438, 80.261 308.750 C 80.180 307.346, 70.971 286.779, 70.075 286 C 69.759 285.725, 69.374 284.375, 69.221 283 C 69.067 281.625, 68.530 280.358, 68.027 280.185 C 67.524 280.012, 67.360 279.225, 67.663 278.435 C 67.966 277.646, 67.689 277, 67.048 277 C 66.407 277, 66.132 276.596, 66.437 276.103 C 67.201 274.867, 65.931 268.925, 65.023 269.486 C 64.619 269.735, 64.501 268.828, 64.761 267.470 C 65.021 266.111, 64.793 265, 64.255 265 C 63.717 265, 63.505 263.808, 63.784 262.351 C 64.082 260.789, 63.895 259.947, 63.326 260.299 C 62.758 260.650, 62.539 259.684, 62.794 257.947 C 63.032 256.326, 62.788 255, 62.252 255 C 61.716 255, 61.491 253.883, 61.752 252.517 C 62.013 251.151, 61.898 249.238, 61.496 248.267 C 61.094 247.295, 60.832 243.800, 60.914 240.500 C 60.996 237.200, 60.711 235.018, 60.282 235.652 C 59.852 236.286, 59.500 233.066, 59.500 228.497 C 59.500 223.927, 59.854 220.709, 60.286 221.344 C 60.718 221.980, 60.943 219.054, 60.786 214.842 C 60.629 210.630, 60.886 207.424, 61.358 207.718 C 61.830 208.011, 62.002 206.405, 61.742 204.149 C 61.442 201.558, 61.636 200.275, 62.268 200.666 C 62.887 201.048, 63.093 200.087, 62.808 198.142 C 62.554 196.414, 62.626 195, 62.967 195 C 63.834 195, 66.070 183.923, 65.417 182.865 C 65.123 182.389, 65.411 182, 66.058 182 C 66.741 182, 67.014 181.162, 66.710 179.999 C 66.422 178.898, 66.595 178.249, 67.093 178.558 C 67.900 179.056, 68.398 176.813, 68.270 173.261 C 68.246 172.579, 68.588 172.246, 69.032 172.519 C 69.741 172.958, 71.385 168.222, 71.469 165.500 C 71.486 164.950, 72.088 163.879, 72.808 163.121 C 73.527 162.363, 73.869 161.102, 73.569 160.319 C 73.223 159.417, 73.447 159.158, 74.181 159.612 C 74.946 160.084, 75.131 159.784, 74.726 158.729 C 74.389 157.849, 74.440 156.988, 74.840 156.815 C 75.955 156.333, 86.538 136.738, 86.225 135.734 C 86.074 135.248, 86.412 135.136, 86.975 135.485 C 87.953 136.089, 88.467 134.641, 88.035 132.500 C 87.924 131.950, 88.168 131.835, 88.578 132.245 C 89.264 132.930, 93.381 127.808, 94.001 125.500 C 94.148 124.950, 95.116 123.907, 96.151 123.182 C 97.186 122.456, 97.731 121.374, 97.362 120.777 C 96.993 120.180, 97.139 119.968, 97.686 120.306 C 98.615 120.880, 103.456 115.408, 103.486 113.750 C 103.494 113.338, 103.950 112.968, 104.500 112.929 C 106.236 112.805, 108.980 109.777, 108.322 108.712 C 107.975 108.150, 108.150 107.975, 108.712 108.322 C 109.273 108.669, 110.580 107.959, 111.616 106.744 C 113.477 104.562, 113.475 104.553, 111.500 106.017 C 109.651 107.388, 109.603 107.369, 110.863 105.761 C 111.613 104.805, 112.558 104.227, 112.964 104.478 C 113.370 104.729, 116.467 102.294, 119.848 99.067 C 123.228 95.840, 125.696 93.682, 125.333 94.271 C 124.969 94.860, 125.823 94.477, 127.232 93.421 C 128.641 92.364, 129.546 91.093, 129.242 90.595 C 128.939 90.098, 129.126 89.960, 129.658 90.289 C 130.727 90.949, 136.320 87.653, 135.508 86.841 C 135.229 86.562, 135.563 86.330, 136.250 86.326 C 138.145 86.315, 149 79.946, 149 78.846 C 149 78.316, 149.450 78.160, 150 78.500 C 150.550 78.840, 151 78.615, 151 78 C 151 77.385, 151.450 77.160, 152 77.500 C 152.550 77.840, 153 77.641, 153 77.059 C 153 76.477, 153.338 76.053, 153.750 76.118 C 155.999 76.474, 158.039 75.872, 157.507 75.011 C 157.169 74.464, 157.531 74.266, 158.319 74.569 C 159.102 74.869, 160.367 74.490, 161.130 73.727 C 161.893 72.964, 163.139 72.546, 163.898 72.799 C 164.727 73.076, 165.002 72.813, 164.587 72.141 C 164.147 71.429, 164.460 71.239, 165.448 71.618 C 166.302 71.946, 167 71.730, 167 71.138 C 167 70.546, 167.748 70.350, 168.664 70.701 C 169.872 71.165, 170.104 70.977, 169.510 70.015 C 168.977 69.154, 169.078 68.930, 169.800 69.376 C 171.093 70.175, 176.175 69.094, 175.591 68.143 C 175.374 67.789, 176.595 67.447, 178.304 67.383 C 180.013 67.319, 181.582 66.754, 181.791 66.127 C 182 65.500, 182.575 65.237, 183.068 65.542 C 184.430 66.384, 191.061 64.908, 190.439 63.902 C 190.141 63.418, 190.576 63.284, 191.408 63.603 C 192.239 63.922, 195.300 63.645, 198.210 62.988 C 204.725 61.517, 243.256 60.160, 244.135 61.371 C 244.484 61.852, 246.397 62.056, 248.385 61.824 C 250.373 61.592, 252 61.812, 252 62.314 C 252 62.816, 253.350 63.029, 255 62.787 C 256.650 62.545, 258 62.771, 258 63.290 C 258 63.809, 259.125 64.018, 260.500 63.755 C 261.875 63.492, 263 63.717, 263 64.255 C 263 64.793, 263.900 64.998, 265 64.710 C 266.100 64.423, 267 64.491, 267 64.863 C 267 65.501, 283.362 70.481, 285.500 70.494 C 286.050 70.497, 287.121 71.088, 287.879 71.808 C 288.637 72.527, 289.875 72.878, 290.629 72.589 C 291.383 72.300, 292 72.426, 292 72.871 C 292 74.112, 297.010 76.112, 298.229 75.358 C 298.910 74.937, 299.016 75.165, 298.515 75.975 C 297.987 76.829, 298.184 77.105, 299.102 76.799 C 299.861 76.546, 301.085 76.942, 301.822 77.679 C 302.558 78.416, 303.575 78.763, 304.081 78.450 C 304.586 78.138, 305 78.347, 305 78.915 C 305 80.213, 310.525 83.142, 311.373 82.293 C 311.718 81.949, 312 82.180, 312 82.808 C 312 84.085, 317.396 87.178, 318.373 86.460 C 318.718 86.207, 318.790 86.285, 318.532 86.634 C 317.829 87.589, 328.346 94.879, 329.500 94.236 C 330.050 93.930, 330.187 94.027, 329.805 94.451 C 329.423 94.875, 330.548 96.375, 332.305 97.784 C 334.062 99.192, 338.624 103.305, 342.442 106.922 C 346.260 110.540, 348.735 112.600, 347.942 111.500 C 346.606 109.647, 346.630 109.602, 348.274 110.893 C 349.250 111.658, 349.823 112.511, 349.547 112.786 C 348.866 113.468, 355.190 120.564, 356.198 120.250 C 356.639 120.112, 356.888 120.347, 356.750 120.772 C 356.336 122.050, 362.634 130.033, 363.429 129.237 C 363.835 128.832, 364.076 128.950, 363.965 129.500 C 363.514 131.733, 364.065 133.078, 365.155 132.405 C 365.790 132.012, 366.040 132.126, 365.711 132.658 C 364.924 133.932, 368.428 139.239, 369.409 138.258 C 369.826 137.841, 370.022 137.950, 369.846 138.500 C 369.386 139.932, 372.092 146.061, 372.949 145.531 C 373.344 145.287, 373.685 145.631, 373.708 146.294 C 373.787 148.639, 379.741 159.926, 380.525 159.218 C 380.963 158.823, 381.052 158.973, 380.725 159.551 C 380.397 160.128, 381.637 164.628, 383.481 169.551 C 385.324 174.473, 387.145 180.184, 387.526 182.241 C 387.938 184.462, 388.644 185.720, 389.264 185.337 C 389.849 184.975, 390.013 185.169, 389.637 185.779 C 388.875 187.011, 391.115 200, 392.089 200 C 392.438 200, 392.509 201.117, 392.248 202.483 C 391.987 203.849, 392.120 205.762, 392.544 206.733 C 392.968 207.705, 393.224 211.200, 393.111 214.500 C 392.999 217.800, 393.266 219.979, 393.704 219.342 C 394.142 218.706, 394.500 221.699, 394.500 225.994 C 394.500 230.289, 394.137 233.580, 393.694 233.308 C 393.251 233.036, 392.955 235.443, 393.036 238.657 C 393.242 246.877, 389.679 265.965, 385.574 278.625 C 383.661 284.522, 382.372 289.832, 382.709 290.424 C 383.045 291.016, 382.943 291.157, 382.481 290.737 C 382.019 290.318, 380.389 292.911, 378.858 296.499 C 377.327 300.088, 374.182 306.263, 371.870 310.222 C 369.558 314.181, 367.667 317.980, 367.667 318.666 C 367.667 319.351, 367.374 319.731, 367.017 319.510 C 366.263 319.045, 362.429 325.131, 362.771 326.250 C 362.897 326.663, 362.614 327, 362.143 327 C 361.206 327, 348.531 342.064, 348.512 343.200 C 348.505 343.585, 347.847 344.485, 347.048 345.200 C 345.795 346.322, 345.778 346.261, 346.921 344.750 C 349.093 341.879, 347.590 342.764, 344.437 346.212 C 342.822 347.978, 342.400 348.766, 343.500 347.962 C 345.356 346.605, 345.400 346.628, 344.107 348.274 C 343.342 349.250, 342.497 349.831, 342.232 349.565 C 341.528 348.862, 326.449 362.235, 326.775 363.273 C 326.926 363.755, 326.629 363.889, 326.116 363.572 C 325.602 363.254, 324.129 364.247, 322.841 365.777 C 321.554 367.307, 320.050 368.771, 319.500 369.030 C 318.950 369.288, 318.624 369.871, 318.775 370.324 C 318.926 370.778, 318.624 370.886, 318.105 370.565 C 317.585 370.244, 316.284 371.095, 315.213 372.457 C 314.142 373.818, 313.045 374.712, 312.775 374.442 C 312.506 374.172, 311.658 374.724, 310.893 375.668 C 309.686 377.155, 309.700 377.270, 311 376.532 C 311.894 376.024, 312.163 376.047, 311.667 376.590 C 311.208 377.090, 310.470 377.500, 310.026 377.500 C 308.914 377.500, 296.991 387.657, 297.502 388.169 C 297.729 388.395, 297.026 388.648, 295.940 388.730 C 294.837 388.813, 293.264 387.806, 292.374 386.448 C 291.498 385.111, 290.369 384.272, 289.866 384.583 C 289.362 384.894, 289.074 384.712, 289.225 384.177 C 289.588 382.895, 271.914 362.420, 270.751 362.775 C 270.256 362.926, 270.111 362.629, 270.428 362.116 C 270.746 361.602, 269.640 360.033, 267.971 358.629 C 266.302 357.225, 264.838 355.721, 264.718 355.288 C 264.598 354.855, 264.163 354.612, 263.750 354.750 C 263.338 354.887, 263.113 354.612, 263.250 354.137 C 263.590 352.963, 252.926 340.436, 251.854 340.750 C 251.384 340.887, 251.106 340.662, 251.235 340.250 C 251.673 338.856, 246.691 333.074, 245.591 333.700 C 244.991 334.041, 244.827 333.959, 245.227 333.516 C 246.046 332.611, 240.048 325.361, 238.802 325.750 C 238.361 325.888, 238.106 325.663, 238.235 325.250 C 238.673 323.856, 233.691 318.074, 232.591 318.700 C 231.991 319.041, 231.824 318.962, 232.220 318.523 C 233.072 317.581, 221.055 303.373, 219.747 303.775 C 219.254 303.926, 219.066 303.701, 219.327 303.275 C 219.589 302.849, 218.228 300.700, 216.302 298.500 C 214.376 296.300, 213.142 295.175, 213.560 296 C 214.009 296.884, 213.947 297.158, 213.410 296.667 C 212.910 296.208, 212.500 295.470, 212.500 295.026 C 212.500 293.634, 201.756 281.486, 200.780 281.775 C 200.269 281.926, 200.066 281.701, 200.327 281.275 C 200.589 280.849, 199.228 278.700, 197.302 276.500 C 195.376 274.300, 194.140 273.132, 194.555 273.905 C 195.070 274.865, 194.923 275.070, 194.088 274.554 C 193.416 274.139, 193.109 273.558, 193.405 273.262 C 194.131 272.536, 183.920 260.434, 182.848 260.750 C 182.381 260.888, 182.053 260.663, 182.118 260.250 C 182.460 258.087, 181.875 256.954, 180.750 257.601 C 180.063 257.997, 179.795 257.991, 180.155 257.589 C 180.515 257.186, 179.503 253.974, 177.905 250.450 C 176.307 246.927, 175 243.359, 175 242.522 C 175 241.685, 174.564 241, 174.031 241 C 173.499 241, 173.314 240.347, 173.620 239.548 C 173.926 238.749, 173.874 237.605, 173.503 237.005 C 172.643 235.613, 172.292 218.999, 173.122 219 C 173.464 219, 174.038 217.167, 174.396 214.926 C 174.754 212.685, 176.344 207.992, 177.929 204.497 C 179.513 201.002, 180.515 197.814, 180.155 197.411 C 179.795 197.009, 180.063 197.003, 180.750 197.399 C 181.933 198.080, 182.500 196.802, 182.035 194.500 C 181.924 193.950, 182.156 193.822, 182.549 194.216 C 183.313 194.980, 187.469 190.245, 187.545 188.524 C 187.570 187.961, 188.068 187.591, 188.652 187.702 C 189.236 187.813, 191.341 186.414, 193.330 184.592 C 195.319 182.770, 197.173 181.506, 197.450 181.783 C 197.726 182.060, 198.236 181.549, 198.581 180.649 C 198.927 179.748, 199.612 179.260, 200.105 179.565 C 200.597 179.869, 201 179.615, 201 179 C 201 178.385, 201.450 178.160, 202 178.500 C 202.550 178.840, 203 178.656, 203 178.090 C 203 177.525, 203.749 177.350, 204.664 177.701 C 205.701 178.099, 206.082 177.942, 205.675 177.283 C 205.316 176.701, 205.579 176.268, 206.261 176.319 C 208.426 176.482, 215 174.805, 215 174.090 C 215 173.711, 216.636 173.593, 218.636 173.826 C 220.637 174.060, 222.029 173.857, 221.730 173.375 C 221.432 172.894, 223.508 172.667, 226.344 172.870 C 229.180 173.074, 233.188 173.277, 235.250 173.321 C 237.313 173.366, 239 173.792, 239 174.269 C 239 174.745, 239.956 174.831, 241.125 174.460 C 242.691 173.963, 243.045 174.119, 242.469 175.050 C 241.900 175.971, 242.274 176.162, 243.844 175.751 C 245.030 175.441, 246 175.643, 246 176.201 C 246 176.758, 246.698 176.946, 247.552 176.618 C 248.566 176.229, 248.856 176.425, 248.388 177.181 C 247.917 177.943, 248.214 178.132, 249.253 177.733 C 250.190 177.374, 251.075 177.754, 251.426 178.667 C 251.751 179.514, 252.651 179.964, 253.426 179.667 C 254.201 179.370, 255.107 179.837, 255.441 180.706 C 255.774 181.575, 256.274 182.060, 256.550 181.783 C 256.827 181.506, 258.681 182.770, 260.670 184.592 C 262.659 186.414, 264.764 187.813, 265.348 187.702 C 265.932 187.591, 266.430 187.961, 266.455 188.524 C 266.531 190.245, 270.687 194.980, 271.451 194.216 C 271.844 193.822, 272.027 193.950, 271.855 194.500 C 271.461 195.767, 277.606 208.061, 278.291 207.375 C 278.571 207.096, 278.774 207.459, 278.742 208.183 C 278.594 211.577, 279.073 214.073, 279.788 213.631 C 280.222 213.363, 280.702 217.929, 280.856 223.777 C 281.010 229.625, 281.356 234.768, 281.627 235.205 C 281.897 235.642, 281.699 236, 281.187 236 C 280.675 236, 279.962 237.833, 279.604 240.074 C 279.246 242.315, 277.656 247.008, 276.071 250.503 C 274.487 253.998, 273.485 257.186, 273.845 257.589 C 274.205 257.991, 274.032 258.055, 273.460 257.731 C 272.007 256.908, 266.726 265.578, 266.602 268.991 C 266.546 270.538, 266.196 271.617, 265.825 271.389 C 265.453 271.161, 265.152 274.018, 265.156 277.737 C 265.160 282.669, 265.795 285.907, 267.501 289.696 C 269.920 295.071, 278.373 304.505, 279.915 303.552 C 280.397 303.255, 281.066 303.731, 281.404 304.609 C 281.741 305.488, 282.659 305.961, 283.444 305.660 C 284.229 305.359, 285.050 305.650, 285.270 306.306 C 285.527 307.073, 287.963 307.482, 292.085 307.449 C 298.942 307.396, 304.081 305.439, 307.337 301.642 C 308.347 300.464, 308.843 300.175, 308.440 301 C 307.299 303.332, 315.898 294.965, 319.103 290.625 C 320.676 288.494, 321.677 286.287, 321.327 285.721 C 320.977 285.154, 321.137 284.966, 321.681 285.303 C 322.953 286.089, 330.306 271.304, 329.385 269.813 C 328.994 269.181, 329.138 268.967, 329.713 269.323 C 330.915 270.066, 335.448 256.534, 334.507 255.012 C 334.163 254.455, 334.411 254, 335.058 254 C 335.768 254, 336.047 253.024, 335.761 251.530 C 335.501 250.172, 335.624 249.268, 336.033 249.520 C 337.256 250.276, 339.235 230.774, 338.634 223.887 C 338.328 220.374, 338.057 216.457, 338.033 215.181 C 337.900 208.197, 332.571 188, 330.861 188 C 330.322 188, 330.144 187.577, 330.463 187.059 C 331.342 185.638, 324.917 171.933, 323.720 172.673 C 323.154 173.023, 322.983 172.837, 323.340 172.260 C 324.983 169.600, 301.270 141.097, 298.723 142.671 C 298.156 143.022, 297.968 142.861, 298.306 142.314 C 298.645 141.766, 297.525 140.286, 295.818 139.024 C 294.111 137.762, 293.043 137.353, 293.444 138.115 C 293.845 138.877, 293.245 138.375, 292.109 137 C 290.974 135.625, 290.034 134.838, 290.022 135.250 C 290.010 135.662, 289.084 135.084, 287.964 133.964 C 286.843 132.843, 285.424 132.238, 284.809 132.618 C 284.129 133.038, 283.971 132.856, 284.405 132.155 C 285.029 131.144, 284.594 130.894, 282.464 131.036 C 282.170 131.055, 281.233 130.376, 280.384 129.527 C 279.534 128.677, 278.463 128.214, 278.005 128.497 C 277.546 128.781, 277.020 128.593, 276.835 128.081 C 276.651 127.569, 275.836 127.004, 275.024 126.825 C 274.212 126.646, 272.916 125.912, 272.145 125.192 C 271.373 124.473, 270.125 124.122, 269.371 124.411 C 268.617 124.700, 268 124.536, 268 124.046 C 268 122.763, 261.259 120.722, 259.865 121.583 C 259.080 122.068, 258.960 121.874, 259.502 120.997 C 260.106 120.020, 259.763 119.829, 258.156 120.249 C 256.970 120.559, 256 120.352, 256 119.790 C 256 119.227, 255.122 118.996, 254.048 119.277 C 252.974 119.558, 251.954 119.361, 251.780 118.839 C 251.606 118.317, 249.112 117.802, 246.239 117.695 C 243.366 117.588, 241.012 117.275, 241.008 117 C 241.003 116.725, 234.475 116.467, 226.500 116.428 C 218.525 116.388, 212 116.647, 212 117.004 C 212 117.362, 210.650 117.455, 209 117.213 C 207.350 116.971, 206 117.212, 206 117.748 C 206 118.284, 204.808 118.495, 203.351 118.216 C 201.895 117.938, 200.949 118.113, 201.250 118.605 C 201.552 119.097, 200.199 119.585, 198.245 119.690 C 196.291 119.794, 194.424 120.244, 194.096 120.690 C 193.768 121.135, 193.050 121.514, 192.500 121.531 C 189.609 121.620, 185.056 123.282, 185.543 124.070 C 185.852 124.569, 185.464 124.731, 184.681 124.431 C 183.898 124.131, 182.633 124.510, 181.870 125.273 C 181.107 126.036, 179.924 126.475, 179.242 126.247 C 178.559 126.020, 177.729 126.544, 177.396 127.411 C 177.063 128.279, 176.319 128.697, 175.744 128.341 C 175.168 127.986, 174.202 128.370, 173.598 129.196 C 172.495 130.706, 171.898 131, 169.941 131 C 169.359 131, 169.203 131.520, 169.595 132.155 C 170.004 132.815, 169.873 133.040, 169.289 132.679 C 166.755 131.113, 145.475 149.646, 137.344 160.500 C 132.002 167.632, 126.850 176.949, 127.589 178.144 C 128 178.809, 127.877 179.042, 127.300 178.686 C 125.739 177.720, 118.286 198.035, 119.488 199.980 C 119.834 200.541, 119.688 201, 119.162 201 C 117.903 201, 116.092 211.638, 115.378 223.227 C 114.785 232.833, 117.010 252.102, 118.986 254.483 C 119.534 255.144, 119.730 255.936, 119.422 256.245 C 118.463 257.204, 121.237 264.972, 122.303 264.313 C 122.856 263.971, 123.014 264.169, 122.653 264.752 C 121.797 266.138, 125.998 277.119, 127.119 276.426 C 127.591 276.135, 127.681 276.668, 127.319 277.612 C 126.836 278.868, 127.015 279.109, 127.985 278.510 C 128.855 277.972, 129.070 278.078, 128.612 278.819 C 127.789 280.151, 137.043 295.091, 138.235 294.355 C 138.683 294.078, 138.943 294.222, 138.812 294.676 C 138.389 296.146, 141.071 300.074, 142.075 299.454 C 142.611 299.122, 142.933 299.222, 142.790 299.676 C 142.349 301.071, 147.256 306.960, 148.314 306.306 C 148.861 305.968, 149.059 306.098, 148.753 306.595 C 148.447 307.093, 149.772 309.300, 151.698 311.500 C 153.624 313.700, 154.858 314.825, 154.440 314 C 153.991 313.116, 154.053 312.842, 154.590 313.333 C 155.090 313.792, 155.506 314.467, 155.514 314.833 C 155.544 316.302, 160.376 321.886, 161.184 321.386 C 161.660 321.092, 161.926 321.261, 161.775 321.761 C 161.371 323.099, 173.180 337.007, 174.190 336.383 C 174.663 336.090, 174.926 336.273, 174.775 336.789 C 174.366 338.184, 185.112 350.554, 186.396 350.167 C 187.003 349.983, 187.176 350.158, 186.780 350.554 C 185.910 351.423, 197.978 365.617, 199.253 365.225 C 199.746 365.074, 199.934 365.299, 199.673 365.725 C 199.411 366.151, 200.772 368.300, 202.698 370.500 C 204.624 372.700, 205.858 373.825, 205.440 373 C 204.991 372.116, 205.053 371.842, 205.590 372.333 C 206.090 372.792, 206.506 373.467, 206.514 373.833 C 206.548 375.496, 211.434 380.856, 212.409 380.300 C 213.009 379.959, 213.173 380.041, 212.773 380.484 C 211.923 381.423, 217.976 388.632, 219.272 388.225 C 219.754 388.074, 219.929 388.307, 219.660 388.742 C 219.391 389.177, 220.520 391.101, 222.169 393.017 C 223.819 394.932, 224.833 395.825, 224.424 395 C 223.986 394.117, 224.054 393.843, 224.590 394.333 C 225.090 394.792, 225.506 395.467, 225.514 395.833 C 225.544 397.302, 230.376 402.886, 231.184 402.386 C 231.660 402.092, 231.933 402.222, 231.790 402.676 C 231.333 404.122, 236.274 409.947, 237.409 409.300 C 238.009 408.959, 238.176 409.038, 237.780 409.477 C 236.855 410.500, 249.005 424.610, 250.429 424.167 C 251.018 423.983, 251.173 424.161, 250.773 424.561 C 249.938 425.395, 255.983 432.629, 257.198 432.250 C 257.639 432.113, 257.894 432.338, 257.765 432.750 C 257.327 434.144, 262.309 439.926, 263.409 439.300 C 264.009 438.959, 264.176 439.038, 263.780 439.477 C 262.960 440.384, 274.919 454.634, 276.179 454.250 C 276.631 454.113, 276.894 454.338, 276.765 454.750 C 276.375 455.992, 281.251 461.963, 282.184 461.386 C 282.660 461.092, 282.926 461.235, 282.775 461.704 C 282.624 462.173, 283.928 464.292, 285.674 466.414 C 287.861 469.072, 289.359 470.076, 290.488 469.643 C 291.389 469.297, 291.840 468.550, 291.489 467.982 C 291.138 467.415, 291.251 467.074, 291.739 467.225 C 293.142 467.659, 314.951 448.730, 314.287 447.655 C 313.959 447.125, 314.174 446.990, 314.765 447.355 C 315.356 447.720, 316.817 446.777, 318.010 445.260 C 319.204 443.742, 320.478 442.500, 320.841 442.500 C 321.203 442.500, 321.388 442.163, 321.250 441.750 C 321.113 441.338, 321.405 441.113, 321.900 441.250 C 322.395 441.388, 326.940 437.936, 331.999 433.580 C 344.943 422.436, 345.683 421.758, 344 422.584 C 343.118 423.017, 342.843 422.946, 343.333 422.410 C 343.792 421.910, 344.530 421.500, 344.974 421.500 C 346.300 421.500, 358.521 410.780, 358.250 409.854 C 358.113 409.384, 358.338 409.111, 358.750 409.247 C 360.119 409.697, 366.992 403.796, 366.336 402.734 C 365.978 402.155, 366.169 401.987, 366.765 402.355 C 367.356 402.720, 368.716 401.905, 369.787 400.543 C 370.858 399.182, 371.955 398.288, 372.225 398.558 C 372.494 398.828, 373.342 398.276, 374.107 397.332 C 375.300 395.863, 375.298 395.738, 374.095 396.463 C 373.114 397.054, 372.918 396.941, 373.446 396.088 C 373.861 395.416, 374.451 395.117, 374.757 395.424 C 376.167 396.833, 401.393 370.445, 400.310 368.693 C 399.970 368.142, 400.139 367.968, 400.686 368.306 C 401.727 368.949, 403.327 367.016, 411.194 355.611 C 413.808 351.822, 415.661 348.222, 415.313 347.611 C 414.964 347, 415.061 346.847, 415.527 347.271 C 416.654 348.296, 422.256 339.223, 421.376 337.799 C 420.995 337.184, 421.142 336.970, 421.706 337.318 C 422.671 337.915, 426.216 331.483, 425.954 329.612 C 425.885 329.123, 426.257 328.448, 426.780 328.112 C 428.529 326.987, 432.085 318.947, 431.377 317.716 C 430.994 317.047, 431.059 316.845, 431.523 317.267 C 432.506 318.160, 433.841 315.195, 438.598 301.558 C 440.506 296.090, 441.832 291.004, 441.545 290.256 C 441.258 289.508, 441.413 289.137, 441.890 289.432 C 442.891 290.051, 444.267 284.240, 443.437 282.897 C 443.132 282.404, 443.411 282, 444.058 282 C 444.741 282, 445.014 281.162, 444.710 280 C 444.423 278.900, 444.542 278, 444.976 278 C 446.045 278, 449.334 259.385, 448.696 256.945 C 448.416 255.875, 448.641 255, 449.196 255 C 449.798 255, 450.030 252.984, 449.770 250 C 449.521 247.138, 449.750 245, 450.305 245 C 451.590 245, 450.648 199.716, 449.354 199.285 C 448.832 199.111, 448.588 197.401, 448.812 195.484 C 449.072 193.261, 448.796 192, 448.050 192 C 447.408 192, 447.171 191.532, 447.525 190.960 C 448.513 189.362, 445.854 175.972, 444.692 176.690 C 444.112 177.049, 444.004 176.803, 444.434 176.107 C 445.306 174.696, 443.176 165, 441.994 165 C 441.550 165, 441.441 164.030, 441.751 162.844 C 442.171 161.237, 441.980 160.894, 441.003 161.498 C 440.142 162.030, 439.932 161.919, 440.392 161.175 C 441.368 159.595, 438.932 151.924, 437.697 152.687 C 437.110 153.050, 437.003 152.805, 437.439 152.099 C 438.390 150.560, 435.342 142.873, 427.374 126.719 C 420.294 112.365, 418.649 109.684, 417.577 110.756 C 417.168 111.165, 416.960 111.050, 417.115 110.500 C 417.639 108.639, 415.868 104.963, 414.773 105.640 C 414.171 106.012, 413.976 105.848, 414.334 105.269 C 415.166 103.922, 405.598 90.760, 404.506 91.750 C 404.051 92.163, 403.969 91.993, 404.322 91.373 C 405.027 90.139, 390.255 72.345, 388.861 72.750 C 388.388 72.888, 388.112 72.438, 388.250 71.750 C 388.387 71.063, 387.937 70.613, 387.250 70.750 C 386.562 70.888, 386.112 70.438, 386.250 69.750 C 386.387 69.063, 385.937 68.613, 385.250 68.750 C 384.562 68.888, 384.112 68.438, 384.250 67.750 C 384.387 67.063, 383.904 66.624, 383.176 66.775 C 382.447 66.926, 382.088 66.666, 382.378 66.197 C 382.984 65.216, 373.941 57.360, 372.684 57.775 C 372.226 57.926, 372.122 57.611, 372.454 57.075 C 373.074 56.071, 369.146 53.389, 367.676 53.812 C 367.222 53.943, 367.122 53.611, 367.454 53.075 C 368.074 52.071, 364.146 49.389, 362.676 49.812 C 362.222 49.943, 362.063 49.701, 362.323 49.275 C 362.582 48.849, 361.641 47.636, 360.232 46.579 C 358.613 45.365, 357.947 45.181, 358.422 46.079 C 358.835 46.861, 358.245 46.375, 357.109 45 C 355.974 43.625, 355.034 42.887, 355.022 43.361 C 355.010 43.834, 354.212 43.291, 353.250 42.153 C 352.288 41.016, 350.827 39.953, 350.004 39.792 C 349.181 39.632, 347.910 38.825, 347.179 38 C 345.999 36.667, 345.934 36.667, 346.589 38 C 346.995 38.825, 346.150 38.262, 344.711 36.750 C 342.334 34.251, 340.871 33.547, 338.750 33.882 C 338.337 33.947, 338 33.559, 338 33.020 C 338 31.766, 330.452 27.881, 329.624 28.710 C 329.281 29.053, 329 28.782, 329 28.108 C 329 27.434, 328.550 27.160, 328 27.500 C 327.450 27.840, 327 27.725, 327 27.244 C 327 25.928, 320.023 22.868, 318.777 23.638 C 318.167 24.015, 317.976 23.849, 318.340 23.259 C 319.074 22.071, 316.303 20.695, 314.910 21.556 C 314.409 21.865, 314 21.593, 314 20.952 C 314 20.309, 313.304 20.053, 312.448 20.382 C 311.558 20.723, 311.157 20.555, 311.507 19.989 C 312.064 19.087, 310.470 18.614, 307.261 18.730 C 306.579 18.754, 306.312 18.304, 306.667 17.730 C 307.074 17.071, 306.515 16.893, 305.155 17.249 C 303.968 17.560, 303.249 17.405, 303.558 16.907 C 304.069 16.079, 303.560 15.905, 299.750 15.600 C 299.063 15.545, 298.210 15.100, 297.856 14.612 C 297.501 14.123, 295.858 13.673, 294.204 13.612 C 292.550 13.550, 291.370 13.217, 291.582 12.872 C 292.135 11.970, 286 10.882, 284.743 11.659 C 284.164 12.016, 283.982 11.839, 284.337 11.264 C 285.039 10.128, 278.582 8.523, 277.068 9.458 C 276.575 9.763, 276.014 9.543, 275.823 8.969 C 275.632 8.395, 273.456 7.830, 270.988 7.713 C 268.519 7.596, 266.205 7.093, 265.845 6.595 C 265.485 6.098, 262.267 5.648, 258.694 5.595 C 255.121 5.543, 252.411 5.152, 252.672 4.727 C 253.121 3.995, 206.328 4.031, 197.250 4.769 M 343 106.500 C 344.292 107.875, 345.574 109, 345.849 109 C 346.124 109, 345.292 107.875, 344 106.500 C 342.708 105.125, 341.426 104, 341.151 104 C 340.876 104, 341.708 105.125, 343 106.500" stroke="none" fill="#046ba4" fill-rule="evenodd"/></svg>