<?xml version="1.0" encoding="UTF-8"?>
<svg version="1.1" xmlns="http://www.w3.org/2000/svg" width="250" height="293">
    <path
        d="M0 0 C0.65983887 0.20898926 1.31967773 0.41797852 1.99951172 0.63330078 C34.57988342 11.10640365 60.49889968 33.52445504 76.15844727 63.8527832 C90.68643706 93.19362533 93.19788639 126.95163838 83.18432617 158.14428711 C80.5403537 165.79213344 76.85063451 172.90245613 73 180 C72.42121094 181.09570312 71.84242188 182.19140625 71.24609375 183.3203125 C67.91121482 189.37106731 64.16605742 194.44467092 59.40625 199.453125 C57.43384384 201.54080165 55.56284489 203.66417289 53.6953125 205.84375 C50.15021951 209.91347873 46.34383162 213.59804897 42.375 217.25 C41.67987305 217.89549805 40.98474609 218.54099609 40.26855469 219.20605469 C38.18262263 221.14128841 36.09173083 223.07103797 34 225 C32.83047411 226.08305798 31.66118661 227.16637346 30.4921875 228.25 C24.85258538 233.47204014 19.18726518 238.66604395 13.51855469 243.85644531 C9.28526617 247.73394858 5.0670173 251.6275804 0.85107422 255.52392578 C-2.71483801 258.81806858 -6.29203075 262.09941685 -9.875 265.375 C-14.64818919 269.74616924 -19.39276745 274.14703176 -24.125 278.5625 C-25.10315674 279.47491455 -25.10315674 279.47491455 -26.10107422 280.40576172 C-28.42801234 282.57991174 -30.74798184 284.74798184 -33 287 C-37.1757729 286.74029563 -39.03793701 285.40073395 -41.8125 282.375 C-46.35828258 277.59041458 -51.23732731 273.32745713 -56.28125 269.078125 C-57.0134375 268.45421875 -57.745625 267.8303125 -58.5 267.1875 C-59.1703125 266.62417969 -59.840625 266.06085938 -60.53125 265.48046875 C-62 264 -62 264 -62 262 C-62.57234375 261.75636719 -63.1446875 261.51273437 -63.734375 261.26171875 C-66.40433538 259.77482702 -68.13829007 258.01916092 -70.25 255.8125 C-75.02320842 250.92992183 -80.05798884 246.47774868 -85.27734375 242.08203125 C-86.01082031 241.45683594 -86.74429688 240.83164063 -87.5 240.1875 C-88.1703125 239.62417969 -88.840625 239.06085938 -89.53125 238.48046875 C-91 237 -91 237 -91 235 C-91.58265625 234.74605469 -92.1653125 234.49210938 -92.765625 234.23046875 C-95.24188033 232.86679667 -96.80520626 231.35774797 -98.75 229.3125 C-101.28317279 226.656926 -103.90307208 224.1920948 -106.6796875 221.796875 C-119.26279475 210.86844051 -131.10587675 199.15053268 -140 185 C-140.62777344 184.04480469 -141.25554687 183.08960938 -141.90234375 182.10546875 C-158.74172423 155.16982951 -162.93343566 121.68181763 -156 91 C-151.23752625 70.39953215 -140.75416445 49.35565317 -126 34 C-125.34 34 -124.68 34 -124 34 C-123.67 33.01 -123.34 32.02 -123 31 C-122.34 31 -121.68 31 -121 31 C-121 30.34 -121 29.68 -121 29 C-90.45938865 -0.46121344 -40.70742023 -13.63881474 0 0 Z "
        fill="#06B5FF" transform="translate(160,5)" />
    <path
        d="M0 0 C0.66 0 1.32 0 2 0 C2.17539307 0.53778076 2.35078613 1.07556152 2.53149414 1.62963867 C7.61212506 17.05586271 13.03230075 30.69477645 24 43 C25.01513672 44.15628906 25.01513672 44.15628906 26.05078125 45.3359375 C31.96421883 51.67099128 38.55505417 55.70007976 46 60 C46.99 60.66 47.98 61.32 49 62 C50.37898508 79.92680602 41.03126592 97.77081319 30.21484375 111.453125 C27.08008578 115.05782023 23.80048971 118.11391383 20 121 C18.87851562 121.87398437 18.87851562 121.87398437 17.734375 122.765625 C-0.32099817 136.16154703 -21.24419591 141.34453617 -43.3359375 138.48828125 C-63.99706619 135.33094408 -82.60432022 124.47277638 -95.14160156 107.74194336 C-106.53324301 91.87991963 -111.17751506 76.48320817 -111.1875 57.0625 C-111.19974609 55.81275391 -111.21199219 54.56300781 -111.22460938 53.27539062 C-111.23437273 47.14726026 -111.17343903 41.76433828 -109 36 C-108.38406982 35.94054199 -107.76813965 35.88108398 -107.13354492 35.81982422 C-73.33667876 32.44231463 -25.4772866 25.4772866 0 0 Z "
        fill="#FCFEFF" transform="translate(156,63)" />
    <path
        d="M0 0 C0.65983887 0.20898926 1.31967773 0.41797852 1.99951172 0.63330078 C34.57988342 11.10640365 60.49889968 33.52445504 76.15844727 63.8527832 C90.68643706 93.19362533 93.19788639 126.95163838 83.18432617 158.14428711 C80.5403537 165.79213344 76.85063451 172.90245613 73 180 C72.42121094 181.09570312 71.84242188 182.19140625 71.24609375 183.3203125 C67.91121482 189.37106731 64.16605742 194.44467092 59.40625 199.453125 C57.43384384 201.54080165 55.56284489 203.66417289 53.6953125 205.84375 C50.15021951 209.91347873 46.34383162 213.59804897 42.375 217.25 C41.67987305 217.89549805 40.98474609 218.54099609 40.26855469 219.20605469 C38.18262263 221.14128841 36.09173083 223.07103797 34 225 C32.83047411 226.08305798 31.66118661 227.16637346 30.4921875 228.25 C24.85258538 233.47204014 19.18726518 238.66604395 13.51855469 243.85644531 C9.28526617 247.73394858 5.0670173 251.6275804 0.85107422 255.52392578 C-2.71483801 258.81806858 -6.29203075 262.09941685 -9.875 265.375 C-14.64818919 269.74616924 -19.39276745 274.14703176 -24.125 278.5625 C-25.10315674 279.47491455 -25.10315674 279.47491455 -26.10107422 280.40576172 C-28.42801234 282.57991174 -30.74798184 284.74798184 -33 287 C-37.1757729 286.74029563 -39.03793701 285.40073395 -41.8125 282.375 C-46.35828258 277.59041458 -51.23732731 273.32745713 -56.28125 269.078125 C-57.0134375 268.45421875 -57.745625 267.8303125 -58.5 267.1875 C-59.1703125 266.62417969 -59.840625 266.06085938 -60.53125 265.48046875 C-62 264 -62 264 -62 262 C-62.57234375 261.75636719 -63.1446875 261.51273437 -63.734375 261.26171875 C-66.40433538 259.77482702 -68.13829007 258.01916092 -70.25 255.8125 C-75.02320842 250.92992183 -80.05798884 246.47774868 -85.27734375 242.08203125 C-86.01082031 241.45683594 -86.74429688 240.83164063 -87.5 240.1875 C-88.1703125 239.62417969 -88.840625 239.06085938 -89.53125 238.48046875 C-91 237 -91 237 -91 235 C-91.58265625 234.74605469 -92.1653125 234.49210938 -92.765625 234.23046875 C-95.24188033 232.86679667 -96.80520626 231.35774797 -98.75 229.3125 C-101.28317279 226.656926 -103.90307208 224.1920948 -106.6796875 221.796875 C-119.26279475 210.86844051 -131.10587675 199.15053268 -140 185 C-140.62777344 184.04480469 -141.25554687 183.08960938 -141.90234375 182.10546875 C-158.74172423 155.16982951 -162.93343566 121.68181763 -156 91 C-151.23752625 70.39953215 -140.75416445 49.35565317 -126 34 C-125.34 34 -124.68 34 -124 34 C-123.67 33.01 -123.34 32.02 -123 31 C-122.34 31 -121.68 31 -121 31 C-121 30.34 -121 29.68 -121 29 C-90.45938865 -0.46121344 -40.70742023 -13.63881474 0 0 Z M-116.65917969 45.47265625 C-134.03800112 65.26907046 -142.22636413 89.01567212 -142.375 115.125 C-142.37956207 115.88955505 -142.38412415 116.65411011 -142.38882446 117.4418335 C-142.41492343 129.63149013 -141.26556878 140.48897215 -137 152 C-136.77151367 152.64960693 -136.54302734 153.29921387 -136.30761719 153.96850586 C-131.76170631 166.66149305 -125.01875775 177.9953207 -116 188 C-115.34257813 188.78761719 -114.68515625 189.57523438 -114.0078125 190.38671875 C-98.48424272 208.74692477 -74.16230547 221.14481109 -50.32617188 223.81689453 C-34.14354217 225.09071614 -18.60215961 224.48874966 -3 220 C-1.67162109 219.71189453 -1.67162109 219.71189453 -0.31640625 219.41796875 C14.35168187 215.97974911 27.79517783 205.65361695 39 196 C39.6703125 195.43152344 40.340625 194.86304688 41.03125 194.27734375 C51.83046339 184.31863518 58.88676883 171.13479622 65 158 C65.52335938 157.00355469 66.04671875 156.00710937 66.5859375 154.98046875 C70.99264078 145.69230686 72.70658823 135.19899301 73 125 C73.04664795 123.93918213 73.04664795 123.93918213 73.09423828 122.85693359 C74.35031169 92.54074972 64.8609348 65.52726108 44.3203125 43.0703125 C37.27972293 35.6290003 29.63852585 29.49104663 21 24 C20.14462646 23.45085938 20.14462646 23.45085938 19.27197266 22.890625 C-25.02550825 -4.85656304 -82.66088985 8.5084017 -116.65917969 45.47265625 Z "
        fill="#FF7E4B" transform="translate(160,5)" />
    <path
        d="M0 0 C1.79183716 0.00628418 1.79183716 0.00628418 3.61987305 0.01269531 C12.40978863 0.12504178 20.31449188 0.97350498 28.8125 3.3125 C29.92625 3.55613281 31.04 3.79976562 32.1875 4.05078125 C57.44061207 10.1057888 81.07250015 29.658524 94.59375 51.48828125 C100.7292667 61.84725492 105.05171754 72.56183296 107.8125 84.3125 C108.03808594 85.24964844 108.26367188 86.18679687 108.49609375 87.15234375 C110.44986945 96.75953046 110.07866648 106.56074717 109.8125 116.3125 C109.78285156 117.44300781 109.75320312 118.57351562 109.72265625 119.73828125 C108.33069164 144.82759452 94.04543702 170.4589451 75.921875 187.546875 C54.39977509 205.56166974 31.08046426 215.76683312 2.6875 215.625 C1.50115967 215.61936035 0.31481934 215.6137207 -0.9074707 215.60791016 C-25.77493027 215.2661708 -48.09699822 207.46885851 -67.1875 191.3125 C-67.85007813 190.78269531 -68.51265625 190.25289062 -69.1953125 189.70703125 C-78.03998865 182.4058378 -85.01005173 172.91549383 -91.1875 163.3125 C-91.77402344 162.40757812 -92.36054687 161.50265625 -92.96484375 160.5703125 C-98.92870554 150.52179264 -101.43904663 139.57679235 -104.1875 128.3125 C-104.46364136 127.400448 -104.46364136 127.400448 -104.74536133 126.4699707 C-105.81907747 121.23063909 -105.45482131 115.70037288 -105.48266602 110.36328125 C-105.49406087 108.85081534 -105.51430838 107.33838551 -105.54418945 105.82617188 C-105.82236579 91.71532744 -103.60324666 78.82663917 -98.0625 65.75 C-97.76956055 65.05366455 -97.47662109 64.3573291 -97.17480469 63.63989258 C-86.35271449 39.03942029 -64.11184023 17.27128863 -39.02783203 7.46850586 C-36.79978514 6.67235241 -34.56168251 5.92168911 -32.3125 5.1875 C-31.20455078 4.81044922 -31.20455078 4.81044922 -30.07421875 4.42578125 C-20.00630111 1.09307368 -10.60402099 -0.05074051 0 0 Z M-32.1875 20.3125 C-32.90276855 20.63959961 -33.61803711 20.96669922 -34.35498047 21.30371094 C-43.45506729 25.57433992 -51.77267263 30.46441103 -59.1875 37.3125 C-59.68701172 37.76044922 -60.18652344 38.20839844 -60.70117188 38.66992188 C-79.69085141 55.83586268 -90.18613686 77.9483711 -91.50390625 103.49609375 C-92.35877025 130.22338013 -82.39399232 153.36946381 -64.65625 173.1328125 C-52.80350828 185.64791331 -37.92228559 194.09221151 -21.1875 198.3125 C-20.58405762 198.48168945 -19.98061523 198.65087891 -19.35888672 198.82519531 C-12.45446609 200.59930293 -5.66310952 200.69655447 1.4375 200.6875 C2.67918945 200.68661377 3.92087891 200.68572754 5.20019531 200.68481445 C14.36913511 200.56657138 22.17872987 199.54420125 30.8125 196.3125 C31.51890625 196.09722656 32.2253125 195.88195312 32.953125 195.66015625 C44.2358368 192.03357031 55.08939695 185.20698359 63.8125 177.3125 C64.94751953 176.29929688 64.94751953 176.29929688 66.10546875 175.265625 C79.86126638 162.29113774 88.73923093 145.61325393 92.8125 127.3125 C92.98982666 126.61326416 93.16715332 125.91402832 93.34985352 125.19360352 C94.7074381 119.65874265 95.1643228 114.44169375 95.125 108.75 C95.11654053 107.44627441 95.11654053 107.44627441 95.10791016 106.11621094 C94.61957529 79.70744795 83.47482078 56.15696312 64.6015625 37.796875 C40.47679764 16.30758865 -1.75636931 6.17341535 -32.1875 20.3125 Z "
        fill="#FBFCFC" transform="translate(123.1875,13.6875)" />
    <path
        d="M0 0 C0.84691406 0.26039062 1.69382812 0.52078125 2.56640625 0.7890625 C3.49259766 1.07910156 3.49259766 1.07910156 4.4375 1.375 C-0.03865566 12.41618395 -16.04148716 19.61442601 -26.47265625 24.1015625 C-33.06100124 26.82740606 -39.75769556 29.24849861 -46.5625 31.375 C-47.861875 31.81585938 -47.861875 31.81585938 -49.1875 32.265625 C-64.80246955 37.38928689 -81.09357738 41.08881019 -97.5625 41.375 C-92.92764857 25.52380813 -78.16806594 13.52466477 -64.3828125 5.53125 C-44.1898289 -5.27497252 -21.81300214 -6.75895841 0 0 Z "
        fill="#FAFDFF" transform="translate(150.5625,44.625)" />
    <path
        d="M0 0 C2.02852991 1.84491298 3.82650004 3.8390373 5.6796875 5.859375 C13.95186377 13.49094503 23.97336921 15.47330085 34.78125 15.27734375 C44.22235531 14.84994236 52.78596854 11.03749414 60 5 C61.051875 3.6078125 61.051875 3.6078125 62.125 2.1875 C64 0 64 0 67.5 -1 C71 -1 71 -1 73.4375 0.4375 C73.953125 0.953125 74.46875 1.46875 75 2 C74.65493516 7.75108067 73.23807678 11.17894222 69 15 C63.10567861 19.7113424 57.03302298 23.29675338 50 26 C49.42451416 26.25152832 48.84902832 26.50305664 48.25610352 26.76220703 C43.13137756 28.89555995 38.71376773 29.47793328 33.1875 29.375 C32.00510742 29.3608606 32.00510742 29.3608606 30.79882812 29.34643555 C24.51480938 29.18469552 18.87715084 28.32265001 13 26 C12.16339844 25.67128906 11.32679687 25.34257812 10.46484375 25.00390625 C3.54145421 21.91138759 -1.62189337 17.26955769 -7 12 C-7.58136719 11.48695313 -8.16273437 10.97390625 -8.76171875 10.4453125 C-10 9 -10 9 -10.375 5.5 C-10 2 -10 2 -8.9375 0 C-5.53491769 -1.75617152 -3.6176896 -1.12682135 0 0 Z "
        fill="#08B6FF" transform="translate(93,150)" />
    <path
        d="M0 0 C17.01022704 9.49841145 28.01173334 26.95203355 33.68359375 45.19921875 C34.257381 48.46484743 34.05513271 51.69203741 34 55 C22.07735953 50.97584128 12.36086509 37.78000454 6.90380859 26.79296875 C2.84475642 17.91485557 -0.19382084 9.88486265 0 0 Z "
        fill="#F5FCFF" transform="translate(170,55)" />
    <path
        d="M0 0 C3.82838766 0.91791751 5.43621117 2.46342703 8.00390625 5.48046875 C8.77543611 9.80103596 8.53138491 11.67166814 6.12890625 15.35546875 C3.21679967 18.26757533 2.40362855 18.4411518 -1.80859375 18.85546875 C-5.19739645 18.79374192 -6.01309189 18.46913666 -8.99609375 16.48046875 C-11.21534461 13.15159246 -11.75500308 11.34110367 -11.47265625 7.41796875 C-10.039172 1.59003279 -5.69389511 -0.39976114 0 0 Z "
        fill="#08B6FF" transform="translate(154.99609375,103.51953125)" />
    <path
        d="M0 0 C3.36783781 0.70615954 4.82085562 1.69429938 6.9375 4.40625 C7.65478811 7.55761417 7.62249916 10.25076205 6.9375 13.40625 C4.94522296 16.45692422 3.60067126 18.00051669 0 18.87890625 C-3.92294665 19.16866935 -5.73419602 18.62511932 -9.0625 16.40625 C-11.28175086 13.07737371 -11.82140933 11.26688492 -11.5390625 7.34375 C-10.06424173 1.34775736 -5.60397091 -0.42454325 0 0 Z "
        fill="#07B5FF" transform="translate(98.0625,103.59375)" />
</svg>