<svg xmlns="http://www.w3.org/2000/svg" width="540" height="531" viewBox="0 0 540 531" version="1.1"><path d="M 339 135.173 C 337.075 135.706, 333.700 136.644, 331.500 137.258 C 327.616 138.341, 295.638 150.711, 289.403 153.542 C 287.699 154.316, 282.118 156.547, 277 158.500 C 271.882 160.453, 266.301 162.673, 264.597 163.433 C 262.894 164.193, 252.275 168.504, 241 173.013 C 229.725 177.521, 219.150 181.803, 217.500 182.526 C 215.850 183.250, 211.453 184.986, 207.729 186.384 C 204.004 187.783, 199.504 189.584, 197.729 190.389 C 195.953 191.193, 189.775 193.717, 184 195.997 C 178.225 198.277, 172.972 200.674, 172.328 201.322 C 171.430 202.224, 173.497 208.246, 181.142 227 C 186.634 240.475, 191.357 252.175, 191.637 253 C 191.917 253.825, 192.563 255.281, 193.073 256.236 C 193.583 257.191, 194 258.584, 194 259.331 C 194 261.258, 197.442 264.136, 198.564 263.147 C 199.079 262.692, 201.075 261.731, 203 261.010 C 204.925 260.290, 208.075 259.047, 210 258.248 C 211.925 257.449, 214.400 256.423, 215.500 255.967 C 216.600 255.510, 223.926 252.567, 231.780 249.425 C 239.633 246.284, 246.289 243.341, 246.570 242.886 C 246.851 242.432, 246.097 239.772, 244.894 236.976 C 243.429 233.569, 243.039 231.561, 243.713 230.887 C 244.476 230.124, 284.085 213.591, 293 210.314 C 293.825 210.011, 302.825 206.366, 313 202.215 C 328.573 195.861, 332.623 194.597, 338.599 194.231 C 345.413 193.814, 345.843 193.923, 349.284 196.945 C 356.671 203.430, 358.214 215.962, 352.392 222.185 C 349.324 225.464, 340.462 229.934, 327.801 234.586 C 314.661 239.414, 314.985 237.615, 323.498 258.472 C 327.533 268.357, 331.339 276.613, 331.956 276.819 C 332.574 277.025, 340.405 274.227, 349.358 270.602 C 366.123 263.815, 372.317 262.274, 378.312 263.399 C 387.988 265.214, 394.928 282.694, 389.176 290.759 C 386.785 294.111, 383.348 296.004, 371.686 300.394 C 367.985 301.787, 363.504 303.580, 361.729 304.379 C 359.953 305.178, 345.450 311.069, 329.500 317.469 C 298.132 330.057, 298.736 329.810, 291.761 332.900 C 289.154 334.055, 286.441 335, 285.731 335 C 285.021 335, 283.554 332.712, 282.470 329.916 C 281.387 327.120, 279.958 324.382, 279.296 323.832 C 278.453 323.131, 270.803 325.743, 253.796 332.539 C 240.433 337.879, 229.181 342.533, 228.791 342.883 C 228.160 343.448, 234.450 359.868, 248.658 394.750 C 251.179 400.938, 253.595 406, 254.028 406 C 254.692 406, 298.471 388.641, 304.500 385.987 C 305.600 385.503, 319.550 379.878, 335.500 373.486 C 364.993 361.668, 367.278 360.744, 371.250 359.028 C 372.488 358.493, 382.021 354.647, 392.435 350.483 C 417.155 340.597, 422.504 338.070, 431.348 332.102 C 439.704 326.464, 445.289 320.560, 449.384 313.037 C 454.260 304.076, 454.101 289.080, 448.958 272.912 C 444.036 257.439, 436.802 243.695, 429.967 236.830 C 422.534 229.366, 418.668 227.743, 407.732 227.496 C 402.910 227.387, 398.693 227.027, 398.362 226.695 C 398.030 226.364, 399.226 224.239, 401.020 221.975 C 412.157 207.914, 411.470 191.071, 398.736 165.944 C 389.860 148.431, 381.538 139.963, 368.870 135.551 C 363.890 133.817, 344.773 133.575, 339 135.173 M 112.450 181.865 C 111.927 182.341, 108.125 183.983, 104 185.514 C 99.875 187.045, 94.700 189.088, 92.500 190.053 C 90.300 191.019, 83.550 193.804, 77.500 196.242 C 70.806 198.941, 66.380 201.291, 66.194 202.247 C 65.936 203.574, 85.143 252.564, 91.087 265.739 C 92.139 268.071, 93 270.249, 93 270.579 C 93 271.113, 116.819 330.473, 119.050 335.500 C 119.538 336.600, 121.698 341.988, 123.849 347.473 C 126.001 352.959, 128.384 357.840, 129.145 358.320 C 130.071 358.904, 137.648 356.321, 152.015 350.523 C 175.324 341.116, 176.888 340.479, 180.250 339.030 C 181.488 338.497, 186.100 336.660, 190.500 334.950 C 194.900 333.239, 199.850 331.234, 201.500 330.495 C 204.153 329.307, 253.934 309.182, 293.730 293.211 C 301.556 290.070, 308.149 287.018, 308.379 286.430 C 308.956 284.961, 294.530 249.677, 293.168 249.223 C 292.293 248.931, 254.524 263.350, 246.500 267.038 C 245.400 267.544, 236.400 271.171, 226.500 275.099 C 216.600 279.027, 206.700 283.068, 204.500 284.079 C 192.928 289.398, 165.390 299.767, 164.684 299.071 C 163.895 298.294, 150.268 264.902, 128.335 210 C 122.512 195.425, 117.300 182.938, 116.752 182.250 C 115.591 180.795, 113.801 180.635, 112.450 181.865" stroke="none" fill="#f7f7f7" fill-rule="evenodd"/><path d="M -0 265.502 L -0 531.004 270.250 530.752 L 540.500 530.500 540.752 265.250 L 541.004 0 270.502 0 L 0 0 -0 265.502 M 0.493 266 C 0.493 412.025, 0.608 471.762, 0.750 398.750 C 0.892 325.737, 0.892 206.262, 0.750 133.250 C 0.608 60.237, 0.493 119.975, 0.493 266 M 339 135.173 C 337.075 135.706, 333.700 136.644, 331.500 137.258 C 327.616 138.341, 295.638 150.711, 289.403 153.542 C 287.699 154.316, 282.118 156.547, 277 158.500 C 271.882 160.453, 266.301 162.673, 264.597 163.433 C 262.894 164.193, 252.275 168.504, 241 173.013 C 229.725 177.521, 219.150 181.803, 217.500 182.526 C 215.850 183.250, 211.453 184.986, 207.729 186.384 C 204.004 187.783, 199.504 189.584, 197.729 190.389 C 195.953 191.193, 189.775 193.717, 184 195.997 C 178.225 198.277, 172.972 200.674, 172.328 201.322 C 171.430 202.224, 173.497 208.246, 181.142 227 C 186.634 240.475, 191.357 252.175, 191.637 253 C 191.917 253.825, 192.563 255.281, 193.073 256.236 C 193.583 257.191, 194 258.584, 194 259.331 C 194 261.258, 197.442 264.136, 198.564 263.147 C 199.079 262.692, 201.075 261.731, 203 261.010 C 204.925 260.290, 208.075 259.047, 210 258.248 C 211.925 257.449, 214.400 256.423, 215.500 255.967 C 216.600 255.510, 223.926 252.567, 231.780 249.425 C 239.633 246.284, 246.289 243.341, 246.570 242.886 C 246.851 242.432, 246.097 239.772, 244.894 236.976 C 243.429 233.569, 243.039 231.561, 243.713 230.887 C 244.476 230.124, 284.085 213.591, 293 210.314 C 293.825 210.011, 302.825 206.366, 313 202.215 C 328.573 195.861, 332.623 194.597, 338.599 194.231 C 345.413 193.814, 345.843 193.923, 349.284 196.945 C 356.671 203.430, 358.214 215.962, 352.392 222.185 C 349.324 225.464, 340.462 229.934, 327.801 234.586 C 314.661 239.414, 314.985 237.615, 323.498 258.472 C 327.533 268.357, 331.339 276.613, 331.956 276.819 C 332.574 277.025, 340.405 274.227, 349.358 270.602 C 366.123 263.815, 372.317 262.274, 378.312 263.399 C 387.988 265.214, 394.928 282.694, 389.176 290.759 C 386.785 294.111, 383.348 296.004, 371.686 300.394 C 367.985 301.787, 363.504 303.580, 361.729 304.379 C 359.953 305.178, 345.450 311.069, 329.500 317.469 C 298.132 330.057, 298.736 329.810, 291.761 332.900 C 289.154 334.055, 286.441 335, 285.731 335 C 285.021 335, 283.554 332.712, 282.470 329.916 C 281.387 327.120, 279.958 324.382, 279.296 323.832 C 278.453 323.131, 270.803 325.743, 253.796 332.539 C 240.433 337.879, 229.181 342.533, 228.791 342.883 C 228.160 343.448, 234.450 359.868, 248.658 394.750 C 251.179 400.938, 253.595 406, 254.028 406 C 254.692 406, 298.471 388.641, 304.500 385.987 C 305.600 385.503, 319.550 379.878, 335.500 373.486 C 364.993 361.668, 367.278 360.744, 371.250 359.028 C 372.488 358.493, 382.021 354.647, 392.435 350.483 C 417.155 340.597, 422.504 338.070, 431.348 332.102 C 439.704 326.464, 445.289 320.560, 449.384 313.037 C 454.260 304.076, 454.101 289.080, 448.958 272.912 C 444.036 257.439, 436.802 243.695, 429.967 236.830 C 422.534 229.366, 418.668 227.743, 407.732 227.496 C 402.910 227.387, 398.693 227.027, 398.362 226.695 C 398.030 226.364, 399.226 224.239, 401.020 221.975 C 412.157 207.914, 411.470 191.071, 398.736 165.944 C 389.860 148.431, 381.538 139.963, 368.870 135.551 C 363.890 133.817, 344.773 133.575, 339 135.173 M 112.450 181.865 C 111.927 182.341, 108.125 183.983, 104 185.514 C 99.875 187.045, 94.700 189.088, 92.500 190.053 C 90.300 191.019, 83.550 193.804, 77.500 196.242 C 70.806 198.941, 66.380 201.291, 66.194 202.247 C 65.936 203.574, 85.143 252.564, 91.087 265.739 C 92.139 268.071, 93 270.249, 93 270.579 C 93 271.113, 116.819 330.473, 119.050 335.500 C 119.538 336.600, 121.698 341.988, 123.849 347.473 C 126.001 352.959, 128.384 357.840, 129.145 358.320 C 130.071 358.904, 137.648 356.321, 152.015 350.523 C 175.324 341.116, 176.888 340.479, 180.250 339.030 C 181.488 338.497, 186.100 336.660, 190.500 334.950 C 194.900 333.239, 199.850 331.234, 201.500 330.495 C 204.153 329.307, 253.934 309.182, 293.730 293.211 C 301.556 290.070, 308.149 287.018, 308.379 286.430 C 308.956 284.961, 294.530 249.677, 293.168 249.223 C 292.293 248.931, 254.524 263.350, 246.500 267.038 C 245.400 267.544, 236.400 271.171, 226.500 275.099 C 216.600 279.027, 206.700 283.068, 204.500 284.079 C 192.928 289.398, 165.390 299.767, 164.684 299.071 C 163.895 298.294, 150.268 264.902, 128.335 210 C 122.512 195.425, 117.300 182.938, 116.752 182.250 C 115.591 180.795, 113.801 180.635, 112.450 181.865" stroke="none" fill="#1c1c15" fill-rule="evenodd"/></svg>