<svg xmlns="http://www.w3.org/2000/svg" width="424" height="424" viewBox="0 0 424 424" version="1.1"><path d="M 266 26.997 C 224.263 33.787, 188.918 62.616, 173.086 102.782 C 167.691 116.470, 166.564 123.470, 166.531 143.500 C 166.498 163.913, 167.323 169.427, 172.621 184.178 C 177.040 196.485, 182.363 206.201, 190.247 216.348 L 194.013 221.196 191.363 224.348 C 189.905 226.082, 174.264 242.277, 156.606 260.337 C 138.948 278.397, 124.334 293.633, 124.131 294.195 C 123.928 294.756, 120.210 291.685, 115.870 287.370 L 107.978 279.525 69.485 318.018 L 30.993 356.511 51.753 377.253 L 72.514 397.996 110.993 359.507 L 149.472 321.019 141.744 313.246 L 134.017 305.473 169.943 269.557 L 205.868 233.642 209.684 236.341 C 220.619 244.076, 230.310 250.224, 233.699 251.574 C 235.789 252.408, 238.400 253.478, 239.500 253.952 C 252.218 259.434, 266.235 262, 283.470 262 C 329.630 262, 369.812 236.264, 390.005 193.764 C 406.396 159.268, 404.073 116.281, 384.050 83.579 C 369.428 59.698, 347.175 41.186, 323.332 33.068 C 307.958 27.834, 302.767 26.895, 287 26.495 C 278.475 26.279, 269.025 26.505, 266 26.997 M 275.500 44.138 C 237.007 47.205, 202.473 73.473, 188.649 110.199 C 184.170 122.101, 182.773 130.538, 182.807 145.500 C 182.833 157.243, 183.255 161.111, 185.423 169.491 C 190.173 187.857, 198.815 202.765, 212.713 216.569 C 230.215 233.953, 248.606 242.811, 273.834 246.009 C 287.109 247.691, 303.878 245.653, 317.561 240.694 C 330.502 236.004, 345.017 227.022, 354.810 217.644 C 362.022 210.738, 372.282 196.458, 376.358 187.656 C 385.653 167.579, 387.934 142.195, 382.392 120.500 C 375.455 93.345, 355.639 67.931, 331.746 55.548 C 313.051 45.859, 296.368 42.474, 275.500 44.138 M 110.137 54.369 C 101.355 57.547, 95.037 66.832, 92.969 79.595 C 90.688 93.679, 94.096 107.191, 101.897 114.992 C 107.350 120.445, 113.159 122.446, 121.737 121.825 C 136.877 120.730, 145.684 109.699, 146.747 90.500 C 148.032 67.285, 137.260 52.816, 118.884 53.076 C 115.923 53.118, 111.987 53.700, 110.137 54.369 M 53 59.468 L 53 65 59.500 65 L 66 65 66 93 L 66 121 71.513 121 L 77.027 121 76.763 87.750 L 76.500 54.500 64.750 54.218 L 53 53.937 53 59.468 M 114.174 63.219 C 106.991 65.625, 102.252 77.563, 103.343 90.505 C 104.385 102.874, 107.419 108.750, 114.156 111.446 C 119.915 113.750, 125.490 112.710, 129.646 108.554 C 138.865 99.335, 137.780 71.882, 127.913 64.729 C 124.719 62.413, 118.591 61.739, 114.174 63.219 M 283.195 105.067 C 266.498 108.355, 257 123.436, 257 146.661 C 257 157.667, 258.292 164.400, 261.958 172.500 C 265.633 180.622, 269.048 184.387, 275.683 187.633 C 286.490 192.921, 302.398 190.803, 311.402 182.877 C 316.494 178.396, 321.135 169.642, 322.895 161.201 C 324.391 154.026, 324.229 139.755, 322.572 132.825 C 318.640 116.377, 310.524 107.565, 296.937 104.988 C 291.020 103.866, 289.242 103.876, 283.195 105.067 M 207 112.474 L 207 119 215.500 119 L 224 119 224 154.500 L 224 190 231.011 190 L 238.022 190 237.761 148.250 L 237.500 106.500 222.250 106.224 L 207 105.948 207 112.474 M 335 112.473 L 335 119 343.500 119 L 352 119 352 154.500 L 352 190 358.511 190 L 365.022 190 364.761 148.250 L 364.500 106.500 349.750 106.223 L 335 105.947 335 112.473 M 281.024 119.187 C 273.125 124.550, 270.515 131.824, 270.506 148.500 C 270.499 162.479, 272.142 168.283, 277.782 174.200 C 284.029 180.754, 295.934 181.326, 302.347 175.379 C 308.511 169.664, 311.708 157.434, 310.664 143.563 C 309.938 133.913, 308.737 129.378, 305.740 124.974 C 301.907 119.344, 298.655 117.601, 291.218 117.194 C 285.446 116.879, 284.010 117.159, 281.024 119.187 M 55.500 173.207 C 43.633 177.355, 35.953 193.024, 37.273 210.397 C 38.646 228.474, 47.839 239.575, 62.403 240.744 C 75.066 241.761, 84.153 235.857, 89.070 223.419 C 91.031 218.459, 91.417 215.637, 91.453 206 C 91.493 195.363, 91.278 194.026, 88.586 188.192 C 85.234 180.928, 79.102 174.946, 73.193 173.176 C 68.449 171.755, 59.610 171.770, 55.500 173.207 M 101 178 L 101 183 107.500 183 L 114 183 114 211.500 L 114 240 119.500 240 L 125 240 125 206.500 L 125 173 113 173 L 101 173 101 178 M 62.500 180.755 C 55.013 182.091, 51.837 185.575, 49.382 195.146 C 47.654 201.884, 47.913 212.068, 49.994 219.219 C 53.337 230.702, 66.528 234.672, 74.582 226.618 C 81.790 219.410, 83.159 200.566, 77.362 188.351 C 74.975 183.319, 68.028 179.769, 62.500 180.755 M 198.460 304.006 C 193.677 305.489, 187.349 311.570, 184.648 317.279 C 179.464 328.236, 179.262 346.198, 184.205 356.712 C 190.087 369.226, 202.786 374.646, 216.568 370.526 C 229.015 366.805, 235.764 353.235, 234.735 334.001 C 234.006 320.376, 229.183 310.719, 220.736 305.972 C 216.119 303.377, 203.952 302.303, 198.460 304.006 M 301.500 304.207 C 290.378 308.094, 283.800 320.467, 283.800 337.500 C 283.800 352.693, 289.169 364.202, 298.473 368.958 C 305.384 372.490, 316.339 372.564, 323.322 369.126 C 333.200 364.263, 338.555 351.471, 337.790 334.571 C 336.860 314.030, 327.396 302.882, 311.054 303.079 C 307.449 303.122, 303.150 303.630, 301.500 304.207 M 243.667 304.667 C 243.300 305.033, 243 307.264, 243 309.623 L 243 313.912 250.062 314.206 L 257.125 314.500 257.034 343.250 L 256.944 372 262.472 372 L 268 372 268 338 L 268 304 256.167 304 C 249.658 304, 244.033 304.300, 243.667 304.667 M 347 308.954 L 347 313.909 353.750 314.204 L 360.500 314.500 360.765 343.250 L 361.031 372 366.015 372 L 371 372 371 338 L 371 304 359 304 L 347 304 347 308.954 M 200.005 314.752 C 193.225 318.144, 189.487 330.282, 191 344 C 191.909 352.243, 194.547 357.783, 199 360.803 C 201.925 362.787, 203.442 363.111, 208.236 362.776 C 215.002 362.302, 218.182 359.925, 221.283 353.023 C 224.176 346.583, 224.043 331.746, 221.019 323.733 C 217.358 314.027, 208.780 310.361, 200.005 314.752 M 304.396 314.429 C 296.840 317.719, 292.805 330.694, 295.008 344.614 C 296.398 353.395, 298.605 357.873, 303 360.825 C 305.910 362.781, 307.462 363.110, 312.213 362.777 C 318.673 362.325, 321.020 360.726, 324.356 354.500 C 326.207 351.046, 326.500 348.858, 326.500 338.473 C 326.500 327.606, 326.259 325.978, 324 321.591 C 320.029 313.879, 312.217 311.025, 304.396 314.429" stroke="none" fill="#f5f5f5" fill-rule="evenodd"/><path d="M -0 212.002 L -0 424.005 212.250 423.752 L 424.500 423.500 424.752 211.750 L 425.005 -0 212.502 -0 L 0 0 -0 212.002 M 0.491 212.500 C 0.491 329.100, 0.607 376.652, 0.750 318.170 C 0.892 259.689, 0.892 164.289, 0.750 106.170 C 0.607 48.052, 0.491 95.900, 0.491 212.500 M 266 26.997 C 224.263 33.787, 188.918 62.616, 173.086 102.782 C 167.691 116.470, 166.564 123.470, 166.531 143.500 C 166.498 163.913, 167.323 169.427, 172.621 184.178 C 177.040 196.485, 182.363 206.201, 190.247 216.348 L 194.013 221.196 191.363 224.348 C 189.905 226.082, 174.264 242.277, 156.606 260.337 C 138.948 278.397, 124.334 293.633, 124.131 294.195 C 123.928 294.756, 120.210 291.685, 115.870 287.370 L 107.978 279.525 69.485 318.018 L 30.993 356.511 51.753 377.253 L 72.514 397.996 110.993 359.507 L 149.472 321.019 141.744 313.246 L 134.017 305.473 169.943 269.557 L 205.868 233.642 209.684 236.341 C 220.619 244.076, 230.310 250.224, 233.699 251.574 C 235.789 252.408, 238.400 253.478, 239.500 253.952 C 252.218 259.434, 266.235 262, 283.470 262 C 329.630 262, 369.812 236.264, 390.005 193.764 C 406.396 159.268, 404.073 116.281, 384.050 83.579 C 369.428 59.698, 347.175 41.186, 323.332 33.068 C 307.958 27.834, 302.767 26.895, 287 26.495 C 278.475 26.279, 269.025 26.505, 266 26.997 M 275.500 44.138 C 237.007 47.205, 202.473 73.473, 188.649 110.199 C 184.170 122.101, 182.773 130.538, 182.807 145.500 C 182.833 157.243, 183.255 161.111, 185.423 169.491 C 190.173 187.857, 198.815 202.765, 212.713 216.569 C 230.215 233.953, 248.606 242.811, 273.834 246.009 C 287.109 247.691, 303.878 245.653, 317.561 240.694 C 330.502 236.004, 345.017 227.022, 354.810 217.644 C 362.022 210.738, 372.282 196.458, 376.358 187.656 C 385.653 167.579, 387.934 142.195, 382.392 120.500 C 375.455 93.345, 355.639 67.931, 331.746 55.548 C 313.051 45.859, 296.368 42.474, 275.500 44.138 M 110.137 54.369 C 101.355 57.547, 95.037 66.832, 92.969 79.595 C 90.688 93.679, 94.096 107.191, 101.897 114.992 C 107.350 120.445, 113.159 122.446, 121.737 121.825 C 136.877 120.730, 145.684 109.699, 146.747 90.500 C 148.032 67.285, 137.260 52.816, 118.884 53.076 C 115.923 53.118, 111.987 53.700, 110.137 54.369 M 53 59.468 L 53 65 59.500 65 L 66 65 66 93 L 66 121 71.513 121 L 77.027 121 76.763 87.750 L 76.500 54.500 64.750 54.218 L 53 53.937 53 59.468 M 114.174 63.219 C 106.991 65.625, 102.252 77.563, 103.343 90.505 C 104.385 102.874, 107.419 108.750, 114.156 111.446 C 119.915 113.750, 125.490 112.710, 129.646 108.554 C 138.865 99.335, 137.780 71.882, 127.913 64.729 C 124.719 62.413, 118.591 61.739, 114.174 63.219 M 283.195 105.067 C 266.498 108.355, 257 123.436, 257 146.661 C 257 157.667, 258.292 164.400, 261.958 172.500 C 265.633 180.622, 269.048 184.387, 275.683 187.633 C 286.490 192.921, 302.398 190.803, 311.402 182.877 C 316.494 178.396, 321.135 169.642, 322.895 161.201 C 324.391 154.026, 324.229 139.755, 322.572 132.825 C 318.640 116.377, 310.524 107.565, 296.937 104.988 C 291.020 103.866, 289.242 103.876, 283.195 105.067 M 207 112.474 L 207 119 215.500 119 L 224 119 224 154.500 L 224 190 231.011 190 L 238.022 190 237.761 148.250 L 237.500 106.500 222.250 106.224 L 207 105.948 207 112.474 M 335 112.473 L 335 119 343.500 119 L 352 119 352 154.500 L 352 190 358.511 190 L 365.022 190 364.761 148.250 L 364.500 106.500 349.750 106.223 L 335 105.947 335 112.473 M 281.024 119.187 C 273.125 124.550, 270.515 131.824, 270.506 148.500 C 270.499 162.479, 272.142 168.283, 277.782 174.200 C 284.029 180.754, 295.934 181.326, 302.347 175.379 C 308.511 169.664, 311.708 157.434, 310.664 143.563 C 309.938 133.913, 308.737 129.378, 305.740 124.974 C 301.907 119.344, 298.655 117.601, 291.218 117.194 C 285.446 116.879, 284.010 117.159, 281.024 119.187 M 55.500 173.207 C 43.633 177.355, 35.953 193.024, 37.273 210.397 C 38.646 228.474, 47.839 239.575, 62.403 240.744 C 75.066 241.761, 84.153 235.857, 89.070 223.419 C 91.031 218.459, 91.417 215.637, 91.453 206 C 91.493 195.363, 91.278 194.026, 88.586 188.192 C 85.234 180.928, 79.102 174.946, 73.193 173.176 C 68.449 171.755, 59.610 171.770, 55.500 173.207 M 101 178 L 101 183 107.500 183 L 114 183 114 211.500 L 114 240 119.500 240 L 125 240 125 206.500 L 125 173 113 173 L 101 173 101 178 M 62.500 180.755 C 55.013 182.091, 51.837 185.575, 49.382 195.146 C 47.654 201.884, 47.913 212.068, 49.994 219.219 C 53.337 230.702, 66.528 234.672, 74.582 226.618 C 81.790 219.410, 83.159 200.566, 77.362 188.351 C 74.975 183.319, 68.028 179.769, 62.500 180.755 M 198.460 304.006 C 193.677 305.489, 187.349 311.570, 184.648 317.279 C 179.464 328.236, 179.262 346.198, 184.205 356.712 C 190.087 369.226, 202.786 374.646, 216.568 370.526 C 229.015 366.805, 235.764 353.235, 234.735 334.001 C 234.006 320.376, 229.183 310.719, 220.736 305.972 C 216.119 303.377, 203.952 302.303, 198.460 304.006 M 301.500 304.207 C 290.378 308.094, 283.800 320.467, 283.800 337.500 C 283.800 352.693, 289.169 364.202, 298.473 368.958 C 305.384 372.490, 316.339 372.564, 323.322 369.126 C 333.200 364.263, 338.555 351.471, 337.790 334.571 C 336.860 314.030, 327.396 302.882, 311.054 303.079 C 307.449 303.122, 303.150 303.630, 301.500 304.207 M 243.667 304.667 C 243.300 305.033, 243 307.264, 243 309.623 L 243 313.912 250.062 314.206 L 257.125 314.500 257.034 343.250 L 256.944 372 262.472 372 L 268 372 268 338 L 268 304 256.167 304 C 249.658 304, 244.033 304.300, 243.667 304.667 M 347 308.954 L 347 313.909 353.750 314.204 L 360.500 314.500 360.765 343.250 L 361.031 372 366.015 372 L 371 372 371 338 L 371 304 359 304 L 347 304 347 308.954 M 200.005 314.752 C 193.225 318.144, 189.487 330.282, 191 344 C 191.909 352.243, 194.547 357.783, 199 360.803 C 201.925 362.787, 203.442 363.111, 208.236 362.776 C 215.002 362.302, 218.182 359.925, 221.283 353.023 C 224.176 346.583, 224.043 331.746, 221.019 323.733 C 217.358 314.027, 208.780 310.361, 200.005 314.752 M 304.396 314.429 C 296.840 317.719, 292.805 330.694, 295.008 344.614 C 296.398 353.395, 298.605 357.873, 303 360.825 C 305.910 362.781, 307.462 363.110, 312.213 362.777 C 318.673 362.325, 321.020 360.726, 324.356 354.500 C 326.207 351.046, 326.500 348.858, 326.500 338.473 C 326.500 327.606, 326.259 325.978, 324 321.591 C 320.029 313.879, 312.217 311.025, 304.396 314.429" stroke="none" fill="#2c3444" fill-rule="evenodd"/></svg>