<svg xmlns="http://www.w3.org/2000/svg" width="225" height="225" viewBox="0 0 225 225" version="1.1"><path d="M 91 51.597 C 79.725 57.992, 69.705 63.925, 68.734 64.782 C 67.116 66.208, 66.990 68.568, 67.234 92.899 L 67.500 119.459 89.926 132.223 L 112.351 144.988 119.426 141.091 C 123.317 138.948, 133.475 133.194, 142 128.304 L 157.500 119.412 157.767 93.079 C 157.956 74.376, 157.701 66.345, 156.886 65.362 C 155.585 63.795, 115.595 40.949, 113.113 40.355 C 112.226 40.143, 102.275 45.202, 91 51.597 M 99.991 53.853 C 93.662 57.509, 85.842 61.999, 82.615 63.830 L 76.746 67.160 82.123 70.376 C 85.080 72.145, 93.158 76.843, 100.074 80.817 L 112.649 88.042 130.574 77.899 C 140.433 72.321, 148.574 67.699, 148.664 67.628 C 149.067 67.315, 113.184 47.011, 112.390 47.103 C 111.900 47.159, 106.321 50.197, 99.991 53.853 M 73.230 93.976 L 73.500 115.182 91.392 125.591 C 101.233 131.316, 109.342 136, 109.412 136 C 109.482 136, 109.681 126.607, 109.853 115.127 L 110.167 94.255 107.333 92.277 C 103.672 89.722, 76.987 74.316, 74.704 73.440 C 73.074 72.814, 72.977 74.156, 73.230 93.976 M 133.250 83.166 L 116 93.151 116 114.671 L 116 136.190 120.250 133.749 C 122.588 132.406, 130.688 127.812, 138.250 123.539 L 152 115.770 152 94.385 C 152 82.623, 151.662 73.041, 151.250 73.090 C 150.838 73.140, 142.738 77.674, 133.250 83.166 M 21.250 152.662 C 20.337 153.031, 20 156.786, 20 166.583 C 20 178.609, 20.205 180.205, 21.975 181.975 C 24.655 184.655, 28.646 185.508, 33.031 184.337 C 35.039 183.801, 37.542 183.699, 38.591 184.111 C 42.035 185.461, 46.444 185.027, 49.750 183.011 C 51.538 181.921, 53 180.625, 53 180.131 C 53 178.791, 48.682 177.918, 47.567 179.033 C 45.413 181.187, 39 179.516, 39 176.800 C 39 176.360, 42.375 176, 46.500 176 L 54 176 54 172.923 C 54 164.834, 42.487 160.913, 35.933 166.769 C 33.489 168.952, 32.787 170.447, 32.613 173.839 C 32.370 178.564, 30.622 180.403, 27.804 178.895 C 26.222 178.049, 26 176.480, 26 166.165 C 26 153.209, 25.241 151.052, 21.250 152.662 M 58.200 153.200 C 57.371 154.029, 57 159.133, 57 169.700 L 57 185 59.917 185 C 61.521 185, 63.040 184.438, 63.292 183.750 C 63.658 182.750, 64.015 182.750, 65.075 183.750 C 68.276 186.770, 75.942 183.968, 77.987 179.031 C 79.634 175.054, 78.680 169.353, 75.865 166.357 C 73.211 163.531, 67.572 163.173, 64.829 165.655 C 63.074 167.243, 63 167.027, 63 160.262 C 63 154.758, 62.654 153.081, 61.418 152.607 C 59.404 151.834, 59.602 151.798, 58.200 153.200 M 175.799 153.987 C 173.308 156.032, 173.860 158.282, 177.379 160.433 C 178.770 161.283, 179.516 161.023, 181.048 159.157 C 184.519 154.928, 180.034 150.510, 175.799 153.987 M 83.923 166.923 C 80 170.846, 79.756 177.847, 83.414 181.505 C 90.605 188.696, 102.455 183.935, 102.455 173.855 C 102.455 164.898, 90.442 160.404, 83.923 166.923 M 106.035 165.934 C 105.466 166.998, 105 171.723, 105 176.434 L 105 185 108.500 185 L 112 185 112 178.655 C 112 173.600, 112.403 171.945, 113.981 170.517 C 117.338 167.479, 119 169.999, 119 178.122 L 119 185 122 185 L 125 185 125 176.434 C 125 171.723, 124.534 166.998, 123.965 165.934 C 122.687 163.547, 116.467 163.284, 113.324 165.486 C 111.448 166.800, 111.137 166.800, 110.633 165.486 C 109.829 163.390, 107.263 163.640, 106.035 165.934 M 131.763 166.344 C 124.612 172.971, 128.393 183.614, 138.294 184.730 C 142.156 185.165, 143.136 184.850, 146.060 182.238 L 149.406 179.248 146.262 178.557 C 144.478 178.166, 142.227 178.344, 141.059 178.969 C 137.583 180.828, 134.823 178.624, 135.194 174.286 C 135.560 170.003, 138.068 167.937, 140.816 169.653 C 143.078 171.066, 148 170.235, 148 168.440 C 148 163.869, 136.092 162.332, 131.763 166.344 M 154.367 165.772 C 148.886 170.212, 148.490 176.690, 153.400 181.600 C 156.187 184.387, 157.557 185, 161 185 C 164.443 185, 165.813 184.387, 168.600 181.600 C 175.694 174.506, 171.166 164.044, 161 164.044 C 158.226 164.044, 155.682 164.707, 154.367 165.772 M 176.080 165.403 C 174.203 167.665, 175.084 183.028, 177.166 184.337 C 178.373 185.095, 179.269 185.021, 180.416 184.070 C 182.394 182.428, 182.706 167.106, 180.800 165.200 C 179.210 163.610, 177.508 163.683, 176.080 165.403 M 186.667 164.667 C 186.300 165.033, 186 169.758, 186 175.167 L 186 185 189 185 L 192 185 192 178.571 C 192 171.803, 193.795 168.324, 196.711 169.442 C 197.510 169.749, 198.352 170, 198.582 170 C 198.812 170, 199 173.375, 199 177.500 L 199 185 202 185 L 205 185 205 176.434 C 205 171.723, 204.534 166.998, 203.965 165.934 C 202.687 163.547, 196.467 163.284, 193.324 165.486 C 191.448 166.800, 191.137 166.800, 190.633 165.486 C 190.044 163.951, 187.838 163.495, 186.667 164.667 M 40.382 169.750 C 38.703 171.419, 38.797 171.515, 42.411 171.816 C 46.858 172.188, 47.757 171.617, 46.020 169.524 C 44.360 167.524, 42.548 167.597, 40.382 169.750 M 64.575 170.918 C 61.050 174.812, 64.920 180.810, 69.750 178.937 C 71.459 178.274, 72 177.263, 72 174.732 C 72 169.177, 68.007 167.125, 64.575 170.918 M 88.536 170.960 C 84.841 175.043, 89.438 181.483, 93.845 178.396 C 96.374 176.625, 96.659 172.802, 94.429 170.571 C 92.338 168.481, 90.681 168.590, 88.536 170.960 M 158.200 170.200 C 156.212 172.188, 156.720 177.780, 159 179 C 162.153 180.687, 165 178.630, 165 174.665 C 165 171.110, 163.510 169, 161 169 C 160.120 169, 158.860 169.540, 158.200 170.200" stroke="none" fill="#fbf4f2" fill-rule="evenodd"/><path d="M -0 112.504 L -0 225.009 112.750 224.754 L 225.500 224.500 225.754 112.250 L 226.009 0 113.004 0 L 0 0 -0 112.504 M 0.483 113 C 0.483 174.875, 0.603 200.188, 0.750 169.250 C 0.897 138.313, 0.897 87.688, 0.750 56.750 C 0.603 25.813, 0.483 51.125, 0.483 113 M 91 51.597 C 79.725 57.992, 69.705 63.925, 68.734 64.782 C 67.116 66.208, 66.990 68.568, 67.234 92.899 L 67.500 119.459 89.926 132.223 L 112.351 144.988 119.426 141.091 C 123.317 138.948, 133.475 133.194, 142 128.304 L 157.500 119.412 157.767 93.079 C 157.956 74.376, 157.701 66.345, 156.886 65.362 C 155.585 63.795, 115.595 40.949, 113.113 40.355 C 112.226 40.143, 102.275 45.202, 91 51.597 M 99.991 53.853 C 93.662 57.509, 85.842 61.999, 82.615 63.830 L 76.746 67.160 82.123 70.376 C 85.080 72.145, 93.158 76.843, 100.074 80.817 L 112.649 88.042 130.574 77.899 C 140.433 72.321, 148.574 67.699, 148.664 67.628 C 149.067 67.315, 113.184 47.011, 112.390 47.103 C 111.900 47.159, 106.321 50.197, 99.991 53.853 M 73.230 93.976 L 73.500 115.182 91.392 125.591 C 101.233 131.316, 109.342 136, 109.412 136 C 109.482 136, 109.681 126.607, 109.853 115.127 L 110.167 94.255 107.333 92.277 C 103.672 89.722, 76.987 74.316, 74.704 73.440 C 73.074 72.814, 72.977 74.156, 73.230 93.976 M 133.250 83.166 L 116 93.151 116 114.671 L 116 136.190 120.250 133.749 C 122.588 132.406, 130.688 127.812, 138.250 123.539 L 152 115.770 152 94.385 C 152 82.623, 151.662 73.041, 151.250 73.090 C 150.838 73.140, 142.738 77.674, 133.250 83.166 M 21.250 152.662 C 20.337 153.031, 20 156.786, 20 166.583 C 20 178.609, 20.205 180.205, 21.975 181.975 C 24.655 184.655, 28.646 185.508, 33.031 184.337 C 35.039 183.801, 37.542 183.699, 38.591 184.111 C 42.035 185.461, 46.444 185.027, 49.750 183.011 C 51.538 181.921, 53 180.625, 53 180.131 C 53 178.791, 48.682 177.918, 47.567 179.033 C 45.413 181.187, 39 179.516, 39 176.800 C 39 176.360, 42.375 176, 46.500 176 L 54 176 54 172.923 C 54 164.834, 42.487 160.913, 35.933 166.769 C 33.489 168.952, 32.787 170.447, 32.613 173.839 C 32.370 178.564, 30.622 180.403, 27.804 178.895 C 26.222 178.049, 26 176.480, 26 166.165 C 26 153.209, 25.241 151.052, 21.250 152.662 M 58.200 153.200 C 57.371 154.029, 57 159.133, 57 169.700 L 57 185 59.917 185 C 61.521 185, 63.040 184.438, 63.292 183.750 C 63.658 182.750, 64.015 182.750, 65.075 183.750 C 68.276 186.770, 75.942 183.968, 77.987 179.031 C 79.634 175.054, 78.680 169.353, 75.865 166.357 C 73.211 163.531, 67.572 163.173, 64.829 165.655 C 63.074 167.243, 63 167.027, 63 160.262 C 63 154.758, 62.654 153.081, 61.418 152.607 C 59.404 151.834, 59.602 151.798, 58.200 153.200 M 175.799 153.987 C 173.308 156.032, 173.860 158.282, 177.379 160.433 C 178.770 161.283, 179.516 161.023, 181.048 159.157 C 184.519 154.928, 180.034 150.510, 175.799 153.987 M 83.923 166.923 C 80 170.846, 79.756 177.847, 83.414 181.505 C 90.605 188.696, 102.455 183.935, 102.455 173.855 C 102.455 164.898, 90.442 160.404, 83.923 166.923 M 106.035 165.934 C 105.466 166.998, 105 171.723, 105 176.434 L 105 185 108.500 185 L 112 185 112 178.655 C 112 173.600, 112.403 171.945, 113.981 170.517 C 117.338 167.479, 119 169.999, 119 178.122 L 119 185 122 185 L 125 185 125 176.434 C 125 171.723, 124.534 166.998, 123.965 165.934 C 122.687 163.547, 116.467 163.284, 113.324 165.486 C 111.448 166.800, 111.137 166.800, 110.633 165.486 C 109.829 163.390, 107.263 163.640, 106.035 165.934 M 131.763 166.344 C 124.612 172.971, 128.393 183.614, 138.294 184.730 C 142.156 185.165, 143.136 184.850, 146.060 182.238 L 149.406 179.248 146.262 178.557 C 144.478 178.166, 142.227 178.344, 141.059 178.969 C 137.583 180.828, 134.823 178.624, 135.194 174.286 C 135.560 170.003, 138.068 167.937, 140.816 169.653 C 143.078 171.066, 148 170.235, 148 168.440 C 148 163.869, 136.092 162.332, 131.763 166.344 M 154.367 165.772 C 148.886 170.212, 148.490 176.690, 153.400 181.600 C 156.187 184.387, 157.557 185, 161 185 C 164.443 185, 165.813 184.387, 168.600 181.600 C 175.694 174.506, 171.166 164.044, 161 164.044 C 158.226 164.044, 155.682 164.707, 154.367 165.772 M 176.080 165.403 C 174.203 167.665, 175.084 183.028, 177.166 184.337 C 178.373 185.095, 179.269 185.021, 180.416 184.070 C 182.394 182.428, 182.706 167.106, 180.800 165.200 C 179.210 163.610, 177.508 163.683, 176.080 165.403 M 186.667 164.667 C 186.300 165.033, 186 169.758, 186 175.167 L 186 185 189 185 L 192 185 192 178.571 C 192 171.803, 193.795 168.324, 196.711 169.442 C 197.510 169.749, 198.352 170, 198.582 170 C 198.812 170, 199 173.375, 199 177.500 L 199 185 202 185 L 205 185 205 176.434 C 205 171.723, 204.534 166.998, 203.965 165.934 C 202.687 163.547, 196.467 163.284, 193.324 165.486 C 191.448 166.800, 191.137 166.800, 190.633 165.486 C 190.044 163.951, 187.838 163.495, 186.667 164.667 M 40.382 169.750 C 38.703 171.419, 38.797 171.515, 42.411 171.816 C 46.858 172.188, 47.757 171.617, 46.020 169.524 C 44.360 167.524, 42.548 167.597, 40.382 169.750 M 64.575 170.918 C 61.050 174.812, 64.920 180.810, 69.750 178.937 C 71.459 178.274, 72 177.263, 72 174.732 C 72 169.177, 68.007 167.125, 64.575 170.918 M 88.536 170.960 C 84.841 175.043, 89.438 181.483, 93.845 178.396 C 96.374 176.625, 96.659 172.802, 94.429 170.571 C 92.338 168.481, 90.681 168.590, 88.536 170.960 M 158.200 170.200 C 156.212 172.188, 156.720 177.780, 159 179 C 162.153 180.687, 165 178.630, 165 174.665 C 165 171.110, 163.510 169, 161 169 C 160.120 169, 158.860 169.540, 158.200 170.200" stroke="none" fill="#ec6c2c" fill-rule="evenodd"/></svg>