<svg xmlns="http://www.w3.org/2000/svg" width="512" height="512" viewBox="0 0 512 512" version="1.1"><path d="M 331 138.567 L 324.500 139.974 318.059 143.144 L 311.617 146.314 304.966 152.966 L 298.314 159.617 295.178 166.059 L 292.043 172.500 290.522 178.460 L 289 184.420 289 191.980 L 289 199.540 291.068 207.004 L 293.137 214.467 296.627 221.109 L 300.117 227.752 306.615 234.282 L 313.113 240.812 319.807 244.310 L 326.500 247.807 332 249.437 L 337.500 251.067 346.500 251.079 L 355.500 251.090 362.072 249.060 L 368.644 247.030 374.572 243.173 L 380.500 239.317 385.172 234.285 L 389.843 229.253 392.836 223.324 L 395.829 217.395 397.591 211.448 L 399.352 205.500 399.392 197 L 399.432 188.500 398.107 183 L 396.782 177.500 393.247 170 L 389.712 162.500 381.606 154.457 L 373.500 146.414 366.787 143.163 L 360.074 139.911 353.287 138.473 L 346.500 137.035 342 137.097 L 337.500 137.159 331 138.567" stroke="none" fill="#f9f9f9" fill-rule="evenodd"/><path d="M 439.314 156.555 L 430.128 157.895 421.814 159.870 L 413.500 161.846 403.750 164.970 L 394 168.094 394 168.722 L 394 169.350 396.532 176.686 L 399.064 184.022 399.662 191.776 L 400.260 199.529 399.021 206.877 L 397.781 214.225 393.990 221.770 L 390.198 229.314 401.349 240.422 L 412.500 251.531 420.938 262.015 L 429.375 272.500 436.232 283 L 443.089 293.500 449.588 306.265 L 456.088 319.030 460.635 330.765 L 465.183 342.500 469.091 357.778 L 473 373.055 473 375.469 L 473 377.882 473.847 378.405 L 474.693 378.928 481.266 365.214 L 487.839 351.500 491.341 342 L 494.843 332.500 497.903 321 L 500.963 309.500 503.035 297.500 L 505.108 285.500 505.804 270.794 L 506.500 256.088 505.855 241.794 L 505.210 227.500 503.036 214.667 L 500.861 201.834 497.453 189.399 L 494.045 176.965 489.999 166.615 L 485.952 156.265 481.336 155.633 L 476.721 155 462.610 155.107 L 448.500 155.215 439.314 156.555" stroke="none" fill="#b05ed9" fill-rule="evenodd"/><path d="M 383.421 236.358 L 377.341 242.528 370.921 245.775 L 364.500 249.022 357 250.602 L 349.500 252.182 342.191 251.544 L 334.883 250.906 332.441 249.978 L 330 249.050 330 249.614 L 330 250.179 325.037 274.839 L 320.075 299.500 315.606 317.500 L 311.137 335.500 306.148 352.028 L 301.158 368.556 295.956 382.520 L 290.755 396.484 286.315 406.880 L 281.874 417.276 274.437 432.126 L 267 446.976 260.342 458.238 L 253.685 469.500 246.716 480 L 239.746 490.500 234.748 497.291 L 229.749 504.083 230.456 504.791 L 231.163 505.500 252.945 505.819 L 274.727 506.137 287.113 504.533 L 299.500 502.930 311 500.377 L 322.500 497.823 336 493.364 L 349.500 488.905 365.557 481.055 L 381.614 473.206 395.057 464.178 L 408.500 455.151 420.153 445.098 L 431.806 435.046 440.549 425.273 L 449.293 415.500 456.068 406.500 L 462.843 397.500 468.380 388.664 L 473.916 379.829 473.383 376.664 L 472.850 373.500 469.333 359 L 465.815 344.500 461.286 332.500 L 456.757 320.500 449.925 307 L 443.093 293.500 436.234 283 L 429.375 272.500 420.938 262.024 L 412.500 251.549 401.728 240.774 L 390.956 230 390.228 230.094 L 389.500 230.189 383.421 236.358" stroke="none" fill="#f2352d" fill-rule="evenodd"/><path d="M 261.500 207.951 L 238.500 213.806 223.500 218.499 L 208.500 223.193 191.500 229.522 L 174.500 235.852 161 241.512 L 147.500 247.173 128.500 256.500 L 109.500 265.827 96 273.513 L 82.500 281.200 65.500 292.539 L 48.500 303.879 37.902 312.189 L 27.303 320.500 21.902 325.202 L 16.500 329.903 19.833 339.702 L 23.166 349.500 30.965 365.500 L 38.765 381.500 46.004 392.500 L 53.244 403.500 60.832 413 L 68.421 422.500 78.961 433.039 L 89.500 443.579 99 451.168 L 108.500 458.756 119.176 465.766 L 129.852 472.777 142.676 479.264 L 155.500 485.751 164.939 489.453 L 174.379 493.155 186.052 496.515 L 197.724 499.875 208.112 501.844 L 218.500 503.813 223.552 504.473 L 228.605 505.133 236.798 493.721 L 244.992 482.309 254.016 467.904 L 263.040 453.500 273.832 432 L 284.624 410.500 290.743 394.984 L 296.863 379.467 301.411 365.715 L 305.959 351.963 310.392 335.732 L 314.825 319.500 318.388 304 L 321.951 288.500 325.475 270.599 L 329 252.697 329 251.001 L 329 249.304 321.296 245.497 L 313.593 241.689 306.452 234.548 L 299.311 227.407 295.648 219.954 L 291.985 212.500 290.756 207.250 L 289.527 202 287.013 202.048 L 284.500 202.096 261.500 207.951" stroke="none" fill="#ffb514" fill-rule="evenodd"/><path d="M 87.345 70.746 L 78.500 78.678 71.435 86.589 L 64.370 94.500 58.806 101.500 L 53.241 108.500 46.003 119.500 L 38.765 130.500 30.930 146.500 L 23.095 162.500 18.636 176 L 14.177 189.500 11.623 201 L 9.070 212.500 7.439 225 L 5.807 237.500 6.287 261.500 L 6.766 285.500 8.400 295 L 10.033 304.500 13.160 317.223 L 16.286 329.947 21.229 325.723 L 26.173 321.500 37.336 312.688 L 48.500 303.876 65.500 292.538 L 82.500 281.200 96 273.513 L 109.500 265.827 128.500 256.489 L 147.500 247.151 163.202 240.626 L 178.904 234.101 195.202 228.140 L 211.500 222.180 228.500 217.016 L 245.500 211.852 265.500 206.932 L 285.500 202.012 287.500 202.008 L 289.500 202.005 289.173 193.975 L 288.846 185.945 289.879 181.127 L 290.913 176.308 293.059 170.571 L 295.206 164.834 300.163 158.285 L 305.120 151.735 302.310 148.767 L 299.500 145.800 290.500 138.058 L 281.500 130.315 271.895 123.216 L 262.291 116.117 252.602 110.014 L 242.914 103.910 229.707 97.013 L 216.500 90.117 203 84.637 L 189.500 79.157 178 75.679 L 166.500 72.200 155 69.635 L 143.500 67.070 131.500 65.594 L 119.500 64.118 107.845 63.466 L 96.190 62.815 87.345 70.746" stroke="none" fill="#fae83e" fill-rule="evenodd"/><path d="M 241 6.143 L 226.500 6.877 214.500 8.957 L 202.500 11.037 191.396 13.993 L 180.293 16.949 169.896 20.683 L 159.500 24.416 144.821 31.686 L 130.143 38.956 116.821 47.947 L 103.500 56.938 100.047 59.859 L 96.594 62.780 107.547 63.425 L 118.500 64.069 131 65.566 L 143.500 67.062 155 69.631 L 166.500 72.200 178 75.679 L 189.500 79.157 203 84.637 L 216.500 90.117 229.707 97.013 L 242.914 103.910 252.602 110.014 L 262.291 116.117 271.895 123.216 L 281.500 130.315 290.500 138.058 L 299.500 145.800 302.391 148.851 L 305.281 151.903 309.447 148.490 L 313.613 145.076 320.094 142.043 L 326.574 139.011 332.438 137.927 L 338.302 136.843 344.552 137.171 L 350.801 137.500 351.401 133.110 L 352 128.721 352 110.604 L 352 92.488 350.485 79.535 L 348.970 66.582 346.476 54.541 L 343.983 42.500 340.544 31.103 L 337.105 19.705 336.290 18.890 L 335.475 18.075 322.859 14.618 L 310.243 11.160 297.872 9.038 L 285.500 6.916 273.500 6.419 L 261.500 5.922 258.500 5.665 L 255.500 5.409 241 6.143" stroke="none" fill="#a8d200" fill-rule="evenodd"/><path d="M 337.250 20.250 L 337.714 21.500 340.926 32.357 L 344.139 43.215 346.558 54.857 L 348.976 66.500 350.591 80.500 L 352.206 94.500 351.847 116.203 L 351.489 137.907 355.185 138.531 L 358.881 139.156 365.691 142.433 L 372.500 145.710 377.796 149.915 L 383.092 154.119 387.461 160.054 L 391.829 165.988 392.199 167.098 L 392.569 168.207 404.035 164.568 L 415.500 160.928 428 158.279 L 440.500 155.631 462.747 155.565 L 484.994 155.500 484.997 154.674 L 485 153.849 478.879 141.843 L 472.758 129.837 464.381 117.293 L 456.005 104.750 448.806 96.125 L 441.607 87.500 431.997 77.976 L 422.388 68.451 413.944 61.640 L 405.500 54.828 393.674 46.955 L 381.849 39.082 370.174 33.131 L 358.500 27.181 348.230 23.090 L 337.960 19 337.373 19 L 336.786 19 337.250 20.250" stroke="none" fill="#23bae5" fill-rule="evenodd"/><path d="M 381.500 154 L 385.406 158 385.906 158 L 386.406 158 382.500 154 L 378.594 150 378.094 150 L 377.594 150 381.500 154" stroke="none" fill="#9ba5e6" fill-rule="evenodd"/><path d="M 383.437 236.250 L 380.500 239.500 383.750 236.563 L 387 233.626 387 233.313 L 387 233 386.687 233 L 386.374 233 383.437 236.250" stroke="none" fill="#f0aa22" fill-rule="evenodd"/></svg>