<?xml version="1.0" encoding="UTF-8"?>
<svg id="logosandtypes_com" data-name="logosandtypes com" xmlns="http://www.w3.org/2000/svg" viewBox="0 0 150 150">
  <defs>
    <style>
      .cls-1 {
        fill: none;
      }

      .cls-2 {
        fill: #2d2d2d;
      }

      .cls-3 {
        fill: #acffd9;
      }
    </style>
  </defs>
  <path class="cls-1" d="M0,0H150V150H0V0Z"/>
  <circle class="cls-2" cx="75.35" cy="75" r="67.51"/>
  <path class="cls-3" d="M110.11,99.62c-6.03,2.6-11.97-.96-14.52-6.74-1.28-2.91-4.59-12.35-7.7-20.77-.9-2.43-4.48-1.78-4.48,.82,0,8.07-.02,16.43-.07,17.15-.1,1.46-.29,8.86-8.7,10.25-8.4,1.39-10.43-4.49-11.34-6.48-1.04-2.28-4.81-12.34-8.42-21.72-.94-2.47-4.85-1.75-4.59,.88,1.79,26.01-7.37,29.26-12.51,27.21-6-2.39-4.01-9.4-1.18-14.5,.68-1.23,5.39-8.88,7.28-21.72,.43-2.85,1.63-15.15,13.3-16.72,14.09-1.91,18.04,12.62,18.78,14.81,.99,2.99,4.71,2.48,4.71-.66,0,0-.11-5.47,.13-7.81,1.44-12.86,18.15-16.4,23.57-3.19,.67,1.52,3.59,8.19,6.15,15.41,2.85,8.04,5.3,16.7,5.71,18.44,.79,3.31,2.13,11.83-6.11,15.38v-.02s-.01,0-.01,0Z"/>
</svg>