<svg id="svg" version="1.1" xmlns="http://www.w3.org/2000/svg"
    xmlns:xlink="http://www.w3.org/1999/xlink" width="400" height="401.81405895691614"
    viewBox="0, 0, 400,401.81405895691614">
    <g id="svgg">
        <path id="path0"
            d="M99.838 125.209 C 95.172 126.023,90.610 129.437,88.486 133.707 C 85.456 139.796,85.550 160.184,88.635 166.168 C 95.087 178.683,113.545 177.088,117.958 163.634 C 119.235 159.741,119.235 139.861,117.959 135.966 C 115.467 128.365,107.809 123.819,99.838 125.209 M298.578 125.791 C 292.626 127.672,288.499 132.124,287.259 138.000 C 286.941 139.509,286.748 149.121,286.646 168.600 C 286.497 196.998,286.469 197.685,284.991 209.000 C 276.885 271.067,226.492 301.771,168.000 280.281 C 164.537 279.009,163.124 278.415,157.600 275.909 C 144.104 269.785,128.939 257.970,117.414 244.600 C 112.682 239.110,110.922 237.622,107.751 236.427 C 95.162 231.683,82.333 244.434,87.162 256.890 C 90.181 264.676,106.593 281.168,122.400 292.298 C 130.279 297.846,146.529 306.823,151.200 308.208 C 151.750 308.371,152.920 308.837,153.800 309.244 C 158.073 311.220,171.311 315.098,179.400 316.745 C 194.318 319.781,213.738 319.782,227.800 316.748 C 264.873 308.747,291.569 286.702,305.991 252.180 C 306.906 249.991,307.820 247.840,308.023 247.400 C 308.467 246.436,311.588 237.092,312.031 235.400 C 314.577 225.663,315.264 222.570,316.562 215.000 C 318.440 204.046,318.884 195.447,319.079 166.200 C 319.253 140.244,319.207 139.332,317.490 134.851 C 314.826 127.896,305.722 123.534,298.578 125.791 "
            stroke="none" fill="#050504" fill-rule="evenodd"></path>
        <path id="path1"
            d="M117.000 5.600 C 112.600 5.760,103.555 5.916,96.900 5.946 C 89.136 5.981,84.800 6.143,84.800 6.400 C 84.800 6.640,83.200 6.800,80.800 6.800 C 78.400 6.800,76.800 6.960,76.800 7.200 C 76.800 7.420,75.922 7.600,74.849 7.600 C 73.603 7.600,72.718 7.817,72.400 8.200 C 72.096 8.566,71.220 8.800,70.151 8.800 C 69.188 8.800,68.400 8.980,68.400 9.200 C 68.400 9.420,67.770 9.600,67.000 9.600 C 66.230 9.600,65.600 9.780,65.600 10.000 C 65.600 10.220,64.891 10.400,64.024 10.400 C 63.157 10.400,62.336 10.580,62.200 10.800 C 62.064 11.020,61.623 11.200,61.219 11.200 C 60.816 11.200,60.382 11.470,60.255 11.800 C 60.121 12.151,59.521 12.400,58.813 12.400 C 58.146 12.400,57.600 12.580,57.600 12.800 C 57.600 13.020,57.251 13.200,56.824 13.200 C 56.397 13.200,55.936 13.380,55.800 13.600 C 55.664 13.820,55.140 14.000,54.635 14.000 C 54.130 14.000,53.231 14.450,52.638 15.000 C 52.044 15.550,51.118 16.000,50.579 16.000 C 50.041 16.000,49.600 16.180,49.600 16.400 C 49.600 16.620,49.330 16.800,49.000 16.800 C 48.670 16.800,48.400 16.980,48.400 17.200 C 48.400 17.420,48.040 17.600,47.600 17.600 C 47.160 17.600,46.800 17.739,46.800 17.909 C 46.800 18.079,46.170 18.557,45.400 18.972 C 44.630 19.387,44.000 19.878,44.000 20.063 C 44.000 20.248,43.640 20.400,43.200 20.400 C 42.760 20.400,42.400 20.580,42.400 20.800 C 42.400 21.020,42.130 21.200,41.800 21.200 C 41.470 21.200,41.200 21.470,41.200 21.800 C 41.200 22.133,40.844 22.400,40.400 22.400 C 39.960 22.400,39.600 22.580,39.600 22.800 C 39.600 23.020,39.412 23.200,39.182 23.200 C 38.639 23.200,36.800 25.039,36.800 25.582 C 36.800 25.812,36.458 26.000,36.040 26.000 C 35.279 26.000,32.400 28.563,32.400 29.240 C 32.400 29.438,32.212 29.600,31.982 29.600 C 31.439 29.600,29.600 31.439,29.600 31.982 C 29.600 32.212,29.455 32.400,29.278 32.400 C 28.554 32.400,26.000 35.169,26.000 35.954 C 26.000 36.419,25.812 36.800,25.582 36.800 C 25.039 36.800,23.200 38.639,23.200 39.182 C 23.200 39.412,23.020 39.600,22.800 39.600 C 22.580 39.600,22.400 39.960,22.400 40.400 C 22.400 40.840,22.195 41.200,21.944 41.200 C 21.378 41.200,20.430 42.409,20.413 43.153 C 20.406 43.457,20.066 43.997,19.657 44.353 C 19.249 44.709,18.787 45.405,18.630 45.900 C 18.474 46.395,18.178 46.800,17.973 46.800 C 17.768 46.800,17.600 47.160,17.600 47.600 C 17.600 48.040,17.420 48.400,17.200 48.400 C 16.980 48.400,16.800 48.670,16.800 49.000 C 16.800 49.330,16.620 49.600,16.400 49.600 C 16.180 49.600,16.000 49.960,16.000 50.400 C 16.000 50.840,15.855 51.200,15.677 51.200 C 15.273 51.200,14.000 54.036,14.000 54.934 C 14.000 55.300,13.820 55.600,13.600 55.600 C 13.380 55.600,13.200 56.050,13.200 56.600 C 13.200 57.150,13.020 57.600,12.800 57.600 C 12.580 57.600,12.400 57.973,12.400 58.429 C 12.400 58.884,12.130 59.527,11.800 59.857 C 11.470 60.187,11.200 60.794,11.200 61.205 C 11.200 61.616,11.020 62.064,10.800 62.200 C 10.580 62.336,10.400 62.966,10.400 63.600 C 10.400 64.234,10.220 64.864,10.000 65.000 C 9.780 65.136,9.600 65.957,9.600 66.824 C 9.600 67.691,9.420 68.400,9.200 68.400 C 8.980 68.400,8.800 69.098,8.800 69.951 C 8.800 70.842,8.545 71.714,8.200 72.000 C 7.803 72.330,7.600 73.225,7.600 74.649 C 7.600 75.832,7.420 76.800,7.200 76.800 C 6.971 76.800,6.800 78.000,6.800 79.600 C 6.800 81.200,6.629 82.400,6.400 82.400 C 5.845 82.400,5.845 317.057,6.400 317.400 C 6.620 317.536,6.800 318.976,6.800 320.600 C 6.800 322.224,6.980 323.664,7.200 323.800 C 7.420 323.936,7.600 325.027,7.600 326.224 C 7.600 327.892,7.740 328.400,8.200 328.400 C 8.643 328.400,8.800 328.864,8.800 330.176 C 8.800 331.153,8.980 332.064,9.200 332.200 C 9.420 332.336,9.600 333.157,9.600 334.024 C 9.600 334.891,9.780 335.600,10.000 335.600 C 10.220 335.600,10.400 336.230,10.400 337.000 C 10.400 337.770,10.580 338.400,10.800 338.400 C 11.020 338.400,11.200 338.837,11.200 339.371 C 11.200 339.906,11.470 340.613,11.800 340.943 C 12.130 341.273,12.400 341.916,12.400 342.371 C 12.400 342.827,12.580 343.200,12.800 343.200 C 13.020 343.200,13.200 343.560,13.200 344.000 C 13.200 344.440,13.380 344.800,13.600 344.800 C 13.820 344.800,14.000 345.254,14.000 345.808 C 14.000 346.362,14.450 347.529,15.000 348.400 C 15.550 349.271,16.000 350.218,16.000 350.504 C 16.000 350.790,16.360 351.283,16.800 351.600 C 17.240 351.917,17.600 352.568,17.600 353.046 C 17.600 353.523,17.870 354.018,18.200 354.145 C 18.530 354.271,18.800 354.651,18.800 354.987 C 18.800 355.324,18.980 355.600,19.200 355.600 C 19.420 355.600,19.600 355.870,19.600 356.200 C 19.600 356.530,19.780 356.800,20.000 356.800 C 20.220 356.800,20.400 357.094,20.400 357.454 C 20.400 357.814,20.805 358.490,21.300 358.957 C 21.795 359.424,22.455 360.300,22.768 360.903 C 23.080 361.506,23.485 362.000,23.668 362.000 C 23.850 362.000,24.000 362.193,24.000 362.429 C 24.000 362.982,25.018 364.000,25.571 364.000 C 25.807 364.000,26.000 364.360,26.000 364.800 C 26.000 365.240,26.180 365.600,26.400 365.600 C 26.620 365.600,26.800 365.793,26.800 366.029 C 26.800 366.489,27.783 367.600,28.190 367.600 C 28.511 367.600,30.400 369.489,30.400 369.810 C 30.400 370.149,31.478 371.200,31.825 371.200 C 32.178 371.200,33.999 373.293,34.000 373.700 C 34.000 373.865,34.315 374.000,34.700 374.000 C 35.423 374.001,37.600 375.654,37.600 376.202 C 37.600 376.667,38.915 377.573,39.612 377.587 C 39.948 377.594,40.483 377.960,40.800 378.400 C 41.117 378.840,41.607 379.200,41.888 379.200 C 42.170 379.200,42.400 379.470,42.400 379.800 C 42.400 380.133,42.756 380.400,43.200 380.400 C 43.640 380.400,44.000 380.580,44.000 380.800 C 44.000 381.020,44.270 381.200,44.600 381.200 C 44.930 381.200,45.200 381.380,45.200 381.600 C 45.200 381.820,45.541 382.000,45.957 382.000 C 46.374 382.000,46.818 382.270,46.945 382.600 C 47.071 382.930,47.451 383.200,47.787 383.200 C 48.124 383.200,48.400 383.380,48.400 383.600 C 48.400 383.820,48.850 384.000,49.400 384.000 C 49.950 384.000,50.400 384.180,50.400 384.400 C 50.400 384.620,50.760 384.800,51.200 384.800 C 51.640 384.800,52.000 384.980,52.000 385.200 C 52.000 385.420,52.450 385.600,53.000 385.600 C 53.622 385.600,54.000 385.827,54.000 386.200 C 54.000 386.573,54.378 386.800,55.000 386.800 C 55.550 386.800,56.000 386.980,56.000 387.200 C 56.000 387.420,56.360 387.600,56.800 387.600 C 57.240 387.600,57.600 387.780,57.600 388.000 C 57.600 388.220,58.230 388.400,59.000 388.400 C 59.770 388.400,60.400 388.580,60.400 388.800 C 60.400 389.020,61.030 389.200,61.800 389.200 C 62.778 389.200,63.200 389.381,63.200 389.800 C 63.200 390.197,63.597 390.400,64.376 390.400 C 65.023 390.400,65.664 390.580,65.800 390.800 C 65.936 391.020,66.566 391.200,67.200 391.200 C 67.834 391.200,68.464 391.380,68.600 391.600 C 68.736 391.820,69.546 392.000,70.400 392.000 C 71.254 392.000,72.064 392.180,72.200 392.400 C 72.336 392.620,73.382 392.806,74.524 392.813 C 75.711 392.820,76.932 393.077,77.376 393.413 C 77.913 393.819,79.171 394.000,81.453 394.000 C 83.268 394.000,84.864 394.180,85.000 394.400 C 85.343 394.955,316.000 394.955,316.000 394.400 C 316.000 394.167,317.324 394.000,319.171 394.000 C 321.457 394.000,322.510 393.832,322.943 393.400 C 323.354 392.988,324.368 392.800,326.171 392.800 C 327.657 392.800,328.800 392.626,328.800 392.400 C 328.800 392.180,329.610 392.000,330.600 392.000 C 331.590 392.000,332.400 391.820,332.400 391.600 C 332.400 391.380,333.030 391.200,333.800 391.200 C 334.570 391.200,335.200 391.020,335.200 390.800 C 335.200 390.580,335.746 390.400,336.413 390.400 C 337.121 390.400,337.721 390.151,337.855 389.800 C 337.985 389.462,338.581 389.200,339.219 389.200 C 339.843 389.200,340.464 389.020,340.600 388.800 C 340.736 388.580,341.377 388.400,342.024 388.400 C 342.671 388.400,343.200 388.220,343.200 388.000 C 343.200 387.780,343.650 387.600,344.200 387.600 C 344.750 387.600,345.200 387.420,345.200 387.200 C 345.200 386.980,345.547 386.800,345.971 386.800 C 346.396 386.800,347.013 386.530,347.343 386.200 C 347.673 385.870,348.136 385.600,348.371 385.600 C 348.607 385.600,348.800 385.420,348.800 385.200 C 348.800 384.980,349.124 384.800,349.520 384.800 C 350.414 384.800,352.393 383.906,352.397 383.500 C 352.399 383.335,352.676 383.200,353.013 383.200 C 353.349 383.200,353.729 382.930,353.855 382.600 C 353.982 382.270,354.477 382.000,354.954 382.000 C 355.432 382.000,356.083 381.640,356.400 381.200 C 356.717 380.760,357.225 380.400,357.528 380.400 C 357.832 380.400,358.710 379.770,359.480 379.000 C 360.250 378.230,361.145 377.600,361.469 377.600 C 362.061 377.600,363.200 376.679,363.200 376.200 C 363.200 375.731,364.334 374.800,364.905 374.800 C 365.424 374.800,374.000 366.675,374.000 366.184 C 374.000 365.939,374.579 365.211,375.900 363.799 C 376.395 363.270,376.800 362.648,376.800 362.418 C 376.800 362.188,376.980 362.000,377.200 362.000 C 377.420 362.000,377.600 361.755,377.600 361.456 C 377.600 361.157,378.050 360.574,378.600 360.161 C 379.150 359.748,379.600 359.183,379.600 358.905 C 379.600 358.627,379.780 358.400,380.000 358.400 C 380.220 358.400,380.400 358.121,380.400 357.781 C 380.400 357.440,380.850 356.745,381.400 356.235 C 381.950 355.725,382.400 355.014,382.400 354.654 C 382.400 354.294,382.580 354.000,382.800 354.000 C 383.020 354.000,383.200 353.590,383.200 353.088 C 383.200 352.587,383.545 351.928,383.966 351.624 C 384.387 351.321,385.054 350.291,385.448 349.336 C 385.842 348.381,386.307 347.600,386.482 347.600 C 386.657 347.600,386.800 346.970,386.800 346.200 C 386.800 345.430,386.980 344.800,387.200 344.800 C 387.420 344.800,387.600 344.459,387.600 344.043 C 387.600 343.626,387.870 343.182,388.200 343.055 C 388.551 342.921,388.800 342.321,388.800 341.613 C 388.800 340.946,388.980 340.400,389.200 340.400 C 389.420 340.400,389.600 339.950,389.600 339.400 C 389.600 338.850,389.780 338.400,390.000 338.400 C 390.220 338.400,390.400 337.770,390.400 337.000 C 390.400 336.230,390.580 335.600,390.800 335.600 C 391.020 335.600,391.200 334.874,391.200 333.987 C 391.200 332.923,391.404 332.297,391.800 332.145 C 392.207 331.988,392.400 331.350,392.400 330.157 C 392.400 329.191,392.580 328.400,392.800 328.400 C 393.020 328.400,393.200 327.410,393.200 326.200 C 393.200 324.990,393.380 324.000,393.600 324.000 C 393.833 324.000,394.000 322.667,394.000 320.800 C 394.000 319.040,394.159 317.600,394.354 317.600 C 395.118 317.600,395.180 309.739,395.265 201.000 C 395.347 95.546,395.246 82.400,394.353 82.400 C 394.159 82.400,394.000 81.140,394.000 79.600 C 394.000 78.000,393.829 76.800,393.600 76.800 C 393.380 76.800,393.200 75.821,393.200 74.624 C 393.200 73.427,393.020 72.336,392.800 72.200 C 392.580 72.064,392.400 71.175,392.400 70.225 C 392.400 69.178,392.164 68.302,391.800 68.000 C 391.470 67.726,391.200 66.894,391.200 66.151 C 391.200 65.408,391.020 64.800,390.800 64.800 C 390.580 64.800,390.400 64.170,390.400 63.400 C 390.400 62.630,390.220 62.000,390.000 62.000 C 389.780 62.000,389.600 61.651,389.600 61.224 C 389.600 60.797,389.420 60.336,389.200 60.200 C 388.980 60.064,388.800 59.508,388.800 58.964 C 388.800 58.420,388.530 57.871,388.200 57.745 C 387.870 57.618,387.600 57.084,387.600 56.557 C 387.600 56.031,387.420 55.600,387.200 55.600 C 386.980 55.600,386.800 55.060,386.800 54.400 C 386.800 53.740,386.620 53.200,386.400 53.200 C 386.180 53.200,386.000 52.945,386.000 52.632 C 386.000 51.919,384.702 49.606,384.300 49.603 C 384.135 49.601,384.000 49.330,384.000 49.000 C 384.000 48.670,383.820 48.400,383.600 48.400 C 383.380 48.400,383.200 48.040,383.200 47.600 C 383.200 47.160,383.020 46.800,382.800 46.800 C 382.580 46.800,382.400 46.465,382.400 46.055 C 382.400 45.645,381.991 44.880,381.491 44.355 C 380.992 43.830,380.331 42.905,380.024 42.300 C 379.716 41.695,379.315 41.200,379.132 41.200 C 378.950 41.200,378.800 40.924,378.800 40.587 C 378.800 40.251,378.530 39.871,378.200 39.745 C 377.870 39.618,377.600 39.336,377.600 39.118 C 377.600 38.899,377.060 38.217,376.400 37.600 C 375.740 36.983,375.200 36.276,375.200 36.028 C 375.200 35.209,365.655 26.000,364.805 26.000 C 364.362 26.000,364.000 25.812,364.000 25.582 C 364.000 25.039,362.161 23.200,361.618 23.200 C 361.388 23.200,361.200 23.020,361.200 22.800 C 361.200 22.580,360.840 22.400,360.400 22.400 C 359.960 22.400,359.600 22.207,359.600 21.971 C 359.600 21.315,358.538 20.400,357.775 20.400 C 357.401 20.400,356.803 20.066,356.447 19.657 C 356.091 19.249,355.395 18.787,354.900 18.630 C 354.405 18.474,354.000 18.178,354.000 17.973 C 354.000 17.768,353.640 17.600,353.200 17.600 C 352.760 17.600,352.400 17.420,352.400 17.200 C 352.400 16.980,352.130 16.800,351.800 16.800 C 351.470 16.800,351.200 16.620,351.200 16.400 C 351.200 16.180,350.862 16.000,350.449 16.000 C 350.036 16.000,349.474 15.730,349.200 15.400 C 348.926 15.070,348.454 14.800,348.151 14.800 C 347.848 14.800,347.600 14.620,347.600 14.400 C 347.600 14.180,347.251 14.000,346.824 14.000 C 346.397 14.000,345.936 13.820,345.800 13.600 C 345.664 13.380,345.023 13.200,344.376 13.200 C 343.729 13.200,343.200 13.020,343.200 12.800 C 343.200 12.580,342.772 12.400,342.249 12.400 C 341.726 12.400,341.074 12.130,340.800 11.800 C 340.526 11.470,339.964 11.200,339.551 11.200 C 339.138 11.200,338.800 11.020,338.800 10.800 C 338.800 10.580,338.181 10.400,337.424 10.400 C 336.667 10.400,335.936 10.220,335.800 10.000 C 335.664 9.780,334.944 9.600,334.200 9.600 C 333.456 9.600,332.736 9.420,332.600 9.200 C 332.464 8.980,331.573 8.800,330.619 8.800 C 329.447 8.800,328.811 8.606,328.655 8.200 C 328.489 7.767,327.810 7.600,326.213 7.600 C 324.996 7.600,324.000 7.420,324.000 7.200 C 324.000 6.965,322.608 6.800,320.624 6.800 C 318.767 6.800,317.153 6.647,317.037 6.460 C 316.630 5.801,133.124 5.012,117.000 5.600 M108.661 126.061 C 112.964 127.663,116.457 131.383,117.959 135.966 C 119.235 139.861,119.235 159.741,117.958 163.634 C 113.545 177.088,95.087 178.683,88.635 166.168 C 85.550 160.184,85.456 139.796,88.486 133.707 C 92.087 126.471,100.844 123.152,108.661 126.061 M306.840 125.632 C 311.720 127.183,315.959 130.852,317.490 134.851 C 319.207 139.332,319.253 140.244,319.079 166.200 C 318.884 195.447,318.440 204.046,316.562 215.000 C 315.264 222.570,314.577 225.663,312.031 235.400 C 311.588 237.092,308.467 246.436,308.023 247.400 C 307.820 247.840,306.906 249.991,305.991 252.180 C 291.569 286.702,264.873 308.747,227.800 316.748 C 213.738 319.782,194.318 319.781,179.400 316.745 C 171.311 315.098,158.073 311.220,153.800 309.244 C 152.920 308.837,151.750 308.371,151.200 308.208 C 146.529 306.823,130.279 297.846,122.400 292.298 C 106.593 281.168,90.181 264.676,87.162 256.890 C 82.333 244.434,95.162 231.683,107.751 236.427 C 110.922 237.622,112.682 239.110,117.414 244.600 C 125.918 254.466,134.580 262.075,144.800 268.655 C 148.947 271.325,154.763 274.622,157.600 275.909 C 163.124 278.415,164.537 279.009,168.000 280.281 C 226.492 301.771,276.885 271.067,284.991 209.000 C 286.469 197.685,286.497 196.998,286.646 168.600 C 286.806 138.059,286.843 137.495,288.933 133.472 C 292.073 127.424,300.656 123.667,306.840 125.632 "
            stroke="none" fill="#fbec34" fill-rule="evenodd"></path>
    </g>
</svg>