<svg id="svg" version="1.1" xmlns="http://www.w3.org/2000/svg" xmlns:xlink="http://www.w3.org/1999/xlink" width="400" height="405.16129032258067" viewBox="0, 0, 400,405.16129032258067"><g id="svgg"><path id="path0" d="M106.147 43.098 C 105.959 43.484,105.751 51.640,105.684 61.222 C 105.545 80.989,105.517 80.800,108.629 80.800 C 111.275 80.800,111.600 81.606,111.600 88.167 C 111.600 96.039,110.399 95.200,121.663 95.200 C 132.069 95.200,133.001 95.366,133.922 97.389 C 134.289 98.194,134.400 123.505,134.400 206.209 L 134.400 313.979 133.220 314.590 C 132.236 315.098,129.968 315.200,119.594 315.200 C 111.779 315.200,106.859 315.354,106.374 315.614 C 105.626 316.014,105.600 316.641,105.600 333.952 C 105.600 354.049,105.472 353.200,108.502 353.200 C 111.188 353.200,111.600 354.286,111.600 361.374 C 111.600 365.559,111.749 367.589,112.080 367.920 C 112.449 368.289,125.118 368.400,166.672 368.400 L 220.785 368.400 221.003 367.500 C 221.123 367.005,221.172 356.790,221.111 344.800 L 221.000 323.000 214.220 322.890 C 206.008 322.757,206.000 322.753,206.000 318.818 C 206.000 315.128,206.153 315.200,198.382 315.200 C 192.440 315.200,191.653 315.121,191.062 314.469 C 190.339 313.670,190.019 228.420,190.734 227.293 C 191.476 226.124,194.346 226.000,220.997 225.979 C 248.285 225.959,251.443 225.836,255.696 224.629 C 256.959 224.270,260.019 223.824,262.496 223.638 C 265.914 223.381,267.341 223.097,268.412 222.462 C 269.189 222.001,270.994 221.379,272.423 221.080 C 273.853 220.780,275.469 220.242,276.016 219.884 C 276.563 219.526,278.255 218.944,279.778 218.591 C 281.374 218.220,283.035 217.536,283.703 216.974 C 284.478 216.322,285.356 216.000,286.356 216.000 C 287.481 216.000,288.124 215.715,288.956 214.846 C 289.643 214.128,290.652 213.598,291.624 213.443 C 292.661 213.277,293.401 212.865,293.826 212.217 C 294.178 211.680,295.054 211.046,295.774 210.809 C 296.494 210.571,297.500 209.932,298.011 209.388 C 298.522 208.845,299.262 208.400,299.656 208.400 C 300.051 208.400,301.002 207.815,301.770 207.100 C 304.189 204.849,305.869 203.614,307.358 202.992 C 308.151 202.660,308.800 202.113,308.800 201.776 C 308.800 201.439,309.309 200.870,309.932 200.513 C 310.554 200.156,311.356 199.354,311.713 198.732 C 312.070 198.109,312.646 197.600,312.991 197.600 C 313.337 197.600,313.792 197.148,314.002 196.595 C 314.212 196.042,314.834 195.385,315.384 195.134 C 315.934 194.884,316.494 194.335,316.627 193.915 C 316.760 193.495,317.295 192.957,317.815 192.720 C 318.335 192.484,318.925 191.820,319.126 191.245 C 319.503 190.168,321.579 187.365,323.311 185.594 C 323.852 185.041,324.416 184.038,324.564 183.366 C 324.711 182.693,325.365 181.560,326.016 180.847 C 326.667 180.134,327.200 179.283,327.200 178.956 C 327.200 178.629,327.630 177.963,328.156 177.475 C 328.682 176.988,329.395 175.640,329.739 174.479 C 330.084 173.319,330.724 171.914,331.163 171.357 C 331.601 170.799,332.080 169.540,332.227 168.558 C 332.375 167.575,332.920 166.145,333.440 165.379 C 334.133 164.358,334.503 163.000,334.827 160.293 C 335.070 158.262,335.514 156.150,335.814 155.600 C 337.137 153.171,337.247 152.306,337.465 142.623 C 337.731 130.791,337.211 122.524,335.981 119.035 C 335.522 117.734,335.002 115.394,334.824 113.835 C 334.641 112.222,334.148 110.396,333.682 109.600 C 333.230 108.830,332.667 107.129,332.429 105.820 C 332.192 104.510,331.567 102.800,331.042 102.020 C 330.516 101.239,329.861 99.880,329.585 99.000 C 329.310 98.120,328.683 96.918,328.192 96.329 C 327.701 95.739,327.184 94.639,327.042 93.884 C 326.900 93.128,326.435 92.193,326.007 91.807 C 325.580 91.420,325.034 90.510,324.795 89.784 C 324.555 89.059,323.928 88.183,323.400 87.837 C 322.873 87.491,322.082 86.397,321.643 85.404 C 321.204 84.412,320.652 83.600,320.416 83.600 C 320.180 83.600,319.704 83.006,319.357 82.279 C 319.011 81.553,318.339 80.788,317.864 80.579 C 317.389 80.371,316.836 79.827,316.635 79.370 C 316.435 78.914,315.760 78.247,315.135 77.889 C 314.511 77.530,314.000 76.988,314.000 76.683 C 314.000 76.378,313.547 75.922,312.994 75.670 C 312.441 75.418,311.799 74.797,311.568 74.289 C 311.337 73.782,310.755 73.195,310.274 72.984 C 309.793 72.773,309.222 72.195,309.005 71.700 C 308.788 71.204,308.045 70.613,307.353 70.385 C 306.662 70.157,305.760 69.598,305.348 69.142 C 304.937 68.687,303.916 67.966,303.081 67.539 C 302.245 67.113,301.465 66.513,301.347 66.206 C 301.229 65.900,300.653 65.543,300.067 65.414 C 299.480 65.286,298.210 64.555,297.244 63.790 C 296.278 63.026,295.080 62.400,294.582 62.400 C 294.083 62.400,292.922 61.770,292.000 61.000 C 291.078 60.230,290.099 59.600,289.824 59.600 C 289.549 59.600,288.992 59.233,288.587 58.785 C 288.181 58.337,287.071 57.627,286.120 57.206 C 285.169 56.785,284.289 56.176,284.165 55.853 C 284.041 55.530,283.072 55.057,282.011 54.803 C 280.951 54.548,279.685 53.916,279.198 53.398 C 278.711 52.880,277.615 52.338,276.762 52.194 C 275.909 52.049,274.606 51.521,273.866 51.019 C 273.127 50.518,271.393 49.908,270.014 49.665 C 268.634 49.422,266.852 48.835,266.053 48.360 C 265.207 47.857,263.144 47.277,261.115 46.971 C 258.837 46.628,257.231 46.151,256.480 45.596 C 255.474 44.852,254.484 44.699,248.565 44.370 C 244.844 44.163,241.530 43.883,241.200 43.748 C 237.962 42.423,106.780 41.791,106.147 43.098 M132.181 81.366 C 134.748 82.439,135.562 88.820,133.318 90.291 C 131.702 91.350,118.700 91.350,117.083 90.291 C 115.691 89.379,115.414 83.454,116.708 82.283 C 118.423 80.731,129.141 80.096,132.181 81.366 M227.976 81.193 C 229.199 81.409,233.455 81.734,237.433 81.914 C 243.932 82.209,244.825 82.336,246.230 83.165 C 247.091 83.673,248.924 84.248,250.305 84.443 C 251.793 84.654,253.424 85.197,254.308 85.775 C 255.129 86.312,256.305 86.874,256.923 87.025 C 257.541 87.175,258.308 87.698,258.629 88.187 C 258.949 88.677,259.891 89.280,260.722 89.529 C 261.553 89.778,262.754 90.526,263.391 91.191 C 264.028 91.856,264.780 92.400,265.061 92.400 C 265.740 92.400,266.400 93.690,266.400 95.019 L 266.400 96.090 263.617 95.933 C 261.491 95.813,260.535 95.554,259.566 94.838 C 258.551 94.087,257.373 93.797,253.649 93.378 C 251.092 93.091,248.055 92.663,246.900 92.428 C 245.745 92.193,243.886 91.820,242.769 91.600 C 241.537 91.357,230.062 91.200,213.569 91.200 L 186.400 91.200 186.400 131.581 C 186.400 160.926,186.276 172.236,185.945 172.962 C 184.716 175.657,179.565 176.059,177.153 173.647 L 175.600 172.094 175.600 127.719 L 175.600 83.343 177.300 82.087 L 179.000 80.832 202.376 80.816 C 215.990 80.807,226.681 80.964,227.976 81.193 M317.368 87.661 C 317.790 88.436,318.510 89.233,318.966 89.434 C 319.423 89.636,320.045 90.340,320.349 91.000 C 320.653 91.660,321.312 92.650,321.813 93.200 C 322.315 93.750,322.912 94.890,323.139 95.733 C 323.367 96.576,323.985 97.665,324.513 98.155 C 325.096 98.695,325.582 99.725,325.751 100.781 C 325.903 101.736,326.459 103.030,326.985 103.655 C 327.531 104.303,328.134 105.782,328.390 107.096 C 328.637 108.363,329.230 110.120,329.707 111.000 C 330.264 112.027,330.744 114.006,331.048 116.525 C 331.356 119.081,331.754 120.707,332.188 121.187 C 334.380 123.609,334.059 150.670,331.797 154.157 C 331.496 154.620,331.123 156.588,330.968 158.529 C 330.749 161.268,330.474 162.369,329.739 163.451 C 329.219 164.218,328.605 165.690,328.375 166.723 C 328.144 167.755,327.593 169.218,327.148 169.973 C 326.704 170.728,326.066 172.168,325.730 173.173 C 325.394 174.178,324.807 175.360,324.424 175.800 C 324.042 176.240,323.504 177.172,323.228 177.871 C 322.952 178.570,322.364 179.470,321.921 179.871 C 321.478 180.272,320.766 181.284,320.339 182.119 C 319.913 182.955,319.302 183.739,318.982 183.862 C 318.662 183.985,318.400 184.319,318.400 184.605 C 318.400 184.891,317.770 185.878,317.000 186.800 C 316.230 187.722,315.600 188.620,315.600 188.796 C 315.600 189.238,309.010 195.845,306.619 197.800 C 305.543 198.680,303.996 199.985,303.183 200.700 C 302.369 201.415,301.504 202.000,301.261 202.000 C 301.017 202.000,300.535 202.433,300.188 202.962 C 299.842 203.491,299.131 204.031,298.610 204.162 C 298.088 204.293,297.124 204.852,296.467 205.405 C 295.809 205.958,294.625 206.681,293.836 207.011 C 293.046 207.341,292.400 207.795,292.400 208.020 C 292.400 208.244,291.567 208.786,290.548 209.222 C 289.530 209.659,288.193 210.440,287.577 210.958 C 286.935 211.498,285.634 212.022,284.528 212.184 C 283.468 212.341,282.208 212.832,281.729 213.277 C 281.245 213.725,279.648 214.339,278.142 214.655 C 276.648 214.968,275.053 215.574,274.598 216.002 C 274.074 216.494,272.776 216.920,271.058 217.163 C 269.566 217.375,268.111 217.742,267.824 217.980 C 266.762 218.861,263.066 219.640,258.301 219.987 C 255.315 220.204,252.697 220.623,251.600 221.059 C 249.936 221.720,247.427 221.784,218.408 221.911 C 194.720 222.015,186.943 222.166,186.715 222.524 C 186.548 222.786,186.409 243.416,186.406 268.369 C 186.401 310.018,186.346 313.797,185.738 314.469 C 184.707 315.607,178.133 315.534,176.649 314.367 L 175.591 313.535 175.695 263.376 L 175.800 213.218 176.909 212.109 L 178.017 211.000 212.109 210.797 L 246.200 210.595 248.044 209.559 C 249.491 208.746,250.693 208.462,253.641 208.240 C 256.685 208.010,257.568 207.794,258.309 207.098 C 258.968 206.478,260.175 206.100,262.628 205.741 C 265.193 205.367,266.323 205.000,267.212 204.251 C 267.994 203.593,269.124 203.167,270.566 202.987 C 272.084 202.797,273.004 202.435,273.614 201.785 C 274.094 201.274,275.197 200.736,276.064 200.589 C 276.931 200.443,277.856 200.064,278.120 199.748 C 279.365 198.255,279.719 198.014,281.030 197.768 C 281.802 197.623,282.948 197.031,283.577 196.452 C 285.874 194.338,288.041 192.855,289.210 192.598 C 289.868 192.453,290.599 191.975,290.834 191.536 C 291.070 191.096,291.763 190.562,292.376 190.348 C 292.988 190.135,293.691 189.519,293.936 188.980 C 294.182 188.441,294.576 188.000,294.813 188.000 C 295.352 188.000,304.400 178.985,304.400 178.448 C 304.400 178.231,304.745 177.944,305.167 177.811 C 305.588 177.677,306.114 177.048,306.335 176.413 C 306.557 175.779,307.185 174.966,307.731 174.609 C 308.277 174.251,308.827 173.547,308.953 173.045 C 309.079 172.543,309.726 171.448,310.391 170.611 C 311.056 169.775,311.600 168.835,311.600 168.522 C 311.600 168.210,312.121 167.470,312.757 166.877 C 313.393 166.285,314.039 165.211,314.191 164.490 C 314.343 163.770,314.886 162.683,315.398 162.075 C 315.933 161.439,316.510 159.986,316.757 158.652 C 317.018 157.240,317.579 155.865,318.193 155.136 C 318.797 154.417,319.204 153.431,319.210 152.669 C 319.225 150.657,319.961 147.979,320.835 146.751 C 323.275 143.324,323.147 110.151,320.675 105.503 C 320.080 104.384,319.591 102.605,319.419 100.935 C 319.218 98.985,318.842 97.768,318.109 96.693 C 317.445 95.719,317.015 94.445,316.894 93.093 C 316.762 91.626,316.424 90.697,315.761 89.987 C 314.917 89.081,314.861 88.813,315.234 87.462 C 315.728 85.673,316.313 85.727,317.368 87.661 M239.989 95.622 C 244.001 95.876,246.686 96.216,246.855 96.490 C 247.015 96.747,249.026 97.064,251.567 97.232 C 255.216 97.473,256.302 97.699,257.700 98.510 C 258.635 99.052,260.298 99.626,261.395 99.786 C 263.537 100.099,265.600 100.986,265.600 101.595 C 265.600 101.801,266.299 102.157,267.153 102.387 C 268.008 102.618,268.941 103.088,269.227 103.432 C 269.513 103.777,270.389 104.388,271.173 104.792 C 273.696 106.088,276.361 109.623,276.825 112.286 C 277.047 113.559,277.627 115.320,278.114 116.200 C 279.472 118.653,279.471 134.809,278.113 137.828 C 277.624 138.913,277.056 141.303,276.850 143.139 C 276.548 145.824,276.281 146.686,275.486 147.539 C 274.942 148.123,274.373 149.295,274.222 150.143 C 274.071 150.992,273.536 152.072,273.033 152.543 C 272.530 153.015,271.901 154.066,271.635 154.880 C 271.083 156.568,264.208 163.747,261.476 165.488 C 260.554 166.076,259.440 166.857,259.000 167.226 C 258.560 167.594,257.736 168.004,257.169 168.138 C 256.602 168.271,255.656 168.827,255.068 169.372 C 254.479 169.918,253.323 170.482,252.499 170.627 C 251.674 170.771,250.224 171.333,249.275 171.876 C 247.609 172.829,240.951 173.951,236.749 173.988 C 235.951 173.994,235.074 174.270,234.800 174.600 C 234.209 175.313,194.487 175.517,192.645 174.817 C 190.317 173.932,190.400 175.399,190.400 135.246 C 190.400 97.873,190.440 96.804,191.894 95.700 C 192.736 95.061,230.185 95.000,239.989 95.622 M267.500 97.033 C 267.119 97.415,266.355 96.797,266.639 96.338 C 266.807 96.064,267.031 96.071,267.318 96.358 C 267.554 96.594,267.636 96.898,267.500 97.033 M215.196 327.501 C 216.409 328.109,216.634 328.457,216.918 330.176 C 217.328 332.659,217.102 361.565,216.665 362.463 C 215.812 364.219,216.359 364.200,166.129 364.200 L 118.459 364.200 117.329 363.358 C 116.275 362.572,116.192 362.303,116.084 359.289 L 115.969 356.061 117.842 354.630 L 119.715 353.200 162.443 353.200 C 204.278 353.200,205.181 353.184,205.586 352.426 C 205.844 351.944,206.000 347.276,206.000 340.026 C 206.000 326.094,205.749 326.800,210.700 326.801 C 212.851 326.801,214.227 327.015,215.196 327.501 " stroke="none" fill="#0e45ac" fill-rule="evenodd"></path><path id="path1" d="M0.000 202.400 L 0.000 404.800 200.000 404.800 L 400.000 404.800 400.000 202.400 L 400.000 0.000 200.000 0.000 L 0.000 0.000 0.000 202.400 M237.600 40.775 C 244.100 41.031,246.640 41.281,248.000 41.799 C 248.990 42.175,251.150 42.645,252.800 42.842 C 257.816 43.443,260.530 44.014,262.044 44.789 C 262.838 45.196,264.509 45.656,265.758 45.812 C 267.110 45.981,268.604 46.485,269.447 47.058 C 270.290 47.630,271.838 48.153,273.264 48.348 C 275.045 48.592,275.903 48.935,276.595 49.681 C 277.140 50.269,278.174 50.790,279.087 50.935 C 279.978 51.078,281.041 51.605,281.567 52.165 C 282.097 52.729,283.175 53.261,284.108 53.418 C 284.999 53.569,286.159 54.123,286.686 54.650 C 287.213 55.177,288.285 55.875,289.068 56.203 C 289.851 56.530,291.094 57.293,291.831 57.899 C 294.738 60.288,295.545 60.775,297.363 61.233 C 298.513 61.522,299.483 62.060,299.841 62.607 C 300.165 63.102,300.924 63.605,301.527 63.725 C 302.130 63.846,303.119 64.404,303.725 64.965 C 304.330 65.526,305.225 66.198,305.713 66.457 C 306.201 66.717,307.050 67.355,307.600 67.877 C 310.412 70.543,311.662 71.600,312.003 71.600 C 312.210 71.600,312.659 72.140,313.000 72.800 C 313.341 73.460,313.841 74.005,314.110 74.011 C 314.834 74.027,317.477 76.602,318.196 77.992 C 318.540 78.657,319.081 79.200,319.400 79.200 C 319.719 79.200,320.256 79.735,320.594 80.388 C 320.932 81.042,321.552 81.760,321.972 81.985 C 322.392 82.210,322.944 83.025,323.199 83.797 C 323.454 84.569,323.826 85.200,324.025 85.200 C 324.225 85.200,324.886 85.960,325.494 86.889 C 326.102 87.818,326.906 88.888,327.279 89.268 C 327.652 89.647,328.163 90.732,328.415 91.679 C 328.666 92.626,329.209 93.765,329.622 94.211 C 330.035 94.658,330.645 95.794,330.978 96.737 C 331.311 97.680,331.941 98.907,332.379 99.464 C 332.816 100.020,333.384 101.539,333.639 102.838 C 333.895 104.137,334.254 105.200,334.438 105.200 C 335.104 105.200,335.747 107.072,336.256 110.501 C 336.592 112.754,337.071 114.399,337.601 115.116 C 338.308 116.073,338.478 117.154,338.797 122.756 C 339.011 126.499,339.365 129.516,339.627 129.832 C 340.260 130.596,340.267 144.753,339.634 145.936 C 339.380 146.412,338.999 149.212,338.789 152.160 C 338.380 157.883,338.252 158.494,337.165 159.912 C 336.725 160.486,336.360 161.959,336.179 163.884 C 335.947 166.365,335.708 167.128,334.918 167.918 C 334.265 168.572,333.806 169.676,333.525 171.272 C 333.283 172.642,332.726 174.107,332.211 174.725 C 331.719 175.316,331.095 176.476,330.826 177.303 C 330.556 178.130,330.023 178.974,329.640 179.179 C 329.257 179.383,328.699 180.295,328.399 181.204 C 328.098 182.114,327.546 183.073,327.171 183.335 C 326.796 183.598,326.189 184.530,325.823 185.407 C 325.457 186.283,324.739 187.450,324.228 188.000 C 323.716 188.550,323.067 189.450,322.785 190.000 C 322.504 190.550,321.942 191.235,321.537 191.523 C 321.131 191.810,320.800 192.314,320.800 192.641 C 320.800 192.969,320.291 193.530,319.668 193.887 C 319.046 194.244,318.244 195.046,317.887 195.668 C 317.530 196.291,316.954 196.800,316.609 196.800 C 316.263 196.800,315.808 197.252,315.598 197.805 C 315.388 198.358,314.766 199.015,314.216 199.266 C 313.666 199.516,313.109 200.056,312.979 200.465 C 312.850 200.874,312.239 201.470,311.622 201.788 C 311.006 202.107,310.406 202.733,310.290 203.179 C 310.173 203.625,309.605 204.170,309.028 204.389 C 308.452 204.609,307.877 205.054,307.753 205.379 C 307.628 205.704,307.191 206.076,306.781 206.206 C 306.371 206.336,305.176 207.153,304.125 208.021 C 303.074 208.890,301.901 209.600,301.517 209.600 C 301.133 209.600,300.532 210.037,300.183 210.570 C 299.833 211.104,298.996 211.732,298.322 211.967 C 297.648 212.202,296.642 212.849,296.086 213.405 C 295.530 213.961,294.608 214.530,294.037 214.669 C 293.467 214.808,292.493 215.343,291.873 215.857 C 291.254 216.372,289.784 217.073,288.607 217.415 C 287.430 217.757,286.263 218.283,286.014 218.583 C 285.764 218.884,284.624 219.345,283.480 219.608 C 282.336 219.872,280.768 220.512,279.996 221.032 C 279.126 221.616,277.546 222.124,275.846 222.365 C 273.983 222.629,272.808 223.029,272.189 223.610 C 271.495 224.262,270.333 224.592,267.338 224.988 C 265.172 225.275,262.230 225.935,260.800 226.455 L 258.200 227.400 225.600 227.615 C 207.670 227.733,192.954 227.868,192.898 227.915 C 192.842 227.962,192.842 247.215,192.898 270.700 L 193.000 313.400 199.738 313.600 L 206.477 313.800 207.436 315.000 C 208.004 315.710,208.397 316.730,208.398 317.500 C 208.402 320.026,209.296 320.400,215.330 320.400 C 220.543 320.400,220.682 320.423,221.630 321.432 L 222.600 322.465 222.600 345.732 C 222.600 367.789,222.561 369.057,221.853 370.101 L 221.106 371.203 166.496 371.101 L 111.886 371.000 111.043 369.872 C 110.288 368.862,110.186 368.102,110.065 362.625 L 109.930 356.507 107.547 356.258 C 102.556 355.736,102.800 356.872,102.800 334.183 L 102.800 315.218 103.882 314.509 C 104.850 313.874,106.331 313.787,118.082 313.671 L 131.201 313.542 131.101 206.071 L 131.000 98.600 121.443 98.400 L 111.885 98.200 111.057 97.091 C 110.321 96.104,110.212 95.280,110.068 89.645 L 109.907 83.308 107.054 83.071 C 102.458 82.688,102.800 84.412,102.800 61.618 C 102.800 39.858,102.641 41.049,105.600 40.695 C 108.335 40.369,229.145 40.442,237.600 40.775 M119.300 83.459 C 118.408 83.829,118.641 88.687,119.574 89.186 C 120.488 89.675,129.966 89.736,130.720 89.258 C 131.085 89.027,131.204 88.105,131.120 86.164 L 131.000 83.400 125.400 83.326 C 122.320 83.285,119.575 83.345,119.300 83.459 M178.684 83.450 C 178.151 83.982,178.345 171.385,178.880 171.920 C 179.490 172.530,181.658 172.539,182.981 171.936 L 184.000 171.472 184.000 131.406 L 184.000 91.339 184.926 90.470 L 185.852 89.600 217.426 89.623 C 247.686 89.645,249.117 89.679,251.800 90.441 C 256.266 91.709,259.593 92.335,259.829 91.952 C 260.196 91.359,259.603 90.800,258.605 90.800 C 258.073 90.800,257.316 90.365,256.877 89.808 C 256.367 89.159,255.282 88.604,253.748 88.206 C 252.457 87.870,250.935 87.254,250.366 86.835 C 249.798 86.417,248.268 85.943,246.966 85.783 C 245.665 85.623,243.790 85.248,242.800 84.950 C 241.810 84.652,240.451 84.407,239.780 84.404 C 239.109 84.402,238.335 84.175,238.060 83.900 C 237.507 83.347,179.228 82.905,178.684 83.450 M320.828 97.500 C 320.863 98.865,321.388 100.276,321.675 99.773 C 321.997 99.210,321.564 96.400,321.156 96.400 C 320.960 96.400,320.813 96.895,320.828 97.500 M193.500 98.832 C 192.842 99.216,192.800 101.382,192.800 135.356 L 192.800 171.472 193.819 171.936 C 196.737 173.265,241.743 172.303,244.132 170.860 C 244.829 170.439,246.551 169.897,247.958 169.657 C 249.364 169.416,250.829 168.936,251.213 168.588 C 251.596 168.241,252.864 167.595,254.029 167.152 C 255.194 166.710,256.668 165.909,257.304 165.374 C 257.941 164.838,258.691 164.400,258.971 164.400 C 259.252 164.400,260.018 163.905,260.675 163.300 C 267.317 157.178,270.400 153.768,270.400 152.545 C 270.400 152.059,270.856 151.119,271.414 150.456 C 271.972 149.794,272.691 148.365,273.013 147.281 C 273.335 146.197,273.956 144.855,274.394 144.299 C 275.051 143.463,275.262 142.256,275.612 137.344 C 275.845 134.075,276.201 130.559,276.403 129.532 C 276.629 128.387,276.627 126.838,276.398 125.532 C 276.193 124.359,275.843 120.908,275.621 117.862 C 275.234 112.562,275.165 112.262,274.007 110.862 C 271.747 108.129,270.398 106.819,269.210 106.205 C 268.557 105.868,267.845 105.258,267.626 104.849 C 267.386 104.400,266.581 104.003,265.587 103.844 C 264.630 103.691,263.523 103.160,262.932 102.569 C 262.111 101.747,261.325 101.488,258.769 101.196 C 256.660 100.956,255.251 100.566,254.509 100.018 C 253.686 99.410,252.367 99.098,249.400 98.809 C 243.928 98.278,194.417 98.298,193.500 98.832 M323.332 101.675 C 322.671 102.524,323.449 109.827,324.495 112.600 C 325.766 115.970,325.888 136.595,324.655 139.600 C 324.248 140.590,323.687 143.125,323.408 145.234 C 323.115 147.447,322.551 149.729,322.073 150.634 C 321.618 151.495,320.964 153.450,320.620 154.978 C 320.275 156.506,319.649 158.126,319.229 158.578 C 318.809 159.030,318.336 160.120,318.179 161.000 C 317.850 162.843,316.944 164.800,316.421 164.800 C 316.223 164.800,315.852 165.436,315.595 166.214 C 315.339 166.992,314.709 167.904,314.195 168.240 C 313.584 168.641,313.166 169.417,312.985 170.490 C 312.814 171.501,312.289 172.526,311.614 173.165 C 311.013 173.734,310.409 174.517,310.272 174.903 C 310.135 175.290,309.586 175.806,309.052 176.049 C 308.512 176.295,307.982 176.959,307.858 177.546 C 307.428 179.568,297.030 190.163,293.759 191.913 C 293.231 192.195,292.800 192.603,292.800 192.819 C 292.800 193.036,292.125 193.525,291.300 193.906 C 290.475 194.288,289.667 194.806,289.504 195.058 C 289.341 195.309,288.445 195.913,287.513 196.399 C 286.581 196.884,285.305 197.714,284.678 198.241 C 284.051 198.768,283.225 199.200,282.841 199.200 C 282.458 199.200,281.532 199.747,280.784 200.415 C 280.035 201.083,278.968 201.736,278.412 201.867 C 277.855 201.998,277.040 202.429,276.600 202.826 C 275.586 203.739,274.298 204.218,271.907 204.569 C 270.865 204.722,269.863 205.117,269.678 205.446 C 269.301 206.120,266.679 207.156,265.284 207.182 C 264.780 207.192,263.870 207.568,263.262 208.018 C 262.590 208.514,260.827 209.053,258.778 209.390 C 256.920 209.694,254.854 210.220,254.186 210.558 C 250.828 212.258,239.085 212.876,206.714 213.057 L 179.229 213.211 178.798 214.705 C 178.497 215.747,178.402 230.914,178.483 264.800 L 178.600 313.400 181.200 313.400 L 183.800 313.400 184.000 268.000 C 184.217 218.714,184.136 220.412,186.340 219.232 C 186.898 218.934,196.705 218.797,218.074 218.789 C 253.260 218.777,260.304 218.518,262.129 217.168 C 262.993 216.529,264.223 216.197,266.628 215.953 C 269.103 215.702,270.304 215.370,271.386 214.636 C 272.274 214.033,273.715 213.548,275.116 213.380 C 276.372 213.230,277.760 212.795,278.200 212.413 C 279.393 211.378,279.750 211.227,282.008 210.799 C 283.169 210.578,284.601 209.966,285.269 209.403 C 285.925 208.851,286.791 208.400,287.193 208.400 C 287.595 208.400,288.678 207.770,289.600 207.000 C 290.522 206.230,291.522 205.600,291.824 205.600 C 292.125 205.600,292.963 205.084,293.686 204.454 C 294.409 203.824,295.450 203.174,296.000 203.010 C 296.550 202.846,297.540 202.211,298.200 201.600 C 298.860 200.989,299.796 200.369,300.280 200.224 C 300.763 200.078,301.267 199.617,301.400 199.200 C 301.533 198.783,302.013 198.323,302.468 198.178 C 303.602 197.818,314.256 187.212,314.580 186.120 C 314.723 185.637,315.179 185.134,315.593 185.002 C 316.006 184.871,316.457 184.253,316.594 183.629 C 316.731 183.005,317.463 181.769,318.221 180.883 C 318.980 179.998,319.600 179.108,319.600 178.906 C 319.600 178.704,320.023 178.142,320.541 177.655 C 321.058 177.169,321.705 176.013,321.978 175.086 C 322.251 174.159,322.884 172.950,323.385 172.400 C 323.886 171.850,324.403 170.697,324.533 169.838 C 324.663 168.978,325.213 167.808,325.754 167.238 C 326.295 166.667,326.860 165.480,327.010 164.600 C 327.385 162.398,328.343 159.047,328.980 157.711 C 329.271 157.100,329.624 154.964,329.764 152.964 C 329.904 150.964,330.213 148.714,330.450 147.964 C 330.845 146.713,331.671 139.683,331.644 137.800 C 331.613 135.717,330.933 129.339,330.701 128.963 C 330.557 128.731,330.154 125.685,329.806 122.195 C 329.299 117.121,328.998 115.567,328.303 114.443 C 327.825 113.670,327.310 111.985,327.158 110.700 C 326.982 109.207,326.517 107.827,325.869 106.881 C 325.312 106.067,324.730 104.680,324.577 103.800 C 324.187 101.565,323.856 101.000,323.332 101.675 M209.270 330.126 C 208.418 331.032,208.400 331.292,208.400 342.656 L 208.400 354.261 207.368 355.230 L 206.336 356.200 163.102 356.305 C 132.173 356.381,119.717 356.537,119.335 356.854 C 118.695 357.385,118.653 358.856,119.221 360.900 L 119.638 362.400 166.566 362.400 L 213.495 362.400 213.743 360.900 C 214.215 358.048,214.034 331.312,213.536 330.219 C 212.903 328.831,210.535 328.779,209.270 330.126 " stroke="none" fill="#fcfcfc" fill-rule="evenodd"></path><path id="path2" d="M105.600 41.947 L 104.600 42.236 104.485 60.418 C 104.342 83.039,104.143 82.000,108.637 82.000 C 110.852 82.000,111.200 82.961,111.200 89.070 C 111.200 92.234,111.387 94.772,111.664 95.381 L 112.128 96.400 121.495 96.400 L 130.862 96.400 132.031 97.569 L 133.200 98.738 133.200 206.124 L 133.200 313.509 131.840 314.154 C 130.681 314.704,128.693 314.800,118.466 314.800 C 111.628 314.800,106.010 314.968,105.426 315.190 L 104.400 315.580 104.400 334.155 L 104.400 352.729 105.631 353.764 C 106.494 354.491,107.327 354.800,108.420 354.800 C 110.792 354.800,111.200 355.916,111.200 362.406 C 111.200 365.292,111.386 368.001,111.614 368.426 C 112.127 369.385,220.165 369.675,221.120 368.720 C 221.836 368.004,221.811 323.073,221.094 322.478 C 220.801 322.235,217.839 322.003,214.078 321.929 C 206.588 321.781,206.815 321.900,206.806 318.114 C 206.798 314.893,206.851 314.916,198.961 314.742 C 194.264 314.638,192.344 314.452,191.861 314.051 C 190.844 313.206,190.843 228.394,191.861 227.549 C 192.403 227.099,198.071 226.957,223.361 226.763 C 251.116 226.550,254.420 226.457,256.400 225.832 C 257.610 225.450,260.850 224.819,263.600 224.430 C 266.669 223.996,269.233 223.399,270.239 222.884 C 271.141 222.423,273.080 221.767,274.548 221.427 C 276.015 221.086,277.618 220.550,278.108 220.234 C 278.599 219.919,280.027 219.396,281.283 219.073 C 282.539 218.749,284.048 218.106,284.637 217.642 C 285.226 217.179,286.091 216.800,286.560 216.800 C 287.029 216.800,288.040 216.436,288.806 215.991 C 289.573 215.546,291.100 214.731,292.200 214.180 C 293.300 213.629,294.765 212.778,295.456 212.289 C 296.147 211.800,297.227 211.086,297.856 210.702 C 303.779 207.086,307.546 204.026,313.986 197.598 C 321.245 190.353,323.478 187.493,327.145 180.740 C 327.665 179.783,328.405 178.640,328.790 178.200 C 329.701 177.159,332.800 170.345,332.800 169.385 C 332.800 168.977,333.242 168.003,333.783 167.222 C 334.424 166.293,334.924 164.760,335.222 162.800 C 335.474 161.150,336.117 158.540,336.651 157.000 C 339.046 150.100,338.968 120.290,336.546 116.577 C 336.251 116.125,335.759 114.325,335.453 112.577 C 335.147 110.830,334.446 108.320,333.894 107.000 C 333.343 105.680,332.763 103.996,332.605 103.257 C 332.447 102.518,331.897 101.295,331.383 100.537 C 330.869 99.780,330.236 98.495,329.975 97.680 C 329.715 96.866,329.186 95.840,328.800 95.400 C 328.414 94.960,327.882 93.923,327.617 93.095 C 327.072 91.396,324.462 87.200,323.949 87.200 C 323.765 87.200,323.180 86.345,322.649 85.300 C 321.502 83.038,317.924 79.130,311.121 72.707 C 307.374 69.169,307.378 69.173,298.987 63.608 C 298.099 63.020,296.780 62.332,296.055 62.079 C 295.330 61.827,293.484 60.760,291.952 59.710 C 290.420 58.659,288.621 57.502,287.955 57.137 C 287.290 56.772,286.417 56.178,286.017 55.816 C 285.617 55.454,284.325 54.792,283.145 54.345 C 281.965 53.899,280.721 53.283,280.380 52.977 C 280.039 52.671,278.968 52.142,278.000 51.800 C 277.032 51.458,275.961 50.929,275.620 50.623 C 275.279 50.318,273.830 49.776,272.400 49.419 C 270.970 49.062,268.810 48.347,267.600 47.829 C 266.390 47.312,264.140 46.675,262.600 46.414 C 261.060 46.154,259.118 45.584,258.284 45.149 C 257.232 44.600,255.050 44.177,251.166 43.769 C 248.086 43.445,244.358 42.885,242.883 42.525 C 240.028 41.827,107.939 41.271,105.600 41.947 M236.600 43.100 C 238.800 43.321,240.870 43.613,241.200 43.748 C 241.530 43.883,244.844 44.163,248.565 44.370 C 254.484 44.699,255.474 44.852,256.480 45.596 C 257.231 46.151,258.837 46.628,261.115 46.971 C 263.144 47.277,265.207 47.857,266.053 48.360 C 266.852 48.835,268.634 49.422,270.014 49.665 C 271.393 49.908,273.127 50.518,273.866 51.019 C 274.606 51.521,275.909 52.049,276.762 52.194 C 277.615 52.338,278.711 52.880,279.198 53.398 C 279.685 53.916,280.951 54.548,282.011 54.803 C 283.072 55.057,284.041 55.530,284.165 55.853 C 284.289 56.176,285.169 56.785,286.120 57.206 C 287.071 57.627,288.181 58.337,288.587 58.785 C 288.992 59.233,289.549 59.600,289.824 59.600 C 290.099 59.600,291.078 60.230,292.000 61.000 C 292.922 61.770,294.083 62.400,294.582 62.400 C 295.080 62.400,296.278 63.026,297.244 63.790 C 298.210 64.555,299.480 65.286,300.067 65.414 C 300.653 65.543,301.229 65.900,301.347 66.206 C 301.465 66.513,302.245 67.113,303.081 67.539 C 303.916 67.966,304.937 68.687,305.348 69.142 C 305.760 69.598,306.662 70.157,307.353 70.385 C 308.045 70.613,308.788 71.204,309.005 71.700 C 309.222 72.195,309.793 72.773,310.274 72.984 C 310.755 73.195,311.337 73.782,311.568 74.289 C 311.799 74.797,312.441 75.418,312.994 75.670 C 313.547 75.922,314.000 76.378,314.000 76.683 C 314.000 76.988,314.511 77.530,315.135 77.889 C 315.760 78.247,316.435 78.914,316.635 79.370 C 316.836 79.827,317.389 80.371,317.864 80.579 C 318.339 80.788,319.011 81.553,319.357 82.279 C 319.704 83.006,320.180 83.600,320.416 83.600 C 320.652 83.600,321.204 84.412,321.643 85.404 C 322.082 86.397,322.873 87.491,323.400 87.837 C 323.928 88.183,324.555 89.059,324.795 89.784 C 325.034 90.510,325.580 91.420,326.007 91.807 C 326.435 92.193,326.900 93.128,327.042 93.884 C 327.184 94.639,327.701 95.739,328.192 96.329 C 328.683 96.918,329.310 98.120,329.585 99.000 C 329.861 99.880,330.516 101.239,331.042 102.020 C 331.567 102.800,332.192 104.510,332.429 105.820 C 332.667 107.129,333.230 108.830,333.682 109.600 C 334.148 110.396,334.641 112.222,334.824 113.835 C 335.002 115.394,335.522 117.734,335.981 119.035 C 337.211 122.524,337.731 130.791,337.465 142.623 C 337.247 152.306,337.137 153.171,335.814 155.600 C 335.514 156.150,335.070 158.262,334.827 160.293 C 334.503 163.000,334.133 164.358,333.440 165.379 C 332.920 166.145,332.375 167.575,332.227 168.558 C 332.080 169.540,331.601 170.799,331.163 171.357 C 330.724 171.914,330.084 173.319,329.739 174.479 C 329.395 175.640,328.682 176.988,328.156 177.475 C 327.630 177.963,327.200 178.629,327.200 178.956 C 327.200 179.283,326.667 180.134,326.016 180.847 C 325.365 181.560,324.711 182.693,324.564 183.366 C 324.416 184.038,323.852 185.041,323.311 185.594 C 321.579 187.365,319.503 190.168,319.126 191.245 C 318.925 191.820,318.335 192.484,317.815 192.720 C 317.295 192.957,316.760 193.495,316.627 193.915 C 316.494 194.335,315.934 194.884,315.384 195.134 C 314.834 195.385,314.212 196.042,314.002 196.595 C 313.792 197.148,313.337 197.600,312.991 197.600 C 312.646 197.600,312.070 198.109,311.713 198.732 C 311.356 199.354,310.554 200.156,309.932 200.513 C 309.309 200.870,308.800 201.439,308.800 201.776 C 308.800 202.113,308.151 202.660,307.358 202.992 C 305.869 203.614,304.189 204.849,301.770 207.100 C 301.002 207.815,300.051 208.400,299.656 208.400 C 299.262 208.400,298.522 208.845,298.011 209.388 C 297.500 209.932,296.494 210.571,295.774 210.809 C 295.054 211.046,294.178 211.680,293.826 212.217 C 293.401 212.865,292.661 213.277,291.624 213.443 C 290.652 213.598,289.643 214.128,288.956 214.846 C 288.124 215.715,287.481 216.000,286.356 216.000 C 285.356 216.000,284.478 216.322,283.703 216.974 C 283.035 217.536,281.374 218.220,279.778 218.591 C 278.255 218.944,276.563 219.526,276.016 219.884 C 275.469 220.242,273.853 220.780,272.423 221.080 C 270.994 221.379,269.189 222.001,268.412 222.462 C 267.341 223.097,265.914 223.381,262.496 223.638 C 260.019 223.824,256.959 224.270,255.696 224.629 C 251.443 225.836,248.285 225.959,220.997 225.979 C 194.346 226.000,191.476 226.124,190.734 227.293 C 190.019 228.420,190.339 313.670,191.062 314.469 C 191.653 315.121,192.440 315.200,198.382 315.200 C 206.153 315.200,206.000 315.128,206.000 318.818 C 206.000 322.753,206.008 322.757,214.220 322.890 L 221.000 323.000 221.111 344.800 C 221.172 356.790,221.123 367.005,221.003 367.500 L 220.785 368.400 166.672 368.400 C 125.118 368.400,112.449 368.289,112.080 367.920 C 111.749 367.589,111.600 365.559,111.600 361.374 C 111.600 354.286,111.188 353.200,108.502 353.200 C 105.472 353.200,105.600 354.049,105.600 333.952 C 105.600 316.641,105.626 316.014,106.374 315.614 C 106.859 315.354,111.779 315.200,119.594 315.200 C 129.968 315.200,132.236 315.098,133.220 314.590 L 134.400 313.979 134.400 206.209 C 134.400 123.505,134.289 98.194,133.922 97.389 C 133.001 95.366,132.069 95.200,121.663 95.200 C 110.399 95.200,111.600 96.039,111.600 88.167 C 111.600 81.606,111.275 80.800,108.629 80.800 C 105.517 80.800,105.545 80.989,105.684 61.222 C 105.751 51.640,105.959 43.484,106.147 43.098 C 106.543 42.281,228.470 42.283,236.600 43.100 M118.408 81.246 C 116.285 82.093,116.000 82.687,116.000 86.253 C 116.000 90.981,116.038 91.000,125.201 91.000 C 134.259 91.000,134.400 90.932,134.400 86.564 C 134.400 81.301,133.569 80.788,125.113 80.825 C 121.971 80.839,118.954 81.029,118.408 81.246 M177.300 82.087 L 175.600 83.343 175.600 127.719 L 175.600 172.094 177.153 173.647 C 179.565 176.059,184.716 175.657,185.945 172.962 C 186.276 172.236,186.400 160.926,186.400 131.581 L 186.400 91.200 213.569 91.200 C 230.062 91.200,241.537 91.357,242.769 91.600 C 243.886 91.820,245.745 92.193,246.900 92.428 C 248.055 92.663,251.092 93.091,253.649 93.378 C 257.373 93.797,258.551 94.087,259.566 94.838 C 260.535 95.554,261.491 95.813,263.617 95.933 L 266.400 96.090 266.400 95.019 C 266.400 93.690,265.740 92.400,265.061 92.400 C 264.780 92.400,264.028 91.856,263.391 91.191 C 262.754 90.526,261.553 89.778,260.722 89.529 C 259.891 89.280,258.949 88.677,258.629 88.187 C 258.308 87.698,257.541 87.175,256.923 87.025 C 256.305 86.874,255.129 86.312,254.308 85.775 C 253.424 85.197,251.793 84.654,250.305 84.443 C 248.924 84.248,247.091 83.673,246.230 83.165 C 244.825 82.336,243.932 82.209,237.433 81.914 C 233.455 81.734,229.199 81.409,227.976 81.193 C 226.681 80.964,215.990 80.807,202.376 80.816 L 179.000 80.832 177.300 82.087 M132.146 82.829 C 133.103 83.582,133.200 83.913,133.200 86.419 C 133.200 90.196,132.790 90.400,125.200 90.400 C 117.610 90.400,117.200 90.196,117.200 86.419 C 117.200 82.241,117.636 82.000,125.200 82.000 C 130.555 82.000,131.188 82.076,132.146 82.829 M236.600 82.546 C 240.120 82.824,243.395 83.266,243.878 83.528 C 244.361 83.790,246.322 84.376,248.236 84.831 C 250.150 85.286,252.098 85.908,252.565 86.214 C 253.031 86.519,254.192 87.044,255.143 87.380 C 256.094 87.716,257.410 88.442,258.067 88.995 C 258.724 89.548,259.526 90.000,259.851 90.000 C 260.175 90.000,261.088 90.630,261.881 91.400 C 262.674 92.170,263.537 92.800,263.799 92.800 C 264.062 92.800,264.578 93.134,264.948 93.543 C 266.560 95.324,263.562 95.601,260.416 93.962 C 259.637 93.556,257.200 92.954,255.000 92.624 C 252.800 92.293,250.010 91.723,248.800 91.357 C 245.998 90.509,187.963 89.964,186.454 90.771 L 185.600 91.228 185.600 131.585 L 185.600 171.942 184.546 172.771 C 183.070 173.932,179.149 173.949,178.000 172.800 C 177.210 172.010,177.200 171.467,177.200 127.623 L 177.200 83.245 178.089 82.623 C 179.264 81.800,226.385 81.738,236.600 82.546 M315.234 87.462 C 314.861 88.813,314.917 89.081,315.761 89.987 C 316.424 90.697,316.762 91.626,316.894 93.093 C 317.015 94.445,317.445 95.719,318.109 96.693 C 318.842 97.768,319.218 98.985,319.419 100.935 C 319.591 102.605,320.080 104.384,320.675 105.503 C 323.147 110.151,323.275 143.324,320.835 146.751 C 319.961 147.979,319.225 150.657,319.210 152.669 C 319.204 153.431,318.797 154.417,318.193 155.136 C 317.579 155.865,317.018 157.240,316.757 158.652 C 316.510 159.986,315.933 161.439,315.398 162.075 C 314.886 162.683,314.343 163.770,314.191 164.490 C 314.039 165.211,313.393 166.285,312.757 166.877 C 312.121 167.470,311.600 168.210,311.600 168.522 C 311.600 168.835,311.056 169.775,310.391 170.611 C 309.726 171.448,309.079 172.543,308.953 173.045 C 308.827 173.547,308.277 174.251,307.731 174.609 C 307.185 174.966,306.557 175.779,306.335 176.413 C 306.114 177.048,305.588 177.677,305.167 177.811 C 304.745 177.944,304.400 178.231,304.400 178.448 C 304.400 178.985,295.352 188.000,294.813 188.000 C 294.576 188.000,294.182 188.441,293.936 188.980 C 293.691 189.519,292.988 190.135,292.376 190.348 C 291.763 190.562,291.070 191.096,290.834 191.536 C 290.599 191.975,289.868 192.453,289.210 192.598 C 288.041 192.855,285.874 194.338,283.577 196.452 C 282.948 197.031,281.802 197.623,281.030 197.768 C 279.719 198.014,279.365 198.255,278.120 199.748 C 277.856 200.064,276.931 200.443,276.064 200.589 C 275.197 200.736,274.094 201.274,273.614 201.785 C 273.004 202.435,272.084 202.797,270.566 202.987 C 269.124 203.167,267.994 203.593,267.212 204.251 C 266.323 205.000,265.193 205.367,262.628 205.741 C 260.175 206.100,258.968 206.478,258.309 207.098 C 257.568 207.794,256.685 208.010,253.641 208.240 C 250.693 208.462,249.491 208.746,248.044 209.559 L 246.200 210.595 212.109 210.797 L 178.017 211.000 176.909 212.109 L 175.800 213.218 175.695 263.376 L 175.591 313.535 176.649 314.367 C 178.133 315.534,184.707 315.607,185.738 314.469 C 186.346 313.797,186.401 310.018,186.406 268.369 C 186.409 243.416,186.548 222.786,186.715 222.524 C 186.943 222.166,194.720 222.015,218.408 221.911 C 247.427 221.784,249.936 221.720,251.600 221.059 C 252.697 220.623,255.315 220.204,258.301 219.987 C 263.066 219.640,266.762 218.861,267.824 217.980 C 268.111 217.742,269.566 217.375,271.058 217.163 C 272.776 216.920,274.074 216.494,274.598 216.002 C 275.053 215.574,276.648 214.968,278.142 214.655 C 279.648 214.339,281.245 213.725,281.729 213.277 C 282.208 212.832,283.468 212.341,284.528 212.184 C 285.634 212.022,286.935 211.498,287.577 210.958 C 288.193 210.440,289.530 209.659,290.548 209.222 C 291.567 208.786,292.400 208.244,292.400 208.020 C 292.400 207.795,293.046 207.341,293.836 207.011 C 294.625 206.681,295.809 205.958,296.467 205.405 C 297.124 204.852,298.088 204.293,298.610 204.162 C 299.131 204.031,299.842 203.491,300.188 202.962 C 300.535 202.433,301.017 202.000,301.261 202.000 C 301.504 202.000,302.369 201.415,303.183 200.700 C 303.996 199.985,305.543 198.680,306.619 197.800 C 309.010 195.845,315.600 189.238,315.600 188.796 C 315.600 188.620,316.230 187.722,317.000 186.800 C 317.770 185.878,318.400 184.891,318.400 184.605 C 318.400 184.319,318.662 183.985,318.982 183.862 C 319.302 183.739,319.913 182.955,320.339 182.119 C 320.766 181.284,321.478 180.272,321.921 179.871 C 322.364 179.470,322.952 178.570,323.228 177.871 C 323.504 177.172,324.042 176.240,324.424 175.800 C 324.807 175.360,325.394 174.178,325.730 173.173 C 326.066 172.168,326.704 170.728,327.148 169.973 C 327.593 169.218,328.144 167.755,328.375 166.723 C 328.605 165.690,329.219 164.218,329.739 163.451 C 330.474 162.369,330.749 161.268,330.968 158.529 C 331.123 156.588,331.496 154.620,331.797 154.157 C 334.059 150.670,334.380 123.609,332.188 121.187 C 331.754 120.707,331.356 119.081,331.048 116.525 C 330.744 114.006,330.264 112.027,329.707 111.000 C 329.230 110.120,328.637 108.363,328.390 107.096 C 328.134 105.782,327.531 104.303,326.985 103.655 C 326.459 103.030,325.903 101.736,325.751 100.781 C 325.582 99.725,325.096 98.695,324.513 98.155 C 323.985 97.665,323.367 96.576,323.139 95.733 C 322.912 94.890,322.315 93.750,321.813 93.200 C 321.312 92.650,320.653 91.660,320.349 91.000 C 320.045 90.340,319.423 89.636,318.966 89.434 C 318.510 89.233,317.790 88.436,317.368 87.661 C 316.313 85.727,315.728 85.673,315.234 87.462 M319.788 92.066 C 320.015 92.869,320.675 93.965,321.255 94.502 C 321.835 95.039,322.430 96.027,322.578 96.698 C 322.725 97.368,323.197 98.235,323.627 98.624 C 324.056 99.013,324.656 100.166,324.959 101.187 C 325.262 102.208,325.974 103.933,326.541 105.022 C 327.108 106.110,327.780 107.990,328.035 109.200 C 328.290 110.410,328.819 112.034,329.211 112.809 C 329.603 113.585,330.043 115.115,330.189 116.209 C 330.334 117.304,330.936 120.450,331.527 123.200 C 332.791 129.091,333.170 147.200,332.069 149.133 C 331.554 150.035,330.000 158.015,330.000 159.754 C 330.000 160.226,329.665 161.239,329.255 162.006 C 328.846 162.773,328.218 164.411,327.859 165.648 C 327.501 166.884,326.948 168.111,326.630 168.375 C 326.312 168.639,325.929 169.413,325.779 170.094 C 325.394 171.847,322.237 177.759,320.169 180.600 C 319.208 181.920,318.053 183.675,317.603 184.500 C 317.152 185.325,316.625 186.000,316.430 186.000 C 316.235 186.000,315.625 186.765,315.074 187.700 C 313.830 189.812,307.577 195.870,302.508 199.875 C 301.898 200.356,300.770 201.276,300.000 201.920 C 299.230 202.563,297.970 203.405,297.200 203.791 C 296.430 204.178,295.440 204.800,295.000 205.175 C 294.560 205.550,292.850 206.637,291.200 207.591 C 289.550 208.544,287.570 209.738,286.800 210.242 C 286.030 210.747,284.522 211.354,283.449 211.593 C 282.376 211.831,280.756 212.450,279.849 212.968 C 278.942 213.487,277.480 214.034,276.600 214.185 C 275.720 214.335,274.396 214.811,273.657 215.241 C 272.918 215.672,270.578 216.388,268.457 216.834 C 266.336 217.279,264.089 217.924,263.465 218.265 C 262.806 218.626,260.541 219.032,258.065 219.233 C 255.719 219.424,251.910 219.794,249.600 220.055 C 246.867 220.364,235.198 220.577,216.200 220.666 C 187.076 220.803,186.998 220.805,186.300 221.646 C 185.642 222.438,185.600 225.243,185.600 267.995 C 185.600 309.002,185.537 313.554,184.967 314.027 C 184.085 314.759,178.739 314.775,177.859 314.047 C 177.240 313.535,177.199 309.797,177.295 263.312 L 177.400 213.129 178.297 212.403 C 179.145 211.716,181.051 211.667,212.697 211.521 L 246.200 211.366 249.200 210.318 C 250.850 209.743,253.280 209.147,254.600 208.994 C 255.920 208.842,258.154 208.283,259.564 207.753 C 260.974 207.222,263.274 206.522,264.676 206.197 C 266.078 205.872,267.714 205.246,268.312 204.806 C 268.911 204.367,270.274 203.845,271.343 203.647 C 272.411 203.449,273.761 202.936,274.343 202.507 C 274.924 202.078,276.061 201.509,276.868 201.243 C 277.675 200.977,278.575 200.469,278.868 200.115 C 279.161 199.761,280.300 199.044,281.400 198.522 C 282.500 198.001,284.390 196.861,285.600 195.989 C 286.810 195.117,288.520 194.018,289.400 193.546 C 292.694 191.780,304.629 180.554,306.674 177.298 C 307.053 176.694,307.912 175.535,308.582 174.721 C 310.833 171.989,311.513 170.982,312.166 169.419 C 312.524 168.564,313.159 167.624,313.577 167.331 C 313.996 167.038,314.555 166.144,314.818 165.344 C 315.082 164.545,315.705 163.292,316.202 162.559 C 316.699 161.826,317.231 160.562,317.383 159.749 C 317.536 158.937,318.187 157.285,318.830 156.080 C 319.474 154.874,320.002 153.328,320.004 152.644 C 320.006 151.960,320.445 150.460,320.980 149.311 C 321.517 148.158,322.146 145.738,322.383 143.911 C 322.620 142.090,323.095 138.800,323.439 136.600 C 324.681 128.648,323.382 109.136,321.249 103.725 C 320.813 102.617,320.248 100.561,319.995 99.155 C 319.741 97.750,319.212 96.060,318.818 95.400 C 317.903 93.865,317.499 92.148,317.818 91.143 C 318.208 89.916,319.329 90.441,319.788 92.066 M191.894 95.700 C 190.440 96.804,190.400 97.873,190.400 135.246 C 190.400 175.399,190.317 173.932,192.645 174.817 C 194.487 175.517,234.209 175.313,234.800 174.600 C 235.074 174.270,235.951 173.994,236.749 173.988 C 240.951 173.951,247.609 172.829,249.275 171.876 C 250.224 171.333,251.674 170.771,252.499 170.627 C 253.323 170.482,254.479 169.918,255.068 169.372 C 255.656 168.827,256.602 168.271,257.169 168.138 C 257.736 168.004,258.560 167.594,259.000 167.226 C 259.440 166.857,260.554 166.076,261.476 165.488 C 264.208 163.747,271.083 156.568,271.635 154.880 C 271.901 154.066,272.530 153.015,273.033 152.543 C 273.536 152.072,274.071 150.992,274.222 150.143 C 274.373 149.295,274.942 148.123,275.486 147.539 C 276.281 146.686,276.548 145.824,276.850 143.139 C 277.056 141.303,277.624 138.913,278.113 137.828 C 279.471 134.809,279.472 118.653,278.114 116.200 C 277.627 115.320,277.047 113.559,276.825 112.286 C 276.361 109.623,273.696 106.088,271.173 104.792 C 270.389 104.388,269.513 103.777,269.227 103.432 C 268.941 103.088,268.008 102.618,267.153 102.387 C 266.299 102.157,265.600 101.801,265.600 101.595 C 265.600 100.986,263.537 100.099,261.395 99.786 C 260.298 99.626,258.635 99.052,257.700 98.510 C 256.302 97.699,255.216 97.473,251.567 97.232 C 249.026 97.064,247.015 96.747,246.855 96.490 C 246.102 95.271,193.455 94.515,191.894 95.700 M266.639 96.338 C 266.500 96.561,266.582 96.865,266.820 97.012 C 267.435 97.393,267.832 96.872,267.318 96.358 C 267.031 96.071,266.807 96.064,266.639 96.338 M244.200 97.172 C 245.960 97.382,249.053 97.716,251.073 97.913 C 253.338 98.135,255.149 98.537,255.795 98.960 C 256.372 99.338,258.218 99.910,259.899 100.232 C 261.580 100.553,263.235 101.067,263.577 101.373 C 263.920 101.679,265.190 102.397,266.400 102.967 C 271.301 105.277,275.686 109.709,276.202 112.873 C 276.357 113.823,276.849 116.130,277.295 118.000 C 278.350 122.426,278.441 133.198,277.446 135.928 C 277.099 136.879,276.622 139.216,276.385 141.122 C 276.148 143.027,275.701 145.039,275.392 145.593 C 275.082 146.147,274.552 147.230,274.213 148.000 C 273.874 148.770,273.296 149.940,272.928 150.600 C 272.560 151.260,271.899 152.520,271.457 153.400 C 269.608 157.089,262.994 163.737,258.748 166.174 C 252.265 169.895,246.247 172.176,241.000 172.902 C 234.157 173.849,192.581 173.593,191.830 172.600 C 191.301 171.900,191.225 167.258,191.219 135.400 C 191.211 96.450,191.165 97.348,193.203 96.734 C 194.599 96.314,240.296 96.706,244.200 97.172 M206.800 327.600 C 206.037 328.363,206.000 328.933,206.000 340.026 C 206.000 347.276,205.844 351.944,205.586 352.426 C 205.181 353.184,204.278 353.200,162.443 353.200 L 119.715 353.200 117.842 354.630 L 115.969 356.061 116.084 359.289 C 116.192 362.303,116.275 362.572,117.329 363.358 L 118.459 364.200 166.129 364.200 C 216.359 364.200,215.812 364.219,216.665 362.463 C 217.102 361.565,217.328 332.659,216.918 330.176 C 216.389 326.978,209.242 325.158,206.800 327.600 M214.712 328.541 C 215.340 329.169,215.400 330.654,215.400 345.650 L 215.400 362.071 214.456 362.835 C 213.171 363.876,120.833 364.051,118.834 363.017 C 116.761 361.945,116.509 357.453,118.431 355.836 L 119.661 354.800 162.651 354.800 L 205.641 354.800 206.220 353.413 C 206.681 352.310,206.800 349.655,206.800 340.462 C 206.800 328.333,206.796 328.359,208.600 327.869 C 210.242 327.423,214.008 327.837,214.712 328.541 " stroke="none" fill="#6c8ccc" fill-rule="evenodd"></path><path id="path3" d="M105.200 41.723 L 103.800 42.200 103.680 59.200 C 103.514 82.745,103.346 81.784,107.711 82.275 C 108.860 82.404,110.070 82.710,110.400 82.955 C 110.921 83.342,110.928 83.308,110.451 82.700 C 110.130 82.291,109.365 82.000,108.611 82.000 C 106.624 82.000,104.908 81.253,104.646 80.275 C 104.138 78.381,104.377 42.462,104.900 42.124 C 105.175 41.946,134.020 41.708,169.000 41.596 L 232.600 41.393 169.600 41.319 C 121.672 41.263,106.265 41.359,105.200 41.723 M237.200 42.027 C 239.730 42.190,243.240 42.604,245.000 42.947 C 246.760 43.291,248.740 43.554,249.400 43.532 C 250.461 43.496,250.484 43.472,249.600 43.322 C 249.050 43.230,246.746 42.804,244.480 42.377 C 241.899 41.890,238.910 41.625,236.480 41.666 L 232.600 41.732 237.200 42.027 M252.100 43.887 C 252.705 43.978,253.695 43.978,254.300 43.887 C 254.905 43.795,254.410 43.720,253.200 43.720 C 251.990 43.720,251.495 43.795,252.100 43.887 M256.000 44.250 C 256.330 44.353,257.320 44.773,258.200 45.184 C 259.080 45.594,261.060 46.144,262.600 46.406 C 264.140 46.669,266.367 47.315,267.548 47.842 C 270.329 49.082,271.040 49.077,268.700 47.833 C 267.700 47.301,265.191 46.515,263.124 46.086 C 261.057 45.657,258.797 45.012,258.103 44.653 C 257.408 44.294,256.516 44.014,256.120 44.032 C 255.583 44.055,255.552 44.111,256.000 44.250 M273.600 49.670 C 274.370 49.889,275.279 50.318,275.620 50.624 C 275.961 50.929,277.007 51.450,277.946 51.781 C 278.884 52.112,280.115 52.747,280.680 53.191 C 281.245 53.636,281.888 54.000,282.108 54.000 C 282.928 54.000,280.281 52.278,278.310 51.529 C 277.185 51.102,275.821 50.403,275.279 49.976 C 274.736 49.549,273.821 49.216,273.246 49.236 C 272.322 49.268,272.364 49.319,273.600 49.670 M283.988 54.633 C 284.752 54.965,285.684 55.514,286.060 55.855 C 286.437 56.195,287.290 56.772,287.955 57.137 C 288.621 57.502,290.420 58.659,291.952 59.710 C 293.484 60.760,295.330 61.827,296.055 62.079 C 296.780 62.332,298.099 63.020,298.987 63.608 C 307.378 69.173,307.374 69.169,311.121 72.707 C 317.924 79.130,321.502 83.038,322.649 85.300 C 323.180 86.345,323.765 87.200,323.949 87.200 C 324.462 87.200,327.072 91.396,327.617 93.095 C 327.882 93.923,328.414 94.960,328.800 95.400 C 329.186 95.840,329.704 96.830,329.951 97.600 C 330.199 98.370,330.804 99.630,331.298 100.400 C 331.791 101.170,332.417 102.520,332.689 103.400 L 333.184 105.000 332.964 103.400 C 332.843 102.520,332.313 101.169,331.785 100.398 C 331.258 99.626,330.615 98.366,330.357 97.598 C 330.098 96.829,329.633 95.905,329.322 95.545 C 329.011 95.185,328.402 93.956,327.969 92.814 C 327.535 91.673,326.419 89.745,325.490 88.530 C 324.560 87.315,323.423 85.701,322.961 84.943 C 321.939 83.263,314.484 74.800,314.026 74.800 C 313.845 74.800,312.641 73.731,311.349 72.425 C 308.823 69.871,307.834 69.096,303.200 66.038 C 301.550 64.949,299.734 63.695,299.164 63.252 C 298.595 62.808,297.245 62.108,296.164 61.695 C 295.084 61.282,292.815 59.967,291.121 58.772 C 286.863 55.768,283.916 53.997,283.202 54.016 C 282.871 54.024,283.225 54.302,283.988 54.633 M118.254 82.829 C 117.297 83.582,117.200 83.913,117.200 86.419 C 117.200 90.196,117.610 90.400,125.200 90.400 C 132.790 90.400,133.200 90.196,133.200 86.419 C 133.200 82.241,132.764 82.000,125.200 82.000 C 119.845 82.000,119.212 82.076,118.254 82.829 M178.089 82.623 L 177.200 83.245 177.200 127.623 C 177.200 171.467,177.210 172.010,178.000 172.800 C 179.149 173.949,183.070 173.932,184.546 172.771 L 185.600 171.942 185.600 131.595 C 185.600 99.756,185.705 91.179,186.100 90.924 C 186.375 90.746,198.120 90.507,212.200 90.394 L 237.800 90.188 212.389 90.094 C 189.937 90.011,186.874 90.072,186.089 90.623 L 185.200 91.245 185.200 131.574 C 185.200 177.301,185.592 172.834,181.552 173.126 C 177.161 173.444,177.600 178.479,177.600 127.800 C 177.600 85.679,177.632 83.695,178.328 83.065 C 178.987 82.469,181.590 82.396,205.428 82.300 L 231.800 82.194 205.389 82.097 C 182.029 82.011,178.875 82.072,178.089 82.623 M131.814 83.046 C 133.225 83.970,133.293 88.409,131.911 89.377 C 130.800 90.156,120.255 90.281,118.619 89.536 C 117.164 88.873,117.067 84.019,118.489 83.023 C 119.805 82.101,130.400 82.120,131.814 83.046 M233.907 82.690 C 234.626 82.779,235.706 82.777,236.307 82.686 C 236.908 82.595,236.320 82.522,235.000 82.524 C 233.680 82.526,233.188 82.601,233.907 82.690 M240.000 83.210 C 241.430 83.366,243.320 83.771,244.200 84.110 C 245.080 84.449,246.520 84.835,247.400 84.967 C 248.632 85.151,248.448 85.035,246.600 84.460 C 245.280 84.050,243.693 83.508,243.074 83.257 C 242.455 83.006,240.925 82.828,239.674 82.863 L 237.400 82.926 240.000 83.210 M110.964 89.440 C 111.012 97.505,110.023 96.800,121.288 96.800 L 130.479 96.800 131.640 98.042 L 132.800 99.285 132.800 206.220 L 132.800 313.155 131.911 313.777 C 131.422 314.120,131.197 314.394,131.411 314.387 C 133.327 314.325,133.200 322.010,133.200 206.025 L 133.200 98.738 132.031 97.569 L 130.862 96.400 121.474 96.400 C 110.359 96.400,111.510 97.205,111.172 89.200 L 110.928 83.400 110.964 89.440 M250.400 85.779 C 254.519 87.379,257.086 88.564,257.800 89.194 C 258.240 89.583,259.265 90.209,260.077 90.585 C 260.992 91.009,261.600 91.592,261.677 92.120 C 261.764 92.723,262.189 93.049,263.137 93.242 C 264.693 93.559,265.484 94.177,264.842 94.574 C 264.181 94.982,261.600 94.374,261.600 93.810 C 261.600 93.317,258.077 92.590,257.668 92.999 C 257.557 93.109,257.814 93.200,258.239 93.200 C 258.664 93.200,259.639 93.536,260.406 93.947 C 263.498 95.603,266.566 95.330,264.948 93.543 C 264.578 93.134,264.062 92.800,263.799 92.800 C 263.537 92.800,262.674 92.170,261.881 91.400 C 261.088 90.630,260.185 90.000,259.875 90.000 C 259.564 90.000,258.631 89.460,257.800 88.800 C 256.969 88.140,256.085 87.600,255.835 87.600 C 255.584 87.600,254.304 87.066,252.990 86.413 C 251.675 85.759,250.240 85.227,249.800 85.230 C 249.288 85.233,249.503 85.431,250.400 85.779 M243.600 90.815 C 246.531 90.983,249.324 91.371,250.350 91.751 C 251.313 92.108,252.573 92.379,253.150 92.354 C 254.055 92.314,254.006 92.262,252.800 91.978 C 252.030 91.797,250.416 91.368,249.213 91.024 C 247.762 90.610,245.608 90.422,242.813 90.464 L 238.600 90.529 243.600 90.815 M317.818 91.143 C 317.509 92.116,317.896 93.883,318.700 95.165 C 319.032 95.696,319.445 96.596,319.618 97.165 C 319.919 98.159,319.933 98.148,319.966 96.887 C 320.007 95.302,321.051 94.708,321.858 95.811 C 322.157 96.220,322.400 96.330,322.400 96.057 C 322.400 95.785,321.905 95.104,321.300 94.544 C 320.695 93.983,320.015 92.869,319.788 92.066 C 319.329 90.441,318.208 89.916,317.818 91.143 M319.200 92.824 C 319.200 93.691,319.044 94.400,318.852 94.400 C 318.446 94.400,317.930 91.636,318.243 91.131 C 318.689 90.409,319.200 91.312,319.200 92.824 M255.105 92.683 C 255.602 92.779,256.322 92.775,256.705 92.675 C 257.087 92.575,256.680 92.496,255.800 92.501 C 254.920 92.505,254.607 92.587,255.105 92.683 M193.203 96.757 C 191.166 97.324,191.211 96.447,191.219 135.400 C 191.225 167.244,191.301 171.900,191.830 172.600 C 192.487 173.471,227.654 174.029,236.200 173.305 C 238.296 173.127,230.007 173.000,216.362 173.000 C 197.086 173.000,192.807 172.903,192.262 172.451 C 191.655 171.947,191.600 168.891,191.600 135.427 C 191.600 95.711,191.453 98.083,193.960 97.251 C 195.654 96.689,231.611 96.621,234.827 97.174 C 237.369 97.611,249.672 97.982,247.600 97.559 C 242.822 96.584,196.292 95.898,193.203 96.757 M322.406 97.269 C 322.403 97.637,322.823 98.447,323.340 99.069 C 323.858 99.691,324.489 100.740,324.743 101.400 L 325.205 102.600 324.975 101.400 C 324.849 100.740,324.443 99.771,324.073 99.247 C 323.703 98.723,323.178 97.913,322.906 97.447 C 322.513 96.774,322.411 96.737,322.406 97.269 M251.305 98.287 C 251.914 98.379,252.814 98.377,253.305 98.282 C 253.797 98.187,253.300 98.111,252.200 98.114 C 251.100 98.117,250.697 98.195,251.305 98.287 M255.470 99.227 C 256.168 99.674,257.428 100.119,258.270 100.214 L 259.800 100.388 258.267 99.993 C 257.423 99.776,256.348 99.329,255.878 98.999 C 255.407 98.670,254.837 98.403,254.611 98.407 C 254.385 98.410,254.771 98.780,255.470 99.227 M320.063 99.200 C 320.047 99.750,320.559 101.730,321.200 103.600 C 321.841 105.470,322.374 106.687,322.383 106.304 C 322.392 105.920,321.961 104.300,321.424 102.704 C 320.887 101.107,320.368 99.440,320.270 99.000 C 320.129 98.365,320.087 98.406,320.063 99.200 M263.469 101.725 C 264.091 102.234,265.455 102.969,266.500 103.358 C 267.545 103.748,268.400 104.204,268.400 104.373 C 268.400 104.542,269.286 105.231,270.370 105.905 C 271.536 106.630,273.085 108.155,274.170 109.645 C 275.176 111.028,276.000 111.953,276.000 111.701 C 276.000 109.935,270.319 104.827,266.147 102.842 C 264.798 102.201,263.572 101.479,263.423 101.238 C 263.275 100.997,262.970 100.800,262.746 100.800 C 262.522 100.800,262.847 101.216,263.469 101.725 M325.205 102.864 C 325.202 103.009,325.740 104.269,326.400 105.664 C 327.060 107.059,327.614 108.560,327.631 109.000 C 327.649 109.440,327.753 109.577,327.864 109.303 C 327.974 109.030,327.851 108.161,327.590 107.371 C 327.123 105.956,325.214 102.349,325.205 102.864 M333.203 105.200 C 333.204 105.310,333.665 106.480,334.229 107.800 C 334.920 109.417,335.186 109.789,335.045 108.939 C 334.874 107.910,333.202 104.516,333.203 105.200 M322.501 108.600 C 322.505 109.480,322.587 109.793,322.683 109.295 C 322.779 108.798,322.775 108.078,322.675 107.695 C 322.575 107.313,322.496 107.720,322.501 108.600 M328.037 110.600 C 328.019 111.040,328.295 111.940,328.649 112.600 C 329.003 113.260,329.436 114.250,329.612 114.800 C 329.833 115.494,329.942 115.580,329.966 115.080 C 329.985 114.684,329.703 113.785,329.339 113.083 C 328.976 112.380,328.541 111.354,328.374 110.803 C 328.126 109.988,328.063 109.950,328.037 110.600 M322.868 111.600 C 322.846 112.370,323.088 114.440,323.406 116.200 C 324.196 120.570,324.192 132.395,323.400 136.535 C 322.605 140.691,322.666 143.192,323.471 139.400 C 324.400 135.019,324.634 119.944,323.840 115.623 C 323.495 113.741,323.143 111.750,323.060 111.200 C 322.953 110.492,322.897 110.609,322.868 111.600 M335.468 112.400 C 335.586 113.610,336.026 115.336,336.446 116.235 C 336.865 117.135,337.379 119.205,337.586 120.835 L 337.963 123.800 337.787 120.710 C 337.671 118.653,337.342 117.116,336.806 116.116 C 336.363 115.288,335.982 114.069,335.960 113.406 C 335.938 112.743,335.770 111.750,335.587 111.200 C 335.368 110.544,335.327 110.957,335.468 112.400 M276.050 113.400 C 276.027 113.840,276.383 116.000,276.842 118.200 C 277.907 123.308,278.012 132.338,277.042 135.400 C 276.694 136.500,276.419 137.850,276.431 138.400 C 276.475 140.310,277.629 135.470,278.005 131.800 C 278.462 127.349,278.155 122.069,277.181 117.600 C 276.773 115.730,276.361 113.840,276.266 113.400 L 276.093 112.600 276.050 113.400 M330.101 117.400 C 330.105 118.280,330.187 118.593,330.283 118.095 C 330.379 117.598,330.375 116.878,330.275 116.495 C 330.175 116.113,330.096 116.520,330.101 117.400 M330.439 119.600 C 330.418 119.930,330.865 122.602,331.434 125.537 C 332.688 132.010,332.744 146.487,331.525 149.200 C 331.180 149.970,330.797 151.680,330.676 153.000 L 330.455 155.400 330.966 152.931 C 331.247 151.573,331.730 149.863,332.039 149.131 C 333.126 146.554,332.747 128.334,331.499 123.200 C 330.938 120.890,330.461 119.270,330.439 119.600 M338.124 127.000 C 338.126 128.320,338.201 128.812,338.290 128.093 C 338.379 127.374,338.377 126.294,338.286 125.693 C 338.195 125.092,338.122 125.680,338.124 127.000 M338.555 138.000 C 338.553 144.169,338.615 145.356,338.776 142.200 C 338.899 139.780,338.901 135.910,338.779 133.600 C 338.627 130.706,338.557 132.074,338.555 138.000 M276.101 141.400 C 276.105 142.280,276.187 142.593,276.283 142.095 C 276.379 141.598,276.375 140.878,276.275 140.495 C 276.175 140.113,276.096 140.520,276.101 141.400 M322.493 144.000 C 322.493 144.770,322.575 145.085,322.676 144.700 C 322.776 144.315,322.776 143.685,322.676 143.300 C 322.575 142.915,322.493 143.230,322.493 144.000 M275.600 143.808 C 275.600 144.142,275.060 145.427,274.400 146.664 C 273.740 147.901,273.200 149.122,273.200 149.379 C 273.200 149.635,272.750 150.455,272.200 151.200 C 271.650 151.945,271.200 152.742,271.200 152.971 C 271.200 153.709,273.225 150.431,273.832 148.710 C 274.156 147.791,274.684 146.749,275.006 146.394 C 275.617 145.718,276.283 143.200,275.850 143.200 C 275.713 143.200,275.600 143.473,275.600 143.808 M322.054 146.316 C 322.025 146.820,321.627 147.962,321.172 148.855 C 320.717 149.747,320.415 150.549,320.503 150.636 C 320.859 150.992,322.443 147.133,322.282 146.300 L 322.109 145.400 322.054 146.316 M338.124 149.000 C 338.126 150.320,338.201 150.812,338.290 150.093 C 338.379 149.374,338.377 148.294,338.286 147.693 C 338.195 147.092,338.122 147.680,338.124 149.000 M320.064 152.444 C 320.029 153.238,319.474 154.874,318.830 156.080 C 318.187 157.285,317.536 158.937,317.383 159.749 C 317.231 160.562,316.695 161.832,316.193 162.572 C 315.691 163.312,315.165 164.341,315.025 164.859 C 314.828 165.589,314.920 165.531,315.435 164.600 C 315.801 163.940,316.331 163.130,316.613 162.800 C 316.895 162.470,317.331 161.390,317.581 160.400 C 317.832 159.410,318.582 157.502,319.248 156.159 C 320.100 154.443,320.410 153.315,320.294 152.359 L 320.128 151.000 320.064 152.444 M337.660 153.230 C 337.627 153.797,337.150 155.549,336.600 157.123 C 336.050 158.697,335.608 160.303,335.617 160.692 C 335.626 161.082,336.175 159.795,336.837 157.833 C 337.499 155.871,337.968 153.801,337.880 153.233 L 337.720 152.200 337.660 153.230 M270.598 154.406 C 269.300 158.496,256.494 167.976,249.000 170.394 C 245.264 171.599,243.343 172.363,244.000 172.382 C 245.700 172.432,253.747 169.044,258.748 166.174 C 262.505 164.018,271.200 155.491,271.200 153.963 C 271.200 153.325,270.862 153.573,270.598 154.406 M329.807 157.900 C 329.651 159.165,329.176 160.965,328.751 161.900 C 328.327 162.835,327.891 164.185,327.782 164.900 C 327.602 166.076,327.637 166.047,328.144 164.600 C 328.453 163.720,328.980 162.460,329.315 161.800 C 329.898 160.654,330.689 155.600,330.285 155.600 C 330.179 155.600,329.964 156.635,329.807 157.900 M335.293 162.800 C 335.293 163.570,335.375 163.885,335.476 163.500 C 335.576 163.115,335.576 162.485,335.476 162.100 C 335.375 161.715,335.293 162.030,335.293 162.800 M334.846 165.022 C 334.821 165.475,334.350 166.455,333.800 167.200 C 333.250 167.945,332.815 168.925,332.834 169.378 C 332.862 170.045,332.929 170.002,333.187 169.148 C 333.362 168.569,333.904 167.556,334.391 166.897 C 334.879 166.238,335.191 165.361,335.085 164.949 C 334.912 164.273,334.888 164.280,334.846 165.022 M313.600 167.271 C 312.085 169.002,312.082 169.135,313.592 167.713 C 314.344 167.005,314.878 166.359,314.779 166.277 C 314.681 166.196,314.150 166.643,313.600 167.271 M326.501 167.874 C 326.007 168.632,325.482 169.736,325.336 170.326 C 325.000 171.679,321.747 177.932,320.823 179.000 C 320.442 179.440,319.281 181.060,318.242 182.600 C 317.202 184.140,315.904 186.030,315.356 186.800 C 313.834 188.939,309.049 193.704,304.565 197.544 C 299.122 202.206,298.513 202.680,296.200 204.044 C 295.100 204.693,293.390 205.753,292.400 206.399 C 291.410 207.045,289.700 208.050,288.600 208.633 C 287.500 209.215,286.330 209.925,286.000 210.212 C 285.670 210.498,284.770 210.927,284.000 211.165 L 282.600 211.597 283.990 211.391 C 284.755 211.277,286.015 210.766,286.790 210.254 C 287.566 209.743,289.550 208.544,291.200 207.591 C 292.850 206.637,294.560 205.550,295.000 205.175 C 295.440 204.800,296.430 204.178,297.200 203.791 C 297.970 203.405,299.230 202.563,300.000 201.920 C 300.770 201.276,301.898 200.356,302.508 199.875 C 307.577 195.870,313.830 189.812,315.074 187.700 C 315.625 186.765,316.235 186.000,316.430 186.000 C 316.625 186.000,317.152 185.325,317.603 184.500 C 318.053 183.675,319.208 181.920,320.169 180.600 C 322.128 177.909,325.318 171.999,325.752 170.260 C 325.908 169.633,326.420 168.600,326.889 167.965 C 327.359 167.330,327.666 166.739,327.572 166.653 C 327.477 166.567,326.995 167.116,326.501 167.874 M312.032 169.636 C 311.999 170.284,310.760 172.116,308.582 174.735 C 307.912 175.541,307.053 176.694,306.674 177.298 C 304.629 180.554,292.694 191.780,289.400 193.546 C 288.520 194.018,286.810 195.117,285.600 195.989 C 284.390 196.861,282.500 198.001,281.400 198.522 C 280.300 199.044,279.161 199.761,278.868 200.115 C 278.575 200.469,277.696 200.970,276.914 201.229 C 276.131 201.487,274.841 202.149,274.046 202.700 C 272.317 203.898,272.495 203.839,276.500 201.895 C 278.205 201.067,279.600 200.236,279.600 200.048 C 279.600 199.860,280.534 199.319,281.675 198.844 C 282.816 198.370,284.031 197.711,284.375 197.380 C 285.270 196.517,287.541 194.973,289.400 193.962 C 290.280 193.484,291.630 192.580,292.400 191.953 C 293.170 191.326,294.520 190.225,295.400 189.507 C 299.209 186.396,306.312 178.907,307.339 176.920 C 307.702 176.216,308.258 175.495,308.573 175.319 C 309.777 174.645,312.562 170.224,312.256 169.473 C 312.144 169.197,312.050 169.265,312.032 169.636 M331.046 173.944 C 330.192 175.845,329.178 177.760,328.793 178.200 C 328.408 178.640,327.777 179.630,327.390 180.400 C 327.003 181.170,326.352 182.229,325.943 182.754 C 325.535 183.279,325.200 183.903,325.200 184.140 C 325.200 184.378,325.814 183.589,326.565 182.387 C 327.316 181.184,328.293 179.660,328.735 179.000 C 329.914 177.239,332.862 171.180,332.721 170.808 C 332.655 170.632,331.901 172.043,331.046 173.944 M240.700 172.682 C 241.195 172.778,242.005 172.778,242.500 172.682 C 242.995 172.587,242.590 172.509,241.600 172.509 C 240.610 172.509,240.205 172.587,240.700 172.682 M324.586 185.371 C 324.374 185.664,323.300 187.139,322.200 188.650 C 318.332 193.961,306.978 204.722,301.257 208.498 C 300.676 208.882,300.408 209.197,300.662 209.198 C 300.916 209.199,301.856 208.615,302.751 207.900 C 303.646 207.185,305.295 205.970,306.416 205.200 C 307.537 204.430,311.006 201.280,314.126 198.200 C 319.891 192.507,320.128 192.240,322.148 189.154 C 322.780 188.189,323.757 186.907,324.319 186.304 C 324.882 185.701,325.258 185.125,325.157 185.023 C 325.055 184.922,324.798 185.078,324.586 185.371 M268.331 204.769 C 267.793 205.191,266.734 205.715,265.977 205.933 C 265.220 206.150,264.903 206.344,265.274 206.364 C 265.645 206.384,266.431 206.216,267.021 205.992 C 268.252 205.524,270.308 204.000,269.708 204.000 C 269.488 204.000,268.868 204.346,268.331 204.769 M260.000 207.600 C 256.045 209.120,256.914 209.126,261.219 207.608 C 263.079 206.952,264.240 206.423,263.800 206.431 C 263.360 206.440,261.650 206.966,260.000 207.600 M249.200 210.228 C 246.086 211.367,247.015 211.531,250.298 210.423 C 251.564 209.996,253.050 209.570,253.600 209.478 C 254.314 209.357,254.200 209.304,253.200 209.293 C 252.430 209.285,250.630 209.705,249.200 210.228 M299.174 209.831 C 298.886 210.178,297.797 210.895,296.753 211.424 C 295.710 211.952,294.737 212.578,294.592 212.814 C 294.446 213.050,293.398 213.679,292.263 214.212 C 289.191 215.656,287.329 216.800,288.052 216.800 C 288.404 216.800,289.135 216.452,289.676 216.026 C 290.218 215.600,291.682 214.800,292.930 214.248 C 294.179 213.696,295.200 213.081,295.200 212.883 C 295.200 212.684,295.910 212.201,296.778 211.810 C 298.144 211.194,300.543 209.200,299.919 209.200 C 299.797 209.200,299.462 209.484,299.174 209.831 M239.900 211.489 C 240.615 211.578,241.785 211.578,242.500 211.489 C 243.215 211.401,242.630 211.328,241.200 211.328 C 239.770 211.328,239.185 211.401,239.900 211.489 M178.344 212.365 L 177.400 213.129 177.295 263.218 C 177.190 313.800,177.205 314.424,178.549 314.388 C 178.797 314.381,178.685 314.192,178.300 313.968 C 177.639 313.583,177.600 310.790,177.600 264.240 C 177.600 218.599,177.690 213.608,178.539 212.307 C 178.573 212.255,191.470 212.118,207.200 212.001 L 235.800 211.789 207.544 211.695 C 180.244 211.603,179.257 211.626,178.344 212.365 M280.000 212.460 C 279.230 212.931,278.150 213.455,277.600 213.624 C 276.938 213.827,276.839 213.943,277.308 213.966 C 277.697 213.985,279.027 213.460,280.264 212.800 C 281.501 212.140,282.262 211.601,281.956 211.601 C 281.650 211.602,280.770 211.989,280.000 212.460 M273.400 214.891 C 272.960 215.148,271.970 215.601,271.200 215.897 L 269.800 216.437 271.061 216.236 C 271.755 216.126,272.925 215.668,273.661 215.219 C 275.051 214.372,274.810 214.068,273.400 214.891 M266.000 216.970 C 263.836 217.465,260.885 218.793,261.938 218.798 C 262.234 218.799,262.954 218.539,263.538 218.220 C 264.122 217.901,265.770 217.382,267.200 217.067 C 268.630 216.751,269.440 216.488,269.000 216.480 C 268.560 216.473,267.210 216.693,266.000 216.970 M284.400 217.800 C 283.655 218.350,283.200 218.800,283.391 218.800 C 283.581 218.800,284.021 218.553,284.369 218.252 C 284.716 217.951,285.540 217.515,286.200 217.284 C 287.108 216.966,287.200 216.855,286.578 216.832 C 286.125 216.814,285.145 217.250,284.400 217.800 M258.100 219.087 C 258.705 219.178,259.695 219.178,260.300 219.087 C 260.905 218.995,260.410 218.920,259.200 218.920 C 257.990 218.920,257.495 218.995,258.100 219.087 M280.200 219.375 C 279.320 219.662,278.060 220.189,277.400 220.546 C 276.740 220.903,275.840 221.217,275.400 221.244 C 274.741 221.284,274.721 221.325,275.289 221.474 C 275.668 221.573,277.018 221.206,278.289 220.657 C 279.560 220.109,281.140 219.481,281.800 219.262 C 282.460 219.042,282.730 218.861,282.400 218.858 C 282.070 218.856,281.080 219.088,280.200 219.375 M248.400 219.622 C 246.530 219.786,232.100 219.938,216.333 219.960 C 200.566 219.982,187.376 220.111,187.022 220.247 C 185.391 220.873,185.408 220.448,185.200 267.982 L 185.000 313.764 184.000 314.042 C 183.162 314.275,183.133 314.327,183.820 314.360 C 185.655 314.449,185.600 315.894,185.600 268.009 C 185.600 227.538,185.668 222.481,186.223 221.689 L 186.845 220.800 215.015 220.800 C 232.260 220.800,244.235 220.641,245.893 220.389 C 247.382 220.163,250.220 219.828,252.200 219.645 C 254.180 219.461,254.900 219.314,253.800 219.317 C 252.700 219.321,250.270 219.458,248.400 219.622 M270.400 222.800 C 268.970 223.448,268.165 223.983,268.611 223.989 C 269.057 223.995,269.844 223.705,270.359 223.344 C 270.875 222.983,272.040 222.455,272.948 222.170 C 273.857 221.886,274.240 221.647,273.800 221.638 C 273.360 221.629,271.830 222.152,270.400 222.800 M265.700 224.276 C 266.085 224.376,266.715 224.376,267.100 224.276 C 267.485 224.175,267.170 224.093,266.400 224.093 C 265.630 224.093,265.315 224.175,265.700 224.276 M260.200 224.824 C 257.143 225.442,254.509 226.344,255.674 226.373 C 256.265 226.388,257.255 226.190,257.874 225.934 C 258.493 225.677,260.350 225.246,262.000 224.976 C 264.024 224.644,264.479 224.487,263.400 224.492 C 262.520 224.497,261.080 224.646,260.200 224.824 M249.911 226.693 C 250.851 226.778,252.291 226.777,253.111 226.691 C 253.930 226.605,253.160 226.536,251.400 226.537 C 249.640 226.539,248.970 226.609,249.911 226.693 M206.729 227.100 C 214.280 227.161,226.520 227.161,233.929 227.100 C 241.338 227.039,235.160 226.989,220.200 226.989 C 205.240 226.989,199.178 227.039,206.729 227.100 M191.680 227.680 C 190.983 228.377,190.983 313.223,191.680 313.920 C 191.944 314.184,192.529 314.382,192.980 314.360 C 193.667 314.327,193.638 314.275,192.800 314.042 L 191.800 313.764 191.697 270.982 C 191.601 231.116,191.640 228.166,192.273 227.700 C 192.647 227.425,192.775 227.200,192.556 227.200 C 192.338 227.200,191.944 227.416,191.680 227.680 M105.211 314.845 C 103.610 315.484,103.613 315.453,103.606 333.913 C 103.599 355.301,103.577 355.200,108.282 355.200 C 109.161 355.200,109.930 355.469,110.278 355.900 C 110.789 356.532,110.802 356.512,110.408 355.700 C 110.067 354.996,109.634 354.800,108.417 354.800 C 107.327 354.800,106.493 354.490,105.631 353.764 L 104.400 352.729 104.400 334.188 C 104.400 319.795,104.512 315.575,104.900 315.324 C 105.175 315.146,111.160 314.904,118.200 314.787 L 131.000 314.573 118.600 314.512 C 111.227 314.476,105.799 314.611,105.211 314.845 M180.105 314.687 C 180.714 314.779,181.614 314.777,182.105 314.682 C 182.597 314.587,182.100 314.511,181.000 314.514 C 179.900 314.517,179.497 314.595,180.105 314.687 M199.800 314.780 C 206.964 315.043,206.798 314.964,206.806 318.124 C 206.815 321.899,206.590 321.781,214.078 321.929 C 217.839 322.003,220.801 322.235,221.094 322.478 C 221.811 323.073,221.836 368.004,221.120 368.720 C 220.404 369.436,112.187 369.416,111.724 368.700 C 111.546 368.425,111.301 365.590,111.179 362.400 L 110.958 356.600 110.879 362.211 C 110.815 366.735,110.921 367.994,111.423 368.711 L 112.045 369.600 166.479 369.600 C 217.851 369.600,220.942 369.561,221.443 368.900 C 222.398 367.642,222.231 323.133,221.269 322.262 C 220.656 321.708,219.556 321.600,214.497 321.600 C 207.314 321.600,207.200 321.544,207.200 317.994 C 207.200 314.540,206.855 314.380,199.611 314.480 L 193.800 314.559 199.800 314.780 M208.600 327.869 C 206.796 328.359,206.800 328.333,206.800 340.462 C 206.800 349.655,206.681 352.310,206.220 353.413 L 205.641 354.800 162.651 354.800 L 119.661 354.800 118.431 355.836 C 116.509 357.453,116.761 361.945,118.834 363.017 C 120.833 364.051,213.171 363.876,214.456 362.835 L 215.400 362.071 215.400 345.650 C 215.400 326.752,215.641 327.923,211.712 327.752 C 210.440 327.697,209.040 327.749,208.600 327.869 M213.978 328.778 C 215.182 329.982,215.257 331.185,215.124 347.083 C 215.005 361.422,214.971 361.988,214.200 362.570 C 212.876 363.570,120.054 363.502,118.842 362.500 C 117.275 361.205,117.193 357.145,118.711 356.063 L 119.923 355.200 162.662 355.194 C 186.168 355.191,205.628 355.043,205.907 354.866 C 206.954 354.201,207.200 351.502,207.206 340.603 C 207.209 334.441,207.344 329.193,207.506 328.940 C 208.211 327.838,212.920 327.720,213.978 328.778 " stroke="none" fill="#84a4d4" fill-rule="evenodd"></path><path id="path4" d="M105.600 40.695 C 102.641 41.049,102.800 39.858,102.800 61.618 C 102.800 84.412,102.458 82.688,107.054 83.071 L 109.907 83.308 110.068 89.645 C 110.212 95.280,110.321 96.104,111.057 97.091 L 111.885 98.200 121.443 98.400 L 131.000 98.600 131.101 206.071 L 131.201 313.542 118.082 313.671 C 106.331 313.787,104.850 313.874,103.882 314.509 L 102.800 315.218 102.800 334.183 C 102.800 356.872,102.556 355.736,107.547 356.258 L 109.930 356.507 110.065 362.625 C 110.186 368.102,110.288 368.862,111.043 369.872 L 111.886 371.000 166.496 371.101 L 221.106 371.203 221.853 370.101 C 222.561 369.057,222.600 367.789,222.600 345.732 L 222.600 322.465 221.630 321.432 C 220.682 320.423,220.543 320.400,215.330 320.400 C 209.296 320.400,208.402 320.026,208.398 317.500 C 208.397 316.730,208.004 315.710,207.436 315.000 L 206.477 313.800 199.738 313.600 L 193.000 313.400 192.898 270.700 C 192.842 247.215,192.842 227.962,192.898 227.915 C 192.954 227.868,207.670 227.733,225.600 227.615 L 258.200 227.400 260.800 226.455 C 262.230 225.935,265.172 225.275,267.338 224.988 C 270.333 224.592,271.495 224.262,272.189 223.610 C 272.808 223.029,273.983 222.629,275.846 222.365 C 277.546 222.124,279.126 221.616,279.996 221.032 C 280.768 220.512,282.336 219.872,283.480 219.608 C 284.624 219.345,285.764 218.884,286.014 218.583 C 286.263 218.283,287.430 217.757,288.607 217.415 C 289.784 217.073,291.254 216.372,291.873 215.857 C 292.493 215.343,293.467 214.808,294.037 214.669 C 294.608 214.530,295.530 213.961,296.086 213.405 C 296.642 212.849,297.648 212.202,298.322 211.967 C 298.996 211.732,299.833 211.104,300.183 210.570 C 300.532 210.037,301.133 209.600,301.517 209.600 C 301.901 209.600,303.074 208.890,304.125 208.021 C 305.176 207.153,306.371 206.336,306.781 206.206 C 307.191 206.076,307.628 205.704,307.753 205.379 C 307.877 205.054,308.452 204.609,309.028 204.389 C 309.605 204.170,310.173 203.625,310.290 203.179 C 310.406 202.733,311.006 202.107,311.622 201.788 C 312.239 201.470,312.850 200.874,312.979 200.465 C 313.109 200.056,313.666 199.516,314.216 199.266 C 314.766 199.015,315.388 198.358,315.598 197.805 C 315.808 197.252,316.263 196.800,316.609 196.800 C 316.954 196.800,317.530 196.291,317.887 195.668 C 318.244 195.046,319.046 194.244,319.668 193.887 C 320.291 193.530,320.800 192.969,320.800 192.641 C 320.800 192.314,321.131 191.810,321.537 191.523 C 321.942 191.235,322.504 190.550,322.785 190.000 C 323.067 189.450,323.716 188.550,324.228 188.000 C 324.739 187.450,325.457 186.283,325.823 185.407 C 326.189 184.530,326.796 183.598,327.171 183.335 C 327.546 183.073,328.098 182.114,328.399 181.204 C 328.699 180.295,329.257 179.383,329.640 179.179 C 330.023 178.974,330.556 178.130,330.826 177.303 C 331.095 176.476,331.719 175.316,332.211 174.725 C 332.726 174.107,333.283 172.642,333.525 171.272 C 333.806 169.676,334.265 168.572,334.918 167.918 C 335.708 167.128,335.947 166.365,336.179 163.884 C 336.360 161.959,336.725 160.486,337.165 159.912 C 338.252 158.494,338.380 157.883,338.789 152.160 C 338.999 149.212,339.380 146.412,339.634 145.936 C 340.267 144.753,340.260 130.596,339.627 129.832 C 339.365 129.516,339.011 126.499,338.797 122.756 C 338.478 117.154,338.308 116.073,337.601 115.116 C 337.071 114.399,336.592 112.754,336.256 110.501 C 335.747 107.072,335.104 105.200,334.438 105.200 C 334.254 105.200,333.895 104.137,333.639 102.838 C 333.384 101.539,332.816 100.020,332.379 99.464 C 331.941 98.907,331.311 97.680,330.978 96.737 C 330.645 95.794,330.035 94.658,329.622 94.211 C 329.209 93.765,328.666 92.626,328.415 91.679 C 328.163 90.732,327.652 89.647,327.279 89.268 C 326.906 88.888,326.102 87.818,325.494 86.889 C 324.886 85.960,324.225 85.200,324.025 85.200 C 323.826 85.200,323.454 84.569,323.199 83.797 C 322.944 83.025,322.392 82.210,321.972 81.985 C 321.552 81.760,320.932 81.042,320.594 80.388 C 320.256 79.735,319.719 79.200,319.400 79.200 C 319.081 79.200,318.540 78.657,318.196 77.992 C 317.477 76.602,314.834 74.027,314.110 74.011 C 313.841 74.005,313.341 73.460,313.000 72.800 C 312.659 72.140,312.210 71.600,312.003 71.600 C 311.662 71.600,310.412 70.543,307.600 67.877 C 307.050 67.355,306.201 66.717,305.713 66.457 C 305.225 66.198,304.330 65.526,303.725 64.965 C 303.119 64.404,302.130 63.846,301.527 63.725 C 300.924 63.605,300.165 63.102,299.841 62.607 C 299.483 62.060,298.513 61.522,297.363 61.233 C 295.545 60.775,294.738 60.288,291.831 57.899 C 291.094 57.293,289.851 56.530,289.068 56.203 C 288.285 55.875,287.213 55.177,286.686 54.650 C 286.159 54.123,284.999 53.569,284.108 53.418 C 283.175 53.261,282.097 52.729,281.567 52.165 C 281.041 51.605,279.978 51.078,279.087 50.935 C 278.174 50.790,277.140 50.269,276.595 49.681 C 275.903 48.935,275.045 48.592,273.264 48.348 C 271.838 48.153,270.290 47.630,269.447 47.058 C 268.604 46.485,267.110 45.981,265.758 45.812 C 264.509 45.656,262.838 45.196,262.044 44.789 C 260.530 44.014,257.816 43.443,252.800 42.842 C 251.150 42.645,248.990 42.175,248.000 41.799 C 246.640 41.281,244.100 41.031,237.600 40.775 C 229.145 40.442,108.335 40.369,105.600 40.695 M244.600 42.334 C 246.800 42.809,250.445 43.374,252.700 43.589 C 254.995 43.808,257.365 44.272,258.083 44.643 C 258.788 45.008,261.083 45.659,263.183 46.091 C 265.282 46.523,267.572 47.226,268.271 47.653 C 268.971 48.080,270.743 48.681,272.210 48.988 C 273.677 49.295,275.175 49.814,275.539 50.142 C 275.902 50.471,277.219 51.119,278.464 51.585 C 279.709 52.050,280.943 52.690,281.207 53.008 C 281.471 53.326,282.296 53.755,283.041 53.960 C 284.561 54.380,286.588 55.588,291.113 58.772 C 292.811 59.967,295.084 61.282,296.164 61.695 C 297.245 62.108,298.595 62.808,299.164 63.252 C 299.734 63.695,301.550 64.949,303.200 66.038 C 307.834 69.096,308.823 69.871,311.349 72.425 C 312.641 73.731,313.845 74.800,314.026 74.800 C 314.484 74.800,321.939 83.263,322.961 84.943 C 323.423 85.701,324.560 87.315,325.490 88.530 C 326.419 89.745,327.535 91.673,327.969 92.814 C 328.402 93.956,329.014 95.185,329.328 95.545 C 329.642 95.905,330.106 96.846,330.359 97.635 C 330.612 98.425,331.252 99.658,331.781 100.374 C 332.310 101.091,332.863 102.425,333.009 103.339 C 333.156 104.253,333.616 105.591,334.032 106.313 C 334.808 107.659,336.000 112.154,336.000 113.731 C 336.000 114.215,336.361 115.285,336.802 116.108 C 339.446 121.042,339.448 149.892,336.804 158.000 C 336.194 159.870,335.573 162.414,335.424 163.653 C 335.257 165.050,334.798 166.390,334.217 167.177 C 333.702 167.875,333.158 169.100,333.008 169.899 C 332.708 171.499,329.783 177.840,329.171 178.218 C 328.958 178.349,328.323 179.299,327.759 180.328 C 325.835 183.839,324.601 185.866,323.312 187.633 C 322.604 188.605,321.614 189.995,321.112 190.722 C 319.670 192.811,308.663 203.653,306.414 205.200 C 305.294 205.970,303.646 207.185,302.751 207.900 C 301.856 208.615,300.903 209.200,300.632 209.200 C 300.361 209.200,299.738 209.627,299.248 210.149 C 298.757 210.671,297.646 211.419,296.778 211.810 C 295.910 212.201,295.200 212.682,295.200 212.877 C 295.200 213.073,294.051 213.749,292.647 214.379 C 291.243 215.009,289.979 215.710,289.840 215.936 C 289.700 216.162,288.554 216.645,287.293 217.010 C 286.032 217.374,284.730 217.908,284.400 218.197 C 284.070 218.486,282.878 218.993,281.751 219.324 C 280.624 219.655,279.169 220.202,278.518 220.539 C 277.866 220.876,276.102 221.437,274.597 221.786 C 273.092 222.135,271.306 222.764,270.627 223.183 C 269.838 223.671,267.668 224.178,264.597 224.590 C 261.959 224.945,259.108 225.503,258.262 225.830 C 255.628 226.848,245.970 227.183,219.074 227.192 C 201.983 227.197,192.884 227.341,192.374 227.614 C 191.397 228.137,191.127 313.247,192.100 313.876 C 192.375 314.054,195.588 314.290,199.240 314.400 C 207.116 314.637,207.200 314.675,207.200 318.020 C 207.200 321.540,207.322 321.600,214.497 321.600 C 219.556 321.600,220.656 321.708,221.269 322.262 C 222.231 323.133,222.398 367.642,221.443 368.900 C 220.942 369.561,217.851 369.600,166.479 369.600 L 112.045 369.600 111.423 368.711 C 110.933 368.011,110.797 366.627,110.787 362.211 C 110.773 355.826,110.549 355.200,108.282 355.200 C 106.044 355.200,104.821 354.549,104.181 353.015 C 103.546 351.496,103.297 316.696,103.914 315.725 C 104.638 314.586,106.720 314.400,118.737 314.400 C 129.208 314.400,131.153 314.308,131.911 313.777 L 132.800 313.155 132.800 206.220 L 132.800 99.285 131.640 98.042 L 130.479 96.800 121.288 96.800 C 110.048 96.800,111.044 97.503,110.870 89.444 C 110.721 82.554,110.735 82.588,107.832 82.288 C 103.335 81.824,103.513 82.813,103.680 59.200 L 103.800 42.200 105.200 41.710 C 108.112 40.692,239.732 41.281,244.600 42.334 M118.489 83.023 C 117.067 84.019,117.164 88.873,118.619 89.536 C 120.255 90.281,130.800 90.156,131.911 89.377 C 133.293 88.409,133.225 83.970,131.814 83.046 C 130.400 82.120,119.805 82.101,118.489 83.023 M178.262 83.131 C 177.654 83.803,177.600 87.482,177.600 127.870 C 177.600 178.469,177.161 173.444,181.552 173.126 C 185.592 172.834,185.200 177.303,185.200 131.560 L 185.200 91.218 186.204 90.561 C 187.719 89.568,245.816 89.949,249.200 90.973 C 251.897 91.790,253.589 92.139,258.100 92.809 C 260.317 93.138,261.600 93.509,261.600 93.820 C 261.600 94.438,264.371 94.989,264.887 94.473 C 265.361 93.999,264.718 93.563,263.035 93.221 C 262.183 93.048,261.762 92.707,261.677 92.120 C 261.601 91.595,260.988 91.004,260.077 90.576 C 259.265 90.194,258.091 89.459,257.469 88.941 C 256.847 88.424,256.127 88.000,255.869 88.000 C 255.611 88.000,254.317 87.487,252.993 86.860 C 251.668 86.234,249.148 85.403,247.393 85.015 C 245.637 84.626,243.750 84.086,243.200 83.815 C 240.006 82.240,179.644 81.604,178.262 83.131 M131.120 86.164 C 131.270 89.642,131.366 89.586,125.274 89.594 C 118.991 89.602,118.800 89.502,118.800 86.219 C 118.800 83.088,118.465 83.235,125.400 83.326 L 131.000 83.400 131.120 86.164 M238.060 83.900 C 238.335 84.175,239.109 84.402,239.780 84.404 C 240.451 84.407,241.810 84.652,242.800 84.950 C 243.790 85.248,245.665 85.623,246.966 85.783 C 248.268 85.943,249.798 86.417,250.366 86.835 C 250.935 87.254,252.457 87.870,253.748 88.206 C 255.282 88.604,256.367 89.159,256.877 89.808 C 257.316 90.365,258.073 90.800,258.605 90.800 C 259.603 90.800,260.196 91.359,259.829 91.952 C 259.593 92.335,256.266 91.709,251.800 90.441 C 249.117 89.679,247.686 89.645,217.426 89.623 L 185.852 89.600 184.926 90.470 L 184.000 91.339 184.000 131.406 L 184.000 171.472 182.981 171.936 C 181.658 172.539,179.490 172.530,178.880 171.920 C 178.345 171.385,178.151 83.982,178.684 83.450 C 179.228 82.905,237.507 83.347,238.060 83.900 M318.243 91.131 C 317.930 91.636,318.446 94.400,318.852 94.400 C 319.321 94.400,319.298 91.308,318.828 91.017 C 318.623 90.891,318.360 90.942,318.243 91.131 M320.154 95.775 C 319.795 96.710,320.320 99.630,321.402 102.728 C 321.926 104.228,322.639 107.603,322.987 110.228 C 323.335 112.852,323.791 115.720,324.000 116.600 C 324.609 119.158,324.491 133.906,323.837 137.074 C 323.527 138.573,323.063 141.510,322.806 143.600 C 322.500 146.085,322.003 148.055,321.369 149.293 C 320.836 150.334,320.400 151.800,320.400 152.552 C 320.400 153.304,319.885 154.898,319.255 156.095 C 318.626 157.291,317.890 159.191,317.620 160.315 C 317.350 161.440,316.903 162.548,316.627 162.778 C 316.350 163.008,315.793 163.961,315.389 164.898 C 314.986 165.834,314.171 167.140,313.578 167.800 C 312.986 168.460,312.393 169.465,312.260 170.034 C 312.007 171.114,310.360 173.491,308.681 175.200 C 308.140 175.750,307.467 176.650,307.184 177.200 C 306.297 178.926,298.916 186.635,295.400 189.507 C 294.520 190.225,293.170 191.326,292.400 191.953 C 291.630 192.580,290.280 193.484,289.400 193.962 C 287.541 194.973,285.270 196.517,284.375 197.380 C 284.031 197.711,282.816 198.370,281.675 198.844 C 280.534 199.319,279.600 199.857,279.600 200.040 C 279.600 200.554,272.224 204.000,271.126 204.000 C 270.592 204.000,269.556 204.442,268.823 204.983 C 268.090 205.524,266.497 206.172,265.284 206.424 C 264.070 206.676,261.953 207.305,260.579 207.822 C 259.206 208.339,256.848 208.965,255.341 209.213 C 253.833 209.461,251.610 209.993,250.400 210.396 C 246.864 211.571,235.044 211.999,205.934 212.006 C 191.340 212.009,179.186 212.148,178.925 212.314 C 177.649 213.126,177.600 215.029,177.600 264.212 L 177.600 313.572 178.466 314.035 C 179.347 314.507,183.902 314.355,184.758 313.826 C 185.076 313.629,185.200 300.850,185.200 268.157 C 185.200 219.862,185.158 220.962,187.018 220.248 C 187.374 220.112,200.206 220.001,215.533 220.001 C 246.527 220.002,260.001 219.432,262.847 217.998 C 263.642 217.596,265.877 216.972,267.812 216.609 C 269.747 216.246,271.997 215.610,272.811 215.194 C 273.626 214.779,275.172 214.223,276.246 213.960 C 277.321 213.697,278.920 213.079,279.800 212.586 C 280.680 212.093,282.346 211.471,283.501 211.205 C 284.657 210.938,285.705 210.554,285.830 210.351 C 285.956 210.148,287.080 209.441,288.329 208.779 C 289.578 208.117,291.410 207.046,292.400 206.399 C 293.390 205.753,295.100 204.693,296.200 204.044 C 298.513 202.680,299.122 202.206,304.565 197.544 C 309.049 193.704,313.834 188.939,315.356 186.800 C 315.904 186.030,317.202 184.140,318.242 182.600 C 319.281 181.060,320.442 179.440,320.823 179.000 C 321.769 177.906,325.003 171.664,325.352 170.260 C 325.508 169.633,325.987 168.643,326.416 168.060 C 326.845 167.477,327.474 165.930,327.813 164.623 C 328.152 163.316,328.617 162.021,328.846 161.745 C 329.074 161.470,329.691 158.625,330.216 155.423 C 330.742 152.221,331.403 149.196,331.685 148.700 C 332.777 146.788,332.617 131.648,331.440 125.537 C 330.875 122.602,330.225 118.856,329.996 117.213 C 329.766 115.570,329.322 113.835,329.008 113.356 C 328.694 112.877,328.161 111.294,327.824 109.839 C 327.486 108.384,326.782 106.339,326.260 105.296 C 325.737 104.253,325.082 102.680,324.805 101.800 C 324.528 100.920,323.973 99.839,323.572 99.397 C 323.171 98.955,322.608 97.878,322.321 97.003 C 321.775 95.334,320.583 94.659,320.154 95.775 M321.700 97.900 C 321.918 99.638,321.601 100.502,321.159 99.373 C 320.733 98.284,320.731 96.400,321.156 96.400 C 321.352 96.400,321.597 97.075,321.700 97.900 M193.680 97.329 C 192.954 97.598,192.192 98.084,191.986 98.409 C 191.231 99.604,191.499 171.818,192.261 172.451 C 193.979 173.877,240.846 173.252,245.000 171.747 C 245.880 171.429,247.680 170.819,249.000 170.394 C 257.309 167.713,268.305 159.266,271.059 153.450 C 271.592 152.322,272.277 150.950,272.579 150.400 C 274.858 146.260,275.654 144.108,276.028 141.070 C 276.249 139.272,276.720 136.720,277.075 135.400 C 278.028 131.856,277.911 123.352,276.840 118.200 C 276.382 116.000,276.006 113.741,276.004 113.180 C 275.998 111.642,272.655 107.326,270.370 105.905 C 269.286 105.231,268.400 104.542,268.400 104.373 C 268.400 104.204,267.545 103.748,266.500 103.358 C 265.455 102.969,264.113 102.253,263.519 101.767 C 262.808 101.186,261.602 100.786,260.000 100.600 C 258.660 100.444,256.807 99.915,255.882 99.423 C 254.172 98.515,249.057 97.886,239.200 97.373 C 229.701 96.879,194.986 96.845,193.680 97.329 M249.400 98.809 C 252.367 99.098,253.686 99.410,254.509 100.018 C 255.251 100.566,256.660 100.956,258.769 101.196 C 261.325 101.488,262.111 101.747,262.932 102.569 C 263.523 103.160,264.630 103.691,265.587 103.844 C 266.581 104.003,267.386 104.400,267.626 104.849 C 267.845 105.258,268.557 105.868,269.210 106.205 C 270.398 106.819,271.747 108.129,274.007 110.862 C 275.165 112.262,275.234 112.562,275.621 117.862 C 275.843 120.908,276.193 124.359,276.398 125.532 C 276.627 126.838,276.629 128.387,276.403 129.532 C 276.201 130.559,275.845 134.075,275.612 137.344 C 275.262 142.256,275.051 143.463,274.394 144.299 C 273.956 144.855,273.335 146.197,273.013 147.281 C 272.691 148.365,271.972 149.794,271.414 150.456 C 270.856 151.119,270.400 152.059,270.400 152.545 C 270.400 153.768,267.317 157.178,260.675 163.300 C 260.018 163.905,259.252 164.400,258.971 164.400 C 258.691 164.400,257.941 164.838,257.304 165.374 C 256.668 165.909,255.194 166.710,254.029 167.152 C 252.864 167.595,251.596 168.241,251.213 168.588 C 250.829 168.936,249.364 169.416,247.958 169.657 C 246.551 169.897,244.829 170.439,244.132 170.860 C 241.743 172.303,196.737 173.265,193.819 171.936 L 192.800 171.472 192.800 135.356 C 192.800 101.382,192.842 99.216,193.500 98.832 C 194.417 98.298,243.928 98.278,249.400 98.809 M324.577 103.800 C 324.730 104.680,325.312 106.067,325.869 106.881 C 326.517 107.827,326.982 109.207,327.158 110.700 C 327.310 111.985,327.825 113.670,328.303 114.443 C 328.998 115.567,329.299 117.121,329.806 122.195 C 330.154 125.685,330.557 128.731,330.701 128.963 C 330.933 129.339,331.613 135.717,331.644 137.800 C 331.671 139.683,330.845 146.713,330.450 147.964 C 330.213 148.714,329.904 150.964,329.764 152.964 C 329.624 154.964,329.271 157.100,328.980 157.711 C 328.343 159.047,327.385 162.398,327.010 164.600 C 326.860 165.480,326.295 166.667,325.754 167.238 C 325.213 167.808,324.663 168.978,324.533 169.838 C 324.403 170.697,323.886 171.850,323.385 172.400 C 322.884 172.950,322.251 174.159,321.978 175.086 C 321.705 176.013,321.058 177.169,320.541 177.655 C 320.023 178.142,319.600 178.704,319.600 178.906 C 319.600 179.108,318.980 179.998,318.221 180.883 C 317.463 181.769,316.731 183.005,316.594 183.629 C 316.457 184.253,316.006 184.871,315.593 185.002 C 315.179 185.134,314.723 185.637,314.580 186.120 C 314.256 187.212,303.602 197.818,302.468 198.178 C 302.013 198.323,301.533 198.783,301.400 199.200 C 301.267 199.617,300.763 200.078,300.280 200.224 C 299.796 200.369,298.860 200.989,298.200 201.600 C 297.540 202.211,296.550 202.846,296.000 203.010 C 295.450 203.174,294.409 203.824,293.686 204.454 C 292.963 205.084,292.125 205.600,291.824 205.600 C 291.522 205.600,290.522 206.230,289.600 207.000 C 288.678 207.770,287.595 208.400,287.193 208.400 C 286.791 208.400,285.925 208.851,285.269 209.403 C 284.601 209.966,283.169 210.578,282.008 210.799 C 279.750 211.227,279.393 211.378,278.200 212.413 C 277.760 212.795,276.372 213.230,275.116 213.380 C 273.715 213.548,272.274 214.033,271.386 214.636 C 270.304 215.370,269.103 215.702,266.628 215.953 C 264.223 216.197,262.993 216.529,262.129 217.168 C 260.304 218.518,253.260 218.777,218.074 218.789 C 196.705 218.797,186.898 218.934,186.340 219.232 C 184.136 220.412,184.217 218.714,184.000 268.000 L 183.800 313.400 181.200 313.400 L 178.600 313.400 178.483 264.800 C 178.402 230.914,178.497 215.747,178.798 214.705 L 179.229 213.211 206.714 213.057 C 239.085 212.876,250.828 212.258,254.186 210.558 C 254.854 210.220,256.920 209.694,258.778 209.390 C 260.827 209.053,262.590 208.514,263.262 208.018 C 263.870 207.568,264.780 207.192,265.284 207.182 C 266.679 207.156,269.301 206.120,269.678 205.446 C 269.863 205.117,270.865 204.722,271.907 204.569 C 274.298 204.218,275.586 203.739,276.600 202.826 C 277.040 202.429,277.855 201.998,278.412 201.867 C 278.968 201.736,280.035 201.083,280.784 200.415 C 281.532 199.747,282.458 199.200,282.841 199.200 C 283.225 199.200,284.051 198.768,284.678 198.241 C 285.305 197.714,286.581 196.884,287.513 196.399 C 288.445 195.913,289.341 195.309,289.504 195.058 C 289.667 194.806,290.475 194.288,291.300 193.906 C 292.125 193.525,292.800 193.036,292.800 192.819 C 292.800 192.603,293.231 192.195,293.759 191.913 C 297.030 190.163,307.428 179.568,307.858 177.546 C 307.982 176.959,308.512 176.295,309.052 176.049 C 309.586 175.806,310.135 175.290,310.272 174.903 C 310.409 174.517,311.013 173.734,311.614 173.165 C 312.289 172.526,312.814 171.501,312.985 170.490 C 313.166 169.417,313.584 168.641,314.195 168.240 C 314.709 167.904,315.339 166.992,315.595 166.214 C 315.852 165.436,316.223 164.800,316.421 164.800 C 316.944 164.800,317.850 162.843,318.179 161.000 C 318.336 160.120,318.809 159.030,319.229 158.578 C 319.649 158.126,320.275 156.506,320.620 154.978 C 320.964 153.450,321.618 151.495,322.073 150.634 C 322.551 149.729,323.115 147.447,323.408 145.234 C 323.687 143.125,324.248 140.590,324.655 139.600 C 325.888 136.595,325.766 115.970,324.495 112.600 C 323.449 109.827,322.671 102.524,323.332 101.675 C 323.856 101.000,324.187 101.565,324.577 103.800 M208.800 328.295 C 207.235 328.586,207.213 328.757,207.206 340.603 C 207.200 351.502,206.954 354.201,205.907 354.866 C 205.628 355.043,186.168 355.191,162.662 355.194 L 119.923 355.200 118.711 356.063 C 117.193 357.145,117.275 361.205,118.842 362.500 C 120.054 363.502,212.876 363.570,214.200 362.570 C 215.018 361.953,215.708 334.663,215.002 330.878 C 214.522 328.307,212.737 327.563,208.800 328.295 M213.536 330.219 C 214.034 331.312,214.215 358.048,213.743 360.900 L 213.495 362.400 166.566 362.400 L 119.638 362.400 119.221 360.900 C 118.653 358.856,118.695 357.385,119.335 356.854 C 119.717 356.537,132.173 356.381,163.102 356.305 L 206.336 356.200 207.368 355.230 L 208.400 354.261 208.400 342.656 C 208.400 331.292,208.418 331.032,209.270 330.126 C 210.535 328.779,212.903 328.831,213.536 330.219 " stroke="none" fill="#a4b4dc" fill-rule="evenodd"></path></g></svg>