<svg xmlns="http://www.w3.org/2000/svg" width="600" height="582"
    viewBox="79.32029724121094 122.77799987792969 332.167724609375 372.76800537109375" fill="none">
    <path
        d="M136.704 441.519C117.2 441.519 100.53 427.435 100.641 407.921C100.953 353.114 216.924 323.474 216.924 276.249C216.924 231.757 114.245 251.728 114.245 214.049C114.245 191.345 157.121 184.989 187.954 184.989C250.979 184.989 319.447 212.231 319.447 267.63C319.447 299.41 297.022 336.186 251.682 336.186C244.423 336.186 238.981 335.183 229.915 335.283C143.171 336.231 189.838 441.53 136.704 441.53V441.519ZM154.846 495.546C201.447 495.401 234.9 456.495 234.9 419.261C234.9 397.015 223.113 387.47 223.113 371.591C223.113 357.975 231.733 352.98 239.438 352.98C248.961 352.98 260.291 360.696 283.418 360.696C338.292 360.696 411.488 318.021 411.488 245.818C411.488 168.631 322.614 122.778 238.278 122.778C168.897 122.778 91.6757 150.945 90.2037 199.965C88.2746 264.44 166.332 253.992 166.332 294.403C166.332 337.536 79.3203 336.22 79.3203 417.444C79.3203 458.312 114.034 495.546 154.835 495.546H154.846Z"
        fill="black"></path>
</svg>