<svg class="new-loader-sellix" style="background-color: white" width="68" height="68"
    viewBox="0 0 68 68" fill="none" xmlns="http://www.w3.org/2000/svg">
    <path
        d="M29.4222 27.4898L37.147 24.9109L36.6271 27.1079C37.2968 27.2665 38.0252 27.478 38.83 27.7659C40.6158 28.4032 42.2341 29.1434 43.688 29.9834L46.9013 23.2133C45.371 22.244 43.5676 21.4656 41.4881 20.8811C39.4086 20.2937 37.3261 20 35.2349 20C32.9409 20 30.926 20.3583 29.1902 21.0721C27.4543 21.7858 26.1179 22.8138 25.1751 24.1502C24.2322 25.4925 23.7594 27.0551 23.7594 28.8379C23.7594 30.6737 24.2176 32.1393 25.1369 33.2378C26.0533 34.3334 27.143 35.144 28.406 35.6668C29.6689 36.1897 31.2433 36.6919 33.1289 37.1765C33.6371 37.3028 34.0864 37.4233 34.5065 37.5466L35.0058 35.4348L41.0064 40.1607L33.2846 42.7395L33.6987 40.9831C32.706 40.7834 31.6104 40.4544 30.3768 39.9522C28.3384 39.1209 26.6407 38.1194 25.2896 36.9474L22 43.6412C23.7594 44.9923 25.8448 46.0556 28.2562 46.8339C30.6646 47.6123 33.0555 48 35.4258 48C37.517 48 39.4174 47.6798 41.1268 47.0425C42.8363 46.4051 44.1932 45.43 45.2007 44.1171C46.2081 42.8042 46.7133 41.1799 46.7133 39.2414C46.7133 37.3528 46.2404 35.8313 45.2976 34.6711C44.3548 33.511 43.2504 32.6621 41.9874 32.1276C40.7244 31.593 39.1384 31.0555 37.2263 30.5209C36.7416 30.3917 36.3157 30.2683 35.9134 30.1479L35.4228 32.2157L29.4222 27.4898Z"
        fill="black"></path>
</svg>