<svg xmlns="http://www.w3.org/2000/svg" width="250" height="254" viewBox="0 0 250 254" version="1.1"><path d="M 46.389 82.500 C 46.390 89.650, 46.550 92.444, 46.742 88.708 C 46.935 84.973, 46.934 79.123, 46.739 75.708 C 46.545 72.294, 46.387 75.350, 46.389 82.500 M 46.195 100.500 C 46.215 102.150, 46.439 102.704, 46.693 101.731 C 46.947 100.758, 46.930 99.408, 46.656 98.731 C 46.382 98.054, 46.175 98.850, 46.195 100.500 M 158 180.021 L 158 197.042 177.750 196.771 L 197.500 196.500 197.774 179.750 L 198.048 163 178.024 163 L 158 163 158 180.021" stroke="none" fill="#2fceb6" fill-rule="evenodd"/><path d="M 47 86.500 L 47 104 66.500 104 L 86 104 86 86.500 L 86 69 66.500 69 L 47 69 47 86.500 M 102 132.990 L 102 197 122.500 197 L 143 197 143 150.516 L 143 104.032 170.250 103.766 L 197.500 103.500 197.500 86.500 L 197.500 69.500 149.750 69.240 L 102 68.981 102 132.990" stroke="none" fill="#fafafc" fill-rule="evenodd"/><path d="M 54.500 4.088 C 31.677 6.347, 16.428 16.166, 7.497 34.355 C 1.414 46.743, 1.013 52.412, 1.006 126.026 C 1 190.753, 1.498 202.553, 4.655 212.500 C 9.973 229.258, 23.822 242.452, 41.581 247.680 C 46.919 249.251, 54.644 249.455, 120.278 249.760 C 201.136 250.134, 205.154 249.892, 217.739 243.886 C 226.946 239.492, 236.783 229.870, 241.375 220.766 C 248.486 206.670, 248.466 206.936, 248.484 128 C 248.501 54.336, 248.312 50.529, 244.050 38.403 C 241.710 31.744, 235.202 22.185, 229.946 17.686 C 223.881 12.494, 213.533 7.411, 205 5.432 C 198.334 3.886, 190.047 3.665, 130.500 3.445 C 93.650 3.308, 59.450 3.598, 54.500 4.088 M 46.414 70.364 C 46.126 71.114, 46.028 78.876, 46.195 87.614 L 46.500 103.500 66.250 103.771 L 86 104.042 86 86.521 L 86 69 66.469 69 C 50.898 69, 46.831 69.277, 46.414 70.364 M 102 132.990 L 102 197 122.500 197 L 143 197 143 150.516 L 143 104.032 170.250 103.766 L 197.500 103.500 197.500 86.500 L 197.500 69.500 149.750 69.240 L 102 68.981 102 132.990 M 158 180.021 L 158 197.042 177.750 196.771 L 197.500 196.500 197.774 179.750 L 198.048 163 178.024 163 L 158 163 158 180.021" stroke="none" fill="#5051eb" fill-rule="evenodd"/></svg>