<svg xmlns="http://www.w3.org/2000/svg" width="400" height="400" viewBox="0 0 400 400" version="1.1"><path d="M 174.500 89.369 C 166.497 92.991, 165 97.791, 165 119.834 L 165 137.731 158.081 138.226 C 144.986 139.163, 139.996 145.027, 140.006 159.462 C 140.011 167.410, 141.424 175.166, 142.793 174.763 C 143.182 174.649, 144.714 175.367, 146.198 176.358 C 147.681 177.350, 151.871 178.671, 155.509 179.294 C 160.984 180.232, 162.044 180.723, 161.671 182.149 C 161.424 183.096, 161.846 184.111, 162.611 184.404 C 163.760 184.845, 164.003 191.110, 164.015 220.719 C 164.032 262.617, 164.441 265.574, 171.710 276.311 C 178.056 285.683, 185.825 292.337, 196.500 297.543 C 206.977 302.651, 218.828 305.724, 231.500 306.618 C 244.102 307.507, 251.090 305.922, 256.398 300.969 L 260.500 297.141 260.496 283.821 C 260.491 264.721, 258.854 262.406, 243.233 259.418 C 232.636 257.390, 227.440 254.142, 224.420 247.655 C 222.059 242.585, 222.019 242.017, 222.010 213.250 C 222.001 186.062, 222.123 183.999, 223.750 183.985 C 225.134 183.973, 225.212 183.787, 224.122 183.096 C 221.219 181.258, 224.286 179.999, 231.809 179.940 C 242.365 179.859, 248.569 178.695, 252.010 176.151 C 255.299 173.719, 256.448 173.415, 255.412 175.250 C 254.875 176.201, 255.004 176.225, 255.953 175.350 C 257.562 173.866, 259.276 158.694, 258.422 153.500 C 257.197 146.058, 253.408 141.251, 247.101 139.139 C 245.231 138.512, 238.852 138, 232.926 138 L 222.150 138 221.825 118.070 C 221.527 99.786, 221.330 97.913, 219.438 95.382 C 214.547 88.838, 213.453 88.523, 194.680 88.256 C 181.912 88.074, 176.730 88.360, 174.500 89.369" stroke="none" fill="#e9eff4" fill-rule="evenodd"/><path d="M -0 200.002 L -0 400.005 200.250 399.752 L 400.500 399.500 400.752 199.750 L 401.005 0 200.502 0 L 0 0 -0 200.002 M 0.490 200.500 C 0.490 310.500, 0.607 355.352, 0.750 300.170 C 0.893 244.989, 0.893 154.989, 0.750 100.170 C 0.607 45.352, 0.490 90.500, 0.490 200.500 M 174.500 89.369 C 166.497 92.991, 165 97.791, 165 119.834 L 165 137.731 158.081 138.226 C 144.986 139.163, 139.996 145.027, 140.006 159.462 C 140.011 167.410, 141.424 175.166, 142.793 174.763 C 143.182 174.649, 144.714 175.367, 146.198 176.358 C 147.681 177.350, 151.871 178.671, 155.509 179.294 C 160.984 180.232, 162.044 180.723, 161.671 182.149 C 161.424 183.096, 161.846 184.111, 162.611 184.404 C 163.760 184.845, 164.003 191.110, 164.015 220.719 C 164.032 262.617, 164.441 265.574, 171.710 276.311 C 178.056 285.683, 185.825 292.337, 196.500 297.543 C 206.977 302.651, 218.828 305.724, 231.500 306.618 C 244.102 307.507, 251.090 305.922, 256.398 300.969 L 260.500 297.141 260.496 283.821 C 260.491 264.721, 258.854 262.406, 243.233 259.418 C 232.636 257.390, 227.440 254.142, 224.420 247.655 C 222.059 242.585, 222.019 242.017, 222.010 213.250 C 222.001 186.062, 222.123 183.999, 223.750 183.985 C 225.134 183.973, 225.212 183.787, 224.122 183.096 C 221.219 181.258, 224.286 179.999, 231.809 179.940 C 242.365 179.859, 248.569 178.695, 252.010 176.151 C 255.299 173.719, 256.448 173.415, 255.412 175.250 C 254.875 176.201, 255.004 176.225, 255.953 175.350 C 257.562 173.866, 259.276 158.694, 258.422 153.500 C 257.197 146.058, 253.408 141.251, 247.101 139.139 C 245.231 138.512, 238.852 138, 232.926 138 L 222.150 138 221.825 118.070 C 221.527 99.786, 221.330 97.913, 219.438 95.382 C 214.547 88.838, 213.453 88.523, 194.680 88.256 C 181.912 88.074, 176.730 88.360, 174.500 89.369" stroke="none" fill="#56aae6" fill-rule="evenodd"/></svg>