<svg xmlns="http://www.w3.org/2000/svg" width="480" height="480" viewBox="0 0 480 480" version="1.1"><path d="M 168.571 51.571 C 167.355 52.787, 167 55.372, 167 63 C 167 75.573, 167.362 76, 178.015 76 C 188.201 76, 189 75.055, 189 63 C 189 50.945, 188.201 50, 178.015 50 C 172.192 50, 169.734 50.409, 168.571 51.571 M 140.798 85.931 C 137.661 86.934, 133.161 88.893, 130.798 90.285 C 125 93.700, 116.783 102.146, 113.639 107.923 C 107.786 118.677, 108 113.383, 108 247.105 C 108 366.219, 108.057 369.974, 109.964 376.145 C 115.259 393.278, 130.156 406.128, 148 408.955 C 156.955 410.374, 317.181 410.362, 327.678 408.942 C 345.349 406.551, 359.316 395.486, 366.103 378.500 L 368.500 372.500 368.773 250.101 C 368.953 169.339, 368.696 125.809, 368.018 122.138 C 364.924 105.403, 352.108 90.936, 335.909 85.895 C 330.116 84.091, 325.398 84.003, 238.161 84.054 C 152.300 84.104, 146.139 84.223, 140.798 85.931 M 159.241 122.325 C 153.556 125.483, 153.525 125.687, 153.202 162.023 C 152.867 199.618, 153.158 201.851, 158.898 205.713 L 162.296 208 238 208 L 313.704 208 317.088 205.720 C 322.956 201.765, 322.969 201.671, 322.984 164.500 C 322.995 134.110, 322.811 130.130, 321.248 127.014 C 320.287 125.097, 318.375 122.966, 317 122.279 C 313.356 120.458, 162.524 120.502, 159.241 122.325 M 377.655 137.829 C 376.204 139.432, 376 142.869, 376 165.674 C 376 196.062, 375.650 195, 385.674 195 C 395.267 195, 395 195.832, 395 165.894 C 395 135.370, 395.198 136, 385.598 136 C 380.776 136, 378.924 136.426, 377.655 137.829 M 172.676 143.440 C 167.774 145.203, 167.764 145.218, 169.580 147.810 C 170.893 149.685, 172.057 150, 177.682 150 L 184.250 150 183.615 146.823 C 183.265 145.076, 182.871 143.553, 182.740 143.440 C 181.461 142.340, 175.734 142.340, 172.676 143.440 M 207.157 142.995 C 202.289 144.146, 201.266 145.532, 203.479 147.976 C 204.919 149.568, 206.557 150, 211.155 150 C 216.993 150, 217 149.997, 217 146.975 C 217 144.649, 216.408 143.725, 214.435 142.975 C 211.590 141.894, 211.818 141.893, 207.157 142.995 M 260.299 143.096 C 256.354 144.249, 255.593 145.372, 256.989 147.979 C 257.903 149.687, 259.072 150, 264.535 150 C 270.577 150, 270.999 149.853, 270.985 147.750 C 270.976 146.512, 270.639 144.994, 270.235 144.376 C 269.141 142.702, 263.938 142.032, 260.299 143.096 M 295.157 143.020 C 290.546 144.076, 289.543 145.295, 291.158 147.882 C 292.277 149.673, 293.448 150, 298.741 150 L 305 150 305 147.059 C 305 145.441, 304.663 143.929, 304.250 143.697 C 302.350 142.631, 298.203 142.322, 295.157 143.020 M 185 152.794 C 185 162.355, 186.513 164.706, 189.898 160.403 C 192.613 156.951, 192.564 153.128, 189.750 148.975 C 185.866 143.242, 185 143.939, 185 152.794 M 218.827 152.549 C 218.454 161.026, 219.854 164.574, 222.521 161.907 C 225.369 159.060, 225.942 154.586, 224.012 150.275 C 223.034 148.091, 221.541 146.038, 220.694 145.713 C 219.409 145.220, 219.100 146.351, 218.827 152.549 M 272.491 152.790 C 272.621 160.484, 273.247 163, 275.033 163 C 276.489 163, 279 157.382, 279 154.126 C 279 151.379, 274.870 145, 273.091 145 C 272.689 145, 272.419 148.506, 272.491 152.790 M 306.597 153.051 C 306.719 162.440, 308.047 164.840, 311.071 161.139 C 313.901 157.676, 313.608 151.876, 310.411 148.077 C 308.987 146.385, 307.523 145, 307.157 145 C 306.791 145, 306.539 148.623, 306.597 153.051 M 164.572 149.861 C 163.707 151.533, 163 153.845, 163 155 C 163 157.412, 165.672 163, 166.826 163 C 170.402 163, 171.389 151.567, 168.072 148.565 C 166.218 146.887, 166.084 146.937, 164.572 149.861 M 198.665 149.068 C 196.372 152.341, 196.535 158.230, 198.999 161.139 C 200.961 163.456, 201.027 163.464, 202.499 161.559 C 204.607 158.833, 204.419 151.738, 202.165 148.956 L 200.331 146.690 198.665 149.068 M 251.510 150.354 C 249.628 154.820, 250.207 158.972, 253.073 161.566 C 254.951 163.266, 255.091 163.260, 256.484 161.419 C 258.805 158.352, 258.364 152.531, 255.567 149.306 L 253.134 146.500 251.510 150.354 M 170.082 162.847 C 168.487 165.828, 170.754 167, 178.117 167 C 185.134 167, 186.553 166.101, 184.830 162.750 C 183.482 160.130, 171.494 160.208, 170.082 162.847 M 204.011 162.487 C 201.418 165.611, 203.541 167, 210.910 167 C 218.205 167, 219.545 166.292, 218.497 162.991 C 217.954 161.280, 216.978 161, 211.555 161 C 207.190 161, 204.864 161.458, 204.011 162.487 M 257.362 162.500 C 256.024 165.986, 257.714 167, 264.862 167 C 270.334 167, 271.917 166.659, 272.410 165.373 C 273.573 162.344, 271.095 161, 264.346 161 C 259.572 161, 257.790 161.383, 257.362 162.500 M 292.011 162.487 C 289.408 165.624, 291.539 167, 299 167 C 304.382 167, 306.201 166.640, 306.643 165.487 C 307.755 162.591, 305.046 161, 299 161 C 295.126 161, 292.841 161.486, 292.011 162.487 M 165.634 166.852 C 162.947 169.821, 162.599 174.966, 164.813 179 C 168.272 185.304, 169.690 184.144, 169.589 175.092 C 169.490 166.210, 168.355 163.845, 165.634 166.852 M 186.100 166.812 C 184.515 169.774, 184.804 177.162, 186.597 179.500 C 188.115 181.481, 188.149 181.476, 190.165 179.015 C 192.671 175.957, 192.169 169.724, 189.176 166.731 C 187.209 164.765, 187.196 164.765, 186.100 166.812 M 219.590 167.175 C 218.716 168.423, 218 171.095, 218 173.112 C 218 177.392, 221.207 182.139, 222.946 180.433 C 225.991 177.446, 225.777 168.720, 222.594 166.078 C 221.470 165.146, 220.854 165.371, 219.590 167.175 M 252.635 167.183 C 249.095 172.653, 249.868 177.856, 254.898 182.407 L 257 184.310 257 175.777 C 257 169.590, 256.606 166.918, 255.567 166.056 C 254.416 165.100, 253.838 165.323, 252.635 167.183 M 286.437 167.733 C 284.135 171.241, 284.257 176.527, 286.716 179.821 C 290.257 184.564, 291 183.763, 291 175.206 C 291 165.763, 289.424 163.181, 286.437 167.733 M 273.200 167.200 C 271.167 169.233, 271.704 177.422, 274.006 179.506 C 276.199 181.490, 276.217 181.484, 277.865 178.316 C 279.460 175.247, 279.276 170.839, 277.443 168.223 C 275.670 165.690, 274.896 165.504, 273.200 167.200 M 235.040 177.452 C 232.383 180.653, 236.285 185.570, 239.750 183.388 C 243.212 181.207, 241.979 176, 238 176 C 237.035 176, 235.703 176.653, 235.040 177.452 M 172.088 178.945 C 170.640 179.841, 171.495 183.990, 173.385 185.235 C 175.216 186.441, 179.823 186.101, 183.725 184.471 C 187.329 182.965, 187.355 182.912, 185.443 181.092 C 183.329 179.080, 174.235 177.619, 172.088 178.945 M 263.250 178.807 C 259.289 179.094, 259 179.314, 259 182.038 C 259 185.440, 261.804 186.618, 267.644 185.670 C 272.384 184.901, 274.231 183.300, 273.009 181.017 C 271.916 178.975, 269.258 178.373, 263.250 178.807 M 293.499 178.834 C 293.225 179.109, 293 180.600, 293 182.148 C 293 185.448, 295.883 186.605, 301.735 185.656 C 310.430 184.245, 309.054 179.473, 299.749 178.770 C 296.586 178.531, 293.773 178.560, 293.499 178.834 M 205 181.300 C 205 184.460, 206.819 186, 210.551 186 C 214.730 186, 220 184.105, 220 182.602 C 220 180.068, 217.422 179, 211.300 179 C 205.393 179, 205 179.143, 205 181.300 M 207.223 251.557 C 204.421 253.519, 204.201 258.967, 206.829 261.345 C 210.577 264.737, 215.776 262.740, 217.444 257.267 C 217.944 255.626, 217.456 254.365, 215.608 252.517 C 212.710 249.619, 210.371 249.351, 207.223 251.557 M 235.500 251.195 C 231.430 253.503, 230.776 257.776, 234 261 C 237.933 264.933, 245 262.089, 245 256.573 C 245 255.141, 243.919 253.295, 242.365 252.073 C 239.378 249.723, 238.332 249.589, 235.500 251.195 M 261.707 252.016 C 258.469 254.563, 258.184 258.184, 261 261 C 265.060 265.060, 272 262.450, 272 256.862 C 272 251.184, 266.222 248.464, 261.707 252.016 M 181.235 278.037 C 176.264 280.034, 176.429 288.317, 181.465 289.580 C 187.458 291.085, 191.108 287.551, 189.632 281.671 C 189.185 279.887, 185.021 276.652, 183.703 277.063 C 183.591 277.098, 182.481 277.536, 181.235 278.037 M 207.519 279.164 C 202.842 282.843, 205.233 290, 211.138 290 C 216.075 290, 218.933 285.433, 216.728 281.070 C 214.958 277.567, 210.676 276.681, 207.519 279.164 M 234.657 279.055 C 229.574 283.053, 232.186 290, 238.772 290 C 244.092 290, 246.731 284.224, 243.250 280.198 C 240.538 277.061, 237.676 276.680, 234.657 279.055 M 263.017 278.286 C 256.949 281.356, 258.684 290, 265.368 290 C 271.812 290, 274.369 283.009, 269.365 279.073 C 266.287 276.651, 266.255 276.647, 263.017 278.286 M 287.956 279.553 C 286.032 281.871, 286.357 287.057, 288.524 288.642 C 291.142 290.555, 295.393 290.329, 297.345 288.171 C 299.531 285.756, 299.448 281.716, 297.171 279.655 C 294.865 277.568, 289.651 277.510, 287.956 279.553 M 180.400 305.765 C 174.515 309.695, 178.652 319.129, 185.506 317.409 C 192.349 315.692, 190.979 304.971, 183.921 305.015 C 182.590 305.024, 181.005 305.361, 180.400 305.765 M 206.655 306.829 C 201.946 312.032, 207.956 320.235, 214.077 316.959 C 217.905 314.910, 218.279 308.069, 214.687 305.786 C 212.541 304.421, 208.341 304.966, 206.655 306.829 M 233.655 306.829 C 231.939 308.724, 231.486 312.684, 232.765 314.600 C 233.652 315.929, 237.439 318, 238.980 318 C 240.855 318, 245 313.212, 245 311.045 C 245 305.971, 237.091 303.032, 233.655 306.829 M 261 307 C 259.900 308.100, 259 309.920, 259 311.045 C 259 313.377, 263.201 318, 265.320 318 C 268.085 318, 272 313.946, 272 311.082 C 272 305.543, 265.040 302.960, 261 307 M 289.313 305.786 C 287.374 307.018, 286.185 311.311, 287.101 313.765 C 288.174 316.638, 292.219 318.247, 295.364 317.052 C 299.329 315.544, 300.371 309.551, 297.171 306.655 C 295.260 304.926, 291.346 304.493, 289.313 305.786 M 207.250 333.524 C 205.665 334.643, 205 336.124, 205 338.534 C 205 345.545, 213.757 347.080, 216.857 340.612 C 218.071 338.080, 218.006 337.483, 216.261 335.135 C 213.919 331.985, 210.336 331.344, 207.250 333.524 M 234 334 C 230.106 337.894, 232.901 345, 238.326 345 C 241.202 345, 245 341.122, 245 338.186 C 245 335.252, 241.583 332, 238.500 332 C 237.125 332, 235.100 332.900, 234 334 M 261 334 C 259.900 335.100, 259 337.047, 259 338.326 C 259 341.202, 262.878 345, 265.814 345 C 268.748 345, 272 341.583, 272 338.500 C 272 337.125, 271.100 335.100, 270 334 C 268.900 332.900, 266.875 332, 265.500 332 C 264.125 332, 262.100 332.900, 261 334" stroke="none" fill="#050505" fill-rule="evenodd"/><path d="M 0 240.002 L 0 480.004 240.250 479.752 L 480.500 479.500 480.752 239.750 L 481.004 0 240.502 0 L 0 0 0 240.002 M 0.492 240.500 C 0.492 372.500, 0.608 426.351, 0.750 360.170 C 0.892 293.988, 0.892 185.988, 0.750 120.170 C 0.608 54.351, 0.492 108.500, 0.492 240.500 M 168.571 51.571 C 167.355 52.787, 167 55.372, 167 63 C 167 75.573, 167.362 76, 178.015 76 C 188.201 76, 189 75.055, 189 63 C 189 50.945, 188.201 50, 178.015 50 C 172.192 50, 169.734 50.409, 168.571 51.571 M 140.798 85.931 C 137.661 86.934, 133.161 88.893, 130.798 90.285 C 125 93.700, 116.783 102.146, 113.639 107.923 C 107.786 118.677, 108 113.383, 108 247.105 C 108 366.219, 108.057 369.974, 109.964 376.145 C 115.259 393.278, 130.156 406.128, 148 408.955 C 156.955 410.374, 317.181 410.362, 327.678 408.942 C 345.349 406.551, 359.316 395.486, 366.103 378.500 L 368.500 372.500 368.773 250.101 C 368.953 169.339, 368.696 125.809, 368.018 122.138 C 364.924 105.403, 352.108 90.936, 335.909 85.895 C 330.116 84.091, 325.398 84.003, 238.161 84.054 C 152.300 84.104, 146.139 84.223, 140.798 85.931 M 159.241 122.325 C 153.556 125.483, 153.525 125.687, 153.202 162.023 C 152.867 199.618, 153.158 201.851, 158.898 205.713 L 162.296 208 238 208 L 313.704 208 317.088 205.720 C 322.956 201.765, 322.969 201.671, 322.984 164.500 C 322.995 134.110, 322.811 130.130, 321.248 127.014 C 320.287 125.097, 318.375 122.966, 317 122.279 C 313.356 120.458, 162.524 120.502, 159.241 122.325 M 377.655 137.829 C 376.204 139.432, 376 142.869, 376 165.674 C 376 196.062, 375.650 195, 385.674 195 C 395.267 195, 395 195.832, 395 165.894 C 395 135.370, 395.198 136, 385.598 136 C 380.776 136, 378.924 136.426, 377.655 137.829 M 172.676 143.440 C 167.774 145.203, 167.764 145.218, 169.580 147.810 C 170.893 149.685, 172.057 150, 177.682 150 L 184.250 150 183.615 146.823 C 183.265 145.076, 182.871 143.553, 182.740 143.440 C 181.461 142.340, 175.734 142.340, 172.676 143.440 M 207.157 142.995 C 202.289 144.146, 201.266 145.532, 203.479 147.976 C 204.919 149.568, 206.557 150, 211.155 150 C 216.993 150, 217 149.997, 217 146.975 C 217 144.649, 216.408 143.725, 214.435 142.975 C 211.590 141.894, 211.818 141.893, 207.157 142.995 M 260.299 143.096 C 256.354 144.249, 255.593 145.372, 256.989 147.979 C 257.903 149.687, 259.072 150, 264.535 150 C 270.577 150, 270.999 149.853, 270.985 147.750 C 270.976 146.512, 270.639 144.994, 270.235 144.376 C 269.141 142.702, 263.938 142.032, 260.299 143.096 M 295.157 143.020 C 290.546 144.076, 289.543 145.295, 291.158 147.882 C 292.277 149.673, 293.448 150, 298.741 150 L 305 150 305 147.059 C 305 145.441, 304.663 143.929, 304.250 143.697 C 302.350 142.631, 298.203 142.322, 295.157 143.020 M 185 152.794 C 185 162.355, 186.513 164.706, 189.898 160.403 C 192.613 156.951, 192.564 153.128, 189.750 148.975 C 185.866 143.242, 185 143.939, 185 152.794 M 218.827 152.549 C 218.454 161.026, 219.854 164.574, 222.521 161.907 C 225.369 159.060, 225.942 154.586, 224.012 150.275 C 223.034 148.091, 221.541 146.038, 220.694 145.713 C 219.409 145.220, 219.100 146.351, 218.827 152.549 M 272.491 152.790 C 272.621 160.484, 273.247 163, 275.033 163 C 276.489 163, 279 157.382, 279 154.126 C 279 151.379, 274.870 145, 273.091 145 C 272.689 145, 272.419 148.506, 272.491 152.790 M 306.597 153.051 C 306.719 162.440, 308.047 164.840, 311.071 161.139 C 313.901 157.676, 313.608 151.876, 310.411 148.077 C 308.987 146.385, 307.523 145, 307.157 145 C 306.791 145, 306.539 148.623, 306.597 153.051 M 164.572 149.861 C 163.707 151.533, 163 153.845, 163 155 C 163 157.412, 165.672 163, 166.826 163 C 170.402 163, 171.389 151.567, 168.072 148.565 C 166.218 146.887, 166.084 146.937, 164.572 149.861 M 198.665 149.068 C 196.372 152.341, 196.535 158.230, 198.999 161.139 C 200.961 163.456, 201.027 163.464, 202.499 161.559 C 204.607 158.833, 204.419 151.738, 202.165 148.956 L 200.331 146.690 198.665 149.068 M 251.510 150.354 C 249.628 154.820, 250.207 158.972, 253.073 161.566 C 254.951 163.266, 255.091 163.260, 256.484 161.419 C 258.805 158.352, 258.364 152.531, 255.567 149.306 L 253.134 146.500 251.510 150.354 M 170.082 162.847 C 168.487 165.828, 170.754 167, 178.117 167 C 185.134 167, 186.553 166.101, 184.830 162.750 C 183.482 160.130, 171.494 160.208, 170.082 162.847 M 204.011 162.487 C 201.418 165.611, 203.541 167, 210.910 167 C 218.205 167, 219.545 166.292, 218.497 162.991 C 217.954 161.280, 216.978 161, 211.555 161 C 207.190 161, 204.864 161.458, 204.011 162.487 M 257.362 162.500 C 256.024 165.986, 257.714 167, 264.862 167 C 270.334 167, 271.917 166.659, 272.410 165.373 C 273.573 162.344, 271.095 161, 264.346 161 C 259.572 161, 257.790 161.383, 257.362 162.500 M 292.011 162.487 C 289.408 165.624, 291.539 167, 299 167 C 304.382 167, 306.201 166.640, 306.643 165.487 C 307.755 162.591, 305.046 161, 299 161 C 295.126 161, 292.841 161.486, 292.011 162.487 M 165.634 166.852 C 162.947 169.821, 162.599 174.966, 164.813 179 C 168.272 185.304, 169.690 184.144, 169.589 175.092 C 169.490 166.210, 168.355 163.845, 165.634 166.852 M 186.100 166.812 C 184.515 169.774, 184.804 177.162, 186.597 179.500 C 188.115 181.481, 188.149 181.476, 190.165 179.015 C 192.671 175.957, 192.169 169.724, 189.176 166.731 C 187.209 164.765, 187.196 164.765, 186.100 166.812 M 219.590 167.175 C 218.716 168.423, 218 171.095, 218 173.112 C 218 177.392, 221.207 182.139, 222.946 180.433 C 225.991 177.446, 225.777 168.720, 222.594 166.078 C 221.470 165.146, 220.854 165.371, 219.590 167.175 M 252.635 167.183 C 249.095 172.653, 249.868 177.856, 254.898 182.407 L 257 184.310 257 175.777 C 257 169.590, 256.606 166.918, 255.567 166.056 C 254.416 165.100, 253.838 165.323, 252.635 167.183 M 286.437 167.733 C 284.135 171.241, 284.257 176.527, 286.716 179.821 C 290.257 184.564, 291 183.763, 291 175.206 C 291 165.763, 289.424 163.181, 286.437 167.733 M 273.200 167.200 C 271.167 169.233, 271.704 177.422, 274.006 179.506 C 276.199 181.490, 276.217 181.484, 277.865 178.316 C 279.460 175.247, 279.276 170.839, 277.443 168.223 C 275.670 165.690, 274.896 165.504, 273.200 167.200 M 235.040 177.452 C 232.383 180.653, 236.285 185.570, 239.750 183.388 C 243.212 181.207, 241.979 176, 238 176 C 237.035 176, 235.703 176.653, 235.040 177.452 M 172.088 178.945 C 170.640 179.841, 171.495 183.990, 173.385 185.235 C 175.216 186.441, 179.823 186.101, 183.725 184.471 C 187.329 182.965, 187.355 182.912, 185.443 181.092 C 183.329 179.080, 174.235 177.619, 172.088 178.945 M 263.250 178.807 C 259.289 179.094, 259 179.314, 259 182.038 C 259 185.440, 261.804 186.618, 267.644 185.670 C 272.384 184.901, 274.231 183.300, 273.009 181.017 C 271.916 178.975, 269.258 178.373, 263.250 178.807 M 293.499 178.834 C 293.225 179.109, 293 180.600, 293 182.148 C 293 185.448, 295.883 186.605, 301.735 185.656 C 310.430 184.245, 309.054 179.473, 299.749 178.770 C 296.586 178.531, 293.773 178.560, 293.499 178.834 M 205 181.300 C 205 184.460, 206.819 186, 210.551 186 C 214.730 186, 220 184.105, 220 182.602 C 220 180.068, 217.422 179, 211.300 179 C 205.393 179, 205 179.143, 205 181.300 M 207.223 251.557 C 204.421 253.519, 204.201 258.967, 206.829 261.345 C 210.577 264.737, 215.776 262.740, 217.444 257.267 C 217.944 255.626, 217.456 254.365, 215.608 252.517 C 212.710 249.619, 210.371 249.351, 207.223 251.557 M 235.500 251.195 C 231.430 253.503, 230.776 257.776, 234 261 C 237.933 264.933, 245 262.089, 245 256.573 C 245 255.141, 243.919 253.295, 242.365 252.073 C 239.378 249.723, 238.332 249.589, 235.500 251.195 M 261.707 252.016 C 258.469 254.563, 258.184 258.184, 261 261 C 265.060 265.060, 272 262.450, 272 256.862 C 272 251.184, 266.222 248.464, 261.707 252.016 M 181.235 278.037 C 176.264 280.034, 176.429 288.317, 181.465 289.580 C 187.458 291.085, 191.108 287.551, 189.632 281.671 C 189.185 279.887, 185.021 276.652, 183.703 277.063 C 183.591 277.098, 182.481 277.536, 181.235 278.037 M 207.519 279.164 C 202.842 282.843, 205.233 290, 211.138 290 C 216.075 290, 218.933 285.433, 216.728 281.070 C 214.958 277.567, 210.676 276.681, 207.519 279.164 M 234.657 279.055 C 229.574 283.053, 232.186 290, 238.772 290 C 244.092 290, 246.731 284.224, 243.250 280.198 C 240.538 277.061, 237.676 276.680, 234.657 279.055 M 263.017 278.286 C 256.949 281.356, 258.684 290, 265.368 290 C 271.812 290, 274.369 283.009, 269.365 279.073 C 266.287 276.651, 266.255 276.647, 263.017 278.286 M 287.956 279.553 C 286.032 281.871, 286.357 287.057, 288.524 288.642 C 291.142 290.555, 295.393 290.329, 297.345 288.171 C 299.531 285.756, 299.448 281.716, 297.171 279.655 C 294.865 277.568, 289.651 277.510, 287.956 279.553 M 180.400 305.765 C 174.515 309.695, 178.652 319.129, 185.506 317.409 C 192.349 315.692, 190.979 304.971, 183.921 305.015 C 182.590 305.024, 181.005 305.361, 180.400 305.765 M 206.655 306.829 C 201.946 312.032, 207.956 320.235, 214.077 316.959 C 217.905 314.910, 218.279 308.069, 214.687 305.786 C 212.541 304.421, 208.341 304.966, 206.655 306.829 M 233.655 306.829 C 231.939 308.724, 231.486 312.684, 232.765 314.600 C 233.652 315.929, 237.439 318, 238.980 318 C 240.855 318, 245 313.212, 245 311.045 C 245 305.971, 237.091 303.032, 233.655 306.829 M 261 307 C 259.900 308.100, 259 309.920, 259 311.045 C 259 313.377, 263.201 318, 265.320 318 C 268.085 318, 272 313.946, 272 311.082 C 272 305.543, 265.040 302.960, 261 307 M 289.313 305.786 C 287.374 307.018, 286.185 311.311, 287.101 313.765 C 288.174 316.638, 292.219 318.247, 295.364 317.052 C 299.329 315.544, 300.371 309.551, 297.171 306.655 C 295.260 304.926, 291.346 304.493, 289.313 305.786 M 207.250 333.524 C 205.665 334.643, 205 336.124, 205 338.534 C 205 345.545, 213.757 347.080, 216.857 340.612 C 218.071 338.080, 218.006 337.483, 216.261 335.135 C 213.919 331.985, 210.336 331.344, 207.250 333.524 M 234 334 C 230.106 337.894, 232.901 345, 238.326 345 C 241.202 345, 245 341.122, 245 338.186 C 245 335.252, 241.583 332, 238.500 332 C 237.125 332, 235.100 332.900, 234 334 M 261 334 C 259.900 335.100, 259 337.047, 259 338.326 C 259 341.202, 262.878 345, 265.814 345 C 268.748 345, 272 341.583, 272 338.500 C 272 337.125, 271.100 335.100, 270 334 C 268.900 332.900, 266.875 332, 265.500 332 C 264.125 332, 262.100 332.900, 261 334" stroke="none" fill="#fad82d" fill-rule="evenodd"/></svg>