<svg xmlns="http://www.w3.org/2000/svg" width="512" height="512" viewBox="0 0 512 512" version="1.1"><path d="M 227.473 64.038 L 199.537 104 179.495 104 L 159.453 104 151.500 128 L 143.547 152 123.513 152 L 103.479 152 91.712 199.250 C 85.240 225.238, 79.958 246.838, 79.973 247.250 C 79.988 247.662, 92.528 248, 107.839 248 L 135.678 248 139.563 228.947 C 141.700 218.467, 143.732 209.434, 144.078 208.874 C 144.424 208.313, 150.061 206.513, 156.604 204.873 C 163.147 203.234, 170.196 201.447, 172.269 200.902 C 176.026 199.916, 176.084 199.820, 191.918 168.206 C 204.768 142.553, 207.910 136.977, 208.379 139 C 208.698 140.375, 210.544 152.714, 212.482 166.420 C 214.420 180.125, 216.166 191.499, 216.361 191.695 C 216.557 191.890, 221.843 193.766, 228.109 195.864 L 239.500 199.677 239.768 223.838 L 240.036 248 276.018 248 L 312 248 312 223.968 L 312 199.936 291.939 175.927 L 271.878 151.918 263.908 88.261 C 259.524 53.249, 255.818 24.485, 255.673 24.340 C 255.528 24.195, 242.838 42.059, 227.473 64.038" stroke="none" fill="#abe3fb" fill-rule="evenodd"/><path d="M 256.052 24.500 C 256.037 25.050, 259.591 53.944, 263.951 88.709 L 271.878 151.918 291.939 175.927 L 312 199.936 312 223.968 L 312 248 276.018 248 L 240.036 248 239.768 223.838 L 239.500 199.677 228.109 195.864 C 221.843 193.766, 216.557 191.890, 216.361 191.695 C 216.166 191.499, 214.420 180.125, 212.482 166.420 C 210.544 152.714, 208.698 140.375, 208.379 139 C 207.910 136.977, 204.768 142.553, 191.918 168.206 C 176.084 199.820, 176.026 199.916, 172.269 200.902 C 170.196 201.447, 163.147 203.234, 156.604 204.873 C 150.061 206.513, 144.424 208.313, 144.078 208.874 C 143.732 209.434, 141.700 218.467, 139.563 228.947 L 135.678 248 79.839 248 L 24 248 24 264 L 24 280 51.750 280.007 L 79.500 280.014 103.720 308.257 L 127.940 336.500 127.970 364.250 L 128 392 147.789 392 L 167.578 392 171.513 420.095 L 175.448 448.190 198.753 467.637 C 211.571 478.334, 222.614 487.298, 223.293 487.559 C 224.184 487.901, 226.585 477.666, 231.923 450.766 C 235.991 430.270, 239.555 412.848, 239.843 412.051 C 240.131 411.254, 243.791 420.874, 247.976 433.429 L 255.586 456.256 275.782 464.306 C 286.890 468.733, 296.158 472.163, 296.378 471.928 C 296.598 471.692, 303.803 457.440, 312.389 440.256 L 328 409.012 328 376.714 L 328 344.416 348.054 340.489 L 368.108 336.563 384.265 308.281 L 400.421 280 444.210 280 L 488 280 488 264 L 488 248 444.250 247.982 L 400.500 247.963 380.250 215.475 L 360 182.987 360 163.151 L 360 143.314 324.177 119.451 L 288.353 95.588 273.514 62.044 C 257.924 26.805, 256.097 22.877, 256.052 24.500" stroke="none" fill="#4fa1de" fill-rule="evenodd"/></svg>