<svg xmlns="http://www.w3.org/2000/svg" width="400" height="416" viewBox="0 0 400 416" version="1.1"><path d="M 171 85 C 169.625 85.440, 166.475 85.863, 164 85.940 C 161.525 86.017, 156.350 86.701, 152.500 87.460 C 135.730 90.769, 129.440 92.219, 128.502 92.994 C 127.951 93.449, 125.700 94.141, 123.500 94.532 C 121.300 94.923, 117.475 96.027, 115 96.985 C 112.525 97.943, 107.800 99.753, 104.500 101.008 C 96.143 104.187, 89.018 107.400, 78.272 112.834 C 64.847 119.623, 62.612 120.804, 61.500 121.697 C 60.950 122.139, 59.156 123.175, 57.514 124 C 53.018 126.258, 26.726 143.865, 24.951 145.806 C 24.099 146.738, 22.678 147.950, 21.793 148.500 C 20.908 149.050, 16.797 152.200, 12.658 155.500 C 3.719 162.627, 1.214 167.247, 2.841 173.601 C 3.391 175.745, 4.153 179.931, 4.535 182.903 C 4.917 185.874, 5.810 189.699, 6.520 191.403 C 7.229 193.106, 8.134 196.750, 8.531 199.500 C 8.928 202.250, 9.584 204.950, 9.990 205.500 C 10.395 206.050, 11.525 209.875, 12.500 214 C 13.475 218.125, 14.610 221.950, 15.021 222.500 C 15.432 223.050, 16.093 225.075, 16.490 227 C 16.887 228.925, 17.782 231.850, 18.480 233.500 C 21.268 240.093, 26 252.961, 26 253.949 C 26 254.527, 26.379 255, 26.842 255 C 27.305 255, 28.221 256.795, 28.878 258.988 C 30.133 263.177, 46.481 296.001, 47.785 296.950 C 48.201 297.252, 49.098 298.625, 49.778 300 C 52.067 304.622, 55.204 309.497, 56.106 309.833 C 56.597 310.017, 57 310.618, 57 311.170 C 57 312.197, 62.447 320.353, 64.819 322.877 C 65.544 323.649, 66.837 325.347, 67.691 326.651 C 68.546 327.955, 70.783 329.752, 72.663 330.645 C 75.840 332.152, 76.354 332.144, 79.925 330.534 C 82.039 329.580, 84.333 327.745, 85.024 326.456 C 86.568 323.570, 85.763 316.471, 83.630 314.163 C 79.070 309.229, 78 307.946, 78 307.413 C 78 306.831, 71.999 297.959, 70.957 297 C 68.343 294.596, 53.212 265.222, 45.973 248.500 C 43.541 242.883, 39 230.721, 39 229.826 C 39 229.263, 38.359 227.384, 37.575 225.651 C 36.116 222.424, 31.607 207.879, 30.398 202.500 C 30.028 200.850, 29.388 199.050, 28.977 198.500 C 28.565 197.950, 27.676 194.125, 27 190 C 26.324 185.875, 25.435 182.050, 25.024 181.500 C 24.614 180.950, 24.030 178.886, 23.728 176.913 C 23.074 172.643, 24.001 171.618, 37.500 161.692 C 42.450 158.052, 47.288 154.383, 48.250 153.537 C 49.212 152.692, 50.295 152, 50.656 152 C 51.016 152, 52.786 150.875, 54.589 149.500 C 56.392 148.125, 58.324 147, 58.884 147 C 59.443 147, 60.260 146.438, 60.700 145.750 C 61.140 145.063, 63.075 143.709, 65 142.743 C 66.925 141.776, 70.300 139.884, 72.500 138.539 C 81.022 133.328, 107.050 121, 109.530 121 C 110.338 121, 111 120.606, 111 120.125 C 111 119.644, 112.386 118.973, 114.080 118.634 C 115.774 118.295, 118.586 117.363, 120.330 116.563 C 124.130 114.818, 132.610 112.421, 143.500 110.012 C 147.900 109.038, 153.300 107.764, 155.500 107.181 C 163.969 104.935, 189.888 103.779, 205.681 104.944 C 224.312 106.318, 246.685 111.237, 258.651 116.590 C 260.384 117.366, 262.184 118.003, 262.651 118.008 C 264.161 118.021, 282.296 127.478, 289.500 132.008 C 295.902 136.033, 305.849 143.047, 308.636 145.500 C 309.261 146.050, 312.595 148.975, 316.045 152 C 324.879 159.745, 337.850 174.532, 343.863 183.711 C 346.669 187.995, 349.423 192.044, 349.982 192.708 C 350.542 193.372, 351 194.169, 351 194.478 C 351 194.787, 352.107 196.793, 353.460 198.937 C 354.813 201.080, 356.207 203.978, 356.558 205.376 C 356.909 206.774, 357.827 208.442, 358.598 209.081 C 359.369 209.721, 360 210.995, 360 211.911 C 360 212.827, 360.851 215.246, 361.891 217.286 C 362.931 219.326, 364.060 222.102, 364.399 223.454 C 364.738 224.806, 365.544 227.169, 366.190 228.706 C 368.274 233.664, 371.087 246.219, 372.642 257.500 C 373.475 263.550, 374.599 270.075, 375.138 272 C 376.195 275.770, 375.707 310.550, 374.495 317.833 C 373.030 326.636, 380.407 333.496, 387.965 330.360 C 391.367 328.949, 392.010 328.353, 394.116 324.661 C 395.678 321.925, 396.412 283.303, 395.136 271 C 393.304 253.333, 387.945 227.921, 384.453 220.349 C 383.654 218.616, 383 216.659, 383 216 C 383 213.578, 366.144 179, 364.963 179 C 364.567 179, 363.683 177.650, 363 176 C 362.317 174.350, 361.392 173, 360.946 173 C 360.500 173, 359.882 172.213, 359.573 171.250 C 359.265 170.287, 357.904 168.150, 356.549 166.500 C 355.194 164.850, 353.279 162.438, 352.293 161.139 C 344.573 150.974, 328.197 134.928, 317.185 126.739 C 314.058 124.414, 311.275 122.239, 311 121.905 C 310.725 121.572, 309.403 120.721, 308.063 120.014 C 306.723 119.308, 305.148 118.321, 304.563 117.822 C 297.216 111.550, 272.633 99.561, 258.500 95.358 C 255.750 94.540, 252.600 93.452, 251.500 92.940 C 248.714 91.643, 237.192 89.082, 226.500 87.382 C 221.550 86.595, 214.998 85.512, 211.940 84.975 C 205.382 83.825, 174.611 83.844, 171 85 M 234.500 131.714 C 231.402 132.491, 228.906 135.710, 227.435 140.827 C 226.697 143.397, 225.115 148.650, 223.920 152.500 C 222.725 156.350, 220.976 162.200, 220.032 165.500 C 219.088 168.800, 218.042 172.175, 217.707 173 C 217.373 173.825, 216.600 176.525, 215.991 179 C 215.382 181.475, 214.010 186.089, 212.942 189.254 C 210.395 196.802, 210.492 199.242, 213.480 202.794 C 218.269 208.486, 224.238 207.844, 233.741 200.617 C 237.080 198.078, 240.304 196, 240.906 196 C 241.508 196, 242 195.536, 242 194.969 C 242 194.401, 242.765 193.644, 243.700 193.285 C 244.635 192.926, 248.182 190.578, 251.582 188.066 C 254.983 185.555, 258.764 182.825, 259.985 182 C 268.822 176.031, 278.039 168.795, 278.933 167.125 C 281.359 162.593, 280.259 159.206, 274.583 153.728 C 271.604 150.853, 268.538 147.999, 267.770 147.386 C 264.076 144.436, 253.910 137.843, 250.889 136.438 C 249.025 135.571, 246.375 134.264, 245 133.534 C 241.884 131.878, 237.132 131.055, 234.500 131.714 M 143.637 178.143 C 140.117 180.189, 137.687 183.318, 135.836 188.189 C 134.091 192.782, 134.077 193.361, 135.606 198.034 C 136.499 200.766, 137.605 203, 138.064 203 C 138.522 203, 140.026 204.047, 141.407 205.326 C 144.890 208.554, 151.022 210.406, 155.465 209.572 C 160.516 208.625, 166.704 202.814, 168.072 197.733 C 169.788 191.360, 168.549 187.651, 162.821 182.013 C 157.815 177.085, 157.624 177.001, 151.614 177.030 C 148.251 177.047, 144.662 177.548, 143.637 178.143 M 248.169 247.993 C 241.910 249.473, 236 257.328, 236 264.167 C 236 269.991, 239.059 274.160, 245.984 277.771 C 251.066 280.421, 252.945 280.918, 255.878 280.390 C 260.065 279.635, 262.711 278.393, 264.988 276.115 C 273.924 267.173, 271.712 255.435, 259.971 249.485 C 254.816 246.873, 253.569 246.715, 248.169 247.993 M 144.250 296.204 C 141.912 297.400, 140 298.786, 140 299.282 C 140 299.778, 139.100 301.329, 138 302.727 C 136.900 304.126, 136 306.297, 136 307.552 C 136 308.807, 135.559 309.983, 135.020 310.167 C 133.490 310.687, 136.669 319.949, 139.240 322.461 C 142.754 325.894, 147.887 328, 152.740 328 C 156.796 328, 157.630 327.532, 162.541 322.502 C 168.549 316.348, 169.798 312.677, 168.067 306.251 C 166.923 302.001, 161.846 296.652, 157.324 294.933 C 153.369 293.429, 148.802 293.873, 144.250 296.204" stroke="none" fill="#349bfb" fill-rule="evenodd"/><path d="M 177.117 135.511 C 171.957 136.772, 166.782 138.234, 165.617 138.759 C 147.813 146.785, 139.265 152.170, 129.820 161.311 C 123.014 167.898, 115 177.918, 115 179.841 C 115 180.478, 114.662 181.002, 114.250 181.003 C 112.840 181.010, 104.767 197.873, 103.463 203.535 C 103.088 205.166, 102.120 208.525, 101.312 211 C 98.259 220.350, 98.722 254.355, 101.959 258.500 C 102.388 259.050, 103.064 261.300, 103.461 263.500 C 104.211 267.653, 104.465 268.257, 109.965 279 C 115.032 288.896, 119.453 295.180, 126.806 302.937 C 133.888 310.409, 136 311.488, 136 307.635 C 136 306.334, 136.900 304.126, 138 302.727 C 139.100 301.329, 140 299.849, 140 299.439 C 140 299.029, 137.863 296.334, 135.250 293.450 C 129.327 286.913, 127.763 285.021, 126.500 282.869 C 121.748 274.772, 118.914 269.255, 117.918 266.162 C 117.270 264.148, 116.364 262.023, 115.906 261.441 C 114.111 259.161, 111.647 242.994, 111.647 233.500 C 111.647 224.006, 114.111 207.839, 115.906 205.559 C 116.364 204.977, 117.316 202.700, 118.021 200.500 C 119.145 196.994, 126.491 183.913, 129.444 180.158 C 131.312 177.783, 144.633 164.534, 146.193 163.500 C 147.022 162.950, 149.681 161.173, 152.100 159.552 C 157.577 155.883, 164.273 152.581, 169.500 150.971 C 171.700 150.294, 173.950 149.403, 174.500 148.993 C 176.725 147.331, 190.254 145.699, 202.596 145.602 C 217.295 145.487, 219 144.846, 219 139.434 C 219 133.772, 216.697 132.983, 200.527 133.109 C 189.577 133.195, 184.442 133.722, 177.117 135.511 M 190.910 165.244 C 183.430 165.995, 169 170.533, 169 172.134 C 169 172.610, 168.462 173, 167.804 173 C 167.146 173, 164.911 174.176, 162.837 175.613 L 159.067 178.225 163.455 182.613 C 165.868 185.026, 168.083 187, 168.377 187 C 168.671 187, 171.197 185.653, 173.990 184.006 C 176.783 182.359, 181.190 180.529, 183.784 179.939 C 186.378 179.350, 189.281 178.447, 190.236 177.934 C 191.191 177.420, 195.354 177, 199.486 177 C 205.667 177, 207.355 176.645, 209 175 C 211.228 172.772, 211.442 171.292, 210.061 167.661 C 209.250 165.527, 208.389 165.145, 203.721 164.846 C 200.751 164.656, 194.986 164.835, 190.910 165.244 M 278.750 178.080 C 275.868 179.759, 276.608 185.234, 280.800 193.241 C 282.891 197.233, 285.211 202.750, 285.956 205.500 C 286.701 208.250, 287.656 210.955, 288.079 211.510 C 288.501 212.066, 289.350 217.094, 289.965 222.684 C 291.093 232.930, 289.940 253.069, 288.088 255.465 C 287.649 256.034, 286.790 258.548, 286.180 261.052 C 284.471 268.068, 277.192 281.388, 270.500 289.747 C 266.486 294.761, 257.317 302.926, 250.500 307.557 C 247.970 309.276, 239.367 313.597, 231.500 317.100 C 218.239 323.005, 181.973 322.872, 170.773 316.879 C 168.908 315.881, 168.187 316.307, 164.451 320.614 C 160.385 325.300, 160.304 325.525, 162.194 326.848 C 164.325 328.341, 170.803 330.353, 181 332.690 C 185.926 333.819, 191.617 334.065, 204.500 333.706 C 224.814 333.140, 229.210 332.083, 247.500 323.367 C 250.800 321.795, 255.300 319.254, 257.500 317.721 C 259.700 316.189, 262.625 314.164, 264 313.223 C 267.804 310.619, 279.339 299.006, 282.597 294.500 C 284.187 292.300, 285.774 290.275, 286.122 290 C 287.414 288.980, 295.145 273.660, 297.428 267.594 C 298.727 264.143, 300.807 255.165, 302.049 247.643 L 304.308 233.968 302.081 219.734 C 300.856 211.905, 299.212 204.193, 298.427 202.596 C 297.642 200.999, 297 199.162, 297 198.514 C 297 196.588, 287.971 179.606, 286.226 178.250 C 284.300 176.753, 281.152 176.681, 278.750 178.080 M 253.491 199.383 C 250.921 201.262, 251.050 206.505, 253.803 212.057 C 256.995 218.492, 258.582 230.983, 257.397 240.332 L 256.433 247.937 259.349 249.145 C 260.953 249.809, 263.556 251.438, 265.133 252.765 C 267.759 254.975, 268 255.019, 268 253.289 C 268 252.250, 268.563 250.838, 269.250 250.151 C 271.415 247.988, 270.924 221.824, 268.581 214.500 C 263.828 199.643, 259.316 195.123, 253.491 199.383 M 136.434 206.500 C 136.073 208.425, 135.436 210, 135.019 210 C 134.104 210, 132.294 219.052, 131.408 228.062 C 130.605 236.219, 132.479 250.891, 135.096 256.943 C 138.286 264.320, 142.442 271.993, 143.250 271.997 C 143.662 271.998, 144 272.613, 144 273.362 C 144 275.667, 160.305 290.339, 166.063 293.217 C 180.249 300.305, 188.173 302.385, 201 302.385 C 209.210 302.385, 219.721 300.656, 224.469 298.526 C 226.136 297.778, 229.188 296.588, 231.250 295.882 C 233.313 295.176, 235 294.239, 235 293.799 C 235 293.360, 235.522 293, 236.159 293 C 237.385 293, 246.935 286.065, 250.185 282.815 C 252.080 280.920, 252.023 280.852, 246.021 277.853 L 239.936 274.812 236.620 277.341 C 231.481 281.261, 224.994 284.639, 217.943 287.068 C 212.749 288.858, 209.319 289.283, 200.244 289.261 C 194.053 289.247, 188.428 288.794, 187.744 288.255 C 187.060 287.717, 185.150 286.959, 183.500 286.571 C 180.141 285.783, 170.306 281.266, 168 279.453 C 166.263 278.088, 155.654 267.254, 153.772 264.925 C 151.532 262.150, 147.964 254.527, 146.288 248.932 C 144.327 242.387, 143.431 225.486, 144.890 222.570 C 145.460 221.432, 146.559 217.973, 147.333 214.885 L 148.740 209.270 144.799 207.531 C 142.631 206.575, 140.616 205.164, 140.322 204.396 C 139.317 201.779, 137.094 202.982, 136.434 206.500 M 172.022 213.740 C 170.351 215.621, 170.221 222.062, 171.789 225.330 C 172.767 227.371, 175.939 239.627, 178.237 250.246 C 179.604 256.567, 182.848 260, 187.452 260 C 191.893 260, 194.511 257.504, 196.045 251.807 C 196.683 249.438, 198.164 244.391, 199.337 240.592 L 201.468 233.684 202.300 237.592 C 204.072 245.914, 207.466 255.600, 209.363 257.750 C 211.790 260.500, 216.908 260.745, 219.823 258.250 C 221.917 256.457, 225.185 247.025, 226.493 239 C 226.896 236.525, 227.573 234.050, 227.996 233.500 C 229.131 232.027, 231 222.475, 231 218.151 C 231 213.406, 229.578 212, 224.779 212 C 221.544 212, 220.788 212.422, 219.854 214.750 C 219.247 216.262, 218.346 218.400, 217.850 219.500 C 217.355 220.600, 216.353 224.650, 215.624 228.500 L 214.299 235.500 213.108 231 C 212.452 228.525, 211.520 225.600, 211.036 224.500 C 210.552 223.400, 209.862 221.150, 209.504 219.500 C 208.483 214.804, 205.258 212, 200.877 212 C 195.984 212, 192.712 216.119, 190.947 224.500 C 189.664 230.591, 188.544 232.877, 187.401 231.735 C 187.054 231.387, 185.917 227.443, 184.876 222.971 C 183.834 218.499, 182.344 214.201, 181.563 213.420 C 179.639 211.496, 173.842 211.691, 172.022 213.740" stroke="none" fill="#2b2b3c" fill-rule="evenodd"/></svg>