<?xml version="1.0" encoding="utf-8"?>
<!-- Generator: Adobe Illustrator 19.2.1, SVG Export Plug-In . SVG Version: 6.00 Build 0)  -->
<svg version="1.1" id="layer" xmlns="http://www.w3.org/2000/svg" xmlns:xlink="http://www.w3.org/1999/xlink" x="0px" y="0px"
	 viewBox="0 0 652 652" style="enable-background:new 0 0 652 652;" xml:space="preserve">
<style type="text/css">
	.st0{fill:#333333;}
</style>
<path class="st0" d="M162.1,277c24.6,0,43.2,18.6,43.2,42c0,23.4-18.6,42-43.2,42s-43.2-18.6-43.2-42
	C118.8,295.6,137.5,277,162.1,277z M162.1,341.2c12.6,0,21.6-9.6,21.6-22.2s-8.4-22.2-21.6-22.2c-13.2,0-21.6,10.2-21.6,22.2
	C140.5,331,148.9,341.2,162.1,341.2z M294.8,278.8v81.1h-21v-6.6c-6.6,5.4-13.8,8.4-21.6,8.4c-11.4,0-21-5.4-27.6-13.2
	c-5.4-6.6-8.4-14.4-8.4-27v-42.6h21.6v43.8c0,7.2,1.8,10.8,4.2,13.8c3.6,3.6,7.8,4.8,12,4.8c9,0,15.6-6,18.6-10.2v-52.3H294.8z
	 M312.2,359.8v-81.1h21v6.6c6-4.8,13.8-8.4,22.8-8.4c11.4,0,21.6,4.8,28.2,13.2c5.4,6.6,8.4,14.4,8.4,28.2v41.4h-21.6v-43.2
	c0-7.8-1.8-12-4.8-15c-3-3-7.2-4.8-12-4.8c-9,0-16.8,6-19.8,10.2v52.9H312.2z M446.2,277c24.6,0,43.2,18.6,43.2,42
	c0,23.4-18.6,42-43.2,42c-24.6,0-43.2-18.6-43.2-42C402.9,295.6,421.5,277,446.2,277z M446.2,341.2c12.6,0,21.6-9.6,21.6-22.2
	s-8.4-22.2-21.6-22.2S424.5,307,424.5,319C424.5,331,433.6,341.2,446.2,341.2z M537.5,359.8h-15l-34.2-81.1h21.6l19.8,47.4
	l20.4-47.4h15l20.4,47.4l19.8-47.4H627l-34.2,81.1h-15l-20.4-47.4L537.5,359.8z M52.8,374.2h22.8l43.8-95.5H96.6l-22.2,48.6
	L51,278.8H27l36,72.7L52.8,374.2z"/>
</svg>
